M48
; DRILL file {KiCad 7.0.8} date Wed Feb 14 15:02:02 2024
; FORMAT={-:-/ absolute / inch / decimal}
; #@! TF.CreationDate,2024-02-14T15:02:02+02:00
; #@! TF.GenerationSoftware,Kicad,Pcbnew,7.0.8
; #@! TF.FileFunction,NonPlated,1,6,NPTH
FMAT,2
INCH
; #@! TA.AperFunction,NonPlated,NPTH,ComponentDrill
T1C0.0402
; #@! TA.AperFunction,NonPlated,NPTH,ComponentDrill
T2C0.0669
; #@! TA.AperFunction,NonPlated,NPTH,ComponentDrill
T3C0.0709
%
G90
G05
T1
X4.0051Y-4.05
X4.0051Y-4.15
X4.0051Y-4.25
X4.0051Y-4.35
X4.0051Y-4.45
X4.0051Y-4.55
X4.0051Y-4.65
X4.0051Y-4.75
X4.0051Y-4.85
X4.0051Y-4.95
X4.0051Y-5.05
X4.0051Y-5.15
X4.0051Y-5.25
X4.0051Y-5.35
X4.0051Y-5.45
X4.0051Y-5.55
X4.0051Y-5.65
X4.0051Y-5.75
X4.0051Y-5.85
X4.0051Y-5.95
X4.1051Y-4.05
X4.1051Y-4.15
X4.1051Y-4.25
X4.1051Y-4.35
X4.1051Y-4.45
X4.1051Y-4.55
X4.1051Y-4.65
X4.1051Y-4.75
X4.1051Y-4.85
X4.1051Y-4.95
X4.1051Y-5.05
X4.1051Y-5.15
X4.1051Y-5.25
X4.1051Y-5.35
X4.1051Y-5.45
X4.1051Y-5.55
X4.1051Y-5.65
X4.1051Y-5.75
X4.1051Y-5.85
X4.1051Y-5.95
T2
X3.2656Y-2.0839
T3
X4.0551Y-4.1
X4.0551Y-5.9
T0
M30
