%TF.GenerationSoftware,KiCad,Pcbnew,7.0.9*%
%TF.CreationDate,2024-01-29T23:53:48+02:00*%
%TF.ProjectId,ESLGSU,45534c47-5355-42e6-9b69-6361645f7063,rev?*%
%TF.SameCoordinates,Original*%
%TF.FileFunction,Copper,L4,Inr*%
%TF.FilePolarity,Positive*%
%FSLAX46Y46*%
G04 Gerber Fmt 4.6, Leading zero omitted, Abs format (unit mm)*
G04 Created by KiCad (PCBNEW 7.0.9) date 2024-01-29 23:53:48*
%MOMM*%
%LPD*%
G01*
G04 APERTURE LIST*
%TA.AperFunction,ComponentPad*%
%ADD10C,0.400000*%
%TD*%
%TA.AperFunction,ComponentPad*%
%ADD11C,2.500000*%
%TD*%
%TA.AperFunction,ComponentPad*%
%ADD12O,1.400000X2.800000*%
%TD*%
%TA.AperFunction,ComponentPad*%
%ADD13O,2.600000X1.400000*%
%TD*%
%TA.AperFunction,ViaPad*%
%ADD14C,0.450000*%
%TD*%
%TA.AperFunction,ViaPad*%
%ADD15C,0.400000*%
%TD*%
%TA.AperFunction,Conductor*%
%ADD16C,0.254000*%
%TD*%
G04 APERTURE END LIST*
D10*
%TO.N,Net-(U26-EN)*%
%TO.C,U28*%
X90536000Y-71250400D03*
%TO.N,/System_Power/VBAT*%
X90536000Y-71950400D03*
%TO.N,/System_Power/POWER_IN*%
X91336000Y-71950400D03*
%TO.N,Net-(U26-EN)*%
X91336000Y-71250400D03*
%TD*%
D11*
%TO.N,/System_Power/POWER_IN*%
%TO.C,J1*%
X73021600Y-88188800D03*
D12*
%TO.N,GNDA*%
X66371600Y-88188800D03*
D13*
X62321600Y-94188800D03*
X67521600Y-94188800D03*
X62321600Y-82188800D03*
X67521600Y-82188800D03*
%TD*%
D14*
%TO.N,Net-(U2-D)*%
X103692600Y-80822800D03*
X103692600Y-79502000D03*
X103692600Y-80162400D03*
%TO.N,GNDA*%
X104546400Y-83566000D03*
X99822000Y-83566000D03*
X96469200Y-83566000D03*
%TO.N,/SYS_5V*%
X96469200Y-78892400D03*
%TO.N,GNDA*%
X102209600Y-85344000D03*
X97586800Y-82550000D03*
%TO.N,Net-(Q6-G)*%
X97790000Y-81432400D03*
X103174800Y-85344000D03*
%TO.N,/SYS_5V*%
X101361200Y-89473200D03*
%TO.N,GNDA*%
X96840000Y-87286800D03*
%TO.N,Net-(U2-D)*%
X93218000Y-80670400D03*
X93218000Y-80010000D03*
X93218000Y-79349600D03*
%TO.N,/SYS_5V*%
X85994600Y-78740000D03*
X90886600Y-89320800D03*
%TO.N,GNDA*%
X86365400Y-87134400D03*
%TO.N,Net-(Q5-G)*%
X87315400Y-81280000D03*
X92700200Y-85191600D03*
%TO.N,GNDA*%
X94071800Y-83413600D03*
X91735000Y-85191600D03*
X89347400Y-83413600D03*
X85994600Y-83413600D03*
X87112200Y-82397600D03*
X90093900Y-70464400D03*
X91821100Y-70464400D03*
X91414700Y-73918800D03*
X90451500Y-73918800D03*
X91922700Y-72750400D03*
X90043100Y-72750400D03*
%TO.N,/SYS_5V*%
X56950000Y-69750000D03*
%TO.N,GND*%
X130950000Y-139050000D03*
X94550000Y-93710000D03*
X96150000Y-132700000D03*
X136350000Y-67700000D03*
X97050000Y-96860000D03*
X133325000Y-96675000D03*
X136500000Y-92200000D03*
X99100000Y-96910000D03*
X96451200Y-111861600D03*
X97050000Y-95010000D03*
X97608015Y-102822400D03*
X99150000Y-121650000D03*
X94964212Y-140379498D03*
X133175000Y-72175000D03*
X96081812Y-140379498D03*
X98000000Y-96860000D03*
X97568800Y-111861600D03*
X96150000Y-134550000D03*
X93300000Y-151950000D03*
X99550000Y-114757200D03*
X92801500Y-133121400D03*
X100350000Y-97510000D03*
X136500000Y-116400000D03*
X96095600Y-115570000D03*
X96134815Y-106530800D03*
X98063012Y-143275098D03*
X99150000Y-125350000D03*
X98050000Y-154800000D03*
X130750000Y-66200000D03*
X133325000Y-120875000D03*
X130900000Y-114900000D03*
X133375000Y-145025000D03*
X130900000Y-90700000D03*
X94608612Y-144087898D03*
X98551500Y-136121400D03*
X136550000Y-140550000D03*
X94500000Y-122950000D03*
X99589215Y-105718000D03*
X95150000Y-134550000D03*
X95150000Y-132700000D03*
X100350000Y-93460000D03*
X96490415Y-102822400D03*
X98000000Y-95010000D03*
X101250000Y-123000000D03*
D15*
%TO.N,GNDA*%
X123103503Y-106200000D03*
X124350000Y-154550000D03*
X121750000Y-81700000D03*
X123700000Y-106200000D03*
X123103503Y-130400000D03*
X107400000Y-121500000D03*
D14*
X135900000Y-123800000D03*
D15*
X123750000Y-154550000D03*
X107400000Y-123700000D03*
X116000000Y-123700000D03*
D14*
X129900000Y-123400000D03*
D15*
X124300000Y-106200000D03*
D14*
X129750000Y-74700000D03*
D15*
X122500000Y-130400000D03*
X116000000Y-121500000D03*
X107400000Y-122600000D03*
D14*
X129950000Y-147550000D03*
D15*
X107400000Y-98400000D03*
D14*
X129900000Y-99200000D03*
D15*
X123700000Y-130400000D03*
X115850000Y-75000000D03*
X107450000Y-147850000D03*
X107250000Y-73900000D03*
X121900000Y-106200000D03*
X116000000Y-98400000D03*
X116050000Y-147850000D03*
X122550000Y-154550000D03*
X107250000Y-72800000D03*
X107450000Y-145650000D03*
X107450000Y-146750000D03*
X116050000Y-145650000D03*
X107250000Y-75000000D03*
X121950000Y-154550000D03*
X123153503Y-154550000D03*
X116000000Y-97300000D03*
D14*
X135750000Y-75100000D03*
D15*
X107400000Y-99500000D03*
X115850000Y-73900000D03*
X116000000Y-122600000D03*
X123550000Y-81700000D03*
D14*
X135900000Y-99600000D03*
D15*
X115850000Y-72800000D03*
X124150000Y-81700000D03*
X122953503Y-81700000D03*
X107400000Y-97300000D03*
X124300000Y-130400000D03*
X116050000Y-146750000D03*
X122500000Y-106200000D03*
X121900000Y-130400000D03*
X122350000Y-81700000D03*
X116000000Y-99500000D03*
D14*
X135950000Y-147950000D03*
D15*
%TO.N,/Fixed_Regulators/EN_3V3*%
X111825000Y-75400000D03*
X110235000Y-73900000D03*
D14*
%TO.N,/Fixed_Regulators/SCL_3V3*%
X131250000Y-69600000D03*
D15*
X120050000Y-84900000D03*
D14*
%TO.N,/Fixed_Regulators/SDA_3V3*%
X131050000Y-70600000D03*
D15*
X120050000Y-86100000D03*
D14*
%TO.N,Net-(Q1-G)*%
X131750000Y-76060000D03*
X134150000Y-67690000D03*
D15*
%TO.N,/BUS_UNREG*%
X114800000Y-95100000D03*
X114850000Y-143450000D03*
X113100000Y-119500000D03*
X112950000Y-70800000D03*
X114800000Y-119300000D03*
X110800000Y-95400000D03*
X110650000Y-70900000D03*
X110850000Y-143750000D03*
X114650000Y-70600000D03*
X113900000Y-96000000D03*
X113750000Y-71500000D03*
X107800000Y-119200000D03*
X107850000Y-143350000D03*
X107800000Y-95000000D03*
X113950000Y-144350000D03*
X110800000Y-119600000D03*
X113150000Y-143650000D03*
X113900000Y-120200000D03*
X113100000Y-95300000D03*
X107650000Y-70500000D03*
D14*
%TO.N,/SYS_3V3*%
X135450000Y-70200000D03*
D15*
X119250000Y-157750000D03*
X119050000Y-83700000D03*
D14*
X135400000Y-93200000D03*
D15*
X119050000Y-86100000D03*
X119200000Y-134800000D03*
X119200000Y-110600000D03*
D14*
X135450000Y-141550000D03*
D15*
X119050000Y-84900000D03*
X119200000Y-108200000D03*
D14*
X135650000Y-143050000D03*
X135250000Y-68700000D03*
D15*
X119200000Y-132400000D03*
X119200000Y-133600000D03*
X119250000Y-158950000D03*
D14*
X74100000Y-69150000D03*
D15*
X119250000Y-156550000D03*
D14*
X135600000Y-118900000D03*
X135600000Y-94700000D03*
X135400000Y-117400000D03*
D15*
X119200000Y-109400000D03*
%TO.N,Net-(U10-OUT)*%
X118050000Y-80200000D03*
X110550000Y-77400000D03*
X114750000Y-79600000D03*
X110850000Y-79900000D03*
X114950000Y-76400000D03*
X114850000Y-77800000D03*
D14*
%TO.N,Net-(U11-IN)*%
X134450000Y-80350000D03*
D15*
X126950000Y-86100000D03*
D14*
X136650000Y-80350000D03*
X132250000Y-80350000D03*
X130050000Y-80350000D03*
X127850000Y-80350000D03*
D15*
%TO.N,Net-(U14-OUT)*%
X110700000Y-101900000D03*
X115100000Y-100900000D03*
X114900000Y-104100000D03*
X118200000Y-104700000D03*
X115000000Y-102300000D03*
X111000000Y-104400000D03*
D14*
%TO.N,Net-(U15-IN)*%
X134600000Y-104850000D03*
X136800000Y-104850000D03*
D15*
X127100000Y-110600000D03*
D14*
X130200000Y-104850000D03*
X132400000Y-104850000D03*
X128000000Y-104850000D03*
%TO.N,Net-(Q2-G)*%
X134300000Y-92190000D03*
X131900000Y-100560000D03*
D15*
%TO.N,/Fixed_Regulators/EN_5V*%
X110385000Y-98400000D03*
X111975000Y-99900000D03*
%TO.N,/Fixed_Regulators/INT_3V3*%
X120050000Y-83700000D03*
%TO.N,/Fixed_Regulators/INT_5V*%
X120200000Y-108200000D03*
D14*
%TO.N,/Fixed_Regulators/SCL_5V*%
X131400000Y-94100000D03*
D15*
X120200000Y-109400000D03*
D14*
%TO.N,/Fixed_Regulators/SDA_5V*%
X131200000Y-95100000D03*
D15*
X120200000Y-110600000D03*
%TO.N,/Programmable_Regulators/EN_CH1*%
X111975000Y-124100000D03*
X110385000Y-122600000D03*
%TO.N,Net-(U18-OUT)*%
X111000000Y-128600000D03*
X110700000Y-126100000D03*
X115100000Y-125100000D03*
X114900000Y-128300000D03*
X118200000Y-128900000D03*
X115000000Y-126500000D03*
%TO.N,/Programmable_Regulators/EN_CH2*%
X110435000Y-146750000D03*
X112025000Y-148250000D03*
D14*
%TO.N,Net-(U19-IN)*%
X134600000Y-129050000D03*
X136800000Y-129050000D03*
X130200000Y-129050000D03*
D15*
X127100000Y-134800000D03*
D14*
X128000000Y-129050000D03*
X132400000Y-129050000D03*
D15*
%TO.N,/Programmable_Regulators/INT_CH1*%
X120200000Y-132400000D03*
D14*
%TO.N,/Programmable_Regulators/SCL_CH1*%
X131400000Y-118300000D03*
D15*
X120200000Y-133600000D03*
D14*
%TO.N,/Programmable_Regulators/SDA_CH1*%
X131200000Y-119300000D03*
D15*
X120200000Y-134800000D03*
%TO.N,/Programmable_Regulators/INT_CH2*%
X120250000Y-156550000D03*
%TO.N,/Programmable_Regulators/SCL_CH2*%
X120250000Y-157750000D03*
D14*
X131450000Y-142450000D03*
%TO.N,/Programmable_Regulators/SDA_CH2*%
X131250000Y-143450000D03*
D15*
X120250000Y-158950000D03*
%TO.N,Net-(U22-OUT)*%
X118250000Y-153050000D03*
X115050000Y-150650000D03*
X114950000Y-152450000D03*
X111050000Y-152750000D03*
X115150000Y-149250000D03*
X110750000Y-150250000D03*
D14*
%TO.N,Net-(U23-IN)*%
X130250000Y-153200000D03*
X136850000Y-153200000D03*
D15*
X127150000Y-158950000D03*
D14*
X132450000Y-153200000D03*
X134650000Y-153200000D03*
X128050000Y-153200000D03*
%TO.N,Net-(Q3-G)*%
X131900000Y-124760000D03*
X134300000Y-116390000D03*
%TO.N,Net-(Q4-G)*%
X131950000Y-148910000D03*
X134350000Y-140540000D03*
D15*
%TO.N,Net-(U10-PG)*%
X109205000Y-75000000D03*
X120050000Y-82800000D03*
X110925000Y-74900000D03*
%TO.N,Net-(U14-PG)*%
X109355000Y-99500000D03*
X120200000Y-107300000D03*
X111075000Y-99400000D03*
%TO.N,Net-(U18-PG)*%
X109355000Y-123700000D03*
X111075000Y-123600000D03*
X120200000Y-131500000D03*
%TO.N,Net-(U22-PG)*%
X120250000Y-155650000D03*
X109405000Y-147850000D03*
X111125000Y-147750000D03*
D14*
%TO.N,/Main_uC/SYS_5V*%
X92801500Y-134101400D03*
%TO.N,/Main_uC/SYS_3V3*%
X98551500Y-135121400D03*
X94049812Y-140379498D03*
X95536800Y-111861600D03*
X93897412Y-141700298D03*
X95384400Y-113182400D03*
X94250000Y-123550000D03*
X99690815Y-102822400D03*
X98164612Y-140379498D03*
X98050000Y-153800000D03*
X93400000Y-154150000D03*
X95423615Y-104143200D03*
X97400878Y-125750000D03*
X99651600Y-111861600D03*
X95576015Y-102822400D03*
X101250000Y-125050000D03*
X98551500Y-131071400D03*
%TO.N,/Main_uC/VBUS*%
X96908400Y-113182400D03*
X96947615Y-104143200D03*
X101250000Y-122000000D03*
X94300000Y-151950000D03*
X98534000Y-111861600D03*
X97047012Y-140379498D03*
X98573215Y-102822400D03*
X95421412Y-141700298D03*
%TO.N,/Main_uC/GPIO_A_nEN*%
X100656015Y-103432000D03*
%TO.N,/Main_uC/SPI1_MOSI*%
X96539012Y-145154698D03*
X98113812Y-142360698D03*
%TO.N,/Main_uC/SPI1_SCK*%
X96945412Y-143935498D03*
X97611888Y-145801730D03*
%TO.N,/Main_uC/SPI1_MISO*%
X99485412Y-142970298D03*
X96640612Y-147186698D03*
%TO.N,/Main_uC/UART1_TX*%
X96550000Y-155400000D03*
X96150000Y-153150000D03*
%TO.N,/Main_uC/SPI1_nEN*%
X99129812Y-140989098D03*
%TO.N,/Main_uC/GPIO_B_nEN*%
X100616800Y-112471200D03*
%TO.N,/Main_uC/SPI1_NSS*%
X97351812Y-146373898D03*
X95980212Y-144189498D03*
%TO.N,/Main_uC/GPIO_4*%
X101011615Y-105413200D03*
X98166815Y-109629600D03*
%TO.N,/Main_uC/GPIO_3*%
X98878015Y-108816800D03*
X97506415Y-106632400D03*
%TO.N,/Main_uC/GPIO_2*%
X99138091Y-108244632D03*
X98471615Y-106378400D03*
%TO.N,/Main_uC/GPIO_1*%
X98065215Y-107597600D03*
X99640015Y-104803600D03*
%TO.N,/Main_uC/GPIO_8*%
X98127600Y-118668800D03*
X100972400Y-114452400D03*
%TO.N,/Main_uC/GPIO_7*%
X97467200Y-115671600D03*
X98838800Y-117856000D03*
%TO.N,/Main_uC/GPIO_6*%
X98432400Y-115417600D03*
X99098876Y-117283832D03*
%TO.N,/Main_uC/GPIO_5*%
X98026000Y-116636800D03*
X99600800Y-113842800D03*
%TO.N,Net-(U32-S1A)*%
X95200000Y-151800000D03*
X94950000Y-153650000D03*
%TO.N,Net-(U34-S3B)*%
X100413600Y-115671600D03*
X97518000Y-115011200D03*
%TO.N,/Main_uC/GPIO_B_SHIFT*%
X96095600Y-113182400D03*
X98229200Y-112877600D03*
%TO.N,Net-(U36-B3)*%
X97557215Y-105972000D03*
X100452815Y-106632400D03*
%TO.N,/Main_uC/GPIO_A_SHIFT*%
X98268415Y-103838400D03*
X96134815Y-104143200D03*
%TO.N,Net-(U46-B3)*%
X98926612Y-144189498D03*
X96031012Y-143529098D03*
%TO.N,/Main_uC/SPI1_SHIFT*%
X96742212Y-141395498D03*
X94608612Y-141700298D03*
%TO.N,/Main_uC/_GPIO_6*%
X94419200Y-113893600D03*
X97975200Y-114147600D03*
X96798397Y-117339598D03*
%TO.N,/Main_uC/_GPIO_7*%
X100718400Y-115062000D03*
X96349600Y-117852000D03*
X94368400Y-114604800D03*
%TO.N,/Main_uC/_GPIO_8*%
X96756000Y-118364000D03*
X100667600Y-113385600D03*
X94622400Y-115316000D03*
%TO.N,/Main_uC/_GPIO_2*%
X98014415Y-105108400D03*
X96837612Y-108300398D03*
X94458415Y-104854400D03*
%TO.N,/Main_uC/_GPIO_3*%
X96388815Y-108812800D03*
X94407615Y-105565600D03*
X100757615Y-106022800D03*
%TO.N,/Main_uC/_GPIO_4*%
X94661615Y-106276800D03*
X100706815Y-104346400D03*
X96795215Y-109324800D03*
%TO.N,/Main_uC/_SPI1_SCK*%
X96488212Y-142665498D03*
X95311409Y-145857496D03*
X92932212Y-142411498D03*
%TO.N,/Main_uC/_SPI1_NSS*%
X92881412Y-143122698D03*
X94862612Y-146369898D03*
X99231412Y-143579898D03*
%TO.N,/Main_uC/_SPI1_MISO*%
X99180612Y-141903498D03*
X93135412Y-143833898D03*
X95269012Y-146881898D03*
%TD*%
D16*
%TO.N,/SYS_3V3*%
X134599052Y-143050000D02*
X135650000Y-143050000D01*
X124700000Y-129500000D02*
X126700000Y-127500000D01*
X134549052Y-118900000D02*
X135600000Y-118900000D01*
X130500000Y-122949052D02*
X134549052Y-118900000D01*
X119050000Y-83700000D02*
X119050000Y-83049052D01*
X119050000Y-83700000D02*
X119050000Y-86100000D01*
X119200000Y-132400000D02*
X119200000Y-131749052D01*
X124700000Y-105300000D02*
X126700000Y-103300000D01*
X124550000Y-80800000D02*
X126550000Y-78800000D01*
X129200000Y-127500000D02*
X130500000Y-126200000D01*
X119200000Y-131749052D02*
X121449052Y-129500000D01*
X126700000Y-127500000D02*
X129200000Y-127500000D01*
X130500000Y-126200000D02*
X130500000Y-122949052D01*
X119200000Y-107549052D02*
X121449052Y-105300000D01*
X126750000Y-151650000D02*
X129250000Y-151650000D01*
X130500000Y-98749052D02*
X134549052Y-94700000D01*
X121499052Y-153650000D02*
X124750000Y-153650000D01*
X130550000Y-147099052D02*
X134599052Y-143050000D01*
X129050000Y-78800000D02*
X130350000Y-77500000D01*
X119200000Y-108200000D02*
X119200000Y-110600000D01*
X121449052Y-129500000D02*
X124700000Y-129500000D01*
X134549052Y-94700000D02*
X135600000Y-94700000D01*
X119050000Y-83049052D02*
X121299052Y-80800000D01*
X130350000Y-77500000D02*
X130350000Y-74249052D01*
X119250000Y-155899052D02*
X121499052Y-153650000D01*
X130500000Y-102000000D02*
X130500000Y-98749052D01*
X126550000Y-78800000D02*
X129050000Y-78800000D01*
X124750000Y-153650000D02*
X126750000Y-151650000D01*
X129200000Y-103300000D02*
X130500000Y-102000000D01*
X119250000Y-156550000D02*
X119250000Y-158950000D01*
X134399052Y-70200000D02*
X135450000Y-70200000D01*
X130350000Y-74249052D02*
X134399052Y-70200000D01*
X121299052Y-80800000D02*
X124550000Y-80800000D01*
X129250000Y-151650000D02*
X130550000Y-150350000D01*
X119200000Y-132400000D02*
X119200000Y-134800000D01*
X119250000Y-156550000D02*
X119250000Y-155899052D01*
X119200000Y-108200000D02*
X119200000Y-107549052D01*
X130550000Y-150350000D02*
X130550000Y-147099052D01*
X126700000Y-103300000D02*
X129200000Y-103300000D01*
X121449052Y-105300000D02*
X124700000Y-105300000D01*
%TO.N,/Main_uC/VBUS*%
X97047012Y-140379498D02*
X94026812Y-137359298D01*
X96947615Y-104143200D02*
X97212667Y-104143200D01*
X95686464Y-141700298D02*
X97007264Y-140379498D01*
X97173452Y-113182400D02*
X98494252Y-111861600D01*
X95421412Y-141700298D02*
X95686464Y-141700298D01*
X95513800Y-108841400D02*
X95513800Y-105577015D01*
X97212667Y-104143200D02*
X98533467Y-102822400D01*
X98534000Y-111861600D02*
X95513800Y-108841400D01*
X96908400Y-113182400D02*
X97173452Y-113182400D01*
X95513800Y-105577015D02*
X96947615Y-104143200D01*
%TD*%
M02*
