M48
; DRILL file {KiCad 7.0.9} date Mon Jan 29 23:54:07 2024
; FORMAT={-:-/ absolute / inch / decimal}
; #@! TF.CreationDate,2024-01-29T23:54:07+02:00
; #@! TF.GenerationSoftware,Kicad,Pcbnew,7.0.9
; #@! TF.FileFunction,NonPlated,1,6,NPTH
FMAT,2
INCH
; #@! TA.AperFunction,NonPlated,NPTH,ComponentDrill
T1C0.0402
; #@! TA.AperFunction,NonPlated,NPTH,ComponentDrill
T2C0.0669
; #@! TA.AperFunction,NonPlated,NPTH,ComponentDrill
T3C0.0709
; #@! TA.AperFunction,NonPlated,NPTH,ComponentDrill
T4C0.0984
%
G90
G05
T1
X3.1982Y-4.1388
X3.1982Y-4.2388
X3.1982Y-4.3388
X3.1982Y-4.4388
X3.1982Y-4.5388
X3.1982Y-4.6388
X3.1982Y-4.7388
X3.1982Y-4.8388
X3.1982Y-4.9388
X3.1982Y-5.0388
X3.1982Y-5.1388
X3.1982Y-5.2388
X3.1982Y-5.3388
X3.1982Y-5.4388
X3.1982Y-5.5388
X3.1982Y-5.6388
X3.1982Y-5.7388
X3.1982Y-5.8388
X3.1982Y-5.9388
X3.1982Y-6.0388
X3.2982Y-4.1388
X3.2982Y-4.2388
X3.2982Y-4.3388
X3.2982Y-4.4388
X3.2982Y-4.5388
X3.2982Y-4.6388
X3.2982Y-4.7388
X3.2982Y-4.8388
X3.2982Y-4.9388
X3.2982Y-5.0388
X3.2982Y-5.1388
X3.2982Y-5.2388
X3.2982Y-5.3388
X3.2982Y-5.4388
X3.2982Y-5.5388
X3.2982Y-5.6388
X3.2982Y-5.7388
X3.2982Y-5.8388
X3.2982Y-5.9388
X3.2982Y-6.0388
T2
X2.4162Y-3.472
T3
X3.2482Y-4.1888
X3.2482Y-5.9888
T4
X2.3427Y-3.947
X2.3427Y-6.2305
X3.2482Y-3.947
X3.2482Y-6.2305
T0
M30
