%TF.GenerationSoftware,KiCad,Pcbnew,7.0.8*%
%TF.CreationDate,2024-02-14T15:01:56+02:00*%
%TF.ProjectId,ESLGSU,45534c47-5355-42e6-9b69-6361645f7063,rev?*%
%TF.SameCoordinates,Original*%
%TF.FileFunction,Copper,L4,Inr*%
%TF.FilePolarity,Positive*%
%FSLAX46Y46*%
G04 Gerber Fmt 4.6, Leading zero omitted, Abs format (unit mm)*
G04 Created by KiCad (PCBNEW 7.0.8) date 2024-02-14 15:01:56*
%MOMM*%
%LPD*%
G01*
G04 APERTURE LIST*
%TA.AperFunction,ComponentPad*%
%ADD10C,5.000000*%
%TD*%
%TA.AperFunction,ComponentPad*%
%ADD11C,1.500000*%
%TD*%
%TA.AperFunction,ComponentPad*%
%ADD12O,0.800000X1.600000*%
%TD*%
%TA.AperFunction,ComponentPad*%
%ADD13O,1.500000X0.750000*%
%TD*%
%TA.AperFunction,ComponentPad*%
%ADD14C,5.600000*%
%TD*%
%TA.AperFunction,ComponentPad*%
%ADD15C,2.500000*%
%TD*%
%TA.AperFunction,ComponentPad*%
%ADD16O,1.400000X2.800000*%
%TD*%
%TA.AperFunction,ComponentPad*%
%ADD17O,2.600000X1.400000*%
%TD*%
%TA.AperFunction,ViaPad*%
%ADD18C,0.450000*%
%TD*%
%TA.AperFunction,Conductor*%
%ADD19C,1.000000*%
%TD*%
%TA.AperFunction,Conductor*%
%ADD20C,2.000000*%
%TD*%
%TA.AperFunction,Conductor*%
%ADD21C,0.508000*%
%TD*%
%TA.AperFunction,Conductor*%
%ADD22C,0.254000*%
%TD*%
G04 APERTURE END LIST*
D10*
%TO.N,Net-(H1-Pad1)*%
%TO.C,H2*%
X216200000Y-37000000D03*
%TD*%
D11*
%TO.N,/Misc_uC_Combined/M1VBUS*%
%TO.C,U93*%
X203955000Y-144820000D03*
%TD*%
D10*
%TO.N,GND*%
%TO.C,U72*%
X80000000Y-98000000D03*
X80000000Y-156000000D03*
X103000000Y-98000000D03*
X103000000Y-156000000D03*
%TD*%
D12*
%TO.N,GND*%
%TO.C,J5*%
X82170000Y-129430000D03*
X82170000Y-134430000D03*
D13*
X79470000Y-128405000D03*
X79470000Y-135455000D03*
%TD*%
D10*
%TO.N,Net-(H1-Pad1)*%
%TO.C,H1*%
X80000000Y-37000000D03*
%TD*%
D14*
%TO.N,/System_Power/VBAT*%
%TO.C,J2*%
X90545000Y-66580000D03*
%TO.N,GND*%
X83345000Y-66580000D03*
%TD*%
D15*
%TO.N,/System_Power/POWER_IN*%
%TO.C,J1*%
X94595000Y-52930000D03*
D16*
%TO.N,GND*%
X87945000Y-52930000D03*
D17*
X83895000Y-58930000D03*
X89095000Y-58930000D03*
X83895000Y-46930000D03*
X89095000Y-46930000D03*
%TD*%
D12*
%TO.N,GND*%
%TO.C,J7*%
X82170000Y-140580000D03*
X82170000Y-145580000D03*
D13*
X79470000Y-139555000D03*
X79470000Y-146605000D03*
%TD*%
D10*
%TO.N,Net-(H1-Pad1)*%
%TO.C,H3*%
X216200000Y-156000000D03*
%TD*%
D18*
%TO.N,/SYS_5V*%
X138000000Y-52000000D03*
X144600000Y-75800000D03*
X139195000Y-54580000D03*
X121645000Y-64667500D03*
X192320000Y-81730000D03*
X127545000Y-49480000D03*
X106535000Y-103255000D03*
X139000000Y-52000000D03*
X168310799Y-134930600D03*
X200320000Y-81705000D03*
X127095000Y-129930000D03*
X149877249Y-81805000D03*
X106535000Y-105855000D03*
X143800000Y-75800000D03*
X138127249Y-81830000D03*
X128095000Y-70030000D03*
X136224749Y-133935600D03*
X138000000Y-51000000D03*
X127095000Y-128930000D03*
X105535000Y-103255000D03*
X167710799Y-134330600D03*
X105535000Y-105855000D03*
X129245000Y-50280000D03*
X150110799Y-137630600D03*
X121620000Y-43580000D03*
%TO.N,GND*%
X201020000Y-112555000D03*
X79520000Y-132930000D03*
X138145000Y-67480000D03*
X160145000Y-68730000D03*
X148400000Y-79150000D03*
X212645000Y-117905000D03*
X180901564Y-143880600D03*
X79470000Y-142230000D03*
X196545000Y-50400000D03*
X202230000Y-94425000D03*
X99335000Y-133755000D03*
X199200000Y-59800000D03*
X159495000Y-50130000D03*
X127399749Y-151435600D03*
X211995000Y-47030000D03*
X212895000Y-47830000D03*
X88350000Y-131900000D03*
X171006564Y-125785600D03*
X169330000Y-98490000D03*
X107945000Y-62180000D03*
X121645000Y-63687500D03*
X146650000Y-130400000D03*
X165795000Y-50330000D03*
X148400000Y-78250000D03*
X107945000Y-60080000D03*
X159445000Y-68330000D03*
X135704549Y-152830800D03*
X166745000Y-62730000D03*
X139119749Y-144830600D03*
X105535000Y-108355000D03*
X136545000Y-57080000D03*
X169895000Y-50330000D03*
X211845000Y-69880000D03*
X108945000Y-60080000D03*
X168795000Y-50330000D03*
X199645000Y-44480000D03*
X195245000Y-68800000D03*
X173345000Y-61030000D03*
X134804549Y-150330800D03*
X122449749Y-138085600D03*
X154592700Y-104476000D03*
X145745000Y-69230000D03*
X154917964Y-123108407D03*
X167845000Y-62730000D03*
X173345000Y-59030000D03*
X213645000Y-69080000D03*
X113049749Y-140935600D03*
X213400000Y-92620000D03*
X106535000Y-118555000D03*
X198645000Y-62730000D03*
X140350000Y-78300000D03*
X130120000Y-48480000D03*
X179006564Y-125785600D03*
X163345000Y-68530000D03*
X126345000Y-55680000D03*
X209700000Y-93020000D03*
X143019749Y-143230600D03*
X138657500Y-103030000D03*
X111857500Y-86230000D03*
X212035000Y-106973600D03*
X79470000Y-143980000D03*
X163331564Y-130994350D03*
X128950000Y-130400000D03*
X197095000Y-125505000D03*
X173950000Y-119130000D03*
X201503600Y-102758800D03*
X172629053Y-78605200D03*
X190945000Y-50480000D03*
X161245000Y-68530000D03*
X107945000Y-55080000D03*
X212895000Y-47030000D03*
X197800000Y-42200000D03*
X144295000Y-42030000D03*
X193100000Y-79050000D03*
X115330000Y-98490000D03*
X142545000Y-61030000D03*
X103345000Y-46180000D03*
X97845000Y-62280000D03*
X97845000Y-65380000D03*
X173050000Y-129400000D03*
X178101564Y-144280600D03*
X196630000Y-102490000D03*
X149360300Y-107016000D03*
X213607500Y-138680000D03*
X136545000Y-66280000D03*
X173950000Y-120830000D03*
X166845000Y-57130000D03*
X83470000Y-143080000D03*
X186045000Y-50280000D03*
X197445000Y-50280000D03*
X213607500Y-133680000D03*
X151995000Y-50330000D03*
X149995000Y-50230000D03*
X190781564Y-133985600D03*
X115330000Y-93090000D03*
X176545000Y-51880000D03*
X108245000Y-47480000D03*
X179650000Y-129400000D03*
X196630000Y-90590000D03*
X145745000Y-68330000D03*
X105535000Y-143955000D03*
X135745000Y-65080000D03*
X192030000Y-112890000D03*
X181145000Y-51280000D03*
X135145000Y-56880000D03*
X160757500Y-100330000D03*
X135419749Y-145230600D03*
X153931564Y-144335600D03*
X166745000Y-63530000D03*
X173345000Y-62030000D03*
X197645000Y-57130000D03*
X112477364Y-123864800D03*
X115330000Y-106590000D03*
X206945000Y-61480000D03*
X186730000Y-112890000D03*
X119577364Y-116564800D03*
X144499749Y-126735600D03*
X199545000Y-68530000D03*
X171195000Y-42130000D03*
X168345000Y-69530000D03*
X181645000Y-50180000D03*
X145345000Y-50130000D03*
X181645000Y-68430000D03*
X163131564Y-137135600D03*
X201920000Y-117955000D03*
X161295000Y-50330000D03*
X133349749Y-154685600D03*
X155250000Y-78300000D03*
X181050000Y-129400000D03*
X170050000Y-119430000D03*
X163257500Y-93030000D03*
X121645000Y-61667500D03*
X208795000Y-54030000D03*
X138950000Y-79200000D03*
X190245000Y-68330000D03*
X168395000Y-51330000D03*
X101500000Y-58000000D03*
X203130000Y-92625000D03*
X138450000Y-131250000D03*
X154930000Y-114580000D03*
X193045000Y-68530000D03*
X132845000Y-67167500D03*
X106535000Y-108355000D03*
X187900000Y-130400000D03*
X130777500Y-74992500D03*
X167845000Y-68530000D03*
X132945000Y-63680000D03*
X119157500Y-105530000D03*
X182606564Y-133985600D03*
X112099749Y-140935600D03*
X125977500Y-71292500D03*
X170395000Y-51330000D03*
X181050000Y-130300000D03*
X101445000Y-56130000D03*
X168895000Y-45330000D03*
X196445000Y-62730000D03*
X199645000Y-63530000D03*
X213507500Y-136180000D03*
X187181564Y-125785600D03*
X194709564Y-150188800D03*
X121449749Y-155485600D03*
X196445000Y-44480000D03*
X196630000Y-97090000D03*
X212500000Y-92620000D03*
X161755000Y-112130000D03*
X201145000Y-51280000D03*
X98845000Y-62280000D03*
X148099749Y-134935600D03*
X192120000Y-117455000D03*
X131345000Y-60080000D03*
X144730000Y-115480000D03*
X98845000Y-65380000D03*
X201100000Y-79050000D03*
X126630000Y-85690000D03*
X171650000Y-130300000D03*
X206995000Y-54830000D03*
X127320000Y-41180000D03*
X137050000Y-130350000D03*
X150145000Y-62030000D03*
X135545000Y-44780000D03*
X189745000Y-50480000D03*
X171145000Y-60330000D03*
X108945000Y-54080000D03*
X170906564Y-133985600D03*
X199545000Y-50280000D03*
X145690000Y-93100000D03*
X126345000Y-50680000D03*
X179729053Y-71305200D03*
X132345000Y-58880000D03*
X187900000Y-129500000D03*
X111249749Y-145285600D03*
X173050000Y-130300000D03*
X108945000Y-63180000D03*
X180945000Y-43780000D03*
X105535000Y-126155000D03*
X178050000Y-69250000D03*
X113877364Y-127364800D03*
X108945000Y-52980000D03*
X180745000Y-68430000D03*
X115330000Y-92090000D03*
X156650000Y-78300000D03*
X148370149Y-151240400D03*
X107945000Y-54080000D03*
X130350000Y-131300000D03*
X145745000Y-70130000D03*
X173345000Y-60030000D03*
X97845000Y-63280000D03*
X192169564Y-146836000D03*
X204653200Y-101031600D03*
X188120000Y-119055000D03*
X138219749Y-144830600D03*
X139119749Y-146630600D03*
X211995000Y-47830000D03*
X197545000Y-62730000D03*
X107945000Y-61080000D03*
X142595000Y-42830000D03*
X213795000Y-47030000D03*
X194145000Y-50280000D03*
X150935100Y-104577600D03*
X113157500Y-86230000D03*
X196545000Y-68530000D03*
X132849749Y-143085600D03*
X154145000Y-68530000D03*
X217267400Y-104433600D03*
X145745000Y-71030000D03*
X132545000Y-54680000D03*
X197545000Y-63530000D03*
X144530000Y-120080000D03*
X98745000Y-60780000D03*
X169531564Y-154535600D03*
X176545000Y-50980000D03*
X199020000Y-114955000D03*
X181145000Y-69530000D03*
X210545000Y-39630000D03*
X213507500Y-143680000D03*
X176545000Y-52780000D03*
X196630000Y-91590000D03*
X171815000Y-114430000D03*
X98845000Y-64380000D03*
X99092500Y-74605000D03*
X134545000Y-55480000D03*
X118445000Y-66330000D03*
X166180000Y-101790000D03*
X115349749Y-149085600D03*
X162655000Y-114630000D03*
X132730000Y-112890000D03*
X122645000Y-61667500D03*
X192045000Y-68530000D03*
X127849749Y-155485600D03*
X168845000Y-63530000D03*
X152520000Y-116380000D03*
X200020000Y-112555000D03*
X167845000Y-63530000D03*
X149945000Y-68430000D03*
X201545000Y-50280000D03*
X133345000Y-55480000D03*
X172529053Y-81105200D03*
X146795349Y-153678800D03*
X208420000Y-82705000D03*
X139745000Y-58080000D03*
X165230000Y-101790000D03*
X210420000Y-124880000D03*
X130350000Y-130400000D03*
X150395000Y-51330000D03*
X185730000Y-85690000D03*
X121130000Y-112890000D03*
X108945000Y-61080000D03*
X211577800Y-102808000D03*
X169330000Y-104590000D03*
X173345000Y-40780000D03*
X138145000Y-66280000D03*
X163257500Y-94730000D03*
X173345000Y-41780000D03*
X204020000Y-82705000D03*
X207220000Y-125480000D03*
X168845000Y-62730000D03*
X144245000Y-60230000D03*
X109245000Y-47480000D03*
X124377364Y-120264800D03*
X189145000Y-50080000D03*
X107945000Y-63180000D03*
X166795000Y-44530000D03*
X165695000Y-44530000D03*
X198645000Y-68530000D03*
X187320000Y-119055000D03*
X165695000Y-45330000D03*
X206995000Y-54030000D03*
X180220000Y-119425000D03*
X168895000Y-44530000D03*
X201100000Y-78150000D03*
X184945000Y-68530000D03*
X152027749Y-151138800D03*
X140350000Y-79200000D03*
X164495000Y-50330000D03*
X189745000Y-68730000D03*
X194800000Y-50200000D03*
X98845000Y-63280000D03*
X129820000Y-40580000D03*
X213795000Y-47830000D03*
X187081564Y-133985600D03*
X136324749Y-126735600D03*
X207030000Y-96025000D03*
X162131564Y-147585600D03*
X200645000Y-50280000D03*
X169800000Y-69400000D03*
X142545000Y-59030000D03*
X142545000Y-60030000D03*
X148490000Y-92700000D03*
X166895000Y-38930000D03*
X212220000Y-82705000D03*
X197545000Y-45280000D03*
X174130000Y-85790000D03*
X158345000Y-68330000D03*
X120277500Y-82092500D03*
X131545000Y-55280000D03*
X174029053Y-82105200D03*
X175045000Y-41980000D03*
X207895000Y-54030000D03*
X208795000Y-54830000D03*
X169845000Y-68530000D03*
X158395000Y-50130000D03*
X160645000Y-68330000D03*
X108945000Y-55080000D03*
X154017964Y-120608407D03*
X99335000Y-113455000D03*
X176545000Y-68330000D03*
X180630000Y-85690000D03*
X142630000Y-102490000D03*
X170795000Y-50330000D03*
X209350000Y-79050000D03*
X138450000Y-130350000D03*
X134345000Y-64480000D03*
X138219749Y-146630600D03*
X155731564Y-139985600D03*
X198645000Y-45280000D03*
X155245000Y-68530000D03*
X190245000Y-50080000D03*
X156157500Y-93400000D03*
X197445000Y-68530000D03*
X139745000Y-67480000D03*
X198645000Y-50280000D03*
X149390000Y-92700000D03*
X160695000Y-50130000D03*
X165645000Y-62730000D03*
X196445000Y-45280000D03*
X158757500Y-100330000D03*
X208520000Y-74505000D03*
X123130000Y-85690000D03*
X131730000Y-85690000D03*
X190945000Y-68730000D03*
X136224749Y-134935600D03*
X108945000Y-51980000D03*
X199020000Y-112555000D03*
X139924749Y-134935600D03*
X207895000Y-54830000D03*
X104345000Y-46180000D03*
X131545000Y-53880000D03*
X200420000Y-74505000D03*
X131345000Y-52280000D03*
X176545000Y-50080000D03*
X132820000Y-46080000D03*
X138127249Y-82830000D03*
X181730000Y-112890000D03*
X169330000Y-107590000D03*
X200295000Y-124905000D03*
X152995000Y-50330000D03*
X188120000Y-120755000D03*
X199345000Y-54330000D03*
X124445000Y-53380000D03*
X107945000Y-52980000D03*
X142630000Y-97090000D03*
X182745000Y-68530000D03*
X126345000Y-53380000D03*
X166645000Y-68530000D03*
X178750000Y-117530000D03*
X136545000Y-67480000D03*
X100335000Y-113455000D03*
X105535000Y-138855000D03*
X143019749Y-148230600D03*
X193045000Y-50280000D03*
X161657500Y-105730000D03*
X211845000Y-69080000D03*
X159757500Y-100330000D03*
X99092500Y-79805000D03*
X211745000Y-112505000D03*
X165745000Y-68530000D03*
X115330000Y-104590000D03*
X171650000Y-129400000D03*
X187320000Y-120755000D03*
X199645000Y-45280000D03*
X178386364Y-151880800D03*
X154881564Y-144335600D03*
X189145000Y-68330000D03*
X215857500Y-150330000D03*
X176545000Y-69230000D03*
X196445000Y-63530000D03*
X137050000Y-131250000D03*
X199145000Y-51280000D03*
X139445000Y-43780000D03*
X180745000Y-50180000D03*
X169330000Y-93090000D03*
X138657500Y-91030000D03*
X150195000Y-43830000D03*
X207193200Y-104384400D03*
X198645000Y-63530000D03*
X108945000Y-62180000D03*
X202500000Y-79050000D03*
X165570000Y-86330000D03*
X160195000Y-50530000D03*
X109245000Y-46480000D03*
X163395000Y-50330000D03*
X100245000Y-46180000D03*
X154195000Y-50330000D03*
X203130000Y-94425000D03*
X170081564Y-150485600D03*
X121620000Y-42600000D03*
X178050000Y-68350000D03*
X178906564Y-133985600D03*
X100335000Y-151555000D03*
X213400000Y-94420000D03*
X112199749Y-145285600D03*
X101550000Y-57150000D03*
X103812500Y-72505000D03*
X147000000Y-78250000D03*
X197645000Y-38880000D03*
X152052700Y-101123200D03*
X106535000Y-143955000D03*
X201145000Y-69530000D03*
X161742964Y-120658407D03*
X202500000Y-78150000D03*
X183745000Y-68530000D03*
X168545000Y-54330000D03*
X199145000Y-69530000D03*
X183420000Y-119355000D03*
X191030000Y-112890000D03*
X175531564Y-142135600D03*
X145345000Y-51930000D03*
X102345000Y-46180000D03*
X168745000Y-68530000D03*
X115330000Y-107590000D03*
X98745000Y-55780000D03*
X210750000Y-79050000D03*
X201545000Y-68530000D03*
X142595000Y-43830000D03*
X139745000Y-66280000D03*
X193100000Y-78150000D03*
X155295000Y-50330000D03*
X207845000Y-62280000D03*
X168057500Y-91430000D03*
X209745000Y-112505000D03*
X120449749Y-138085600D03*
X159357500Y-93330000D03*
X146338149Y-149513200D03*
X126849749Y-155485600D03*
X207030000Y-91025000D03*
X165645000Y-63530000D03*
X213645000Y-69880000D03*
X173345000Y-43780000D03*
X179650000Y-130300000D03*
X158031564Y-148135600D03*
X132820000Y-47180000D03*
X192670000Y-91030000D03*
X189300000Y-129500000D03*
X183745000Y-50280000D03*
X217300000Y-96020000D03*
X166850000Y-119500000D03*
X191445000Y-50080000D03*
X203535600Y-104486000D03*
X200645000Y-68530000D03*
X149877249Y-82805000D03*
X145345000Y-52830000D03*
X112180000Y-101790000D03*
X146650000Y-131300000D03*
X170745000Y-68530000D03*
X208745000Y-62280000D03*
X138030000Y-112890000D03*
X210750000Y-78150000D03*
X139745000Y-57080000D03*
X197545000Y-44480000D03*
X115330000Y-105590000D03*
X111230000Y-101790000D03*
X192420000Y-74530000D03*
X169330000Y-105590000D03*
X128224749Y-134935600D03*
X181801564Y-143880600D03*
X118877500Y-78592500D03*
X212745000Y-69880000D03*
X99245000Y-46180000D03*
X120649749Y-131944350D03*
X189019964Y-148563200D03*
X156650000Y-79200000D03*
X182745000Y-50280000D03*
X136545000Y-58080000D03*
X173220000Y-105530000D03*
X194500000Y-79050000D03*
X166870000Y-86330000D03*
X206945000Y-62280000D03*
X215757500Y-127530000D03*
X79520000Y-130930000D03*
X127730000Y-112890000D03*
X202230000Y-92625000D03*
X167895000Y-45330000D03*
X132845000Y-68267500D03*
X138145000Y-58080000D03*
X141827249Y-82830000D03*
X208745000Y-61480000D03*
X196295000Y-120905000D03*
X212195000Y-128980000D03*
X191445000Y-68330000D03*
X184945000Y-50280000D03*
X198645000Y-44480000D03*
X168595000Y-36130000D03*
X166695000Y-50330000D03*
X127345000Y-62267500D03*
X142595000Y-40830000D03*
X206420000Y-120880000D03*
X151945000Y-68530000D03*
X162245000Y-68530000D03*
X99335000Y-151555000D03*
X189477164Y-152728800D03*
X170531564Y-154535600D03*
X164057500Y-94730000D03*
X132345000Y-52880000D03*
X199430000Y-93025000D03*
X167895000Y-44530000D03*
X175045000Y-60230000D03*
X185701564Y-147280600D03*
X186045000Y-68530000D03*
X210745000Y-112505000D03*
X121645000Y-49480000D03*
X169330000Y-106590000D03*
X199645000Y-62730000D03*
X164131564Y-154535600D03*
X147000000Y-79150000D03*
X201945000Y-60330000D03*
X122620000Y-40580000D03*
X105535000Y-118555000D03*
X154030000Y-112080000D03*
X214727400Y-101080800D03*
X201945000Y-42080000D03*
X149390000Y-94500000D03*
X138227249Y-74630000D03*
X217300000Y-91020000D03*
X158995000Y-50530000D03*
X176031564Y-153735600D03*
X174606564Y-133985600D03*
X131145000Y-58280000D03*
X154781564Y-139985600D03*
X173345000Y-42780000D03*
X191051964Y-150290400D03*
X184529053Y-75005200D03*
X177486364Y-149380800D03*
X132345000Y-61080000D03*
X153290000Y-91100000D03*
X145250000Y-131300000D03*
X120020000Y-46980000D03*
X121620000Y-40580000D03*
X148903100Y-102850400D03*
X143730000Y-115480000D03*
X201960800Y-106924400D03*
X207420000Y-120880000D03*
X106535000Y-138855000D03*
X213609800Y-104535200D03*
X180901564Y-145680600D03*
X213745000Y-145880000D03*
X180945000Y-62030000D03*
X164445000Y-68530000D03*
X149487749Y-147786000D03*
X145250000Y-130400000D03*
X142630000Y-91590000D03*
X101524167Y-59030869D03*
X177130000Y-85690000D03*
X138145000Y-57080000D03*
X209350000Y-78150000D03*
X148490000Y-94500000D03*
X119449749Y-148535600D03*
X181801564Y-145680600D03*
X138950000Y-78300000D03*
X101959725Y-57583433D03*
X97845000Y-64380000D03*
X158757500Y-102730000D03*
X192045000Y-50280000D03*
X165131564Y-137135600D03*
X162295000Y-50330000D03*
X162642964Y-123158407D03*
X164057500Y-93030000D03*
X213357500Y-148730000D03*
X207845000Y-61480000D03*
X212500000Y-94420000D03*
X199345000Y-36080000D03*
X212745000Y-69080000D03*
X160270000Y-116430000D03*
X100335000Y-133755000D03*
X142545000Y-62030000D03*
X142630000Y-90590000D03*
X107945000Y-51980000D03*
X135145000Y-67080000D03*
X142595000Y-41830000D03*
X193800000Y-68400000D03*
X117842500Y-114480000D03*
X175130000Y-112890000D03*
X150845000Y-68430000D03*
X146277249Y-74605000D03*
X192320000Y-82730000D03*
X130145000Y-69567500D03*
X154527249Y-74630000D03*
X158127249Y-82830000D03*
X152945000Y-68530000D03*
X158945000Y-68730000D03*
X147730000Y-119480000D03*
X101345000Y-46180000D03*
X145345000Y-51030000D03*
X196020000Y-82730000D03*
X128324749Y-126735600D03*
X98745000Y-54780000D03*
X131924749Y-134935600D03*
X167895000Y-50330000D03*
X194500000Y-78150000D03*
X189300000Y-130400000D03*
X137030000Y-112890000D03*
X197295000Y-120905000D03*
X144399749Y-134935600D03*
X185701564Y-142280600D03*
X124445000Y-55680000D03*
X200320000Y-82705000D03*
X213507500Y-141180000D03*
X150895000Y-50230000D03*
X174750000Y-120830000D03*
X106535000Y-126155000D03*
X128950000Y-131300000D03*
X134545000Y-65680000D03*
X120130000Y-85790000D03*
X174750000Y-119130000D03*
X155250000Y-79200000D03*
X166795000Y-45330000D03*
X153290000Y-96100000D03*
X209745000Y-114905000D03*
X108245000Y-46480000D03*
X169330000Y-92090000D03*
%TO.N,/System_Power/POWER_IN*%
X126445000Y-54880000D03*
X127145000Y-54880000D03*
X125816497Y-54880000D03*
X125995000Y-39830000D03*
X125895000Y-38880000D03*
X125345000Y-39480000D03*
%TO.N,/BUS_3V3*%
X213095000Y-91130000D03*
X212220000Y-81705000D03*
X216000000Y-76800000D03*
X207795000Y-49780000D03*
X148099749Y-133935600D03*
X216000000Y-75200000D03*
X174945000Y-39280000D03*
X173145000Y-38480000D03*
X174045000Y-38480000D03*
X207795000Y-48980000D03*
X173145000Y-39280000D03*
X216000000Y-76000000D03*
X206895000Y-48980000D03*
X215245000Y-124130000D03*
X208695000Y-48980000D03*
X190781564Y-132985600D03*
X174045000Y-39280000D03*
X174945000Y-38480000D03*
X208695000Y-49780000D03*
X206895000Y-49780000D03*
X194495000Y-140730000D03*
%TO.N,/Fixed_Regulators/SCL_3V3*%
X136600000Y-72200000D03*
X98400000Y-79200000D03*
X156000000Y-53000000D03*
X165400000Y-37200000D03*
%TO.N,/Fixed_Regulators/SDA_3V3*%
X138600000Y-72200000D03*
X99800000Y-78505000D03*
X165400000Y-38200000D03*
X157000000Y-53000000D03*
%TO.N,/BUS_UNREG*%
X146745000Y-55880000D03*
X146745000Y-57880000D03*
X208795000Y-58980000D03*
X146545000Y-39080000D03*
X176945000Y-38880000D03*
X206995000Y-58980000D03*
X178000000Y-58200000D03*
X145545000Y-38080000D03*
X176945000Y-37880000D03*
X177945000Y-38880000D03*
X178000000Y-57200000D03*
X207845000Y-56530000D03*
X177000000Y-58200000D03*
X208795000Y-59780000D03*
X206995000Y-59780000D03*
X178945000Y-39880000D03*
X177945000Y-39880000D03*
X177000000Y-56200000D03*
X178945000Y-38880000D03*
X145745000Y-55880000D03*
X207895000Y-58980000D03*
X206945000Y-57330000D03*
X206945000Y-56530000D03*
X147545000Y-37080000D03*
X146745000Y-56880000D03*
X147745000Y-55880000D03*
X146545000Y-38080000D03*
X145745000Y-56880000D03*
X145745000Y-57880000D03*
X146545000Y-37080000D03*
X178000000Y-56200000D03*
X179000000Y-57200000D03*
X207845000Y-57330000D03*
X145545000Y-39080000D03*
X147545000Y-38080000D03*
X179000000Y-56200000D03*
X208745000Y-56530000D03*
X207895000Y-59780000D03*
X177000000Y-57200000D03*
X178945000Y-37880000D03*
X147745000Y-56880000D03*
X177945000Y-37880000D03*
X179000000Y-58200000D03*
X208745000Y-57330000D03*
X145545000Y-37080000D03*
X147545000Y-39080000D03*
X147745000Y-57880000D03*
X176945000Y-39880000D03*
%TO.N,/BUS_5V*%
X206995000Y-51530000D03*
X182200000Y-53800000D03*
X214800000Y-71600000D03*
X208795000Y-51530000D03*
X213400000Y-72800000D03*
X176117339Y-128027661D03*
X184000000Y-53800000D03*
X176145000Y-127290000D03*
X183100000Y-54600000D03*
X208795000Y-52330000D03*
X207895000Y-51530000D03*
X182606564Y-132985600D03*
X199025000Y-85460000D03*
X182200000Y-54600000D03*
X204335775Y-79235775D03*
X206995000Y-52330000D03*
X207895000Y-52330000D03*
X183100000Y-53800000D03*
X184000000Y-54600000D03*
X214200000Y-72200000D03*
X139924749Y-133935600D03*
%TO.N,/SYS_3V3*%
X200345000Y-54330000D03*
X197245000Y-74355000D03*
X158995000Y-74755000D03*
X209620000Y-74505000D03*
X142595000Y-74530000D03*
X183787053Y-79405200D03*
X123635364Y-124664800D03*
X140227249Y-74630000D03*
X126977500Y-71292500D03*
X145499749Y-126735600D03*
X130324749Y-126735600D03*
X180729053Y-71305200D03*
X155527249Y-74630000D03*
X172006564Y-125785600D03*
X139200000Y-62800000D03*
X169495000Y-54330000D03*
X139227249Y-74630000D03*
X120577364Y-116564800D03*
X210595000Y-42830000D03*
X189181564Y-125785600D03*
X135545000Y-45780000D03*
X136145000Y-70480000D03*
X129324749Y-126735600D03*
X201420000Y-74505000D03*
X207520000Y-74430000D03*
X137324749Y-126735600D03*
X173006564Y-125785600D03*
X147277249Y-74605000D03*
X139200000Y-61800000D03*
X200295000Y-36080000D03*
X156527249Y-74630000D03*
X104795000Y-72555000D03*
X169595000Y-36130000D03*
X138324749Y-126735600D03*
X96235000Y-105855000D03*
X181006564Y-125785600D03*
X108900000Y-66100000D03*
X180006564Y-125785600D03*
X148277249Y-74605000D03*
X188181564Y-125785600D03*
X130700000Y-80900000D03*
X101700000Y-71700000D03*
X193420000Y-74530000D03*
X130065000Y-76380000D03*
X194420000Y-74530000D03*
X129345000Y-56380000D03*
X118777500Y-81092500D03*
X210620000Y-74505000D03*
X174606564Y-132985600D03*
X202420000Y-74505000D03*
X186663114Y-133125600D03*
X139145000Y-63880000D03*
%TO.N,/BUS_CH1*%
X203600000Y-37800000D03*
X206945000Y-63980000D03*
X204500000Y-37800000D03*
X208745000Y-64780000D03*
X205400000Y-37800000D03*
X206945000Y-64780000D03*
X208745000Y-63980000D03*
X202000000Y-36450000D03*
X205400000Y-37000000D03*
X204500000Y-37000000D03*
X207845000Y-64780000D03*
X207845000Y-63980000D03*
X203600000Y-37000000D03*
%TO.N,/Fixed_Regulators/INT_3V3*%
X135600000Y-72000000D03*
X155718925Y-52437850D03*
X98455000Y-77855000D03*
%TO.N,/Fixed_Regulators/INT_5V*%
X99600000Y-75905000D03*
X156000000Y-69400000D03*
%TO.N,/Fixed_Regulators/SCL_5V*%
X99800000Y-77205000D03*
X165400000Y-55600000D03*
X156200000Y-70200000D03*
%TO.N,/Fixed_Regulators/SDA_5V*%
X165400000Y-56400000D03*
X98400000Y-76600000D03*
X157000000Y-70800000D03*
%TO.N,/Programmable_Regulators/INT_CH1*%
X103245000Y-71180000D03*
X171600000Y-70000000D03*
X186800000Y-51600000D03*
X103345000Y-79880000D03*
%TO.N,/Programmable_Regulators/SCL_CH1*%
X105245000Y-71180000D03*
X187400000Y-52800000D03*
X196000000Y-43200000D03*
X172200000Y-69600000D03*
X161000000Y-81300000D03*
X102995000Y-78630000D03*
X167300000Y-74300000D03*
%TO.N,/Programmable_Regulators/SDA_CH1*%
X104195000Y-71180000D03*
X172800000Y-69200000D03*
X166400000Y-75000000D03*
X195800000Y-41800000D03*
X161700000Y-80900000D03*
X188200000Y-52800000D03*
X103145000Y-79280000D03*
%TO.N,/Programmable_Regulators/INT_CH2*%
X102995000Y-78001497D03*
X170200000Y-74800000D03*
X111345000Y-71180000D03*
X162600000Y-82000000D03*
X186800000Y-69800000D03*
%TO.N,/Programmable_Regulators/SCL_CH2*%
X163200000Y-83700000D03*
X113345000Y-71180000D03*
X197200000Y-59200000D03*
X187000000Y-70800000D03*
X170300000Y-75500000D03*
X102995000Y-76730000D03*
%TO.N,/Programmable_Regulators/SDA_CH2*%
X162650000Y-83050000D03*
X102995000Y-77372994D03*
X112395000Y-71180000D03*
X196400000Y-58800000D03*
X187800000Y-70800000D03*
X170900000Y-76100000D03*
%TO.N,/System_Power/VBAT*%
X125969495Y-63587654D03*
X125666197Y-63037176D03*
X126345000Y-63030000D03*
X125295000Y-62530000D03*
X101645000Y-68430000D03*
X100645000Y-68430000D03*
X100645000Y-67430000D03*
X101645000Y-69380000D03*
X123645000Y-54880000D03*
X100645000Y-69380000D03*
X124973503Y-54880000D03*
X101645000Y-67430000D03*
X125645000Y-64180000D03*
X100345000Y-62780000D03*
X124345000Y-54880000D03*
X126045000Y-62530000D03*
X125295000Y-63630000D03*
X100645000Y-70380000D03*
%TO.N,/Main_uC/VBUS*%
X160255000Y-113440000D03*
X194145000Y-84380000D03*
X200020000Y-113555000D03*
X200178600Y-116013600D03*
X210745000Y-113505000D03*
X177750000Y-117530000D03*
X207795000Y-101955000D03*
X210895000Y-115980000D03*
X213045000Y-114305000D03*
X182420000Y-119355000D03*
X169050000Y-119430000D03*
X216657800Y-106262400D03*
X162742964Y-120658407D03*
X212552600Y-103812000D03*
X194120000Y-82755000D03*
X202320000Y-114355000D03*
X204653200Y-102098400D03*
X214727400Y-102147600D03*
X208345000Y-121029890D03*
X191120000Y-117455000D03*
X162755000Y-112130000D03*
X198219890Y-121054890D03*
X202478400Y-103762800D03*
%TO.N,/Main_uC/CAN1_TX*%
X201445000Y-92380000D03*
X175895000Y-90180000D03*
%TO.N,/Main_uC/CAN1_RX*%
X199295000Y-91580000D03*
X176945000Y-90080000D03*
%TO.N,/Main_uC/CAN1_SE*%
X173595000Y-73380000D03*
X206020000Y-90025000D03*
%TO.N,/Main_uC/RS4851_TXE*%
X170050000Y-120430000D03*
X167245000Y-116970000D03*
%TO.N,/Main_uC/UART1_REV*%
X201045000Y-114060000D03*
X199015000Y-90590000D03*
X179295000Y-74380000D03*
%TO.N,/Main_uC/UART1_nEN*%
X201995000Y-113580000D03*
X178595000Y-73830000D03*
X198295000Y-90530000D03*
%TO.N,/Main_uC/SPI1_nEN*%
X196585000Y-92810000D03*
X187825000Y-81700000D03*
X199485000Y-121770000D03*
X177795000Y-76980000D03*
%TO.N,/Main_uC/I2C1_nPEN*%
X204043600Y-103419200D03*
X194995000Y-87380000D03*
X173995000Y-76630000D03*
%TO.N,/Main_uC/I2C1_EN*%
X201960800Y-107889600D03*
X199928800Y-104128400D03*
X173345000Y-75980000D03*
X193895000Y-87030000D03*
%TO.N,/Main_uC/_GPIO_5*%
X160065000Y-110710000D03*
X161855000Y-113430000D03*
X162055000Y-117230000D03*
X173195000Y-99030000D03*
%TO.N,/Main_uC/_GPIO_6*%
X161414200Y-115830000D03*
X159586370Y-111117344D03*
X173695000Y-99530000D03*
%TO.N,/Main_uC/_GPIO_7*%
X173145000Y-100030000D03*
X161555000Y-118530000D03*
X163731638Y-115368936D03*
X159075000Y-110700000D03*
%TO.N,/Main_uC/_GPIO_8*%
X173645000Y-100530000D03*
X162355000Y-119130000D03*
X163855000Y-113830000D03*
X158515000Y-111180000D03*
%TO.N,/Main_uC/_GPIO_1*%
X173145000Y-96030000D03*
X162042964Y-125758407D03*
X161842964Y-121958407D03*
%TO.N,/Main_uC/_GPIO_2*%
X173845000Y-96530000D03*
X161125000Y-123730000D03*
%TO.N,/Main_uC/_GPIO_3*%
X163719602Y-123897343D03*
X173195000Y-97030000D03*
X159985000Y-124110000D03*
X161542964Y-127058407D03*
%TO.N,/Main_uC/_GPIO_4*%
X163842964Y-122358407D03*
X162342964Y-127658407D03*
X173895000Y-97480000D03*
%TO.N,/Main_uC/_SPI1_MOSI*%
X195495000Y-123805000D03*
X198159137Y-121958890D03*
X189695000Y-90630000D03*
%TO.N,/Main_uC/_SPI1_SCK*%
X196445000Y-119580000D03*
X198771740Y-123588702D03*
X195232500Y-126842500D03*
X190595000Y-91030000D03*
%TO.N,/Main_uC/_SPI1_NSS*%
X196899800Y-120175200D03*
X191345000Y-90530000D03*
%TO.N,/Main_uC/_SPI1_MISO*%
X196595000Y-128705000D03*
X190345000Y-90330000D03*
X194745000Y-122280000D03*
X201695000Y-123805000D03*
X196395000Y-125405000D03*
%TO.N,/Main_uC/_UART1_TX*%
X169345000Y-109930000D03*
X172295000Y-112430000D03*
%TO.N,/Main_uC/_UART1_RX*%
X198720000Y-117155000D03*
X198820000Y-119455000D03*
%TO.N,/Main_uC/_I2C1_SCL*%
X178395000Y-96330000D03*
X200995000Y-108580000D03*
%TO.N,/Main_uC/_I2C1_SDA*%
X198912800Y-107231200D03*
X201452800Y-109515200D03*
X177595000Y-97030000D03*
%TO.N,/Misc_uC_Combined/M1SUB3V3*%
X159031564Y-148135600D03*
X163131564Y-138135600D03*
X188715164Y-151865200D03*
X157631564Y-131335600D03*
X184731564Y-147235600D03*
X188931564Y-135335600D03*
X174531564Y-142135600D03*
X164131564Y-153535600D03*
X188931564Y-134035600D03*
X159031564Y-142385600D03*
X170531564Y-153535600D03*
%TO.N,/Misc_uC_Combined/M1SUB5V*%
X180731564Y-133935600D03*
X185701564Y-141280600D03*
X180731564Y-135230000D03*
X178101564Y-145280600D03*
%TO.N,/Misc_uC_Combined/M1VBUS*%
X189994764Y-149567200D03*
X192169564Y-147902800D03*
X194099964Y-152017600D03*
X178486364Y-149380800D03*
X172731564Y-134035600D03*
X175986364Y-150690800D03*
X172731564Y-135135600D03*
%TO.N,/Misc_uC_Combined/Misc_uCs/SUB3V3*%
X114949749Y-132285600D03*
X121449749Y-154485600D03*
X146249749Y-136285600D03*
X146033349Y-152815200D03*
X116349749Y-149085600D03*
X127849749Y-154485600D03*
X146249749Y-134985600D03*
X142049749Y-148185600D03*
X131849749Y-143085600D03*
X116349749Y-143335600D03*
X120449749Y-139085600D03*
%TO.N,/Misc_uC_Combined/Misc_uCs/SUB5V*%
X135419749Y-146230600D03*
X138049749Y-136180000D03*
X138049749Y-134885600D03*
X143019749Y-142230600D03*
%TO.N,/Misc_uC_Combined/Misc_uCs/VBUS*%
X151418149Y-152967600D03*
X133304549Y-151640800D03*
X130049749Y-136085600D03*
X149487749Y-148852800D03*
X147312949Y-150517200D03*
X130049749Y-134985600D03*
X135804549Y-150330800D03*
%TO.N,/Main_uC/SUB3V3*%
X185730000Y-86690000D03*
X196295000Y-121905000D03*
X210345000Y-84380000D03*
X199020000Y-113555000D03*
X206045000Y-118780000D03*
X201198800Y-106060800D03*
X180220000Y-120405000D03*
X195630000Y-90590000D03*
X211273000Y-106110000D03*
X206020000Y-96030000D03*
X195630000Y-102490000D03*
X170330000Y-106590000D03*
X170330000Y-92090000D03*
X174130000Y-86690000D03*
X195630000Y-97090000D03*
X168670000Y-77705000D03*
X210345000Y-82680000D03*
X166850000Y-120480000D03*
X181730000Y-111890000D03*
X170330000Y-107590000D03*
X170330000Y-105590000D03*
X170330000Y-98490000D03*
X170330000Y-93090000D03*
X186730000Y-111890000D03*
X209745000Y-113505000D03*
X180630000Y-86690000D03*
X175230000Y-111890000D03*
X206420000Y-121880000D03*
X170330000Y-104590000D03*
X192030000Y-111890000D03*
%TO.N,/Main_uC/SUB5V*%
X202145000Y-82705000D03*
X209700000Y-94020000D03*
X213170000Y-88155000D03*
X202145000Y-84380000D03*
X207030000Y-90025000D03*
X199430000Y-94025000D03*
X217300000Y-90020000D03*
%TO.N,/EPS_uC/SUB3V3*%
X116330000Y-98490000D03*
X141630000Y-97090000D03*
X148598300Y-106152400D03*
X116330000Y-107590000D03*
X142630000Y-103490000D03*
X126630000Y-86690000D03*
X116330000Y-106590000D03*
X156220000Y-84330000D03*
X121230000Y-111890000D03*
X131730000Y-86690000D03*
X156220000Y-82830000D03*
X114907500Y-77530000D03*
X143730000Y-116480000D03*
X138030000Y-111890000D03*
X158757500Y-101330000D03*
X142630000Y-104490000D03*
X152295000Y-96130000D03*
X116330000Y-105590000D03*
X127730000Y-111890000D03*
X156157500Y-94380000D03*
X120130000Y-86690000D03*
X116330000Y-93090000D03*
X116330000Y-92090000D03*
X141630000Y-102490000D03*
X116330000Y-104590000D03*
X141630000Y-90590000D03*
X132730000Y-111890000D03*
%TO.N,/EPS_uC/SUB5V*%
X145690000Y-94100000D03*
X148020000Y-82780000D03*
X153290000Y-90100000D03*
X148020000Y-84430000D03*
%TO.N,/EPS_uC/VBUS*%
X159916100Y-103788600D03*
X155017964Y-120608407D03*
X155030000Y-112080000D03*
X159757500Y-101330000D03*
X158215000Y-87790000D03*
X149877900Y-103854400D03*
X167057500Y-91430000D03*
X139945000Y-84505000D03*
X152530000Y-113390000D03*
X162057500Y-102130000D03*
X158357500Y-93330000D03*
X153983100Y-106304800D03*
X145634000Y-115629890D03*
X139920000Y-82805000D03*
X152052700Y-102190000D03*
%TO.N,/Misc_uC_Combined/PI_nRST_MISC2*%
X152738682Y-137358483D03*
X97270000Y-138305000D03*
%TO.N,/Misc_uC_Combined/PI_nRST_MISC1*%
X108345000Y-135080000D03*
X111310799Y-135930600D03*
%TO.N,/Main_uC/USB_VBUS*%
X87645000Y-130330000D03*
X190395000Y-93930000D03*
%TO.N,/Main_uC/USB_D-*%
X190745000Y-93030000D03*
X86695000Y-131550000D03*
%TO.N,/Main_uC/USB_D+*%
X86000000Y-132380000D03*
X191395000Y-92530000D03*
%TO.N,/Main_uC/USB_ID*%
X87545000Y-132980000D03*
X191395000Y-93530000D03*
%TO.N,/Main_uC/nRST*%
X163495000Y-87130000D03*
X109545000Y-87830000D03*
%TO.N,/EPS_uC/USB_VBUS*%
X88345000Y-141780000D03*
X137545000Y-94580000D03*
%TO.N,/EPS_uC/USB_D-*%
X136495000Y-93430000D03*
X86495000Y-142830000D03*
%TO.N,/EPS_uC/USB_D+*%
X86495000Y-143480000D03*
X136595000Y-92580000D03*
%TO.N,/EPS_uC/USB_ID*%
X137145000Y-93780000D03*
X87495000Y-144030000D03*
%TO.N,/EPS_uC/nRST*%
X108095000Y-101380000D03*
X105895000Y-148630000D03*
X112570000Y-81130000D03*
X119195000Y-102530000D03*
%TO.N,/EPS_uC/SWDIO*%
X115557500Y-82390000D03*
X137195000Y-92030000D03*
%TO.N,/EPS_uC/SWCLK*%
X112557500Y-83660000D03*
X135682500Y-84567500D03*
%TO.N,/CAN1_L*%
X206420000Y-94255000D03*
X142510799Y-146630600D03*
X185210799Y-145730600D03*
X214495000Y-121130000D03*
X152770000Y-94505000D03*
X211870000Y-148180000D03*
%TO.N,/CAN1_H*%
X185210799Y-143930600D03*
X214045000Y-147580000D03*
X215045000Y-120530000D03*
X152770000Y-92705000D03*
X142510799Y-144830600D03*
X206495000Y-92680000D03*
%TO.N,/CAN2_L*%
X215545000Y-119880000D03*
X216745000Y-94480000D03*
%TO.N,/CAN2_H*%
X215995000Y-119080000D03*
X216795000Y-92580000D03*
%TO.N,/RS4851_A*%
X167520000Y-94705000D03*
X178095000Y-120855000D03*
X211270000Y-145805000D03*
%TO.N,/RS4851_B*%
X213945000Y-145180000D03*
X167495000Y-92855000D03*
X178020000Y-119205000D03*
%TO.N,/RS4852_A*%
X211345000Y-144705000D03*
X191795000Y-120855000D03*
%TO.N,/RS4852_B*%
X213995000Y-144305000D03*
X191770000Y-118955000D03*
%TO.N,/UART1_TX*%
X170745000Y-115480000D03*
X199820000Y-118705000D03*
X159557500Y-106480000D03*
X112120000Y-104870000D03*
X211445000Y-143030000D03*
%TO.N,/UART1_RX*%
X112195000Y-107030000D03*
X201320000Y-117555000D03*
X161057500Y-105330000D03*
X213645000Y-142730000D03*
X159545000Y-108330000D03*
X199820000Y-119455000D03*
X172245000Y-116880000D03*
%TO.N,/UART2_RX*%
X213795000Y-129680000D03*
X212045000Y-117505000D03*
X210545000Y-119405000D03*
%TO.N,/I2C1_SCL*%
X147410799Y-155630600D03*
X190250000Y-154500000D03*
X193245000Y-156480000D03*
X203800000Y-131800000D03*
X211045000Y-141480000D03*
X203942000Y-107233200D03*
X150895000Y-108980000D03*
%TO.N,/I2C1_SDA*%
X202495000Y-109530000D03*
X204958000Y-107229200D03*
X149792549Y-153983600D03*
X192474364Y-153033600D03*
X200645000Y-109980000D03*
X204700000Y-131900000D03*
X189985164Y-155314000D03*
X147303349Y-156264000D03*
X152357500Y-107320800D03*
X150545000Y-109601200D03*
X210245000Y-139080000D03*
%TO.N,/I2C2_SCL*%
X212945000Y-108580000D03*
X211545000Y-139580000D03*
%TO.N,/I2C2_SDA*%
X212543000Y-109558800D03*
X213795000Y-139430000D03*
X215032200Y-107278400D03*
%TO.N,/SPI1_MISO*%
X198195000Y-128762006D03*
X160245000Y-122130000D03*
X145630000Y-123337006D03*
X149130000Y-119180000D03*
X201695000Y-124605000D03*
%TO.N,/SPI1_MOSI*%
X198195000Y-126876497D03*
X145630000Y-121451497D03*
X159695000Y-119880000D03*
X146330000Y-118780000D03*
X198895000Y-124205000D03*
%TO.N,/SPI1_SCK*%
X199695000Y-126205000D03*
X200295000Y-129880000D03*
X159695000Y-120530000D03*
X198195000Y-127505000D03*
X147130000Y-120780000D03*
X145630000Y-122080000D03*
%TO.N,/SPI1_NSS*%
X200495000Y-126205000D03*
X145630000Y-122708503D03*
X147930000Y-120780000D03*
X201095000Y-129980000D03*
X159795000Y-121480000D03*
X198195000Y-128133503D03*
%TO.N,/SPI2_MISO*%
X211820000Y-124580000D03*
X213745000Y-135530000D03*
X208320000Y-128737006D03*
%TO.N,/SPI2_MOSI*%
X211795000Y-135180000D03*
X209020000Y-124180000D03*
X208320000Y-126851497D03*
%TO.N,/SPI2_NSS*%
X213595000Y-134680000D03*
X208320000Y-128108503D03*
X210620000Y-126180000D03*
%TO.N,/SPI2_SCK*%
X208320000Y-127480000D03*
X209820000Y-126180000D03*
X211795000Y-134180000D03*
%TO.N,/GPIO_1*%
X174695000Y-155880000D03*
X161142964Y-122958407D03*
X166145000Y-131230000D03*
X136504549Y-155530800D03*
X214070000Y-133155000D03*
X134204549Y-152630800D03*
X163442964Y-125858407D03*
X155717964Y-125808407D03*
X153417964Y-122908407D03*
%TO.N,/GPIO_2*%
X211695000Y-132680000D03*
X165295000Y-126680000D03*
X174076635Y-155992430D03*
X157545000Y-125680000D03*
X165590693Y-130918175D03*
%TO.N,/GPIO_3*%
X173395000Y-156080000D03*
X163142964Y-125158407D03*
X213545000Y-132155000D03*
X136804549Y-156630800D03*
X163742964Y-126958407D03*
X155417964Y-125108407D03*
X165045000Y-131230000D03*
X136204549Y-154830800D03*
X156017964Y-126908407D03*
%TO.N,/GPIO_4*%
X211870000Y-131680000D03*
X173009137Y-156576110D03*
X156017964Y-127536910D03*
X156517964Y-122908407D03*
X163742964Y-127586910D03*
X136804549Y-157259303D03*
X137304549Y-152630800D03*
X164445000Y-130980000D03*
X164242964Y-122958407D03*
%TO.N,/GPIO_5*%
X155730000Y-117280000D03*
X168695000Y-131280000D03*
X213545000Y-131155000D03*
X179186364Y-154580800D03*
X161155000Y-114430000D03*
X163455000Y-117330000D03*
X153430000Y-114380000D03*
X176886364Y-151680800D03*
X195720000Y-156455000D03*
%TO.N,/GPIO_6*%
X163895000Y-116280000D03*
X211845000Y-130680000D03*
X167795000Y-130580000D03*
X181345000Y-155930000D03*
X196370000Y-156480000D03*
%TO.N,/GPIO_7*%
X179486364Y-155680800D03*
X156030000Y-118380000D03*
X197020000Y-156480000D03*
X178886364Y-153880800D03*
X163155000Y-116630000D03*
X155430000Y-116580000D03*
X166895000Y-131280000D03*
X214495000Y-130480000D03*
X163755000Y-118430000D03*
%TO.N,/GPIO_8*%
X156030000Y-119008503D03*
X179486364Y-156309303D03*
X179986364Y-151680800D03*
X197670000Y-156480000D03*
X156530000Y-114380000D03*
X166695000Y-130530000D03*
X163755000Y-119058503D03*
X164255000Y-114430000D03*
X211645000Y-129705000D03*
%TO.N,/REG_3V3_EF*%
X134600000Y-71400000D03*
X150400000Y-42800000D03*
%TO.N,/REG_5V_EF*%
X150400000Y-61000000D03*
X136600000Y-78200000D03*
%TO.N,/REG_CH1_EF*%
X126200000Y-75317500D03*
X169200000Y-70600000D03*
X181200000Y-41800000D03*
%TO.N,/REG_CH2_EF*%
X173400000Y-68800000D03*
X181400000Y-60400000D03*
X127300000Y-75967500D03*
%TO.N,/Misc_uC_Combined/PI_BOOTLDR_MISC2*%
X98220000Y-141430000D03*
X163510799Y-142630600D03*
%TO.N,/Misc_uC_Combined/UC2_CANSE*%
X184691564Y-142280600D03*
X120781564Y-119289800D03*
%TO.N,/Misc_uC_Combined/UC2_NVSYS*%
X132581564Y-124260600D03*
X120681564Y-123839800D03*
%TO.N,/Misc_uC_Combined/UC2_NVBUS*%
X120677364Y-123189800D03*
X131881564Y-123660600D03*
X189181564Y-126785600D03*
X177381564Y-125760600D03*
X180981564Y-126785600D03*
%TO.N,/PISER_RX*%
X188400000Y-116500000D03*
X108345000Y-144405000D03*
X175510799Y-145330600D03*
X132910799Y-146330600D03*
X196640000Y-107290000D03*
X142640000Y-107290000D03*
X193000000Y-116100000D03*
X111095000Y-105630000D03*
%TO.N,/PISER_TX*%
X196640000Y-106290000D03*
X143945000Y-106180000D03*
X107995000Y-143705000D03*
X175510799Y-144330600D03*
X111095000Y-104880000D03*
X132910799Y-145330600D03*
X192300000Y-116400000D03*
X188900000Y-115500000D03*
%TO.N,/Misc_uC_Combined/UC2_I2CNPEN*%
X191559964Y-149223600D03*
X120677364Y-119939800D03*
%TO.N,/Misc_uC_Combined/Misc_uCs1/_I2C1_SCL*%
X165731564Y-142485600D03*
X187445164Y-153037600D03*
%TO.N,/Misc_uC_Combined/Misc_uCs1/_I2C1_SDA*%
X188969164Y-155319600D03*
X164510799Y-142630600D03*
X186429164Y-153035600D03*
%TO.N,/Misc_uC_Combined/UC2_I2CEN*%
X189477164Y-153694000D03*
X187445164Y-149932800D03*
X120677364Y-120589800D03*
%TO.N,/Misc_uC_Combined/UC2_GPIONEN*%
X120677364Y-121239800D03*
X182745000Y-152780000D03*
%TO.N,/Misc_uC_Combined/UC2_NVT5V*%
X172081564Y-126870600D03*
X132581564Y-123060600D03*
X120677364Y-122539800D03*
X150281564Y-128260600D03*
%TO.N,/Misc_uC_Combined/UC2_NVT3V3*%
X131781564Y-122460600D03*
X172731564Y-127160600D03*
X150681564Y-127660600D03*
X120677364Y-121889800D03*
%TO.N,/Misc_uC_Combined/PI_BOOTLDR_MISC1*%
X120710799Y-142930600D03*
X123110799Y-138930600D03*
X108070000Y-140305000D03*
%TO.N,/Misc_uC_Combined/UC1_CANSE*%
X118381564Y-121960600D03*
X113477364Y-118639800D03*
X118381564Y-123860600D03*
X142009749Y-143230600D03*
%TO.N,/Misc_uC_Combined/UC1_NVSYS*%
X137399749Y-128330600D03*
X145574749Y-128430600D03*
%TO.N,/Misc_uC_Combined/UC1_NVBUS*%
X146499749Y-127735600D03*
X113477364Y-122539800D03*
X138299749Y-127735600D03*
%TO.N,/Misc_uC_Combined/UC1_I2CNPEN*%
X113477364Y-119289800D03*
X139981564Y-154460600D03*
X148878149Y-150173600D03*
%TO.N,/Misc_uC_Combined/Misc_uCs/_I2C1_SCL*%
X144763349Y-153987600D03*
X123049749Y-143435600D03*
%TO.N,/Misc_uC_Combined/Misc_uCs/_I2C1_SDA*%
X146287349Y-156269600D03*
X143747349Y-153985600D03*
X122149749Y-142735600D03*
%TO.N,/Misc_uC_Combined/UC1_I2CEN*%
X140181564Y-155960600D03*
X144763349Y-150882800D03*
X113481564Y-119939800D03*
X146795349Y-154644000D03*
%TO.N,/Misc_uC_Combined/UC1_GPIONEN*%
X113477364Y-120589800D03*
X133304549Y-153620800D03*
%TO.N,/Misc_uC_Combined/UC1_NVT5V*%
X113477364Y-121889800D03*
X129324749Y-127745600D03*
%TO.N,/Misc_uC_Combined/UC1_NVT3V3*%
X113477364Y-121239800D03*
X130324749Y-127745600D03*
%TO.N,/Main_uC/GPIO_nEN*%
X160645000Y-119980000D03*
X160255000Y-115430000D03*
X179445000Y-79330000D03*
%TO.N,/Main_uC/CAN2_SE*%
X216290000Y-90020000D03*
X173945000Y-74030000D03*
%TO.N,/Main_uC/RS4851_EN*%
X171050000Y-120430000D03*
X172595000Y-74680000D03*
%TO.N,/Main_uC/RS4852_TXE*%
X183420000Y-120355000D03*
X185995000Y-90680000D03*
%TO.N,/Main_uC/RS4852_EN*%
X173945000Y-75330000D03*
X184420000Y-120355000D03*
%TO.N,/Main_uC/I2C2_nPEN*%
X214117800Y-103468400D03*
X173845000Y-77930000D03*
X196795000Y-87530000D03*
%TO.N,/Main_uC/BOOTLDR*%
X175995000Y-90880000D03*
X105910000Y-115570000D03*
X109045000Y-87180000D03*
%TO.N,Net-(U55-nRST)*%
X183904053Y-76892700D03*
X182929053Y-71305200D03*
%TO.N,/Main_uC/_I2C2_SCL*%
X208995000Y-108030000D03*
X174145000Y-95780000D03*
%TO.N,/Main_uC/_I2C2_SDA*%
X174045000Y-94630000D03*
X208987000Y-107280400D03*
X211527000Y-109564400D03*
%TO.N,/Main_uC/I2C2_EN*%
X195995000Y-87030000D03*
X210003000Y-104177600D03*
X212035000Y-107938800D03*
X173245000Y-77280000D03*
%TO.N,/Main_uC/LED*%
X173445000Y-111905000D03*
X173620000Y-106905000D03*
%TO.N,/Main_uC/UART2_nEN*%
X212745000Y-113430000D03*
X179695000Y-75230000D03*
%TO.N,/Main_uC/UART2_REV*%
X178495000Y-74730000D03*
X211745000Y-113330000D03*
%TO.N,/Main_uC/nVT5V*%
X193420000Y-75540000D03*
X180995000Y-80530000D03*
%TO.N,/Main_uC/nVT3V3*%
X194425000Y-75550000D03*
X188825000Y-74820000D03*
%TO.N,/Main_uC/nVSYS*%
X209620000Y-75515000D03*
X180945000Y-81830000D03*
X199175000Y-74460000D03*
%TO.N,/Main_uC/nVBUS*%
X203095000Y-76150000D03*
X175229053Y-80805200D03*
X178529053Y-80705200D03*
%TO.N,/Main_uC/SPI2_nEN*%
X178345000Y-77580000D03*
X196895000Y-117780000D03*
X210745000Y-121830000D03*
X202045000Y-118880000D03*
%TO.N,/Main_uC/SPI_SHIFT*%
X208670000Y-122430000D03*
X207220000Y-123080000D03*
X197095000Y-123105000D03*
X179045000Y-78130000D03*
X205420000Y-121880000D03*
X198545000Y-122455000D03*
%TO.N,/CFGI2C_SDA*%
X116295000Y-75390000D03*
X172229053Y-79905200D03*
X117677364Y-126664800D03*
X98045000Y-105810000D03*
X124077500Y-81392500D03*
X107495000Y-80230000D03*
X112077364Y-125164800D03*
X118477500Y-79892500D03*
X107995000Y-124305000D03*
X177829053Y-81405200D03*
%TO.N,/CFGI2C_SCL*%
X108020000Y-125455000D03*
X121277500Y-79392500D03*
X175029053Y-79405200D03*
X98095000Y-108340000D03*
X107495000Y-77530000D03*
X177829053Y-80205200D03*
X124077500Y-80192500D03*
X117677364Y-125464800D03*
X116857500Y-74080000D03*
X114877364Y-124664800D03*
%TO.N,/EPS_uC/GPIO_nEN*%
X154430000Y-119780000D03*
X124777500Y-80692500D03*
X152530000Y-115380000D03*
X121477500Y-80792500D03*
%TO.N,/EPS_uC/CAN1_SE*%
X150520000Y-92480000D03*
X120195000Y-73380000D03*
%TO.N,/EPS_uC/RS4851_TXE*%
X159357500Y-94330000D03*
X132825000Y-90400000D03*
%TO.N,/EPS_uC/RS4851_EN*%
X119695000Y-74030000D03*
X160357500Y-94330000D03*
%TO.N,/EPS_uC/I2C1_nPEN*%
X151443100Y-103510800D03*
X119645000Y-75330000D03*
X146445000Y-100330000D03*
%TO.N,/EPS_uC/BOOTLDR*%
X110695000Y-90330000D03*
X124945000Y-91105000D03*
X105945000Y-151330000D03*
%TO.N,Net-(U79-nRST)*%
X129577500Y-76892500D03*
X129177500Y-71292500D03*
%TO.N,/EPS_uC/_I2C1_SCL*%
X147320000Y-107355000D03*
X126070000Y-90080000D03*
%TO.N,/EPS_uC/_I2C1_SDA*%
X146312300Y-107322800D03*
X148852300Y-109606800D03*
X126170000Y-90805000D03*
%TO.N,/EPS_uC/I2C1_EN*%
X149360300Y-107981200D03*
X147328300Y-104220000D03*
X120195000Y-74680000D03*
%TO.N,/EPS_uC/UART1_nEN*%
X120145000Y-75980000D03*
X146095000Y-98080000D03*
%TO.N,/EPS_uC/UART1_REV*%
X146145000Y-101380000D03*
X119645000Y-76630000D03*
%TO.N,/EPS_uC/nVT5V*%
X124295000Y-78780000D03*
X137595000Y-76430000D03*
%TO.N,/EPS_uC/nVT3V3*%
X141545000Y-77180000D03*
X135045000Y-74692500D03*
%TO.N,/EPS_uC/nVSYS*%
X150195000Y-79080000D03*
X124795000Y-79530000D03*
%TO.N,/EPS_uC/SPI1_nEN*%
X148045000Y-116530000D03*
X120095000Y-77280000D03*
X149395000Y-110930000D03*
%TO.N,/EPS_I2C_SCL*%
X99400000Y-56200000D03*
X112700000Y-73500000D03*
X141400000Y-44200000D03*
%TO.N,/EPS_I2C_SDA*%
X141000000Y-43400000D03*
X99500000Y-55500000D03*
X111700000Y-73500000D03*
%TO.N,Net-(U92-nRST)*%
X123752364Y-122152300D03*
X122777364Y-116564800D03*
%TO.N,/Misc_uC_Combined/Misc_uCs1/_GPIO_1*%
X177786364Y-154480800D03*
X177586364Y-150680800D03*
%TO.N,/Misc_uC_Combined/Misc_uCs1/_GPIO_3*%
X179463002Y-152619736D03*
X177286364Y-155780800D03*
%TO.N,/Misc_uC_Combined/Misc_uCs1/_GPIO_4*%
X179586364Y-151080800D03*
X178086364Y-156380800D03*
%TO.N,/Misc_uC_Combined/Misc_uCs/_GPIO_1*%
X134904549Y-151630800D03*
X135104549Y-155430800D03*
%TO.N,/Misc_uC_Combined/Misc_uCs/_GPIO_3*%
X134604549Y-156730800D03*
X136781187Y-153569736D03*
%TO.N,/Misc_uC_Combined/Misc_uCs/_GPIO_4*%
X135404549Y-157330800D03*
X136904549Y-152030800D03*
%TO.N,/Main_uC/RS4852_TX*%
X182145000Y-122380000D03*
X189895000Y-98330000D03*
%TO.N,/Main_uC/RS4852_RX*%
X189395000Y-97830000D03*
X180895000Y-123430000D03*
%TO.N,/Main_uC/_UART2_RX*%
X209545000Y-119405000D03*
X209445000Y-117105000D03*
%TO.N,/Main_uC/_SPI2_MOSI*%
X205620000Y-123780000D03*
X208284137Y-121933890D03*
%TO.N,/Main_uC/_SPI2_SCK*%
X206120000Y-127580000D03*
X208896740Y-123563702D03*
X204820000Y-128180000D03*
%TO.N,/Main_uC/_SPI2_MISO*%
X211820000Y-123780000D03*
X206720000Y-128680000D03*
X206520000Y-125380000D03*
%TO.N,/EPS_uC/_GPIO_1*%
X154117964Y-121908407D03*
X154317964Y-125708407D03*
%TO.N,/EPS_uC/_GPIO_3*%
X153817964Y-127008407D03*
X155994602Y-123847343D03*
%TO.N,/EPS_uC/_GPIO_4*%
X156117964Y-122308407D03*
X154617964Y-127608407D03*
%TO.N,/EPS_uC/_GPIO_5*%
X120795000Y-98830000D03*
X154130000Y-113380000D03*
X154330000Y-117180000D03*
%TO.N,/EPS_uC/_GPIO_6*%
X150995000Y-113730000D03*
X120995000Y-99630000D03*
%TO.N,/EPS_uC/_GPIO_7*%
X153830000Y-118480000D03*
X156006638Y-115318936D03*
X121045000Y-100480000D03*
%TO.N,/EPS_uC/_GPIO_8*%
X156130000Y-113780000D03*
X154630000Y-119080000D03*
X122055000Y-101070000D03*
%TO.N,/EPS_uC/RS4851_TX*%
X158045000Y-96360000D03*
X133345000Y-89830000D03*
%TO.N,/EPS_uC/RS4851_RX*%
X133915000Y-90290000D03*
X156957500Y-97330000D03*
%TO.N,/EPS_uC/_UART1_TX*%
X157145000Y-107480000D03*
X119845000Y-107680000D03*
%TO.N,/EPS_uC/_UART1_RX*%
X157195000Y-108580000D03*
X120095000Y-109830000D03*
X158557500Y-107230000D03*
X158457500Y-104930000D03*
%TO.N,/EPS_uC/_SPI1_MOSI*%
X141545000Y-121690000D03*
X145594137Y-116533890D03*
X134905000Y-90260000D03*
X142930000Y-118380000D03*
%TO.N,/EPS_uC/_SPI1_SCK*%
X142185000Y-120110000D03*
X143430000Y-122180000D03*
X136115000Y-90860000D03*
X146206740Y-118163702D03*
%TO.N,/EPS_uC/_SPI1_NSS*%
X137195000Y-89820000D03*
X142235000Y-119460000D03*
%TO.N,/EPS_uC/_SPI1_MISO*%
X143830000Y-119980000D03*
X149130000Y-118380000D03*
X135595000Y-90480000D03*
X144030000Y-123280000D03*
%TO.N,/RAW_PIN_BUS*%
X126600000Y-76600000D03*
X123320000Y-43980000D03*
%TO.N,/RAW_BAT_BUS*%
X127400000Y-77267500D03*
X123345000Y-65067500D03*
%TO.N,/REG_5V_EN*%
X138200000Y-100400000D03*
X142200000Y-101600000D03*
%TO.N,/REG_CH1_EN*%
X196600000Y-42600000D03*
X186600000Y-51000000D03*
X154000000Y-86400000D03*
%TO.N,/REG_CH2_EN*%
X197847425Y-60176285D03*
X153200000Y-86200000D03*
X186600000Y-69200000D03*
%TO.N,/Misc_uC_Combined/PI_SS_MISC2*%
X107370000Y-139705000D03*
X170110799Y-138730600D03*
X186600000Y-139400000D03*
%TO.N,/PISPI_SCK*%
X186923362Y-138861064D03*
X108745000Y-103330000D03*
X122545000Y-104080000D03*
X169410799Y-138886125D03*
X102895000Y-137355000D03*
X178195000Y-106330000D03*
X100195000Y-130830000D03*
X126710799Y-139830600D03*
%TO.N,/PISPI_MISO*%
X124045000Y-104430000D03*
X102945000Y-138330000D03*
X126010799Y-139630600D03*
X168710799Y-138686125D03*
X100195000Y-128230000D03*
X179895000Y-106330000D03*
X188050000Y-138350000D03*
X107945000Y-103880000D03*
%TO.N,/PISPI_MOSI*%
X168110799Y-138886125D03*
X125410799Y-139830600D03*
X179845000Y-107330000D03*
X125295000Y-104430000D03*
X188950000Y-138350000D03*
X107595000Y-137530000D03*
X100245000Y-125730000D03*
X108145000Y-104830000D03*
%TO.N,/Misc_uC_Combined/PI_SS_MISC1*%
X127410799Y-139730600D03*
X106195000Y-139780000D03*
%TO.N,/Main_uC/CAN2_TX*%
X211645000Y-92480000D03*
X198145000Y-101980000D03*
X207645000Y-99930000D03*
%TO.N,/Main_uC/CAN2_RX*%
X211395000Y-94630000D03*
X208045000Y-100630000D03*
X198995000Y-102380000D03*
%TO.N,Net-(U60-B1Y)*%
X212845000Y-116505000D03*
X212045000Y-114905000D03*
%TO.N,Net-(U61-B1Y)*%
X202120000Y-116555000D03*
X201320000Y-114955000D03*
%TO.N,/Main_uC/PISPI_NSS*%
X175545000Y-108480000D03*
X105945000Y-146180000D03*
X109138185Y-104430000D03*
%TO.N,Net-(U66-B4)*%
X207920000Y-125380000D03*
X210520000Y-124080000D03*
%TO.N,Net-(U67-B4)*%
X197795000Y-125405000D03*
X200395000Y-124105000D03*
%TO.N,/EPS_uC/PISPI_NSS*%
X121195000Y-104680000D03*
X100090000Y-146050000D03*
X109145000Y-105080000D03*
%TO.N,/EPS_uC/SPI_SHIFT*%
X148145000Y-108930000D03*
X144530000Y-117680000D03*
X142730000Y-116485176D03*
X119645000Y-77930000D03*
X145980000Y-117030000D03*
%TO.N,Net-(U83-B1Y)*%
X161857500Y-104330000D03*
X161057500Y-102730000D03*
%TO.N,Net-(U87-B4)*%
X147830000Y-118680000D03*
X145230000Y-119980000D03*
%TO.N,Net-(U2-D)*%
X130495000Y-42380000D03*
X129695000Y-63180000D03*
X130045000Y-64830000D03*
X131345000Y-64880000D03*
X130189772Y-42929410D03*
X130995000Y-64230000D03*
X129862072Y-43465719D03*
X131545000Y-44080000D03*
X130545000Y-43480000D03*
X131195000Y-43430000D03*
X130245000Y-44030000D03*
X131095000Y-42380000D03*
X130672524Y-64865053D03*
X129662072Y-64265719D03*
X129989772Y-63729410D03*
X129895000Y-42380000D03*
X130813925Y-42942150D03*
X130345000Y-64280000D03*
X130295000Y-63180000D03*
X130613925Y-63742150D03*
X130895000Y-63180000D03*
X130872524Y-44065053D03*
X131245000Y-63680000D03*
X131445000Y-42880000D03*
%TO.N,Net-(U7-SW1)*%
X110245000Y-51680000D03*
X111245000Y-51680000D03*
X110245000Y-54680000D03*
X102245000Y-56130000D03*
X110245000Y-52680000D03*
X112245000Y-55680000D03*
X112245000Y-53680000D03*
X111245000Y-53680000D03*
X112245000Y-52680000D03*
X102345000Y-57080000D03*
X111245000Y-52680000D03*
X110245000Y-56680000D03*
X110245000Y-53680000D03*
X112245000Y-54680000D03*
X112245000Y-51680000D03*
X105045000Y-57030000D03*
X110245000Y-55680000D03*
X111245000Y-54680000D03*
X112245000Y-56680000D03*
X111245000Y-55680000D03*
X101927929Y-56609822D03*
X111245000Y-56680000D03*
%TO.N,Net-(U7-SW2)*%
X110245000Y-61480000D03*
X112245000Y-62480000D03*
X102345000Y-58080000D03*
X111245000Y-62480000D03*
X112245000Y-61480000D03*
X112245000Y-58480000D03*
X110245000Y-60480000D03*
X111245000Y-58480000D03*
X111245000Y-63480000D03*
X110245000Y-62480000D03*
X110245000Y-63480000D03*
X112245000Y-63480000D03*
X111245000Y-60480000D03*
X102252884Y-59071572D03*
X101900000Y-58500000D03*
X112245000Y-60480000D03*
X111245000Y-59480000D03*
X112245000Y-59480000D03*
X110245000Y-58480000D03*
X110245000Y-59480000D03*
X105045000Y-58130000D03*
X111245000Y-61480000D03*
%TO.N,Net-(U10-EN)*%
X124145000Y-54180000D03*
X125400000Y-54180000D03*
X127445000Y-54180000D03*
X126745000Y-54180000D03*
X123445000Y-54180000D03*
%TO.N,Net-(U14-IN)*%
X171745000Y-49880000D03*
X165795000Y-51630000D03*
%TO.N,Net-(U18-IN)*%
X171632500Y-67767500D03*
X165745000Y-69830000D03*
%TO.N,Net-(U22-IN)*%
X196545000Y-51580000D03*
X202345000Y-49680000D03*
%TO.N,Net-(U26-IN)*%
X202545000Y-68080000D03*
X196545000Y-69830000D03*
%TO.N,Net-(Q1-G)*%
X131120000Y-48480000D03*
X120082500Y-45130000D03*
X122520000Y-42480000D03*
%TO.N,Net-(Q2-G)*%
X131145000Y-69567500D03*
X119757500Y-66230000D03*
X122545000Y-63567500D03*
%TO.N,Net-(Q3-G)*%
X168295000Y-42730000D03*
X205595000Y-41780000D03*
%TO.N,Net-(Q4-G)*%
X208095000Y-41780000D03*
X168245000Y-60930000D03*
%TO.N,Net-(Q5-G)*%
X210595000Y-41780000D03*
X199045000Y-42680000D03*
%TO.N,Net-(Q6-G)*%
X199045000Y-60930000D03*
X213095000Y-41780000D03*
%TO.N,Net-(U7-BST1)*%
X105095000Y-54480000D03*
X110145000Y-50280000D03*
%TO.N,Net-(U7-BST2)*%
X105070000Y-60680000D03*
X110145000Y-64880000D03*
%TO.N,Net-(U11-OV1)*%
X125645000Y-56280000D03*
X120145000Y-48080000D03*
%TO.N,Net-(U11-OV2)*%
X124345000Y-56380000D03*
X122645000Y-53980000D03*
%TO.N,Net-(U14-EN{slash}UVLO)*%
X167405000Y-41530000D03*
X168295000Y-43430000D03*
%TO.N,Net-(U18-EN{slash}UVLO)*%
X167355000Y-59730000D03*
X168245000Y-61630000D03*
%TD*%
D19*
%TO.N,/SYS_5V*%
X127095000Y-129930000D02*
X127095000Y-116368000D01*
D20*
X107595000Y-95680000D02*
X107595000Y-98180000D01*
D19*
X113500691Y-83324741D02*
X112931950Y-82756000D01*
X124657000Y-113930000D02*
X118570950Y-113930000D01*
X137223249Y-82126000D02*
X137223249Y-83324741D01*
X107969000Y-82756000D02*
X107595000Y-83130000D01*
X174841000Y-72476000D02*
X173220550Y-72476000D01*
X191395000Y-82376550D02*
X192041550Y-81730000D01*
X156130000Y-130080000D02*
X151183749Y-135026251D01*
X106535000Y-106855000D02*
X105535000Y-105855000D01*
X106535000Y-103255000D02*
X106535000Y-99240000D01*
X118570950Y-113930000D02*
X118170950Y-113530000D01*
X106535000Y-99240000D02*
X107595000Y-98180000D01*
X191395000Y-83296493D02*
X185661493Y-83296493D01*
X191395000Y-83296493D02*
X191395000Y-82376550D01*
X106535000Y-107076550D02*
X106535000Y-105855000D01*
X194730000Y-85595000D02*
X193693507Y-85595000D01*
X200320000Y-81705000D02*
X198486493Y-81705000D01*
X139779511Y-75845000D02*
X137823249Y-77801262D01*
X198486493Y-81705000D02*
X195745000Y-84446493D01*
X159130000Y-130080000D02*
X156130000Y-130080000D01*
X192041550Y-81730000D02*
X192320000Y-81730000D01*
X137223249Y-83324741D02*
X141003508Y-87105000D01*
X105535000Y-105855000D02*
X106535000Y-105855000D01*
D20*
X107595000Y-95680000D02*
X107595000Y-83130000D01*
D19*
X141003508Y-87105000D02*
X141720000Y-87105000D01*
X106535000Y-106855000D02*
X106535000Y-104855000D01*
X163380600Y-134330600D02*
X159130000Y-130080000D01*
X137823249Y-81526000D02*
X137223249Y-82126000D01*
X112988450Y-113530000D02*
X106535000Y-107076550D01*
X106535000Y-104855000D02*
X105535000Y-105855000D01*
X137823249Y-77801262D02*
X137823249Y-81526000D01*
X185661493Y-83296493D02*
X174841000Y-72476000D01*
D21*
X138803000Y-59091447D02*
X128095000Y-69799447D01*
D19*
X147210000Y-81615000D02*
X149687249Y-81615000D01*
X137223249Y-83324741D02*
X113500691Y-83324741D01*
X112931950Y-82756000D02*
X107969000Y-82756000D01*
X106535000Y-103255000D02*
X105535000Y-103255000D01*
X160271492Y-75845000D02*
X139779511Y-75845000D01*
X127095000Y-116368000D02*
X124657000Y-113930000D01*
X163366492Y-72750000D02*
X160271492Y-75845000D01*
X137823249Y-81526000D02*
X138127249Y-81830000D01*
X151183749Y-135026251D02*
X151183749Y-136557650D01*
D21*
X139195000Y-54580000D02*
X138803000Y-54972000D01*
D19*
X141720000Y-87105000D02*
X147210000Y-81615000D01*
X118170950Y-113530000D02*
X112988450Y-113530000D01*
X149687249Y-81615000D02*
X149877249Y-81805000D01*
X193693507Y-85595000D02*
X191395000Y-83296493D01*
X173220550Y-72476000D02*
X172946550Y-72750000D01*
X151183749Y-136557650D02*
X150110799Y-137630600D01*
X172946550Y-72750000D02*
X163366492Y-72750000D01*
D21*
X128095000Y-69799447D02*
X128095000Y-70030000D01*
D19*
X106535000Y-103255000D02*
X106535000Y-104855000D01*
X106535000Y-107076550D02*
X106535000Y-106855000D01*
X195745000Y-84446493D02*
X195745000Y-84580000D01*
X195745000Y-84580000D02*
X194730000Y-85595000D01*
D21*
X138803000Y-54972000D02*
X138803000Y-59091447D01*
D19*
X167710799Y-134330600D02*
X163380600Y-134330600D01*
%TO.N,/BUS_3V3*%
X210600000Y-49400000D02*
X207000000Y-49400000D01*
X215245000Y-124130000D02*
X214545000Y-124830000D01*
X212724000Y-125611456D02*
X207451456Y-130884000D01*
X215245000Y-124130000D02*
X215195000Y-124180000D01*
X216000000Y-75200000D02*
X216000000Y-73800000D01*
X213600000Y-55056550D02*
X213600000Y-52400000D01*
X216000000Y-73800000D02*
X216000000Y-76000000D01*
X207451456Y-130884000D02*
X200541000Y-130884000D01*
X214545000Y-124830000D02*
X212724000Y-124830000D01*
X194495000Y-136930000D02*
X194495000Y-140730000D01*
X216000000Y-73800000D02*
X216000000Y-57456550D01*
X213600000Y-52400000D02*
X210600000Y-49400000D01*
X216000000Y-57456550D02*
X213600000Y-55056550D01*
X212724000Y-124830000D02*
X212724000Y-125611456D01*
X200541000Y-130884000D02*
X194495000Y-136930000D01*
X216000000Y-76000000D02*
X216000000Y-76600000D01*
%TO.N,/BUS_5V*%
X161497450Y-109796000D02*
X158620550Y-109796000D01*
X158675000Y-122445395D02*
X156621964Y-124498431D01*
X168476493Y-75970000D02*
X164695000Y-75970000D01*
X157611000Y-110805550D02*
X157611000Y-111554450D01*
X156621964Y-124498431D02*
X156621964Y-126233957D01*
X165306200Y-128890000D02*
X169500600Y-124695600D01*
X169500600Y-124695600D02*
X173458056Y-124695600D01*
X156621964Y-126233957D02*
X156978007Y-126590000D01*
X158675000Y-112618450D02*
X158675000Y-122445395D01*
X164666000Y-92360050D02*
X165465000Y-93159050D01*
X197521000Y-88434000D02*
X193339000Y-88434000D01*
X199025000Y-85460000D02*
X199025000Y-86930000D01*
X174641000Y-84786000D02*
X171325000Y-81470000D01*
X171325000Y-81470000D02*
X171325000Y-78818507D01*
X158620550Y-109796000D02*
X157611000Y-110805550D01*
X161022985Y-128890000D02*
X165306200Y-128890000D01*
X164326000Y-98759000D02*
X164326000Y-106967450D01*
X164695000Y-75970000D02*
X164666000Y-75999000D01*
X156978007Y-126590000D02*
X158722985Y-126590000D01*
X164326000Y-106967450D02*
X161497450Y-109796000D01*
X189691000Y-84786000D02*
X174641000Y-84786000D01*
X164666000Y-75999000D02*
X164666000Y-92360050D01*
X214800000Y-71600000D02*
X214800000Y-57798042D01*
X158722985Y-126590000D02*
X161022985Y-128890000D01*
X214800000Y-57798042D02*
X212510000Y-55508042D01*
X199025000Y-86930000D02*
X197521000Y-88434000D01*
X176117339Y-127354883D02*
X176117339Y-128027661D01*
X212510000Y-52851492D02*
X211458508Y-51800000D01*
X213600000Y-72800000D02*
X213400000Y-72800000D01*
X193339000Y-88434000D02*
X189691000Y-84786000D01*
X214200000Y-72200000D02*
X213600000Y-72800000D01*
X214800000Y-71600000D02*
X214200000Y-72200000D01*
X213400000Y-72800000D02*
X213400000Y-73000000D01*
X173458056Y-124695600D02*
X176117339Y-127354883D01*
X157611000Y-111554450D02*
X158675000Y-112618450D01*
X171325000Y-78818507D02*
X168476493Y-75970000D01*
X211458508Y-51800000D02*
X207400000Y-51800000D01*
X213400000Y-73000000D02*
X213400000Y-73000000D01*
X165465000Y-97620000D02*
X164326000Y-98759000D01*
X165465000Y-93159050D02*
X165465000Y-97620000D01*
X212510000Y-55508042D02*
X212510000Y-52851492D01*
%TO.N,/SYS_3V3*%
X137324749Y-126735600D02*
X138324749Y-126735600D01*
X131228749Y-125831600D02*
X136699199Y-125831600D01*
D21*
X140049000Y-54000000D02*
X140649000Y-53400000D01*
D19*
X185903114Y-125785600D02*
X180285013Y-125785600D01*
X137382500Y-47617500D02*
X139800000Y-45200000D01*
X144845000Y-73580000D02*
X143545000Y-73580000D01*
D21*
X139545553Y-54000000D02*
X140049000Y-54000000D01*
D19*
X186807114Y-126689600D02*
X185903114Y-125785600D01*
X153289414Y-128990000D02*
X150131014Y-125831600D01*
X127324000Y-72476000D02*
X104874000Y-72476000D01*
X163035000Y-71540000D02*
X160120000Y-74455000D01*
X132074199Y-132264600D02*
X126944799Y-132264600D01*
X210120000Y-74505000D02*
X209620000Y-74505000D01*
X170002564Y-134360050D02*
X172573114Y-136930600D01*
X167186550Y-36000000D02*
X168220550Y-37034000D01*
X202420000Y-74505000D02*
X201420000Y-74505000D01*
X159295000Y-74455000D02*
X158995000Y-74755000D01*
X197795000Y-74905000D02*
X197245000Y-74355000D01*
X139800000Y-45200000D02*
X142503450Y-45200000D01*
D21*
X138922447Y-53922000D02*
X139467553Y-53922000D01*
D19*
X174606564Y-132230600D02*
X174606564Y-132985600D01*
X140649000Y-53400000D02*
X140649000Y-50884000D01*
X149302249Y-73580000D02*
X148277249Y-74605000D01*
X130324749Y-126735600D02*
X131228749Y-125831600D01*
X155702249Y-74455000D02*
X154827249Y-73580000D01*
X140649000Y-67854450D02*
X140649000Y-65384000D01*
X107049000Y-115384000D02*
X119675014Y-115384000D01*
X188181564Y-125785600D02*
X188181564Y-126064050D01*
X159581493Y-128990000D02*
X153289414Y-128990000D01*
X160120000Y-74455000D02*
X155702249Y-74455000D01*
X180285014Y-125785600D02*
X179575406Y-126495207D01*
X174457564Y-132081600D02*
X170532114Y-132081600D01*
D20*
X96145000Y-111130000D02*
X96145000Y-99199939D01*
D19*
X125281364Y-130601165D02*
X125281364Y-119890350D01*
X139145000Y-61455000D02*
X140649000Y-59951000D01*
X188181564Y-126064050D02*
X187556014Y-126689600D01*
X197395000Y-74505000D02*
X193445000Y-74505000D01*
D20*
X105216500Y-90128439D02*
X105216500Y-73201500D01*
D19*
X137324749Y-126457150D02*
X137324749Y-126735600D01*
X169441000Y-129626000D02*
X166320550Y-129626000D01*
X193445000Y-74276550D02*
X192794450Y-73626000D01*
X174606564Y-132230600D02*
X174457564Y-132081600D01*
D22*
X101711000Y-71711000D02*
X103951000Y-71711000D01*
D19*
X140649000Y-65384000D02*
X139145000Y-63880000D01*
X170002564Y-133330600D02*
X170002564Y-130187564D01*
X145199000Y-42504450D02*
X145199000Y-40399000D01*
X146530699Y-73580000D02*
X144845000Y-73580000D01*
X173795057Y-70360000D02*
X172615057Y-71540000D01*
X169166000Y-37034000D02*
X169595000Y-36605000D01*
D22*
X98500000Y-66600000D02*
X99000000Y-66100000D01*
D19*
X139145000Y-62745000D02*
X139145000Y-61855000D01*
X174606564Y-127385600D02*
X174606564Y-132230600D01*
X130745000Y-73430000D02*
X130520000Y-73205000D01*
X139145000Y-61745000D02*
X139145000Y-61455000D01*
X140649000Y-59951000D02*
X140649000Y-53400000D01*
X205220550Y-49454450D02*
X200345000Y-54330000D01*
X172649000Y-49505550D02*
X172649000Y-51176000D01*
X170532114Y-132081600D02*
X170002564Y-132611150D01*
X129324749Y-126735600D02*
X130324749Y-126735600D01*
D22*
X103951000Y-71711000D02*
X104795000Y-72555000D01*
D19*
X150131014Y-125831600D02*
X145510799Y-125831600D01*
X145510799Y-125831600D02*
X145510799Y-126724550D01*
D22*
X99700000Y-71700000D02*
X98500000Y-70500000D01*
D19*
X127742500Y-72057500D02*
X126977500Y-71292500D01*
D20*
X95445000Y-111830000D02*
X96145000Y-111130000D01*
D19*
X209216000Y-73601000D02*
X208145550Y-73601000D01*
X192045550Y-73626000D02*
X186266350Y-79405200D01*
X169799000Y-37667000D02*
X169799000Y-46655550D01*
D21*
X137852000Y-56197000D02*
X137852000Y-54992447D01*
D19*
X137600000Y-73430000D02*
X137600000Y-70751725D01*
X144125299Y-125831600D02*
X143221299Y-126735600D01*
D21*
X129345000Y-56380000D02*
X129528000Y-56197000D01*
D19*
X189181564Y-125785600D02*
X188181564Y-125785600D01*
X145199000Y-40399000D02*
X144641000Y-39841000D01*
X192794450Y-73626000D02*
X192045550Y-73626000D01*
X160120000Y-74455000D02*
X159295000Y-74455000D01*
X139145000Y-61855000D02*
X139200000Y-61800000D01*
X160605668Y-130014175D02*
X159581493Y-128990000D01*
D22*
X101700000Y-71700000D02*
X101711000Y-71711000D01*
D19*
X147277249Y-74605000D02*
X147277249Y-74326550D01*
X205220550Y-42684000D02*
X205220550Y-49454450D01*
X136699199Y-125831600D02*
X137324749Y-126457150D01*
X169595000Y-36605000D02*
X198591550Y-36605000D01*
D21*
X129528000Y-56197000D02*
X137852000Y-56197000D01*
D19*
X139745000Y-74630000D02*
X139227249Y-74630000D01*
X147277249Y-74326550D02*
X146530699Y-73580000D01*
X180729053Y-75514253D02*
X180729053Y-74455000D01*
X169166000Y-37034000D02*
X169799000Y-37667000D01*
X138545000Y-73430000D02*
X137600000Y-73430000D01*
X165932375Y-130014175D02*
X160605668Y-130014175D01*
D21*
X137382500Y-47617500D02*
X135545000Y-45780000D01*
D19*
X126944799Y-132264600D02*
X125281364Y-130601165D01*
X208145550Y-73601000D02*
X207520000Y-74226550D01*
X182858114Y-136930600D02*
X186663114Y-133125600D01*
X180729053Y-71305200D02*
X180729053Y-71026750D01*
D21*
X137852000Y-54992447D02*
X138922447Y-53922000D01*
D19*
X104874000Y-72476000D02*
X104795000Y-72555000D01*
X207520000Y-74783450D02*
X202698450Y-74783450D01*
X173006564Y-125785600D02*
X174606564Y-127385600D01*
X202698450Y-74783450D02*
X202420000Y-74505000D01*
X120577364Y-116286350D02*
X120577364Y-116564800D01*
X125281364Y-119890350D02*
X122921614Y-117530600D01*
X137600000Y-70751725D02*
X136145000Y-70751725D01*
X200794450Y-75409000D02*
X198299000Y-75409000D01*
X169595000Y-36605000D02*
X169595000Y-36130000D01*
X180062303Y-70360000D02*
X173795057Y-70360000D01*
X186266350Y-79405200D02*
X184620000Y-79405200D01*
X140649000Y-50884000D02*
X137382500Y-47617500D01*
D22*
X101700000Y-71700000D02*
X99700000Y-71700000D01*
D19*
X197795000Y-74905000D02*
X197395000Y-74505000D01*
X128890000Y-73205000D02*
X127742500Y-72057500D01*
D20*
X105216500Y-73201500D02*
X105095000Y-73080000D01*
D19*
X155702249Y-74455000D02*
X155527249Y-74630000D01*
X130520000Y-73205000D02*
X128890000Y-73205000D01*
X169799000Y-46655550D02*
X172649000Y-49505550D01*
X145200000Y-36000000D02*
X167186550Y-36000000D01*
X210120000Y-74505000D02*
X209216000Y-73601000D01*
D21*
X139467553Y-53922000D02*
X139545553Y-54000000D01*
D19*
X174606564Y-131464048D02*
X174606564Y-127385600D01*
X193445000Y-74505000D02*
X193445000Y-74276550D01*
X101059000Y-114294000D02*
X105959000Y-114294000D01*
X199719450Y-37182900D02*
X205220550Y-42684000D01*
X193445000Y-74505000D02*
X193420000Y-74530000D01*
X187556014Y-126689600D02*
X186807114Y-126689600D01*
X148277249Y-74605000D02*
X147277249Y-74605000D01*
X166320550Y-129626000D02*
X165932375Y-130014175D01*
X139200000Y-61800000D02*
X139145000Y-61745000D01*
X181006564Y-125785600D02*
X180285014Y-125785600D01*
X104795000Y-72555000D02*
X104716500Y-72555000D01*
X180729053Y-71026750D02*
X180062303Y-70360000D01*
X207520000Y-74226550D02*
X207520000Y-74783450D01*
X139200000Y-62800000D02*
X139145000Y-62745000D01*
X180006564Y-125785600D02*
X181006564Y-125785600D01*
X105959000Y-114294000D02*
X107049000Y-115384000D01*
X145510799Y-126724550D02*
X145499749Y-126735600D01*
X198299000Y-75409000D02*
X197795000Y-74905000D01*
X154827249Y-73580000D02*
X149302249Y-73580000D01*
D22*
X99000000Y-66100000D02*
X108900000Y-66100000D01*
D19*
X199719450Y-36984000D02*
X199719450Y-37182900D01*
X144641000Y-39841000D02*
X144641000Y-36559000D01*
X207520000Y-74783450D02*
X207520000Y-74430000D01*
X137600000Y-70751725D02*
X137751725Y-70751725D01*
X173006564Y-125785600D02*
X172006564Y-125785600D01*
X201420000Y-74505000D02*
X201420000Y-74783450D01*
X143545000Y-73580000D02*
X142595000Y-74530000D01*
X170002564Y-130187564D02*
X169441000Y-129626000D01*
X121543164Y-117530600D02*
X120577364Y-116564800D01*
X143221299Y-126735600D02*
X137603199Y-126735600D01*
X198970550Y-36984000D02*
X199719450Y-36984000D01*
D20*
X96145000Y-99199939D02*
X105216500Y-90128439D01*
D19*
X127742500Y-72057500D02*
X127324000Y-72476000D01*
X119675014Y-115384000D02*
X120577364Y-116286350D01*
X144641000Y-36559000D02*
X145200000Y-36000000D01*
X172649000Y-51176000D02*
X169495000Y-54330000D01*
X184620000Y-79405200D02*
X180729053Y-75514253D01*
X201420000Y-74783450D02*
X200794450Y-75409000D01*
X180285013Y-125785600D02*
X179575406Y-126495207D01*
X170002564Y-132611150D02*
X170002564Y-134360050D01*
D22*
X98500000Y-70500000D02*
X98500000Y-66600000D01*
D19*
X179575406Y-126495207D02*
X174606564Y-131464048D01*
X180729053Y-74455000D02*
X180729053Y-71305200D01*
X137603199Y-126735600D02*
X132074199Y-132264600D01*
X137600000Y-73430000D02*
X130745000Y-73430000D01*
X142503450Y-45200000D02*
X145199000Y-42504450D01*
X172615057Y-71540000D02*
X163035000Y-71540000D01*
X139145000Y-63880000D02*
X139145000Y-62855000D01*
X145510799Y-125831600D02*
X144125299Y-125831600D01*
X184620000Y-79405200D02*
X183787053Y-79405200D01*
X172573114Y-136930600D02*
X182858114Y-136930600D01*
X139745000Y-74630000D02*
X138545000Y-73430000D01*
X198591550Y-36605000D02*
X198970550Y-36984000D01*
X199719450Y-36984000D02*
X200295000Y-36408450D01*
X139145000Y-62855000D02*
X139200000Y-62800000D01*
X100994000Y-114359000D02*
X101059000Y-114294000D01*
X97974000Y-114359000D02*
X100994000Y-114359000D01*
X95445000Y-111830000D02*
X97974000Y-114359000D01*
X210620000Y-74505000D02*
X210120000Y-74505000D01*
X122921614Y-117530600D02*
X121543164Y-117530600D01*
X142695000Y-74630000D02*
X139745000Y-74630000D01*
X137751725Y-70751725D02*
X140649000Y-67854450D01*
X205220550Y-42684000D02*
X210800000Y-42684000D01*
X168220550Y-37034000D02*
X169166000Y-37034000D01*
X200295000Y-36408450D02*
X200295000Y-36080000D01*
%TO.N,/Main_uC/VBUS*%
X198219890Y-121054890D02*
X198199000Y-121034000D01*
X190370000Y-123758450D02*
X196277556Y-129666006D01*
X194145000Y-82326550D02*
X194145000Y-84380000D01*
X201645000Y-122355000D02*
X200504225Y-121214225D01*
X168919000Y-121734000D02*
X175291000Y-121734000D01*
X190370000Y-119330000D02*
X190370000Y-118205000D01*
X200178600Y-117692050D02*
X200178600Y-116680000D01*
X216657800Y-112192200D02*
X216657800Y-108405000D01*
X176395000Y-118885000D02*
X177750000Y-117530000D01*
X198720110Y-121054890D02*
X199416000Y-120359000D01*
X214770000Y-97630000D02*
X214770000Y-80622262D01*
X213510600Y-102564400D02*
X212552600Y-103522400D01*
X190370000Y-119330000D02*
X190370000Y-123758450D01*
X198199000Y-121034000D02*
X198199000Y-121055000D01*
X214492250Y-102564400D02*
X213510600Y-102564400D01*
X190370000Y-118205000D02*
X191120000Y-117455000D01*
X212850200Y-101904000D02*
X212945000Y-101809200D01*
X212945000Y-99455000D02*
X214770000Y-97630000D01*
X210920000Y-117658450D02*
X210920000Y-116105000D01*
X194145000Y-84380000D02*
X194145000Y-84505000D01*
X165159000Y-113855550D02*
X165159000Y-120264007D01*
X204024000Y-119976000D02*
X207794450Y-119976000D01*
X205059250Y-101904000D02*
X204448050Y-102515200D01*
X160255000Y-111945000D02*
X160974000Y-111226000D01*
X200194450Y-120359000D02*
X200795000Y-119758450D01*
X212945000Y-101809200D02*
X212945000Y-99455000D01*
X209670000Y-101904000D02*
X205059250Y-101904000D01*
X203634800Y-102515200D02*
X202478400Y-103671600D01*
X204448050Y-102515200D02*
X203634800Y-102515200D01*
X207794450Y-119976000D02*
X208345000Y-120526550D01*
X165159000Y-120264007D02*
X164764600Y-120658407D01*
X213510600Y-102564400D02*
X212850200Y-101904000D01*
X202478400Y-103671600D02*
X202478400Y-103762800D01*
X162755000Y-111851550D02*
X163155000Y-111851550D01*
X163155000Y-111851550D02*
X165159000Y-113855550D01*
X168755000Y-121570000D02*
X169050000Y-121275000D01*
X215021800Y-104030000D02*
X215021800Y-102442000D01*
X201645000Y-122355000D02*
X204024000Y-119976000D01*
X164764600Y-120658407D02*
X162742964Y-120658407D01*
X216657800Y-108405000D02*
X216657800Y-106262400D01*
X212696725Y-119131725D02*
X213795000Y-118033450D01*
X183374000Y-121659000D02*
X189892725Y-121659000D01*
X215021800Y-105989550D02*
X215021800Y-104030000D01*
X210835000Y-117573450D02*
X210835000Y-113505000D01*
X200178600Y-116680000D02*
X200178600Y-116013600D01*
X212850200Y-101904000D02*
X209670000Y-101904000D01*
X212696725Y-119131725D02*
X212393275Y-119131725D01*
X213795000Y-115055000D02*
X216657800Y-112192200D01*
X203220000Y-125355000D02*
X203220000Y-123930000D01*
X207794450Y-119976000D02*
X208127450Y-120309000D01*
X198219890Y-121054890D02*
X198720110Y-121054890D01*
X177045000Y-122430000D02*
X180695000Y-122430000D01*
X176395000Y-120630000D02*
X176395000Y-118885000D01*
X212393275Y-119131725D02*
X210920000Y-117658450D01*
X182420000Y-120705000D02*
X182420000Y-119355000D01*
X200504225Y-121214225D02*
X200504225Y-120049225D01*
X199341550Y-77130000D02*
X194145000Y-82326550D01*
X203220000Y-123930000D02*
X201645000Y-122355000D01*
X210920000Y-117658450D02*
X210835000Y-117573450D01*
X200110000Y-116611400D02*
X200110000Y-113555000D01*
X160974000Y-111226000D02*
X162129450Y-111226000D01*
X211519450Y-120309000D02*
X212696725Y-119131725D01*
X215021800Y-104030000D02*
X215021800Y-103093950D01*
X176395000Y-120630000D02*
X176395000Y-121780000D01*
X165676193Y-121570000D02*
X168755000Y-121570000D01*
X212552600Y-103522400D02*
X212552600Y-103812000D01*
X200178600Y-116680000D02*
X200110000Y-116611400D01*
X215021800Y-103093950D02*
X214492250Y-102564400D01*
X216657800Y-108405000D02*
X216657800Y-107625550D01*
X169050000Y-121275000D02*
X169050000Y-119430000D01*
X214770000Y-80622262D02*
X211277738Y-77130000D01*
X180695000Y-122430000D02*
X182420000Y-120705000D01*
X211277738Y-77130000D02*
X199341550Y-77130000D01*
X176395000Y-121780000D02*
X177045000Y-122430000D01*
X190370000Y-121181725D02*
X190370000Y-119330000D01*
X216657800Y-107625550D02*
X215021800Y-105989550D01*
X182420000Y-120705000D02*
X183374000Y-121659000D01*
X208345000Y-120526550D02*
X208345000Y-121029890D01*
X162129450Y-111226000D02*
X162755000Y-111851550D01*
X196277556Y-129666006D02*
X198908994Y-129666006D01*
X213795000Y-118033450D02*
X213795000Y-115055000D01*
X208127450Y-120309000D02*
X211519450Y-120309000D01*
X175291000Y-121734000D02*
X176395000Y-120630000D01*
X162755000Y-111851550D02*
X162755000Y-112130000D01*
X164764600Y-120658407D02*
X165676193Y-121570000D01*
X168755000Y-121570000D02*
X168919000Y-121734000D01*
X198908994Y-129666006D02*
X203220000Y-125355000D01*
X200795000Y-118308450D02*
X200178600Y-117692050D01*
X215021800Y-102442000D02*
X214727400Y-102147600D01*
X200795000Y-119758450D02*
X200795000Y-118308450D01*
X189892725Y-121659000D02*
X190370000Y-121181725D01*
X199416000Y-120359000D02*
X200194450Y-120359000D01*
X213795000Y-115055000D02*
X213045000Y-114305000D01*
X160255000Y-113440000D02*
X160255000Y-111945000D01*
%TO.N,/Misc_uC_Combined/M1SUB3V3*%
X183010799Y-145830600D02*
X184415799Y-147235600D01*
X164131564Y-153514050D02*
X164131564Y-153535600D01*
X163742339Y-153124825D02*
X164131564Y-153514050D01*
X172620564Y-138020600D02*
X172121622Y-138020600D01*
X184731564Y-148497650D02*
X188099114Y-151865200D01*
X157631564Y-132914050D02*
X162853114Y-138135600D01*
X159031564Y-148414050D02*
X163742339Y-153124825D01*
X163227564Y-138039600D02*
X159031564Y-142235600D01*
X188931564Y-134035600D02*
X188931564Y-135335600D01*
X164153114Y-153535600D02*
X170531564Y-153535600D01*
X166035564Y-136930600D02*
X166035564Y-137510050D01*
X171031622Y-136930600D02*
X166035564Y-136930600D01*
X166035564Y-137510050D02*
X165506014Y-138039600D01*
X188099114Y-151865200D02*
X188715164Y-151865200D01*
X163742339Y-153124825D02*
X164153114Y-153535600D01*
X181281564Y-142060600D02*
X183010799Y-143789835D01*
X159031564Y-142235600D02*
X159031564Y-146835600D01*
X174531564Y-141857150D02*
X174531564Y-142135600D01*
X175831564Y-141231600D02*
X175157114Y-141231600D01*
X188931564Y-135335600D02*
X183831564Y-140435600D01*
X183831564Y-140435600D02*
X183831564Y-141231600D01*
X183831564Y-141231600D02*
X175831564Y-141231600D01*
X159031564Y-146835600D02*
X159031564Y-148135600D01*
X159031564Y-146835600D02*
X159031564Y-148414050D01*
X175157114Y-141231600D02*
X174531564Y-141857150D01*
X184415799Y-147235600D02*
X184731564Y-147235600D01*
X162853114Y-138135600D02*
X163131564Y-138135600D01*
X175831564Y-141231600D02*
X172620564Y-138020600D01*
X172121622Y-138020600D02*
X171031622Y-136930600D01*
X181281564Y-141231600D02*
X181281564Y-142060600D01*
X183010799Y-143789835D02*
X183010799Y-145830600D01*
X184731564Y-147235600D02*
X184731564Y-148497650D01*
X165506014Y-138039600D02*
X163227564Y-138039600D01*
X157631564Y-131335600D02*
X157631564Y-132914050D01*
%TO.N,/Misc_uC_Combined/M1SUB5V*%
X183510564Y-134360050D02*
X183510564Y-134030835D01*
X187892614Y-141280600D02*
X187892614Y-148981400D01*
X190805014Y-131730600D02*
X191731564Y-132657150D01*
X178101564Y-146105600D02*
X178101564Y-145280600D01*
X185810799Y-131730600D02*
X190805014Y-131730600D01*
X191310799Y-155266815D02*
X190354014Y-156223600D01*
X180731564Y-133935600D02*
X180731564Y-135230000D01*
X187892614Y-148981400D02*
X191310799Y-152399585D01*
X182435014Y-135435600D02*
X183510564Y-134360050D01*
X180731564Y-135335600D02*
X180831564Y-135435600D01*
X185701564Y-141280600D02*
X187892614Y-141280600D01*
X180731564Y-135230000D02*
X180731564Y-135335600D01*
X191310799Y-152399585D02*
X191310799Y-155266815D01*
X191731564Y-132657150D02*
X191731564Y-137441650D01*
X183510564Y-134030835D02*
X185810799Y-131730600D01*
X188219564Y-156223600D02*
X178101564Y-146105600D01*
X191731564Y-137441650D02*
X187892614Y-141280600D01*
X180831564Y-135435600D02*
X182435014Y-135435600D01*
X190354014Y-156223600D02*
X188219564Y-156223600D01*
D21*
%TO.N,/Misc_uC_Combined/M1VBUS*%
X203955000Y-144820000D02*
X202913600Y-143778600D01*
D19*
X193805564Y-154313542D02*
X190783506Y-157335600D01*
X189994764Y-149510350D02*
X189994764Y-149542058D01*
D21*
X202913600Y-143778600D02*
X193174964Y-143778600D01*
D19*
X179299114Y-131314600D02*
X184419826Y-131314600D01*
X177860814Y-148476800D02*
X178486364Y-149102350D01*
X193073564Y-143880000D02*
X193073564Y-147493600D01*
X172731564Y-134035600D02*
X172731564Y-135335600D01*
X189952564Y-128456600D02*
X193073564Y-131577600D01*
X175982364Y-150694800D02*
X175986364Y-150690800D01*
X193805564Y-149877600D02*
X193805564Y-154313542D01*
X175982364Y-151335600D02*
X175982364Y-149606350D01*
X189994764Y-149542058D02*
X190209935Y-149757229D01*
X174631564Y-154404450D02*
X174631564Y-151810600D01*
X191185514Y-148319600D02*
X189994764Y-149510350D01*
X177111914Y-148476800D02*
X177860814Y-148476800D01*
X175982364Y-151335600D02*
X175982364Y-150694800D01*
X192247564Y-148319600D02*
X193805564Y-149877600D01*
X172731564Y-135335600D02*
X175278114Y-135335600D01*
X187277826Y-128456600D02*
X189952564Y-128456600D01*
X175982364Y-149606350D02*
X177111914Y-148476800D01*
D21*
X193174964Y-143778600D02*
X193073564Y-143880000D01*
D19*
X175106564Y-151335600D02*
X175982364Y-151335600D01*
X184419826Y-131314600D02*
X187277826Y-128456600D01*
X174631564Y-151810600D02*
X175106564Y-151335600D01*
X190783506Y-157335600D02*
X177562714Y-157335600D01*
X192247564Y-148319600D02*
X191185514Y-148319600D01*
X177562714Y-157335600D02*
X174631564Y-154404450D01*
X175278114Y-135335600D02*
X179299114Y-131314600D01*
X193073564Y-131577600D02*
X193073564Y-143880000D01*
X193073564Y-147493600D02*
X192247564Y-148319600D01*
X178486364Y-149102350D02*
X178486364Y-149380800D01*
%TO.N,/Misc_uC_Combined/Misc_uCs/SUB3V3*%
X119663549Y-138577850D02*
X119663549Y-138683350D01*
X119663549Y-138683350D02*
X121396999Y-140416800D01*
X138781564Y-142181600D02*
X138781564Y-143260600D01*
X133149749Y-142181600D02*
X132475299Y-142181600D01*
X121714799Y-140734600D02*
X121396999Y-140416800D01*
X142049749Y-148185600D02*
X142049749Y-149447650D01*
X139447564Y-143926600D02*
X139494199Y-143926600D01*
X114949749Y-133864050D02*
X119663549Y-138577850D01*
X116349749Y-147785600D02*
X116349749Y-149364050D01*
X139494199Y-143926600D02*
X141210799Y-145643200D01*
X146249749Y-136285600D02*
X140353749Y-142181600D01*
X121471299Y-154485600D02*
X127849749Y-154485600D01*
X121060524Y-154074825D02*
X121449749Y-154464050D01*
X119663549Y-138577850D02*
X120171299Y-139085600D01*
X118478199Y-143335600D02*
X116349749Y-143335600D01*
X116349749Y-143335600D02*
X116349749Y-147785600D01*
X127861799Y-142181600D02*
X126414799Y-140734600D01*
X116349749Y-149364050D02*
X121060524Y-154074825D01*
X116349749Y-147785600D02*
X116349749Y-149085600D01*
X133149749Y-142181600D02*
X127861799Y-142181600D01*
X146249749Y-134985600D02*
X146249749Y-136285600D01*
X121060524Y-154074825D02*
X121471299Y-154485600D01*
X138781564Y-143260600D02*
X139447564Y-143926600D01*
X121449749Y-154464050D02*
X121449749Y-154485600D01*
X120171299Y-139085600D02*
X120449749Y-139085600D01*
X126414799Y-140734600D02*
X121714799Y-140734600D01*
X140353749Y-142181600D02*
X133149749Y-142181600D01*
X114949749Y-132285600D02*
X114949749Y-133864050D01*
X141210799Y-147346650D02*
X142049749Y-148185600D01*
X145417299Y-152815200D02*
X146033349Y-152815200D01*
X121396999Y-140416800D02*
X118478199Y-143335600D01*
X141210799Y-145643200D02*
X141210799Y-147346650D01*
X142049749Y-149447650D02*
X145417299Y-152815200D01*
X131849749Y-142807150D02*
X131849749Y-143085600D01*
X132475299Y-142181600D02*
X131849749Y-142807150D01*
%TO.N,/Misc_uC_Combined/Misc_uCs/SUB5V*%
X138049749Y-136180000D02*
X138049749Y-136285600D01*
X143019749Y-142230600D02*
X145210799Y-142230600D01*
X145537749Y-157173600D02*
X135419749Y-147055600D01*
X148473199Y-133030600D02*
X149003749Y-133561150D01*
X139753199Y-136385600D02*
X140828749Y-135310050D01*
X147510799Y-139930600D02*
X145210799Y-142230600D01*
X138049749Y-136285600D02*
X138149749Y-136385600D01*
X140828749Y-135310050D02*
X140828749Y-134812650D01*
X138049749Y-134885600D02*
X138049749Y-136180000D01*
X138149749Y-136385600D02*
X139753199Y-136385600D01*
X149003749Y-135310050D02*
X147510799Y-136803000D01*
X147510799Y-136803000D02*
X147510799Y-139930600D01*
X142610799Y-133030600D02*
X148473199Y-133030600D01*
X145210799Y-142230600D02*
X145210799Y-149931400D01*
X148710799Y-156135000D02*
X147672199Y-157173600D01*
X148710799Y-153431400D02*
X148710799Y-156135000D01*
X149003749Y-133561150D02*
X149003749Y-135310050D01*
X135419749Y-147055600D02*
X135419749Y-146230600D01*
X140828749Y-134812650D02*
X142610799Y-133030600D01*
X147672199Y-157173600D02*
X145537749Y-157173600D01*
X145210799Y-149931400D02*
X148710799Y-153431400D01*
%TO.N,/Misc_uC_Combined/Misc_uCs/VBUS*%
X141738011Y-132264600D02*
X144596011Y-129406600D01*
X147312949Y-150492058D02*
X147528120Y-150707229D01*
X130914599Y-156389600D02*
X120954600Y-156389600D01*
X132596299Y-136285600D02*
X136617299Y-132264600D01*
X114895000Y-136230000D02*
X113195000Y-134530000D01*
X135804549Y-150052350D02*
X135804549Y-150330800D01*
X147312949Y-150460350D02*
X147312949Y-150492058D01*
X121553749Y-132238749D02*
X125400600Y-136085600D01*
D22*
X147312949Y-150517200D02*
X148397897Y-150517200D01*
D19*
X131949749Y-155354450D02*
X130914599Y-156389600D01*
X148600799Y-137254492D02*
X148600799Y-140382093D01*
X136617299Y-132264600D02*
X141738011Y-132264600D01*
X114653506Y-131040350D02*
X121024199Y-131040350D01*
X133300549Y-150556350D02*
X134430099Y-149426800D01*
X148503699Y-149269600D02*
X147312949Y-150460350D01*
X149565749Y-149269600D02*
X148503699Y-149269600D01*
X130049749Y-136285600D02*
X132596299Y-136285600D01*
X133300549Y-151644800D02*
X133304549Y-151640800D01*
X113195000Y-134530000D02*
X113195000Y-132498856D01*
X114895000Y-141480000D02*
X114895000Y-136230000D01*
X134430099Y-149426800D02*
X135178999Y-149426800D01*
X148600799Y-140382093D02*
X148510799Y-140472093D01*
X131949749Y-153636400D02*
X131949749Y-155354450D01*
X114445749Y-149880749D02*
X114445749Y-141929251D01*
D22*
X150848297Y-152967600D02*
X151418149Y-152967600D01*
D19*
X147270749Y-129406600D02*
X150093749Y-132229600D01*
X133300549Y-152285600D02*
X133300549Y-151644800D01*
X125400600Y-136085600D02*
X130049749Y-136085600D01*
X144596011Y-129406600D02*
X147270749Y-129406600D01*
X113195000Y-132498856D02*
X114653506Y-131040350D01*
X133300549Y-152285600D02*
X131949749Y-153636400D01*
X135178999Y-149426800D02*
X135804549Y-150052350D01*
X150093749Y-135761542D02*
X148600799Y-137254492D01*
X150093749Y-132229600D02*
X150093749Y-135761542D01*
X148510799Y-140472093D02*
X148510799Y-148214650D01*
X121024199Y-131040350D02*
X121553749Y-131569900D01*
X133300549Y-152285600D02*
X133300549Y-150556350D01*
X120954600Y-156389600D02*
X114445749Y-149880749D01*
X130049749Y-134985600D02*
X130049749Y-136285600D01*
D22*
X148397897Y-150517200D02*
X150848297Y-152967600D01*
D19*
X121553749Y-131569900D02*
X121553749Y-132238749D01*
X114445749Y-141929251D02*
X114895000Y-141480000D01*
X148510799Y-148214650D02*
X149565749Y-149269600D01*
%TO.N,/Main_uC/SUB3V3*%
X180895000Y-111890000D02*
X185145000Y-111890000D01*
X167148450Y-120480000D02*
X166850000Y-120480000D01*
X200518725Y-106903725D02*
X201198800Y-106223650D01*
X167960000Y-119668450D02*
X167148450Y-120480000D01*
X180320000Y-86730000D02*
X180284000Y-86694000D01*
X185730000Y-86690000D02*
X180360000Y-86690000D01*
X203970000Y-98005000D02*
X205445000Y-96530000D01*
X201198800Y-106223650D02*
X201198800Y-106060800D01*
X170330000Y-103730000D02*
X170330000Y-108540000D01*
X170330000Y-97105000D02*
X170330000Y-98490000D01*
X195532450Y-111890000D02*
X196731225Y-110691225D01*
X170330000Y-103730000D02*
X170330000Y-107590000D01*
X206209150Y-105309200D02*
X210472200Y-105309200D01*
X197009000Y-103394000D02*
X196084000Y-103394000D01*
X205445000Y-96530000D02*
X206020000Y-95955000D01*
X173406000Y-86694000D02*
X168670000Y-81958000D01*
X168375000Y-118563507D02*
X167960000Y-118978507D01*
X208245000Y-96088450D02*
X208245000Y-86480000D01*
X196731225Y-110691225D02*
X200518725Y-106903725D01*
X198741550Y-113555000D02*
X195391000Y-116905550D01*
X175230000Y-111890000D02*
X180895000Y-111890000D01*
X185145000Y-111890000D02*
X186730000Y-111890000D01*
X196084000Y-103394000D02*
X195630000Y-102940000D01*
X180360000Y-86690000D02*
X180320000Y-86730000D01*
X170330000Y-97105000D02*
X170330000Y-103730000D01*
X210345000Y-84380000D02*
X210345000Y-82680000D01*
X174045000Y-110705000D02*
X175230000Y-111890000D01*
X170330000Y-91280000D02*
X170330000Y-93090000D01*
X195630000Y-98005000D02*
X195630000Y-90590000D01*
X205445000Y-96530000D02*
X205844000Y-96929000D01*
X179845550Y-112939450D02*
X179845550Y-118521000D01*
X209466550Y-113505000D02*
X209745000Y-113505000D01*
X195391000Y-121279450D02*
X196016550Y-121905000D01*
X205838350Y-105680000D02*
X206209150Y-105309200D01*
X179316000Y-119799450D02*
X179921550Y-120405000D01*
X172520000Y-110730000D02*
X172545000Y-110705000D01*
X185145000Y-111890000D02*
X190745000Y-111890000D01*
X168670000Y-81958000D02*
X168670000Y-77705000D01*
X207404450Y-96929000D02*
X208245000Y-96088450D01*
X210345000Y-82680000D02*
X210345000Y-82580000D01*
X167960000Y-118978507D02*
X167960000Y-119668450D01*
D22*
X206045000Y-118780000D02*
X206045000Y-117205000D01*
D19*
X173406000Y-86694000D02*
X170330000Y-89770000D01*
X172545000Y-110705000D02*
X174045000Y-110705000D01*
X172520000Y-110730000D02*
X168375000Y-114875000D01*
X208841000Y-112879450D02*
X209466550Y-113505000D01*
X210472200Y-110499350D02*
X208841000Y-112130550D01*
X210472200Y-105309200D02*
X210472200Y-110499350D01*
D22*
X206045000Y-117205000D02*
X209745000Y-113505000D01*
D19*
X196731225Y-111544675D02*
X198741550Y-113555000D01*
X195630000Y-102940000D02*
X195630000Y-98005000D01*
X170330000Y-91280000D02*
X170330000Y-97105000D01*
X180895000Y-111890000D02*
X179845550Y-112939450D01*
X198741550Y-113555000D02*
X199020000Y-113555000D01*
X190745000Y-111890000D02*
X195532450Y-111890000D01*
X180284000Y-86694000D02*
X173406000Y-86694000D01*
X195630000Y-98005000D02*
X203970000Y-98005000D01*
X195391000Y-116905550D02*
X195391000Y-121279450D01*
X210472200Y-105309200D02*
X211273000Y-106110000D01*
X196016550Y-121905000D02*
X196295000Y-121905000D01*
X200518725Y-106903725D02*
X201742450Y-105680000D01*
X170330000Y-108540000D02*
X172520000Y-110730000D01*
X190745000Y-111890000D02*
X192030000Y-111890000D01*
X168375000Y-114875000D02*
X168375000Y-118563507D01*
X201742450Y-105680000D02*
X205838350Y-105680000D01*
X170330000Y-89770000D02*
X170330000Y-91280000D01*
X179316000Y-119050550D02*
X179316000Y-119799450D01*
X208841000Y-112130550D02*
X208841000Y-112879450D01*
X179845550Y-118521000D02*
X179316000Y-119050550D01*
X195630000Y-102940000D02*
X195630000Y-102490000D01*
X200518725Y-106903725D02*
X197009000Y-103394000D01*
X180895000Y-111890000D02*
X181730000Y-111890000D01*
X196731225Y-110691225D02*
X196731225Y-111544675D01*
X208245000Y-86480000D02*
X210345000Y-84380000D01*
X195630000Y-98005000D02*
X195630000Y-97090000D01*
X179921550Y-120405000D02*
X180220000Y-120405000D01*
X205844000Y-96929000D02*
X207404450Y-96929000D01*
%TO.N,/Main_uC/SUB5V*%
X205120000Y-87305000D02*
X205120000Y-83705000D01*
X200334000Y-93399450D02*
X199708450Y-94025000D01*
X205120000Y-87305000D02*
X203245000Y-87305000D01*
X213170000Y-88155000D02*
X210604000Y-90721000D01*
X202170000Y-84355000D02*
X202170000Y-82930000D01*
X205720000Y-87305000D02*
X205120000Y-87305000D01*
X210604000Y-90721000D02*
X210604000Y-93394450D01*
X203245000Y-87305000D02*
X202170000Y-86230000D01*
X208024000Y-80801000D02*
X212594450Y-80801000D01*
X205120000Y-83705000D02*
X208024000Y-80801000D01*
X200334000Y-90216000D02*
X200334000Y-93399450D01*
X202170000Y-86230000D02*
X202170000Y-84405000D01*
X212594450Y-80801000D02*
X213170000Y-81376550D01*
X207040000Y-88625000D02*
X205720000Y-87305000D01*
X213170000Y-81376550D02*
X213170000Y-88155000D01*
X209978450Y-94020000D02*
X209700000Y-94020000D01*
X210604000Y-93394450D02*
X209978450Y-94020000D01*
X203245000Y-87305000D02*
X200334000Y-90216000D01*
X202170000Y-84405000D02*
X202145000Y-84380000D01*
X199708450Y-94025000D02*
X199430000Y-94025000D01*
X207040000Y-90025000D02*
X207040000Y-88625000D01*
X202145000Y-84380000D02*
X202170000Y-84355000D01*
%TO.N,/EPS_uC/SUB3V3*%
X142534000Y-103586000D02*
X142630000Y-103490000D01*
X141200000Y-96060000D02*
X141630000Y-95630000D01*
X141726000Y-103586000D02*
X142534000Y-103586000D01*
X156245000Y-82855000D02*
X156220000Y-82830000D01*
X155395000Y-94304000D02*
X156081500Y-94304000D01*
X141726000Y-103586000D02*
X141726000Y-102455000D01*
X142630000Y-104490000D02*
X141726000Y-103586000D01*
X131730000Y-86690000D02*
X127395000Y-86690000D01*
X137770000Y-111630000D02*
X138030000Y-111890000D01*
X127470000Y-111630000D02*
X127730000Y-111890000D01*
X151795000Y-95630000D02*
X151795000Y-95883450D01*
X155395000Y-98245950D02*
X158479050Y-101330000D01*
X151795000Y-95630000D02*
X152295000Y-96130000D01*
X144849000Y-106554450D02*
X144849000Y-105805550D01*
X156245000Y-84355000D02*
X156220000Y-84330000D01*
X156245000Y-84305000D02*
X156245000Y-82855000D01*
X142355550Y-117389176D02*
X143185824Y-117389176D01*
X155253500Y-94162500D02*
X155253500Y-85521500D01*
X127355000Y-86730000D02*
X120770000Y-86730000D01*
X116445000Y-109080000D02*
X118995000Y-111630000D01*
X141200000Y-103060000D02*
X141200000Y-96060000D01*
X141726000Y-103586000D02*
X141200000Y-103060000D01*
X151795000Y-95883450D02*
X152915550Y-97004000D01*
X137770000Y-111630000D02*
X141895000Y-111630000D01*
X144319450Y-107084000D02*
X144849000Y-106554450D01*
X143185824Y-117389176D02*
X143730000Y-116845000D01*
X156245000Y-84530000D02*
X156245000Y-84355000D01*
X156220000Y-84330000D02*
X156245000Y-84305000D01*
X154021000Y-97004000D02*
X155395000Y-95630000D01*
X144048325Y-107084000D02*
X144319450Y-107084000D01*
X141630000Y-95630000D02*
X141630000Y-90590000D01*
X146204250Y-106152400D02*
X148598300Y-106152400D01*
X141895000Y-111630000D02*
X141895000Y-110461650D01*
X127395000Y-86690000D02*
X126630000Y-86690000D01*
X118995000Y-111630000D02*
X126895000Y-111630000D01*
X155395000Y-94304000D02*
X155253500Y-94162500D01*
X116330000Y-91530000D02*
X116330000Y-96680000D01*
X120220000Y-86730000D02*
X116330000Y-90620000D01*
X120770000Y-86730000D02*
X120220000Y-86730000D01*
X141826000Y-116859626D02*
X142355550Y-117389176D01*
X155253500Y-85521500D02*
X156245000Y-84530000D01*
X155395000Y-94304000D02*
X155395000Y-98245950D01*
X126895000Y-111630000D02*
X127470000Y-111630000D01*
X116330000Y-96680000D02*
X116330000Y-108265000D01*
X127395000Y-86690000D02*
X127355000Y-86730000D01*
X143533450Y-104490000D02*
X142630000Y-104490000D01*
X116330000Y-91530000D02*
X116330000Y-93090000D01*
X141895000Y-110461650D02*
X144048325Y-108308325D01*
X158479050Y-101330000D02*
X158757500Y-101330000D01*
X141895000Y-111630000D02*
X141826000Y-111699000D01*
X156245000Y-82805000D02*
X156245000Y-81405000D01*
X116445000Y-108380000D02*
X116445000Y-109080000D01*
X126895000Y-111630000D02*
X137770000Y-111630000D01*
X141630000Y-95630000D02*
X151795000Y-95630000D01*
X116330000Y-96680000D02*
X116330000Y-98490000D01*
X120770000Y-86730000D02*
X119895000Y-86730000D01*
X144048325Y-108308325D02*
X146204250Y-106152400D01*
X144048325Y-108308325D02*
X144048325Y-107084000D01*
X144849000Y-105805550D02*
X143533450Y-104490000D01*
X156081500Y-94304000D02*
X156157500Y-94380000D01*
X116330000Y-90620000D02*
X116330000Y-91530000D01*
X152915550Y-97004000D02*
X154021000Y-97004000D01*
X156220000Y-82830000D02*
X156245000Y-82805000D01*
X155395000Y-95630000D02*
X155395000Y-94304000D01*
X141826000Y-111699000D02*
X141826000Y-116859626D01*
X116330000Y-108265000D02*
X116445000Y-108380000D01*
X143730000Y-116845000D02*
X143730000Y-116480000D01*
%TO.N,/EPS_uC/SUB5V*%
X151870000Y-87305000D02*
X150370000Y-87305000D01*
X150370000Y-87305000D02*
X149145000Y-87305000D01*
X149145000Y-87305000D02*
X147995000Y-86155000D01*
X153300000Y-88735000D02*
X151870000Y-87305000D01*
X146594000Y-93474450D02*
X145968450Y-94100000D01*
X146594000Y-89856000D02*
X146594000Y-93474450D01*
X147995000Y-84405000D02*
X147995000Y-82730000D01*
X147995000Y-86155000D02*
X147995000Y-84455000D01*
X153300000Y-90100000D02*
X153300000Y-88735000D01*
X149145000Y-87305000D02*
X146594000Y-89856000D01*
X148020000Y-84430000D02*
X147995000Y-84405000D01*
X147995000Y-84455000D02*
X148020000Y-84430000D01*
X145968450Y-94100000D02*
X145690000Y-94100000D01*
X147995000Y-82730000D02*
X147970000Y-82705000D01*
%TO.N,/EPS_uC/VBUS*%
X152530000Y-113390000D02*
X151470000Y-112330000D01*
X146069511Y-77580000D02*
X143945000Y-77580000D01*
X155708450Y-112080000D02*
X154804450Y-111176000D01*
X151470000Y-112330000D02*
X148795000Y-112330000D01*
X159031249Y-77816249D02*
X158516000Y-77301000D01*
X153983100Y-106304800D02*
X151383850Y-106304800D01*
X151832508Y-77301000D02*
X151807508Y-77276000D01*
X159031249Y-83204450D02*
X159031249Y-77816249D01*
X153655550Y-107380000D02*
X157246950Y-103788600D01*
X146373511Y-77276000D02*
X146069511Y-77580000D01*
X149877900Y-104798850D02*
X149877900Y-103797550D01*
X148795000Y-112330000D02*
X145634000Y-115491000D01*
X158357500Y-94608450D02*
X158357500Y-83878199D01*
X139945000Y-84505000D02*
X139820000Y-84380000D01*
X153655550Y-111176000D02*
X153655550Y-107380000D01*
X153655550Y-111176000D02*
X152530000Y-112301550D01*
X160153500Y-103551200D02*
X160153500Y-102355550D01*
X151485450Y-102190000D02*
X152052700Y-102190000D01*
X161112025Y-97362975D02*
X158357500Y-94608450D01*
X158357500Y-94608450D02*
X158357500Y-93330000D01*
X157434000Y-120016000D02*
X157434000Y-113805550D01*
X161661500Y-97912450D02*
X161112025Y-97362975D01*
X161661500Y-101755500D02*
X161661500Y-97912450D01*
X151807508Y-77276000D02*
X146373511Y-77276000D01*
X156841593Y-120608407D02*
X157434000Y-120016000D01*
X155708450Y-112080000D02*
X155030000Y-112080000D01*
X149877900Y-103797550D02*
X151485450Y-102190000D01*
X152530000Y-112301550D02*
X152530000Y-113390000D01*
X157246950Y-103788600D02*
X159916100Y-103788600D01*
X154804450Y-111176000D02*
X153655550Y-111176000D01*
X161591000Y-101826000D02*
X161661500Y-101755500D01*
X161591000Y-101826000D02*
X162120000Y-102355000D01*
X145634000Y-115491000D02*
X145634000Y-115629890D01*
X139945000Y-81580000D02*
X139945000Y-84505000D01*
X155017964Y-120608407D02*
X156841593Y-120608407D01*
X145634000Y-115629890D02*
X145670000Y-115629890D01*
X159916100Y-103788600D02*
X160153500Y-103551200D01*
X158516000Y-77301000D02*
X151832508Y-77301000D01*
X143945000Y-77580000D02*
X139945000Y-81580000D01*
X149877900Y-104798850D02*
X149877900Y-103854400D01*
X160683050Y-101826000D02*
X161591000Y-101826000D01*
D21*
X159757500Y-101959550D02*
X160153500Y-102355550D01*
X159757500Y-101330000D02*
X159757500Y-101959550D01*
D19*
X151383850Y-106304800D02*
X149877900Y-104798850D01*
X153655550Y-107380000D02*
X153655550Y-106632350D01*
X158357500Y-83878199D02*
X159031249Y-83204450D01*
X153655550Y-106632350D02*
X153983100Y-106304800D01*
X160153500Y-102355550D02*
X160683050Y-101826000D01*
X157434000Y-113805550D02*
X155708450Y-112080000D01*
%TD*%
%TA.AperFunction,Conductor*%
%TO.N,/System_Power/POWER_IN*%
G36*
X135330648Y-38294352D02*
G01*
X135345000Y-38329000D01*
X135345000Y-44397897D01*
X135330648Y-44432545D01*
X135318247Y-44441555D01*
X135304277Y-44448674D01*
X135304275Y-44448675D01*
X135304273Y-44448677D01*
X135213677Y-44539273D01*
X135213672Y-44539279D01*
X135155503Y-44653442D01*
X135155502Y-44653443D01*
X135155502Y-44653445D01*
X135135458Y-44780000D01*
X135155502Y-44906555D01*
X135213674Y-45020723D01*
X135304277Y-45111326D01*
X135318244Y-45118443D01*
X135342601Y-45146959D01*
X135345000Y-45162102D01*
X135345000Y-45397897D01*
X135330648Y-45432545D01*
X135318247Y-45441555D01*
X135304277Y-45448674D01*
X135304275Y-45448675D01*
X135304273Y-45448677D01*
X135213677Y-45539273D01*
X135213672Y-45539279D01*
X135155503Y-45653442D01*
X135155502Y-45653443D01*
X135155502Y-45653445D01*
X135135458Y-45780000D01*
X135155502Y-45906555D01*
X135213674Y-46020723D01*
X135304277Y-46111326D01*
X135318244Y-46118443D01*
X135342601Y-46146959D01*
X135345000Y-46162102D01*
X135345000Y-49831000D01*
X135330648Y-49865648D01*
X135296000Y-49880000D01*
X133145000Y-49880000D01*
X129545000Y-53479999D01*
X129545000Y-55431000D01*
X129530648Y-55465648D01*
X129496000Y-55480000D01*
X127165296Y-55480000D01*
X127130648Y-55465648D01*
X126745000Y-55080000D01*
X125594000Y-55080000D01*
X125559352Y-55065648D01*
X125545000Y-55031000D01*
X125545000Y-54729000D01*
X125559352Y-54694352D01*
X125594000Y-54680000D01*
X127544999Y-54680000D01*
X127545000Y-54680000D01*
X127945000Y-54280000D01*
X127945000Y-52300295D01*
X127959351Y-52265648D01*
X132643576Y-47581423D01*
X132678221Y-47567073D01*
X132693358Y-47569470D01*
X132693439Y-47569496D01*
X132693442Y-47569496D01*
X132693445Y-47569498D01*
X132820000Y-47589542D01*
X132946555Y-47569498D01*
X133060723Y-47511326D01*
X133151326Y-47420723D01*
X133209498Y-47306555D01*
X133229542Y-47180000D01*
X133209498Y-47053445D01*
X133151326Y-46939277D01*
X133151325Y-46939276D01*
X133150341Y-46937344D01*
X133145000Y-46915098D01*
X133145000Y-46344901D01*
X133150341Y-46322655D01*
X133151324Y-46320724D01*
X133151326Y-46320723D01*
X133209498Y-46206555D01*
X133229542Y-46080000D01*
X133209498Y-45953445D01*
X133151326Y-45839277D01*
X133151325Y-45839276D01*
X133150341Y-45837344D01*
X133145000Y-45815098D01*
X133145000Y-41280000D01*
X132145000Y-40280000D01*
X130112345Y-40280000D01*
X130077697Y-40265648D01*
X130060726Y-40248677D01*
X130060723Y-40248674D01*
X130060721Y-40248673D01*
X130060720Y-40248672D01*
X129946557Y-40190503D01*
X129946556Y-40190502D01*
X129946555Y-40190502D01*
X129820000Y-40170458D01*
X129693445Y-40190502D01*
X129693443Y-40190502D01*
X129693442Y-40190503D01*
X129579279Y-40248672D01*
X129579273Y-40248677D01*
X129562303Y-40265648D01*
X129527655Y-40280000D01*
X124994000Y-40280000D01*
X124959352Y-40265648D01*
X124945000Y-40231000D01*
X124945000Y-38329000D01*
X124959352Y-38294352D01*
X124994000Y-38280000D01*
X135296000Y-38280000D01*
X135330648Y-38294352D01*
G37*
%TD.AperFunction*%
%TD*%
%TA.AperFunction,Conductor*%
%TO.N,/System_Power/VBAT*%
G36*
X126934512Y-62144352D02*
G01*
X126948864Y-62179000D01*
X126948261Y-62186662D01*
X126935458Y-62267500D01*
X126955502Y-62394055D01*
X126955502Y-62394056D01*
X126955503Y-62394057D01*
X126999293Y-62480000D01*
X127013674Y-62508223D01*
X127104277Y-62598826D01*
X127218445Y-62656998D01*
X127345000Y-62677042D01*
X127471555Y-62656998D01*
X127573755Y-62604923D01*
X127611141Y-62601981D01*
X127639659Y-62626337D01*
X127645000Y-62648583D01*
X127645000Y-70631000D01*
X127630648Y-70665648D01*
X127596000Y-70680000D01*
X100094000Y-70680000D01*
X100059352Y-70665648D01*
X100045000Y-70631000D01*
X100045000Y-66879000D01*
X100059352Y-66844352D01*
X100094000Y-66830000D01*
X124095000Y-66830000D01*
X124095000Y-62179000D01*
X124109352Y-62144352D01*
X124144000Y-62130000D01*
X126899864Y-62130000D01*
X126934512Y-62144352D01*
G37*
%TD.AperFunction*%
%TD*%
%TA.AperFunction,Conductor*%
%TO.N,Net-(U2-D)*%
G36*
X131930648Y-41694352D02*
G01*
X131945000Y-41729000D01*
X131945000Y-44459704D01*
X131930648Y-44494352D01*
X124759352Y-51665648D01*
X124724704Y-51680000D01*
X122945000Y-51680000D01*
X121545000Y-53079999D01*
X121545000Y-54080000D01*
X123941223Y-56476223D01*
X123954971Y-56503204D01*
X123955501Y-56506553D01*
X123955502Y-56506557D01*
X124013672Y-56620720D01*
X124013674Y-56620723D01*
X124104277Y-56711326D01*
X124218445Y-56769498D01*
X124220931Y-56769891D01*
X124221791Y-56770028D01*
X124248777Y-56783777D01*
X124345000Y-56880000D01*
X127324704Y-56880000D01*
X127359352Y-56894352D01*
X131730648Y-61265648D01*
X131745000Y-61300296D01*
X131745000Y-65231000D01*
X131730648Y-65265648D01*
X131696000Y-65280000D01*
X129394000Y-65280000D01*
X129359352Y-65265648D01*
X129345000Y-65231000D01*
X129345000Y-62880000D01*
X128365296Y-62880000D01*
X128330648Y-62865648D01*
X127768894Y-62303894D01*
X127755381Y-62271271D01*
X127755145Y-62271309D01*
X127754989Y-62270325D01*
X127754542Y-62269246D01*
X127754542Y-62267501D01*
X127754542Y-62267500D01*
X127734498Y-62140945D01*
X127676326Y-62026777D01*
X127585723Y-61936174D01*
X127585721Y-61936173D01*
X127585720Y-61936172D01*
X127471557Y-61878003D01*
X127471556Y-61878002D01*
X127471555Y-61878002D01*
X127345000Y-61857958D01*
X127344999Y-61857958D01*
X127343254Y-61857958D01*
X127342173Y-61857510D01*
X127341192Y-61857355D01*
X127341229Y-61857119D01*
X127308606Y-61843606D01*
X126345000Y-60880000D01*
X120994000Y-60880000D01*
X120959352Y-60865648D01*
X120945000Y-60831000D01*
X120945000Y-57880000D01*
X118559352Y-55494352D01*
X118545000Y-55459704D01*
X118545000Y-50300296D01*
X118559352Y-50265648D01*
X119345000Y-49480000D01*
X121235458Y-49480000D01*
X121255502Y-49606555D01*
X121313674Y-49720723D01*
X121404277Y-49811326D01*
X121518445Y-49869498D01*
X121645000Y-49889542D01*
X121771555Y-49869498D01*
X121885723Y-49811326D01*
X121976326Y-49720723D01*
X122034498Y-49606555D01*
X122054542Y-49480000D01*
X122034498Y-49353445D01*
X121976326Y-49239277D01*
X121885723Y-49148674D01*
X121885721Y-49148673D01*
X121885720Y-49148672D01*
X121771557Y-49090503D01*
X121771556Y-49090502D01*
X121771555Y-49090502D01*
X121645000Y-49070458D01*
X121518445Y-49090502D01*
X121518443Y-49090502D01*
X121518442Y-49090503D01*
X121404279Y-49148672D01*
X121404273Y-49148677D01*
X121313677Y-49239273D01*
X121313672Y-49239279D01*
X121255503Y-49353442D01*
X121255502Y-49353443D01*
X121255502Y-49353445D01*
X121235458Y-49480000D01*
X119345000Y-49480000D01*
X127130648Y-41694352D01*
X127165296Y-41680000D01*
X131896000Y-41680000D01*
X131930648Y-41694352D01*
G37*
%TD.AperFunction*%
%TD*%
%TA.AperFunction,Conductor*%
%TO.N,/BUS_UNREG*%
G36*
X149730648Y-36614852D02*
G01*
X149745000Y-36649500D01*
X149745000Y-49887655D01*
X149730648Y-49922303D01*
X149663677Y-49989273D01*
X149663672Y-49989279D01*
X149605503Y-50103442D01*
X149605502Y-50103443D01*
X149605502Y-50103445D01*
X149585458Y-50230000D01*
X149605502Y-50356555D01*
X149605502Y-50356556D01*
X149605503Y-50356557D01*
X149663049Y-50469498D01*
X149663674Y-50470723D01*
X149663677Y-50470726D01*
X149730648Y-50537697D01*
X149745000Y-50572345D01*
X149745000Y-61965895D01*
X149744397Y-61973560D01*
X149735458Y-62029999D01*
X149744397Y-62086438D01*
X149745000Y-62094103D01*
X149745000Y-63280000D01*
X164124704Y-63280000D01*
X164159352Y-63294352D01*
X164945000Y-64080000D01*
X168744999Y-64080000D01*
X168745000Y-64080000D01*
X168881816Y-63943183D01*
X168908793Y-63929438D01*
X168971555Y-63919498D01*
X169085723Y-63861326D01*
X169176326Y-63770723D01*
X169234498Y-63656555D01*
X169244438Y-63593793D01*
X169258183Y-63566816D01*
X169530648Y-63294352D01*
X169565296Y-63280000D01*
X176345000Y-63280000D01*
X176345000Y-54300296D01*
X176359352Y-54265648D01*
X176945000Y-53680000D01*
X176945000Y-52844103D01*
X176945603Y-52836438D01*
X176951374Y-52800000D01*
X176954542Y-52780000D01*
X176945603Y-52723560D01*
X176945000Y-52715895D01*
X176945000Y-51944103D01*
X176945603Y-51936438D01*
X176946623Y-51929999D01*
X176954542Y-51880000D01*
X176945603Y-51823560D01*
X176945000Y-51815895D01*
X176945000Y-51044103D01*
X176945603Y-51036438D01*
X176951584Y-50998674D01*
X176954542Y-50980000D01*
X176945603Y-50923560D01*
X176945000Y-50915895D01*
X176945000Y-50144103D01*
X176945603Y-50136438D01*
X176954542Y-50080000D01*
X176945603Y-50023560D01*
X176945000Y-50015895D01*
X176945000Y-49480000D01*
X176559352Y-49094352D01*
X176545000Y-49059704D01*
X176545000Y-37729000D01*
X176559352Y-37694352D01*
X176594000Y-37680000D01*
X181096000Y-37680000D01*
X181130648Y-37694352D01*
X181145000Y-37729000D01*
X181145000Y-39459704D01*
X181130648Y-39494352D01*
X180345000Y-40279999D01*
X180345000Y-50115895D01*
X180344396Y-50123560D01*
X180335458Y-50180000D01*
X180340419Y-50211326D01*
X180344397Y-50236438D01*
X180345000Y-50244103D01*
X180345000Y-53880000D01*
X180930648Y-54465648D01*
X180945000Y-54500296D01*
X180945000Y-57259704D01*
X180930648Y-57294352D01*
X180145000Y-58079999D01*
X180145000Y-58080000D01*
X180145000Y-63280000D01*
X194924704Y-63280000D01*
X194959352Y-63294352D01*
X195545000Y-63880000D01*
X195545001Y-63880000D01*
X196229162Y-63880000D01*
X196251407Y-63885341D01*
X196294703Y-63907400D01*
X196318445Y-63919498D01*
X196445000Y-63939542D01*
X196571555Y-63919498D01*
X196607281Y-63901294D01*
X196638593Y-63885341D01*
X196660838Y-63880000D01*
X197329162Y-63880000D01*
X197351407Y-63885341D01*
X197394703Y-63907400D01*
X197418445Y-63919498D01*
X197545000Y-63939542D01*
X197671555Y-63919498D01*
X197707281Y-63901294D01*
X197738593Y-63885341D01*
X197760838Y-63880000D01*
X198429162Y-63880000D01*
X198451407Y-63885341D01*
X198494703Y-63907400D01*
X198518445Y-63919498D01*
X198645000Y-63939542D01*
X198771555Y-63919498D01*
X198807281Y-63901294D01*
X198838593Y-63885341D01*
X198860838Y-63880000D01*
X199345000Y-63880000D01*
X199352205Y-63872795D01*
X199386852Y-63858442D01*
X199409098Y-63863782D01*
X199518445Y-63919498D01*
X199645000Y-63939542D01*
X199771555Y-63919498D01*
X199885723Y-63861326D01*
X199976326Y-63770723D01*
X200034498Y-63656555D01*
X200054542Y-63530000D01*
X200034498Y-63403445D01*
X199978781Y-63294096D01*
X199975839Y-63256712D01*
X199987789Y-63237210D01*
X200545000Y-62680000D01*
X200545000Y-60330000D01*
X201535458Y-60330000D01*
X201555502Y-60456555D01*
X201555502Y-60456556D01*
X201555503Y-60456557D01*
X201611156Y-60565783D01*
X201613674Y-60570723D01*
X201704277Y-60661326D01*
X201818445Y-60719498D01*
X201945000Y-60739542D01*
X202071555Y-60719498D01*
X202185723Y-60661326D01*
X202276326Y-60570723D01*
X202334498Y-60456555D01*
X202354542Y-60330000D01*
X202334498Y-60203445D01*
X202276326Y-60089277D01*
X202185723Y-59998674D01*
X202185721Y-59998673D01*
X202185720Y-59998672D01*
X202071557Y-59940503D01*
X202071556Y-59940502D01*
X202071555Y-59940502D01*
X201945000Y-59920458D01*
X201818445Y-59940502D01*
X201818443Y-59940502D01*
X201818442Y-59940503D01*
X201704279Y-59998672D01*
X201704273Y-59998677D01*
X201613677Y-60089273D01*
X201613672Y-60089279D01*
X201555503Y-60203442D01*
X201555502Y-60203443D01*
X201555502Y-60203445D01*
X201535458Y-60330000D01*
X200545000Y-60330000D01*
X200545000Y-55929000D01*
X200559352Y-55894352D01*
X200594000Y-55880000D01*
X209496000Y-55880000D01*
X209530648Y-55894352D01*
X209545000Y-55929000D01*
X209545000Y-60631000D01*
X209530648Y-60665648D01*
X209496000Y-60680000D01*
X205745000Y-60680000D01*
X205745000Y-63059704D01*
X205730648Y-63094352D01*
X201359352Y-67465648D01*
X201324704Y-67480000D01*
X171937345Y-67480000D01*
X171902697Y-67465648D01*
X171873226Y-67436177D01*
X171873223Y-67436174D01*
X171873221Y-67436173D01*
X171873220Y-67436172D01*
X171759057Y-67378003D01*
X171759056Y-67378002D01*
X171759055Y-67378002D01*
X171632500Y-67357958D01*
X171505945Y-67378002D01*
X171505943Y-67378002D01*
X171505942Y-67378003D01*
X171391779Y-67436172D01*
X171391773Y-67436177D01*
X171362303Y-67465648D01*
X171327655Y-67480000D01*
X145194000Y-67480000D01*
X145159352Y-67465648D01*
X145145000Y-67431000D01*
X145145000Y-55100296D01*
X145159352Y-55065648D01*
X145745000Y-54480000D01*
X145745000Y-52894103D01*
X145745603Y-52886438D01*
X145747661Y-52873445D01*
X145754542Y-52830000D01*
X145745603Y-52773560D01*
X145745000Y-52765895D01*
X145745000Y-51994103D01*
X145745603Y-51986438D01*
X145748286Y-51969498D01*
X145754542Y-51930000D01*
X145745603Y-51873560D01*
X145745000Y-51865895D01*
X145745000Y-51094103D01*
X145745603Y-51086438D01*
X145754542Y-51030000D01*
X145745603Y-50973560D01*
X145745000Y-50965895D01*
X145745000Y-50194103D01*
X145745603Y-50186438D01*
X145748286Y-50169498D01*
X145754542Y-50130000D01*
X145745603Y-50073560D01*
X145745000Y-50065895D01*
X145745000Y-47480000D01*
X145159352Y-46894352D01*
X145145000Y-46859704D01*
X145145000Y-43427980D01*
X145159352Y-43393332D01*
X145249239Y-43303445D01*
X145594657Y-42958026D01*
X145597046Y-42955931D01*
X145627282Y-42932732D01*
X145723536Y-42807291D01*
X145784044Y-42661212D01*
X145786226Y-42644639D01*
X145804682Y-42504450D01*
X145800081Y-42469498D01*
X145799710Y-42466679D01*
X145799500Y-42463478D01*
X145799500Y-40439970D01*
X145799710Y-40436769D01*
X145801150Y-40425821D01*
X145804682Y-40399000D01*
X145784044Y-40242238D01*
X145723536Y-40096159D01*
X145651450Y-40002215D01*
X145627282Y-39970718D01*
X145597051Y-39947521D01*
X145594654Y-39945419D01*
X145255852Y-39606617D01*
X145241500Y-39571969D01*
X145241500Y-36828031D01*
X145255852Y-36793383D01*
X145434383Y-36614852D01*
X145469031Y-36600500D01*
X149696000Y-36600500D01*
X149730648Y-36614852D01*
G37*
%TD.AperFunction*%
%TD*%
M02*
