%TF.GenerationSoftware,KiCad,Pcbnew,7.0.9*%
%TF.CreationDate,2024-01-29T23:53:49+02:00*%
%TF.ProjectId,ESLGSU,45534c47-5355-42e6-9b69-6361645f7063,rev?*%
%TF.SameCoordinates,Original*%
%TF.FileFunction,Paste,Top*%
%TF.FilePolarity,Positive*%
%FSLAX46Y46*%
G04 Gerber Fmt 4.6, Leading zero omitted, Abs format (unit mm)*
G04 Created by KiCad (PCBNEW 7.0.9) date 2024-01-29 23:53:49*
%MOMM*%
%LPD*%
G01*
G04 APERTURE LIST*
G04 Aperture macros list*
%AMRoundRect*
0 Rectangle with rounded corners*
0 $1 Rounding radius*
0 $2 $3 $4 $5 $6 $7 $8 $9 X,Y pos of 4 corners*
0 Add a 4 corners polygon primitive as box body*
4,1,4,$2,$3,$4,$5,$6,$7,$8,$9,$2,$3,0*
0 Add four circle primitives for the rounded corners*
1,1,$1+$1,$2,$3*
1,1,$1+$1,$4,$5*
1,1,$1+$1,$6,$7*
1,1,$1+$1,$8,$9*
0 Add four rect primitives between the rounded corners*
20,1,$1+$1,$2,$3,$4,$5,0*
20,1,$1+$1,$4,$5,$6,$7,0*
20,1,$1+$1,$6,$7,$8,$9,0*
20,1,$1+$1,$8,$9,$2,$3,0*%
%AMOutline5P*
0 Free polygon, 5 corners , with rotation*
0 The origin of the aperture is its center*
0 number of corners: always 5*
0 $1 to $10 corner X, Y*
0 $11 Rotation angle, in degrees counterclockwise*
0 create outline with 5 corners*
4,1,5,$1,$2,$3,$4,$5,$6,$7,$8,$9,$10,$1,$2,$11*%
%AMOutline6P*
0 Free polygon, 6 corners , with rotation*
0 The origin of the aperture is its center*
0 number of corners: always 6*
0 $1 to $12 corner X, Y*
0 $13 Rotation angle, in degrees counterclockwise*
0 create outline with 6 corners*
4,1,6,$1,$2,$3,$4,$5,$6,$7,$8,$9,$10,$11,$12,$1,$2,$13*%
%AMOutline7P*
0 Free polygon, 7 corners , with rotation*
0 The origin of the aperture is its center*
0 number of corners: always 7*
0 $1 to $14 corner X, Y*
0 $15 Rotation angle, in degrees counterclockwise*
0 create outline with 7 corners*
4,1,7,$1,$2,$3,$4,$5,$6,$7,$8,$9,$10,$11,$12,$13,$14,$1,$2,$15*%
%AMOutline8P*
0 Free polygon, 8 corners , with rotation*
0 The origin of the aperture is its center*
0 number of corners: always 8*
0 $1 to $16 corner X, Y*
0 $17 Rotation angle, in degrees counterclockwise*
0 create outline with 8 corners*
4,1,8,$1,$2,$3,$4,$5,$6,$7,$8,$9,$10,$11,$12,$13,$14,$15,$16,$1,$2,$17*%
G04 Aperture macros list end*
%ADD10RoundRect,0.250000X-0.315000X-0.315000X0.315000X-0.315000X0.315000X0.315000X-0.315000X0.315000X0*%
%ADD11RoundRect,0.062500X-0.375000X-0.062500X0.375000X-0.062500X0.375000X0.062500X-0.375000X0.062500X0*%
%ADD12RoundRect,0.062500X-0.062500X-0.375000X0.062500X-0.375000X0.062500X0.375000X-0.062500X0.375000X0*%
%ADD13RoundRect,0.140000X-0.170000X0.140000X-0.170000X-0.140000X0.170000X-0.140000X0.170000X0.140000X0*%
%ADD14RoundRect,0.135000X-0.185000X0.135000X-0.185000X-0.135000X0.185000X-0.135000X0.185000X0.135000X0*%
%ADD15RoundRect,0.135000X0.185000X-0.135000X0.185000X0.135000X-0.185000X0.135000X-0.185000X-0.135000X0*%
%ADD16RoundRect,0.150000X-0.150000X0.587500X-0.150000X-0.587500X0.150000X-0.587500X0.150000X0.587500X0*%
%ADD17RoundRect,0.140000X0.170000X-0.140000X0.170000X0.140000X-0.170000X0.140000X-0.170000X-0.140000X0*%
%ADD18RoundRect,0.150000X0.150000X-0.512500X0.150000X0.512500X-0.150000X0.512500X-0.150000X-0.512500X0*%
%ADD19RoundRect,0.150000X-0.150000X-0.250000X0.150000X-0.250000X0.150000X0.250000X-0.150000X0.250000X0*%
%ADD20RoundRect,0.097500X-0.227500X-0.097500X0.227500X-0.097500X0.227500X0.097500X-0.227500X0.097500X0*%
%ADD21RoundRect,0.218750X0.218750X0.256250X-0.218750X0.256250X-0.218750X-0.256250X0.218750X-0.256250X0*%
%ADD22RoundRect,0.172500X-0.172500X-0.332500X0.172500X-0.332500X0.172500X0.332500X-0.172500X0.332500X0*%
%ADD23RoundRect,0.050000X-0.350000X-0.050000X0.350000X-0.050000X0.350000X0.050000X-0.350000X0.050000X0*%
%ADD24RoundRect,0.250000X0.250000X0.475000X-0.250000X0.475000X-0.250000X-0.475000X0.250000X-0.475000X0*%
%ADD25RoundRect,0.200000X0.275000X-0.200000X0.275000X0.200000X-0.275000X0.200000X-0.275000X-0.200000X0*%
%ADD26R,1.780000X1.020000*%
%ADD27RoundRect,0.250000X-0.475000X0.250000X-0.475000X-0.250000X0.475000X-0.250000X0.475000X0.250000X0*%
%ADD28R,0.500000X0.320000*%
%ADD29RoundRect,0.009843X-0.290157X-0.140157X0.290157X-0.140157X0.290157X0.140157X-0.290157X0.140157X0*%
%ADD30RoundRect,0.008202X-0.116798X-0.316798X0.116798X-0.316798X0.116798X0.316798X-0.116798X0.316798X0*%
%ADD31RoundRect,0.008202X-0.291798X-0.116798X0.291798X-0.116798X0.291798X0.116798X-0.291798X0.116798X0*%
%ADD32RoundRect,0.009843X-0.140157X-1.190157X0.140157X-1.190157X0.140157X1.190157X-0.140157X1.190157X0*%
%ADD33RoundRect,0.135000X0.135000X0.185000X-0.135000X0.185000X-0.135000X-0.185000X0.135000X-0.185000X0*%
%ADD34RoundRect,0.225000X-0.225000X-0.250000X0.225000X-0.250000X0.225000X0.250000X-0.225000X0.250000X0*%
%ADD35RoundRect,0.135000X-0.135000X-0.185000X0.135000X-0.185000X0.135000X0.185000X-0.135000X0.185000X0*%
%ADD36RoundRect,0.050000X-0.300000X-0.050000X0.300000X-0.050000X0.300000X0.050000X-0.300000X0.050000X0*%
%ADD37RoundRect,0.050000X-0.250000X-0.050000X0.250000X-0.050000X0.250000X0.050000X-0.250000X0.050000X0*%
%ADD38RoundRect,0.050000X0.050000X-0.250000X0.050000X0.250000X-0.050000X0.250000X-0.050000X-0.250000X0*%
%ADD39RoundRect,0.050000X-0.050000X0.250000X-0.050000X-0.250000X0.050000X-0.250000X0.050000X0.250000X0*%
%ADD40RoundRect,0.050000X0.250000X0.050000X-0.250000X0.050000X-0.250000X-0.050000X0.250000X-0.050000X0*%
%ADD41RoundRect,0.140000X-0.140000X-0.170000X0.140000X-0.170000X0.140000X0.170000X-0.140000X0.170000X0*%
%ADD42RoundRect,0.100000X-0.637500X-0.100000X0.637500X-0.100000X0.637500X0.100000X-0.637500X0.100000X0*%
%ADD43Outline5P,-0.400000X0.125000X0.275000X0.125000X0.400000X0.000000X0.400000X-0.125000X-0.400000X-0.125000X0.000000*%
%ADD44R,0.700000X0.250000*%
%ADD45R,0.250000X0.700000*%
%ADD46R,0.250000X1.200000*%
%ADD47RoundRect,0.140000X0.140000X0.170000X-0.140000X0.170000X-0.140000X-0.170000X0.140000X-0.170000X0*%
%ADD48RoundRect,0.218750X-0.218750X-0.256250X0.218750X-0.256250X0.218750X0.256250X-0.218750X0.256250X0*%
%ADD49RoundRect,0.050000X-0.050000X0.125000X-0.050000X-0.125000X0.050000X-0.125000X0.050000X0.125000X0*%
%ADD50RoundRect,0.050000X-0.050000X0.100000X-0.050000X-0.100000X0.050000X-0.100000X0.050000X0.100000X0*%
%ADD51RoundRect,0.125000X0.537500X0.125000X-0.537500X0.125000X-0.537500X-0.125000X0.537500X-0.125000X0*%
%ADD52RoundRect,0.250000X-0.550000X1.500000X-0.550000X-1.500000X0.550000X-1.500000X0.550000X1.500000X0*%
%ADD53R,3.175000X4.950000*%
%ADD54RoundRect,0.050000X0.050000X-0.300000X0.050000X0.300000X-0.050000X0.300000X-0.050000X-0.300000X0*%
%ADD55RoundRect,0.050000X0.300000X0.050000X-0.300000X0.050000X-0.300000X-0.050000X0.300000X-0.050000X0*%
%ADD56R,1.903000X2.790000*%
%ADD57RoundRect,0.050000X-0.125000X-0.050000X0.125000X-0.050000X0.125000X0.050000X-0.125000X0.050000X0*%
%ADD58RoundRect,0.050000X-0.100000X-0.050000X0.100000X-0.050000X0.100000X0.050000X-0.100000X0.050000X0*%
%ADD59RoundRect,0.100000X-0.425000X-0.100000X0.425000X-0.100000X0.425000X0.100000X-0.425000X0.100000X0*%
%ADD60RoundRect,0.050000X-0.050000X-0.250000X0.050000X-0.250000X0.050000X0.250000X-0.050000X0.250000X0*%
%ADD61R,0.500000X0.400000*%
%ADD62RoundRect,0.250000X-0.250000X-0.475000X0.250000X-0.475000X0.250000X0.475000X-0.250000X0.475000X0*%
%ADD63RoundRect,0.150000X-0.512500X-0.150000X0.512500X-0.150000X0.512500X0.150000X-0.512500X0.150000X0*%
%ADD64R,0.600000X1.000000*%
%ADD65R,0.650000X0.350000*%
%ADD66RoundRect,0.125000X-0.537500X-0.125000X0.537500X-0.125000X0.537500X0.125000X-0.537500X0.125000X0*%
%ADD67RoundRect,0.075000X-0.725000X-0.075000X0.725000X-0.075000X0.725000X0.075000X-0.725000X0.075000X0*%
%ADD68RoundRect,0.075000X-0.075000X-0.725000X0.075000X-0.725000X0.075000X0.725000X-0.075000X0.725000X0*%
%ADD69RoundRect,0.200000X-0.200000X-0.275000X0.200000X-0.275000X0.200000X0.275000X-0.200000X0.275000X0*%
%ADD70RoundRect,0.075000X-0.662500X-0.075000X0.662500X-0.075000X0.662500X0.075000X-0.662500X0.075000X0*%
%ADD71RoundRect,0.075000X-0.075000X-0.662500X0.075000X-0.662500X0.075000X0.662500X-0.075000X0.662500X0*%
G04 APERTURE END LIST*
D10*
%TO.C,U41*%
X70160500Y-150750400D03*
X68760500Y-154950400D03*
X71560500Y-150750400D03*
X67360500Y-153550400D03*
X68760500Y-153550400D03*
X67360500Y-152150400D03*
X68760500Y-152150400D03*
X70160500Y-153550400D03*
X67360500Y-154950400D03*
X71560500Y-154950400D03*
X67360500Y-150750400D03*
X71560500Y-153550400D03*
X68760500Y-150750400D03*
X70160500Y-152150400D03*
X70160500Y-154950400D03*
X71560500Y-152150400D03*
D11*
X66023000Y-150100400D03*
X66023000Y-150600400D03*
X66023000Y-151100400D03*
X66023000Y-151600400D03*
X66023000Y-152100400D03*
X66023000Y-152600400D03*
X66023000Y-153100400D03*
X66023000Y-153600400D03*
X66023000Y-154100400D03*
X66023000Y-154600400D03*
X66023000Y-155100400D03*
X66023000Y-155600400D03*
D12*
X66710500Y-156287900D03*
X67210500Y-156287900D03*
X67710500Y-156287900D03*
X68210500Y-156287900D03*
X68710500Y-156287900D03*
X69210500Y-156287900D03*
X69710500Y-156287900D03*
X70210500Y-156287900D03*
X70710500Y-156287900D03*
X71210500Y-156287900D03*
X71710500Y-156287900D03*
X72210500Y-156287900D03*
D11*
X72898000Y-155600400D03*
X72898000Y-155100400D03*
X72898000Y-154600400D03*
X72898000Y-154100400D03*
X72898000Y-153600400D03*
X72898000Y-153100400D03*
X72898000Y-152600400D03*
X72898000Y-152100400D03*
X72898000Y-151600400D03*
X72898000Y-151100400D03*
X72898000Y-150600400D03*
X72898000Y-150100400D03*
D12*
X72210500Y-149412900D03*
X71710500Y-149412900D03*
X71210500Y-149412900D03*
X70710500Y-149412900D03*
X70210500Y-149412900D03*
X69710500Y-149412900D03*
X69210500Y-149412900D03*
X68710500Y-149412900D03*
X68210500Y-149412900D03*
X67710500Y-149412900D03*
X67210500Y-149412900D03*
X66710500Y-149412900D03*
%TD*%
D13*
%TO.C,C11*%
X96469200Y-82578000D03*
X96469200Y-83538000D03*
%TD*%
%TO.C,C9*%
X99822000Y-82578000D03*
X99822000Y-83538000D03*
%TD*%
D14*
%TO.C,R5*%
X98704400Y-82548000D03*
X98704400Y-83568000D03*
%TD*%
D13*
%TO.C,C10*%
X104546400Y-82578000D03*
X104546400Y-83538000D03*
%TD*%
D15*
%TO.C,R4*%
X101361200Y-89473200D03*
X101361200Y-88453200D03*
%TD*%
D16*
%TO.C,Q6*%
X98704400Y-87263700D03*
X96804400Y-87263700D03*
X97754400Y-89138700D03*
%TD*%
D17*
%TO.C,C12*%
X97586800Y-83515200D03*
X97586800Y-82555200D03*
%TD*%
D15*
%TO.C,R92*%
X100243600Y-89473200D03*
X100243600Y-88453200D03*
%TD*%
D18*
%TO.C,U8*%
X101259600Y-85363900D03*
X102209600Y-85363900D03*
X103159600Y-85363900D03*
X103159600Y-83088900D03*
X102209600Y-83088900D03*
X101259600Y-83088900D03*
%TD*%
D19*
%TO.C,U6*%
X102930600Y-79603600D03*
X102930600Y-80703600D03*
X103730600Y-79603600D03*
X103730600Y-80703600D03*
D20*
X101955600Y-81128600D03*
X101955600Y-79178600D03*
X101955600Y-79828600D03*
X101955600Y-80478600D03*
X104605600Y-79178600D03*
X104605600Y-79828600D03*
X104605600Y-80478600D03*
X104605600Y-81128600D03*
%TD*%
D21*
%TO.C,D6*%
X102047100Y-87083600D03*
X100472100Y-87083600D03*
%TD*%
D13*
%TO.C,C8*%
X96469200Y-78869600D03*
X96469200Y-79829600D03*
%TD*%
D22*
%TO.C,U7*%
X98815000Y-79544800D03*
X98815000Y-80794800D03*
X99665000Y-79544800D03*
X99665000Y-80794800D03*
D23*
X97790000Y-79044800D03*
X97790000Y-79494800D03*
X97790000Y-79944800D03*
X97790000Y-80394800D03*
X97790000Y-80844800D03*
X97790000Y-81294800D03*
X100690000Y-81294800D03*
X100690000Y-80844800D03*
X100690000Y-80394800D03*
X100690000Y-79944800D03*
X100690000Y-79494800D03*
X100690000Y-79044800D03*
%TD*%
D24*
%TO.C,C91*%
X79000000Y-72950000D03*
X77100000Y-72950000D03*
%TD*%
D25*
%TO.C,R13*%
X137669000Y-72049600D03*
X137669000Y-70399600D03*
%TD*%
D17*
%TO.C,C51*%
X136500000Y-117380000D03*
X136500000Y-116420000D03*
%TD*%
D26*
%TO.C,U25*%
X79595000Y-105125000D03*
X85415000Y-105125000D03*
X79595000Y-107665000D03*
X85415000Y-107665000D03*
X79595000Y-110205000D03*
X85415000Y-110205000D03*
X79595000Y-112745000D03*
X85415000Y-112745000D03*
X79595000Y-115285000D03*
X85415000Y-115285000D03*
X79595000Y-117825000D03*
X85415000Y-117825000D03*
X79595000Y-120365000D03*
X85415000Y-120365000D03*
X79595000Y-122905000D03*
X85415000Y-122905000D03*
X79595000Y-125445000D03*
X85415000Y-125445000D03*
X79595000Y-127985000D03*
X85415000Y-127985000D03*
X79595000Y-130525000D03*
X85415000Y-130525000D03*
X79595000Y-133065000D03*
X85415000Y-133065000D03*
X79595000Y-135605000D03*
X85415000Y-135605000D03*
X79595000Y-138145000D03*
X85415000Y-138145000D03*
X79595000Y-140685000D03*
X85415000Y-140685000D03*
X79595000Y-143225000D03*
X85415000Y-143225000D03*
X79595000Y-145765000D03*
X85415000Y-145765000D03*
X79595000Y-148305000D03*
X85415000Y-148305000D03*
X79595000Y-150845000D03*
X85415000Y-150845000D03*
X79595000Y-153385000D03*
X85415000Y-153385000D03*
%TD*%
D27*
%TO.C,C38*%
X130200000Y-104850000D03*
X130200000Y-106750000D03*
%TD*%
D13*
%TO.C,C73*%
X123150000Y-157890000D03*
X123150000Y-158850000D03*
%TD*%
D28*
%TO.C,RN3*%
X98362015Y-109312800D03*
X98362015Y-108812800D03*
X98362015Y-108312800D03*
X98362015Y-107812800D03*
X97362015Y-107812800D03*
X97362015Y-108312800D03*
X97362015Y-108812800D03*
X97362015Y-109312800D03*
%TD*%
D17*
%TO.C,C29*%
X135710000Y-76140000D03*
X135710000Y-75180000D03*
%TD*%
D29*
%TO.C,U22*%
X111800000Y-146050000D03*
D30*
X111975000Y-145875000D03*
D31*
X111800000Y-146525000D03*
X111800000Y-146975000D03*
D29*
X111800000Y-147450000D03*
D30*
X111975000Y-147625000D03*
D32*
X112450000Y-146750000D03*
X112950000Y-146750000D03*
D30*
X113425000Y-147625000D03*
D29*
X113600000Y-147450000D03*
D31*
X113600000Y-146975000D03*
X113600000Y-146525000D03*
D30*
X113425000Y-145875000D03*
D29*
X113600000Y-146050000D03*
%TD*%
D33*
%TO.C,R56*%
X108375000Y-123700000D03*
X107355000Y-123700000D03*
%TD*%
D27*
%TO.C,C18*%
X118150000Y-80350000D03*
X118150000Y-82250000D03*
%TD*%
D34*
%TO.C,C1*%
X100825000Y-66960000D03*
X102375000Y-66960000D03*
%TD*%
D35*
%TO.C,R32*%
X126090000Y-109400000D03*
X127110000Y-109400000D03*
%TD*%
D28*
%TO.C,RN1*%
X96835812Y-146869898D03*
X96835812Y-146369898D03*
X96835812Y-145869898D03*
X96835812Y-145369898D03*
X95835812Y-145369898D03*
X95835812Y-145869898D03*
X95835812Y-146369898D03*
X95835812Y-146869898D03*
%TD*%
D36*
%TO.C,U44*%
X98839215Y-104660800D03*
D37*
X98789215Y-105060800D03*
X98789215Y-105460800D03*
X98789215Y-105860800D03*
D38*
X98989215Y-106460800D03*
X99389215Y-106460800D03*
D39*
X99789215Y-106460800D03*
D38*
X100189215Y-106460800D03*
D37*
X100389215Y-105860800D03*
X100389215Y-105460800D03*
X100389215Y-105060800D03*
D40*
X100389215Y-104660800D03*
D38*
X100189215Y-104060800D03*
X99789215Y-104060800D03*
X99389215Y-104060800D03*
D39*
X98989215Y-104060800D03*
%TD*%
D29*
%TO.C,U10*%
X111600000Y-73200000D03*
D30*
X111775000Y-73025000D03*
D31*
X111600000Y-73675000D03*
X111600000Y-74125000D03*
D29*
X111600000Y-74600000D03*
D30*
X111775000Y-74775000D03*
D32*
X112250000Y-73900000D03*
X112750000Y-73900000D03*
D30*
X113225000Y-74775000D03*
D29*
X113400000Y-74600000D03*
D31*
X113400000Y-74125000D03*
X113400000Y-73675000D03*
D30*
X113225000Y-73025000D03*
D29*
X113400000Y-73200000D03*
%TD*%
%TO.C,U11*%
X132500000Y-75300000D03*
D30*
X132675000Y-75125000D03*
D31*
X132500000Y-75775000D03*
X132500000Y-76225000D03*
D29*
X132500000Y-76700000D03*
D30*
X132675000Y-76875000D03*
D32*
X133150000Y-76000000D03*
X133650000Y-76000000D03*
D30*
X134125000Y-76875000D03*
D29*
X134300000Y-76700000D03*
D31*
X134300000Y-76225000D03*
X134300000Y-75775000D03*
D30*
X134125000Y-75125000D03*
D29*
X134300000Y-75300000D03*
%TD*%
D41*
%TO.C,C48*%
X126120000Y-108200000D03*
X127080000Y-108200000D03*
%TD*%
D42*
%TO.C,U1*%
X97887500Y-69725000D03*
X97887500Y-70375000D03*
X97887500Y-71025000D03*
X97887500Y-71675000D03*
X97887500Y-72325000D03*
X97887500Y-72975000D03*
X97887500Y-73625000D03*
X97887500Y-74275000D03*
X97887500Y-74925000D03*
X97887500Y-75575000D03*
X103612500Y-75575000D03*
X103612500Y-74925000D03*
X103612500Y-74275000D03*
X103612500Y-73625000D03*
X103612500Y-72975000D03*
X103612500Y-72325000D03*
X103612500Y-71675000D03*
X103612500Y-71025000D03*
X103612500Y-70375000D03*
X103612500Y-69725000D03*
%TD*%
D27*
%TO.C,C41*%
X134600000Y-104850000D03*
X134600000Y-106750000D03*
%TD*%
%TO.C,C59*%
X134600000Y-129050000D03*
X134600000Y-130950000D03*
%TD*%
%TO.C,C77*%
X134650000Y-153200000D03*
X134650000Y-155100000D03*
%TD*%
D14*
%TO.C,R35*%
X124300000Y-109510000D03*
X124300000Y-110530000D03*
%TD*%
D27*
%TO.C,C42*%
X132400000Y-104850000D03*
X132400000Y-106750000D03*
%TD*%
%TO.C,C24*%
X132250000Y-80350000D03*
X132250000Y-82250000D03*
%TD*%
D33*
%TO.C,R103*%
X97360000Y-122400000D03*
X96340000Y-122400000D03*
%TD*%
D43*
%TO.C,U24*%
X121810000Y-153970000D03*
D44*
X121760000Y-154470000D03*
X121760000Y-154970000D03*
X121760000Y-155470000D03*
D45*
X122460000Y-156170000D03*
D46*
X122960000Y-155920000D03*
X123460000Y-155920000D03*
D45*
X123960000Y-156170000D03*
D44*
X124660000Y-155470000D03*
X124660000Y-154970000D03*
X124660000Y-154470000D03*
X124660000Y-153970000D03*
D45*
X123960000Y-153270000D03*
D46*
X123460000Y-153520000D03*
X122960000Y-153520000D03*
D45*
X122460000Y-153270000D03*
%TD*%
D17*
%TO.C,C95*%
X98551500Y-136101400D03*
X98551500Y-135141400D03*
%TD*%
D14*
%TO.C,R74*%
X121930000Y-157860000D03*
X121930000Y-158880000D03*
%TD*%
D41*
%TO.C,C63*%
X114995000Y-123700000D03*
X115955000Y-123700000D03*
%TD*%
D35*
%TO.C,R9*%
X109215000Y-72800000D03*
X110235000Y-72800000D03*
%TD*%
D14*
%TO.C,R72*%
X124350000Y-157860000D03*
X124350000Y-158880000D03*
%TD*%
D41*
%TO.C,C49*%
X117820000Y-127600000D03*
X118780000Y-127600000D03*
%TD*%
D47*
%TO.C,C107*%
X96474000Y-111861600D03*
X95514000Y-111861600D03*
%TD*%
D33*
%TO.C,R12*%
X131050000Y-77125000D03*
X130030000Y-77125000D03*
%TD*%
%TO.C,R52*%
X131200000Y-125825000D03*
X130180000Y-125825000D03*
%TD*%
D35*
%TO.C,R6*%
X119940000Y-78900000D03*
X120960000Y-78900000D03*
%TD*%
D41*
%TO.C,C31*%
X117820000Y-103400000D03*
X118780000Y-103400000D03*
%TD*%
D24*
%TO.C,C86*%
X61850000Y-75710000D03*
X59950000Y-75710000D03*
%TD*%
D33*
%TO.C,R17*%
X108225000Y-75000000D03*
X107205000Y-75000000D03*
%TD*%
D13*
%TO.C,C25*%
X126050000Y-81020000D03*
X126050000Y-81980000D03*
%TD*%
D41*
%TO.C,C64*%
X114995000Y-121500000D03*
X115955000Y-121500000D03*
%TD*%
D47*
%TO.C,C50*%
X128470000Y-127600000D03*
X127510000Y-127600000D03*
%TD*%
D48*
%TO.C,D4*%
X134662500Y-139050000D03*
X136237500Y-139050000D03*
%TD*%
D49*
%TO.C,U33*%
X94800000Y-94635000D03*
D50*
X94300000Y-94610000D03*
X93800000Y-94610000D03*
X93300000Y-94610000D03*
X93300000Y-95210000D03*
X93800000Y-95210000D03*
X94300000Y-95210000D03*
X94800000Y-95210000D03*
%TD*%
D47*
%TO.C,C44*%
X108355000Y-97300000D03*
X107395000Y-97300000D03*
%TD*%
D13*
%TO.C,C37*%
X123100000Y-109540000D03*
X123100000Y-110500000D03*
%TD*%
D35*
%TO.C,R45*%
X119190000Y-110600000D03*
X120210000Y-110600000D03*
%TD*%
%TO.C,R81*%
X119240000Y-158950000D03*
X120260000Y-158950000D03*
%TD*%
%TO.C,R40*%
X119040000Y-83700000D03*
X120060000Y-83700000D03*
%TD*%
D14*
%TO.C,R59*%
X121880000Y-133710000D03*
X121880000Y-134730000D03*
%TD*%
D15*
%TO.C,R87*%
X134150000Y-68710000D03*
X134150000Y-67690000D03*
%TD*%
%TO.C,R63*%
X135450000Y-141560000D03*
X135450000Y-140540000D03*
%TD*%
D41*
%TO.C,C46*%
X114995000Y-97300000D03*
X115955000Y-97300000D03*
%TD*%
D33*
%TO.C,R47*%
X126200000Y-127600000D03*
X125180000Y-127600000D03*
%TD*%
D13*
%TO.C,C100*%
X101250000Y-122020000D03*
X101250000Y-122980000D03*
%TD*%
D48*
%TO.C,D2*%
X134612500Y-90700000D03*
X136187500Y-90700000D03*
%TD*%
D22*
%TO.C,U4*%
X88340400Y-79392400D03*
X88340400Y-80642400D03*
X89190400Y-79392400D03*
X89190400Y-80642400D03*
D23*
X87315400Y-78892400D03*
X87315400Y-79342400D03*
X87315400Y-79792400D03*
X87315400Y-80242400D03*
X87315400Y-80692400D03*
X87315400Y-81142400D03*
X90215400Y-81142400D03*
X90215400Y-80692400D03*
X90215400Y-80242400D03*
X90215400Y-79792400D03*
X90215400Y-79342400D03*
X90215400Y-78892400D03*
%TD*%
D15*
%TO.C,R25*%
X135400000Y-93210000D03*
X135400000Y-92190000D03*
%TD*%
D27*
%TO.C,C74*%
X130250000Y-153200000D03*
X130250000Y-155100000D03*
%TD*%
D35*
%TO.C,R78*%
X119190000Y-134800000D03*
X120210000Y-134800000D03*
%TD*%
D13*
%TO.C,C61*%
X126200000Y-129720000D03*
X126200000Y-130680000D03*
%TD*%
D27*
%TO.C,C36*%
X118300000Y-104850000D03*
X118300000Y-106750000D03*
%TD*%
D36*
%TO.C,U31*%
X98600000Y-123000000D03*
D37*
X98550000Y-123400000D03*
X98550000Y-123800000D03*
X98550000Y-124200000D03*
D38*
X98750000Y-124800000D03*
X99150000Y-124800000D03*
D39*
X99550000Y-124800000D03*
D38*
X99950000Y-124800000D03*
D37*
X100150000Y-124200000D03*
X100150000Y-123800000D03*
X100150000Y-123400000D03*
D40*
X100150000Y-123000000D03*
D38*
X99950000Y-122400000D03*
X99550000Y-122400000D03*
X99150000Y-122400000D03*
D39*
X98750000Y-122400000D03*
%TD*%
D36*
%TO.C,U34*%
X98800000Y-113700000D03*
D37*
X98750000Y-114100000D03*
X98750000Y-114500000D03*
X98750000Y-114900000D03*
D38*
X98950000Y-115500000D03*
X99350000Y-115500000D03*
D39*
X99750000Y-115500000D03*
D38*
X100150000Y-115500000D03*
D37*
X100350000Y-114900000D03*
X100350000Y-114500000D03*
X100350000Y-114100000D03*
D40*
X100350000Y-113700000D03*
D38*
X100150000Y-113100000D03*
X99750000Y-113100000D03*
X99350000Y-113100000D03*
D39*
X98950000Y-113100000D03*
%TD*%
D15*
%TO.C,R118*%
X98551500Y-132081400D03*
X98551500Y-131061400D03*
%TD*%
D51*
%TO.C,U9*%
X135450000Y-72175000D03*
X135450000Y-71525000D03*
X135450000Y-70875000D03*
X135450000Y-70225000D03*
X133175000Y-70225000D03*
X133175000Y-70875000D03*
X133175000Y-71525000D03*
X133175000Y-72175000D03*
%TD*%
D52*
%TO.C,C17*%
X112550000Y-78100000D03*
X112550000Y-83500000D03*
%TD*%
D35*
%TO.C,R49*%
X109365000Y-121500000D03*
X110385000Y-121500000D03*
%TD*%
D27*
%TO.C,C40*%
X136800000Y-104850000D03*
X136800000Y-106750000D03*
%TD*%
D33*
%TO.C,R19*%
X108235000Y-73900000D03*
X107215000Y-73900000D03*
%TD*%
D15*
%TO.C,R83*%
X93444700Y-73971600D03*
X93444700Y-72951600D03*
%TD*%
D33*
%TO.C,R51*%
X127110000Y-134800000D03*
X126090000Y-134800000D03*
%TD*%
D41*
%TO.C,C27*%
X114845000Y-75000000D03*
X115805000Y-75000000D03*
%TD*%
D15*
%TO.C,R95*%
X100350000Y-98520000D03*
X100350000Y-97500000D03*
%TD*%
D13*
%TO.C,C43*%
X126200000Y-105520000D03*
X126200000Y-106480000D03*
%TD*%
D33*
%TO.C,R14*%
X110235000Y-73900000D03*
X109215000Y-73900000D03*
%TD*%
%TO.C,R20*%
X131050000Y-74925000D03*
X130030000Y-74925000D03*
%TD*%
D29*
%TO.C,U15*%
X132650000Y-99800000D03*
D30*
X132825000Y-99625000D03*
D31*
X132650000Y-100275000D03*
X132650000Y-100725000D03*
D29*
X132650000Y-101200000D03*
D30*
X132825000Y-101375000D03*
D32*
X133300000Y-100500000D03*
X133800000Y-100500000D03*
D30*
X134275000Y-101375000D03*
D29*
X134450000Y-101200000D03*
D31*
X134450000Y-100725000D03*
X134450000Y-100275000D03*
D30*
X134275000Y-99625000D03*
D29*
X134450000Y-99800000D03*
%TD*%
D53*
%TO.C,L3*%
X118532500Y-120200000D03*
X127547500Y-120200000D03*
%TD*%
D35*
%TO.C,R26*%
X109365000Y-97300000D03*
X110385000Y-97300000D03*
%TD*%
D36*
%TO.C,U46*%
X93908612Y-142156698D03*
X93908612Y-142556698D03*
X93908612Y-142956698D03*
X93908612Y-143356698D03*
X93908612Y-143756698D03*
D54*
X94608612Y-143806698D03*
D55*
X95308612Y-143756698D03*
D36*
X95308612Y-143356698D03*
X95308612Y-142956698D03*
X95308612Y-142556698D03*
X95308612Y-142156698D03*
D54*
X94608612Y-142106698D03*
%TD*%
D53*
%TO.C,L4*%
X118582500Y-144350000D03*
X127597500Y-144350000D03*
%TD*%
D35*
%TO.C,R46*%
X120090000Y-127600000D03*
X121110000Y-127600000D03*
%TD*%
D47*
%TO.C,C111*%
X94987012Y-140379498D03*
X94027012Y-140379498D03*
%TD*%
D33*
%TO.C,R54*%
X110385000Y-122600000D03*
X109365000Y-122600000D03*
%TD*%
D27*
%TO.C,C56*%
X130200000Y-129050000D03*
X130200000Y-130950000D03*
%TD*%
D35*
%TO.C,R79*%
X119240000Y-156550000D03*
X120260000Y-156550000D03*
%TD*%
D13*
%TO.C,C2*%
X85994600Y-78717200D03*
X85994600Y-79677200D03*
%TD*%
D17*
%TO.C,C65*%
X135860000Y-124840000D03*
X135860000Y-123880000D03*
%TD*%
D35*
%TO.C,R80*%
X119240000Y-157750000D03*
X120260000Y-157750000D03*
%TD*%
D41*
%TO.C,C110*%
X96109812Y-140379498D03*
X97069812Y-140379498D03*
%TD*%
%TO.C,C28*%
X114845000Y-72800000D03*
X115805000Y-72800000D03*
%TD*%
D13*
%TO.C,C96*%
X100350000Y-93480000D03*
X100350000Y-94440000D03*
%TD*%
D33*
%TO.C,R97*%
X100708815Y-102822400D03*
X99688815Y-102822400D03*
%TD*%
D56*
%TO.C,L5*%
X61673500Y-69600000D03*
X66526500Y-69600000D03*
%TD*%
D33*
%TO.C,R10*%
X110225000Y-75000000D03*
X109205000Y-75000000D03*
%TD*%
D25*
%TO.C,R30*%
X137819000Y-96549600D03*
X137819000Y-94899600D03*
%TD*%
D15*
%TO.C,R88*%
X134300000Y-93210000D03*
X134300000Y-92190000D03*
%TD*%
D52*
%TO.C,C35*%
X112700000Y-102600000D03*
X112700000Y-108000000D03*
%TD*%
D43*
%TO.C,U12*%
X121610000Y-81120000D03*
D44*
X121560000Y-81620000D03*
X121560000Y-82120000D03*
X121560000Y-82620000D03*
D45*
X122260000Y-83320000D03*
D46*
X122760000Y-83070000D03*
X123260000Y-83070000D03*
D45*
X123760000Y-83320000D03*
D44*
X124460000Y-82620000D03*
X124460000Y-82120000D03*
X124460000Y-81620000D03*
X124460000Y-81120000D03*
D45*
X123760000Y-80420000D03*
D46*
X123260000Y-80670000D03*
X122760000Y-80670000D03*
D45*
X122260000Y-80420000D03*
%TD*%
D57*
%TO.C,U35*%
X93725000Y-153150000D03*
D58*
X93700000Y-153650000D03*
X93700000Y-154150000D03*
X93700000Y-154650000D03*
X94300000Y-154650000D03*
X94300000Y-154150000D03*
X94300000Y-153650000D03*
X94300000Y-153150000D03*
%TD*%
D47*
%TO.C,C80*%
X108405000Y-145650000D03*
X107445000Y-145650000D03*
%TD*%
D27*
%TO.C,C58*%
X136800000Y-129050000D03*
X136800000Y-130950000D03*
%TD*%
D59*
%TO.C,U28*%
X90261000Y-71250400D03*
X90261000Y-71950400D03*
D60*
X90186000Y-72750400D03*
X90686000Y-72750400D03*
X91186000Y-72750400D03*
X91686000Y-72750400D03*
D59*
X91611000Y-71950400D03*
X91611000Y-71250400D03*
D60*
X91686000Y-70450400D03*
X91186000Y-70450400D03*
X90686000Y-70450400D03*
X90186000Y-70450400D03*
%TD*%
D35*
%TO.C,R75*%
X115040000Y-146750000D03*
X116060000Y-146750000D03*
%TD*%
D33*
%TO.C,R7*%
X126050000Y-78900000D03*
X125030000Y-78900000D03*
%TD*%
D19*
%TO.C,U2*%
X92456000Y-79451200D03*
X92456000Y-80551200D03*
X93256000Y-79451200D03*
X93256000Y-80551200D03*
D20*
X91481000Y-80976200D03*
X91481000Y-79026200D03*
X91481000Y-79676200D03*
X91481000Y-80326200D03*
X94131000Y-79026200D03*
X94131000Y-79676200D03*
X94131000Y-80326200D03*
X94131000Y-80976200D03*
%TD*%
D13*
%TO.C,C79*%
X126250000Y-153870000D03*
X126250000Y-154830000D03*
%TD*%
D21*
%TO.C,D5*%
X91572500Y-86931200D03*
X89997500Y-86931200D03*
%TD*%
D35*
%TO.C,R16*%
X130030000Y-76025000D03*
X131050000Y-76025000D03*
%TD*%
D27*
%TO.C,C60*%
X132400000Y-129050000D03*
X132400000Y-130950000D03*
%TD*%
D47*
%TO.C,C106*%
X96513215Y-102822400D03*
X95553215Y-102822400D03*
%TD*%
D48*
%TO.C,D1*%
X134462500Y-66200000D03*
X136037500Y-66200000D03*
%TD*%
D27*
%TO.C,C22*%
X136650000Y-80350000D03*
X136650000Y-82250000D03*
%TD*%
D61*
%TO.C,RN8*%
X97400000Y-124350000D03*
X97400000Y-123650000D03*
X96400000Y-123650000D03*
X96400000Y-124350000D03*
%TD*%
D35*
%TO.C,R22*%
X114815000Y-73900000D03*
X115835000Y-73900000D03*
%TD*%
D27*
%TO.C,C76*%
X136850000Y-153200000D03*
X136850000Y-155100000D03*
%TD*%
D35*
%TO.C,R76*%
X119190000Y-132400000D03*
X120210000Y-132400000D03*
%TD*%
%TO.C,R77*%
X119190000Y-133600000D03*
X120210000Y-133600000D03*
%TD*%
D14*
%TO.C,R38*%
X121880000Y-109510000D03*
X121880000Y-110530000D03*
%TD*%
D29*
%TO.C,U18*%
X111750000Y-121900000D03*
D30*
X111925000Y-121725000D03*
D31*
X111750000Y-122375000D03*
X111750000Y-122825000D03*
D29*
X111750000Y-123300000D03*
D30*
X111925000Y-123475000D03*
D32*
X112400000Y-122600000D03*
X112900000Y-122600000D03*
D30*
X113375000Y-123475000D03*
D29*
X113550000Y-123300000D03*
D31*
X113550000Y-122825000D03*
X113550000Y-122375000D03*
D30*
X113375000Y-121725000D03*
D29*
X113550000Y-121900000D03*
%TD*%
D14*
%TO.C,R100*%
X98050000Y-151790000D03*
X98050000Y-152810000D03*
%TD*%
D27*
%TO.C,C75*%
X128050000Y-153200000D03*
X128050000Y-155100000D03*
%TD*%
D35*
%TO.C,R15*%
X125940000Y-84900000D03*
X126960000Y-84900000D03*
%TD*%
D14*
%TO.C,R94*%
X100350000Y-95450000D03*
X100350000Y-96470000D03*
%TD*%
D16*
%TO.C,Q2*%
X132850000Y-90762500D03*
X130950000Y-90762500D03*
X131900000Y-92637500D03*
%TD*%
D35*
%TO.C,R42*%
X119040000Y-86100000D03*
X120060000Y-86100000D03*
%TD*%
D36*
%TO.C,U47*%
X97313012Y-142217898D03*
D37*
X97263012Y-142617898D03*
X97263012Y-143017898D03*
X97263012Y-143417898D03*
D38*
X97463012Y-144017898D03*
X97863012Y-144017898D03*
D39*
X98263012Y-144017898D03*
D38*
X98663012Y-144017898D03*
D37*
X98863012Y-143417898D03*
X98863012Y-143017898D03*
X98863012Y-142617898D03*
D40*
X98863012Y-142217898D03*
D38*
X98663012Y-141617898D03*
X98263012Y-141617898D03*
X97863012Y-141617898D03*
D39*
X97463012Y-141617898D03*
%TD*%
D27*
%TO.C,C54*%
X118300000Y-129050000D03*
X118300000Y-130950000D03*
%TD*%
D14*
%TO.C,R21*%
X121730000Y-85010000D03*
X121730000Y-86030000D03*
%TD*%
D41*
%TO.C,C103*%
X94320000Y-121900000D03*
X95280000Y-121900000D03*
%TD*%
D24*
%TO.C,C87*%
X61850000Y-73550000D03*
X59950000Y-73550000D03*
%TD*%
D36*
%TO.C,U40*%
X95395600Y-113638800D03*
X95395600Y-114038800D03*
X95395600Y-114438800D03*
X95395600Y-114838800D03*
X95395600Y-115238800D03*
D54*
X96095600Y-115288800D03*
D55*
X96795600Y-115238800D03*
D36*
X96795600Y-114838800D03*
X96795600Y-114438800D03*
X96795600Y-114038800D03*
X96795600Y-113638800D03*
D54*
X96095600Y-113588800D03*
%TD*%
D13*
%TO.C,C34*%
X120100000Y-105520000D03*
X120100000Y-106480000D03*
%TD*%
D41*
%TO.C,C13*%
X117670000Y-78900000D03*
X118630000Y-78900000D03*
%TD*%
D35*
%TO.C,R55*%
X126090000Y-133600000D03*
X127110000Y-133600000D03*
%TD*%
D33*
%TO.C,R24*%
X126200000Y-103400000D03*
X125180000Y-103400000D03*
%TD*%
%TO.C,R73*%
X108435000Y-146750000D03*
X107415000Y-146750000D03*
%TD*%
%TO.C,R11*%
X126960000Y-86100000D03*
X125940000Y-86100000D03*
%TD*%
D17*
%TO.C,C69*%
X136550000Y-141530000D03*
X136550000Y-140570000D03*
%TD*%
D62*
%TO.C,C92*%
X72950000Y-73000000D03*
X74850000Y-73000000D03*
%TD*%
D27*
%TO.C,C72*%
X118350000Y-153200000D03*
X118350000Y-155100000D03*
%TD*%
%TO.C,C78*%
X132450000Y-153200000D03*
X132450000Y-155100000D03*
%TD*%
%TO.C,C20*%
X130050000Y-80350000D03*
X130050000Y-82250000D03*
%TD*%
D41*
%TO.C,C81*%
X115045000Y-147850000D03*
X116005000Y-147850000D03*
%TD*%
D15*
%TO.C,R91*%
X89769000Y-89320800D03*
X89769000Y-88300800D03*
%TD*%
D17*
%TO.C,C47*%
X135860000Y-100640000D03*
X135860000Y-99680000D03*
%TD*%
D48*
%TO.C,D3*%
X134612500Y-114900000D03*
X136187500Y-114900000D03*
%TD*%
D53*
%TO.C,L2*%
X118532500Y-96000000D03*
X127547500Y-96000000D03*
%TD*%
D33*
%TO.C,R62*%
X126250000Y-151750000D03*
X125230000Y-151750000D03*
%TD*%
D13*
%TO.C,C70*%
X120150000Y-153870000D03*
X120150000Y-154830000D03*
%TD*%
D35*
%TO.C,R70*%
X126140000Y-157750000D03*
X127160000Y-157750000D03*
%TD*%
D18*
%TO.C,U5*%
X90785000Y-85211500D03*
X91735000Y-85211500D03*
X92685000Y-85211500D03*
X92685000Y-82936500D03*
X91735000Y-82936500D03*
X90785000Y-82936500D03*
%TD*%
D28*
%TO.C,RN4*%
X98322800Y-118352000D03*
X98322800Y-117852000D03*
X98322800Y-117352000D03*
X98322800Y-116852000D03*
X97322800Y-116852000D03*
X97322800Y-117352000D03*
X97322800Y-117852000D03*
X97322800Y-118352000D03*
%TD*%
D41*
%TO.C,C89*%
X75920000Y-67700000D03*
X76880000Y-67700000D03*
%TD*%
D33*
%TO.C,R65*%
X110425000Y-147850000D03*
X109405000Y-147850000D03*
%TD*%
D14*
%TO.C,R93*%
X98551500Y-133111400D03*
X98551500Y-134131400D03*
%TD*%
D33*
%TO.C,R86*%
X90451500Y-73918800D03*
X89431500Y-73918800D03*
%TD*%
D35*
%TO.C,R39*%
X114965000Y-98400000D03*
X115985000Y-98400000D03*
%TD*%
D43*
%TO.C,U20*%
X121760000Y-129820000D03*
D44*
X121710000Y-130320000D03*
X121710000Y-130820000D03*
X121710000Y-131320000D03*
D45*
X122410000Y-132020000D03*
D46*
X122910000Y-131770000D03*
X123410000Y-131770000D03*
D45*
X123910000Y-132020000D03*
D44*
X124610000Y-131320000D03*
X124610000Y-130820000D03*
X124610000Y-130320000D03*
X124610000Y-129820000D03*
D45*
X123910000Y-129120000D03*
D46*
X123410000Y-129370000D03*
X122910000Y-129370000D03*
D45*
X122410000Y-129120000D03*
%TD*%
D57*
%TO.C,U39*%
X94675000Y-123000000D03*
D58*
X94650000Y-123500000D03*
X94650000Y-124000000D03*
X94650000Y-124500000D03*
X95250000Y-124500000D03*
X95250000Y-124000000D03*
X95250000Y-123500000D03*
X95250000Y-123000000D03*
%TD*%
D33*
%TO.C,R58*%
X108385000Y-122600000D03*
X107365000Y-122600000D03*
%TD*%
%TO.C,R98*%
X100669600Y-111861600D03*
X99649600Y-111861600D03*
%TD*%
%TO.C,R69*%
X110435000Y-146750000D03*
X109415000Y-146750000D03*
%TD*%
%TO.C,R82*%
X92485500Y-69245200D03*
X91465500Y-69245200D03*
%TD*%
D15*
%TO.C,R8*%
X135250000Y-68710000D03*
X135250000Y-67690000D03*
%TD*%
D14*
%TO.C,R57*%
X124300000Y-133710000D03*
X124300000Y-134730000D03*
%TD*%
D33*
%TO.C,R71*%
X108425000Y-147850000D03*
X107405000Y-147850000D03*
%TD*%
D17*
%TO.C,C98*%
X98050000Y-154780000D03*
X98050000Y-153820000D03*
%TD*%
D27*
%TO.C,C57*%
X128000000Y-129050000D03*
X128000000Y-130950000D03*
%TD*%
D15*
%TO.C,R85*%
X88417500Y-73971600D03*
X88417500Y-72951600D03*
%TD*%
D17*
%TO.C,C33*%
X136500000Y-93180000D03*
X136500000Y-92220000D03*
%TD*%
D52*
%TO.C,C71*%
X112750000Y-150950000D03*
X112750000Y-156350000D03*
%TD*%
D33*
%TO.C,R29*%
X131200000Y-101625000D03*
X130180000Y-101625000D03*
%TD*%
D17*
%TO.C,C83*%
X135910000Y-148990000D03*
X135910000Y-148030000D03*
%TD*%
D41*
%TO.C,C30*%
X125970000Y-83700000D03*
X126930000Y-83700000D03*
%TD*%
D47*
%TO.C,C26*%
X108205000Y-72800000D03*
X107245000Y-72800000D03*
%TD*%
D43*
%TO.C,U16*%
X121760000Y-105620000D03*
D44*
X121710000Y-106120000D03*
X121710000Y-106620000D03*
X121710000Y-107120000D03*
D45*
X122410000Y-107820000D03*
D46*
X122910000Y-107570000D03*
X123410000Y-107570000D03*
D45*
X123910000Y-107820000D03*
D44*
X124610000Y-107120000D03*
X124610000Y-106620000D03*
X124610000Y-106120000D03*
X124610000Y-105620000D03*
D45*
X123910000Y-104920000D03*
D46*
X123410000Y-105170000D03*
X122910000Y-105170000D03*
D45*
X122410000Y-104920000D03*
%TD*%
D27*
%TO.C,C23*%
X134450000Y-80350000D03*
X134450000Y-82250000D03*
%TD*%
D41*
%TO.C,C104*%
X97636015Y-102822400D03*
X98596015Y-102822400D03*
%TD*%
D33*
%TO.C,R50*%
X110375000Y-123700000D03*
X109355000Y-123700000D03*
%TD*%
%TO.C,R27*%
X110375000Y-99500000D03*
X109355000Y-99500000D03*
%TD*%
%TO.C,R66*%
X127160000Y-158950000D03*
X126140000Y-158950000D03*
%TD*%
D61*
%TO.C,RN2*%
X96450000Y-156100000D03*
X96450000Y-155400000D03*
X95450000Y-155400000D03*
X95450000Y-156100000D03*
%TD*%
D13*
%TO.C,C52*%
X120100000Y-129720000D03*
X120100000Y-130680000D03*
%TD*%
D47*
%TO.C,C68*%
X128520000Y-151750000D03*
X127560000Y-151750000D03*
%TD*%
D35*
%TO.C,R60*%
X114990000Y-122600000D03*
X116010000Y-122600000D03*
%TD*%
D63*
%TO.C,U26*%
X74112500Y-69150000D03*
X74112500Y-70100000D03*
X74112500Y-71050000D03*
X76387500Y-71050000D03*
X76387500Y-70100000D03*
X76387500Y-69150000D03*
%TD*%
D17*
%TO.C,C7*%
X87112200Y-82402800D03*
X87112200Y-83362800D03*
%TD*%
D16*
%TO.C,Q5*%
X88229800Y-87111300D03*
X86329800Y-87111300D03*
X87279800Y-88986300D03*
%TD*%
D64*
%TO.C,U30*%
X97141000Y-95328800D03*
X97141000Y-96528800D03*
X97916000Y-95328800D03*
X97916000Y-96528800D03*
D65*
X95978500Y-94953800D03*
X95978500Y-95603800D03*
X95978500Y-96253800D03*
X95978500Y-96903800D03*
X99078500Y-96903800D03*
X99078500Y-96253800D03*
X99078500Y-95603800D03*
X99078500Y-94953800D03*
%TD*%
D35*
%TO.C,R33*%
X130180000Y-100525000D03*
X131200000Y-100525000D03*
%TD*%
D41*
%TO.C,C66*%
X126120000Y-132400000D03*
X127080000Y-132400000D03*
%TD*%
D25*
%TO.C,R68*%
X137869000Y-144899600D03*
X137869000Y-143249600D03*
%TD*%
D64*
%TO.C,U29*%
X95250000Y-133000000D03*
X95250000Y-134200000D03*
X96025000Y-133000000D03*
X96025000Y-134200000D03*
D65*
X94087500Y-132625000D03*
X94087500Y-133275000D03*
X94087500Y-133925000D03*
X94087500Y-134575000D03*
X97187500Y-134575000D03*
X97187500Y-133925000D03*
X97187500Y-133275000D03*
X97187500Y-132625000D03*
%TD*%
D36*
%TO.C,U32*%
X95400000Y-152350000D03*
D37*
X95350000Y-152750000D03*
X95350000Y-153150000D03*
X95350000Y-153550000D03*
D38*
X95550000Y-154150000D03*
X95950000Y-154150000D03*
D39*
X96350000Y-154150000D03*
D38*
X96750000Y-154150000D03*
D37*
X96950000Y-153550000D03*
X96950000Y-153150000D03*
X96950000Y-152750000D03*
D40*
X96950000Y-152350000D03*
D38*
X96750000Y-151750000D03*
X96350000Y-151750000D03*
X95950000Y-151750000D03*
D39*
X95550000Y-151750000D03*
%TD*%
D35*
%TO.C,R84*%
X91410700Y-73918800D03*
X92430700Y-73918800D03*
%TD*%
D16*
%TO.C,Q3*%
X132850000Y-114962500D03*
X130950000Y-114962500D03*
X131900000Y-116837500D03*
%TD*%
D33*
%TO.C,R114*%
X99182612Y-140379498D03*
X98162612Y-140379498D03*
%TD*%
D66*
%TO.C,U3*%
X77824300Y-78356000D03*
X77824300Y-79006000D03*
X77824300Y-79656000D03*
X77824300Y-80306000D03*
X80099300Y-80306000D03*
X80099300Y-79656000D03*
X80099300Y-79006000D03*
X80099300Y-78356000D03*
%TD*%
D15*
%TO.C,R1*%
X90886600Y-89320800D03*
X90886600Y-88300800D03*
%TD*%
D29*
%TO.C,U23*%
X132700000Y-148150000D03*
D30*
X132875000Y-147975000D03*
D31*
X132700000Y-148625000D03*
X132700000Y-149075000D03*
D29*
X132700000Y-149550000D03*
D30*
X132875000Y-149725000D03*
D32*
X133350000Y-148850000D03*
X133850000Y-148850000D03*
D30*
X134325000Y-149725000D03*
D29*
X134500000Y-149550000D03*
D31*
X134500000Y-149075000D03*
X134500000Y-148625000D03*
D30*
X134325000Y-147975000D03*
D29*
X134500000Y-148150000D03*
%TD*%
D33*
%TO.C,R34*%
X108375000Y-99500000D03*
X107355000Y-99500000D03*
%TD*%
D29*
%TO.C,U14*%
X111750000Y-97700000D03*
D30*
X111925000Y-97525000D03*
D31*
X111750000Y-98175000D03*
X111750000Y-98625000D03*
D29*
X111750000Y-99100000D03*
D30*
X111925000Y-99275000D03*
D32*
X112400000Y-98400000D03*
X112900000Y-98400000D03*
D30*
X113375000Y-99275000D03*
D29*
X113550000Y-99100000D03*
D31*
X113550000Y-98625000D03*
X113550000Y-98175000D03*
D30*
X113375000Y-97525000D03*
D29*
X113550000Y-97700000D03*
%TD*%
D47*
%TO.C,C14*%
X128320000Y-78900000D03*
X127360000Y-78900000D03*
%TD*%
D24*
%TO.C,C90*%
X79000000Y-75110000D03*
X77100000Y-75110000D03*
%TD*%
D35*
%TO.C,R41*%
X119040000Y-84900000D03*
X120060000Y-84900000D03*
%TD*%
%TO.C,R44*%
X119190000Y-109400000D03*
X120210000Y-109400000D03*
%TD*%
D53*
%TO.C,L1*%
X118382500Y-71500000D03*
X127397500Y-71500000D03*
%TD*%
D13*
%TO.C,C19*%
X122950000Y-85040000D03*
X122950000Y-86000000D03*
%TD*%
D35*
%TO.C,R43*%
X119190000Y-108200000D03*
X120210000Y-108200000D03*
%TD*%
D33*
%TO.C,R37*%
X131200000Y-99425000D03*
X130180000Y-99425000D03*
%TD*%
D15*
%TO.C,R89*%
X134300000Y-117410000D03*
X134300000Y-116390000D03*
%TD*%
D67*
%TO.C,U38*%
X58720600Y-132281800D03*
X58720600Y-132781800D03*
X58720600Y-133281800D03*
X58720600Y-133781800D03*
X58720600Y-134281800D03*
X58720600Y-134781800D03*
X58720600Y-135281800D03*
X58720600Y-135781800D03*
X58720600Y-136281800D03*
X58720600Y-136781800D03*
X58720600Y-137281800D03*
X58720600Y-137781800D03*
X58720600Y-138281800D03*
X58720600Y-138781800D03*
X58720600Y-139281800D03*
X58720600Y-139781800D03*
X58720600Y-140281800D03*
X58720600Y-140781800D03*
X58720600Y-141281800D03*
X58720600Y-141781800D03*
X58720600Y-142281800D03*
X58720600Y-142781800D03*
X58720600Y-143281800D03*
X58720600Y-143781800D03*
X58720600Y-144281800D03*
D68*
X60395600Y-145956800D03*
X60895600Y-145956800D03*
X61395600Y-145956800D03*
X61895600Y-145956800D03*
X62395600Y-145956800D03*
X62895600Y-145956800D03*
X63395600Y-145956800D03*
X63895600Y-145956800D03*
X64395600Y-145956800D03*
X64895600Y-145956800D03*
X65395600Y-145956800D03*
X65895600Y-145956800D03*
X66395600Y-145956800D03*
X66895600Y-145956800D03*
X67395600Y-145956800D03*
X67895600Y-145956800D03*
X68395600Y-145956800D03*
X68895600Y-145956800D03*
X69395600Y-145956800D03*
X69895600Y-145956800D03*
X70395600Y-145956800D03*
X70895600Y-145956800D03*
X71395600Y-145956800D03*
X71895600Y-145956800D03*
X72395600Y-145956800D03*
D67*
X74070600Y-144281800D03*
X74070600Y-143781800D03*
X74070600Y-143281800D03*
X74070600Y-142781800D03*
X74070600Y-142281800D03*
X74070600Y-141781800D03*
X74070600Y-141281800D03*
X74070600Y-140781800D03*
X74070600Y-140281800D03*
X74070600Y-139781800D03*
X74070600Y-139281800D03*
X74070600Y-138781800D03*
X74070600Y-138281800D03*
X74070600Y-137781800D03*
X74070600Y-137281800D03*
X74070600Y-136781800D03*
X74070600Y-136281800D03*
X74070600Y-135781800D03*
X74070600Y-135281800D03*
X74070600Y-134781800D03*
X74070600Y-134281800D03*
X74070600Y-133781800D03*
X74070600Y-133281800D03*
X74070600Y-132781800D03*
X74070600Y-132281800D03*
D68*
X72395600Y-130606800D03*
X71895600Y-130606800D03*
X71395600Y-130606800D03*
X70895600Y-130606800D03*
X70395600Y-130606800D03*
X69895600Y-130606800D03*
X69395600Y-130606800D03*
X68895600Y-130606800D03*
X68395600Y-130606800D03*
X67895600Y-130606800D03*
X67395600Y-130606800D03*
X66895600Y-130606800D03*
X66395600Y-130606800D03*
X65895600Y-130606800D03*
X65395600Y-130606800D03*
X64895600Y-130606800D03*
X64395600Y-130606800D03*
X63895600Y-130606800D03*
X63395600Y-130606800D03*
X62895600Y-130606800D03*
X62395600Y-130606800D03*
X61895600Y-130606800D03*
X61395600Y-130606800D03*
X60895600Y-130606800D03*
X60395600Y-130606800D03*
%TD*%
D15*
%TO.C,R119*%
X101250000Y-125060000D03*
X101250000Y-124040000D03*
%TD*%
D41*
%TO.C,C85*%
X58770000Y-68300000D03*
X59730000Y-68300000D03*
%TD*%
D13*
%TO.C,C94*%
X92801500Y-133141400D03*
X92801500Y-134101400D03*
%TD*%
%TO.C,C5*%
X94071800Y-82425600D03*
X94071800Y-83385600D03*
%TD*%
D27*
%TO.C,C21*%
X127850000Y-80350000D03*
X127850000Y-82250000D03*
%TD*%
D41*
%TO.C,C84*%
X126170000Y-156550000D03*
X127130000Y-156550000D03*
%TD*%
D35*
%TO.C,R64*%
X109415000Y-145650000D03*
X110435000Y-145650000D03*
%TD*%
D41*
%TO.C,C45*%
X114995000Y-99500000D03*
X115955000Y-99500000D03*
%TD*%
D63*
%TO.C,U27*%
X56962500Y-69750000D03*
X56962500Y-70700000D03*
X56962500Y-71650000D03*
X59237500Y-71650000D03*
X59237500Y-70700000D03*
X59237500Y-69750000D03*
%TD*%
D47*
%TO.C,C62*%
X108355000Y-121500000D03*
X107395000Y-121500000D03*
%TD*%
D14*
%TO.C,R18*%
X124150000Y-85010000D03*
X124150000Y-86030000D03*
%TD*%
D41*
%TO.C,C67*%
X117870000Y-151750000D03*
X118830000Y-151750000D03*
%TD*%
D17*
%TO.C,C15*%
X136350000Y-68680000D03*
X136350000Y-67720000D03*
%TD*%
D33*
%TO.C,R36*%
X108385000Y-98400000D03*
X107365000Y-98400000D03*
%TD*%
D52*
%TO.C,C53*%
X112700000Y-126800000D03*
X112700000Y-132200000D03*
%TD*%
D41*
%TO.C,C3*%
X82007000Y-78435200D03*
X82967000Y-78435200D03*
%TD*%
D13*
%TO.C,C16*%
X119950000Y-81020000D03*
X119950000Y-81980000D03*
%TD*%
D51*
%TO.C,U13*%
X135600000Y-96675000D03*
X135600000Y-96025000D03*
X135600000Y-95375000D03*
X135600000Y-94725000D03*
X133325000Y-94725000D03*
X133325000Y-95375000D03*
X133325000Y-96025000D03*
X133325000Y-96675000D03*
%TD*%
%TO.C,U21*%
X135650000Y-145025000D03*
X135650000Y-144375000D03*
X135650000Y-143725000D03*
X135650000Y-143075000D03*
X133375000Y-143075000D03*
X133375000Y-143725000D03*
X133375000Y-144375000D03*
X133375000Y-145025000D03*
%TD*%
D15*
%TO.C,R90*%
X134350000Y-141560000D03*
X134350000Y-140540000D03*
%TD*%
D47*
%TO.C,C99*%
X94510000Y-93610000D03*
X93550000Y-93610000D03*
%TD*%
D14*
%TO.C,R2*%
X88229800Y-82395600D03*
X88229800Y-83415600D03*
%TD*%
D13*
%TO.C,C55*%
X123100000Y-133740000D03*
X123100000Y-134700000D03*
%TD*%
D35*
%TO.C,R23*%
X120090000Y-103400000D03*
X121110000Y-103400000D03*
%TD*%
D41*
%TO.C,C105*%
X97596800Y-111861600D03*
X98556800Y-111861600D03*
%TD*%
D61*
%TO.C,RN6*%
X95200878Y-126450000D03*
X95200878Y-125750000D03*
X94200878Y-125750000D03*
X94200878Y-126450000D03*
%TD*%
D41*
%TO.C,C82*%
X115045000Y-145650000D03*
X116005000Y-145650000D03*
%TD*%
D61*
%TO.C,RN5*%
X94500000Y-97110000D03*
X94500000Y-96410000D03*
X93500000Y-96410000D03*
X93500000Y-97110000D03*
%TD*%
D51*
%TO.C,U17*%
X135600000Y-120875000D03*
X135600000Y-120225000D03*
X135600000Y-119575000D03*
X135600000Y-118925000D03*
X133325000Y-118925000D03*
X133325000Y-119575000D03*
X133325000Y-120225000D03*
X133325000Y-120875000D03*
%TD*%
D56*
%TO.C,L6*%
X78823500Y-69000000D03*
X83676500Y-69000000D03*
%TD*%
D15*
%TO.C,R48*%
X135400000Y-117410000D03*
X135400000Y-116390000D03*
%TD*%
D29*
%TO.C,U19*%
X132650000Y-124000000D03*
D30*
X132825000Y-123825000D03*
D31*
X132650000Y-124475000D03*
X132650000Y-124925000D03*
D29*
X132650000Y-125400000D03*
D30*
X132825000Y-125575000D03*
D32*
X133300000Y-124700000D03*
X133800000Y-124700000D03*
D30*
X134275000Y-125575000D03*
D29*
X134450000Y-125400000D03*
D31*
X134450000Y-124925000D03*
X134450000Y-124475000D03*
D30*
X134275000Y-123825000D03*
D29*
X134450000Y-124000000D03*
%TD*%
D27*
%TO.C,C39*%
X128000000Y-104850000D03*
X128000000Y-106750000D03*
%TD*%
D33*
%TO.C,R28*%
X127110000Y-110600000D03*
X126090000Y-110600000D03*
%TD*%
D16*
%TO.C,Q4*%
X132900000Y-139112500D03*
X131000000Y-139112500D03*
X131950000Y-140987500D03*
%TD*%
D69*
%TO.C,R3*%
X78004400Y-82296000D03*
X79654400Y-82296000D03*
%TD*%
D41*
%TO.C,C97*%
X93320000Y-151950000D03*
X94280000Y-151950000D03*
%TD*%
D35*
%TO.C,R61*%
X120140000Y-151750000D03*
X121160000Y-151750000D03*
%TD*%
D47*
%TO.C,C32*%
X128470000Y-103400000D03*
X127510000Y-103400000D03*
%TD*%
D61*
%TO.C,RN7*%
X97400878Y-126450000D03*
X97400878Y-125750000D03*
X96400878Y-125750000D03*
X96400878Y-126450000D03*
%TD*%
D33*
%TO.C,R31*%
X110385000Y-98400000D03*
X109365000Y-98400000D03*
%TD*%
D25*
%TO.C,R53*%
X137819000Y-120749600D03*
X137819000Y-119099600D03*
%TD*%
D47*
%TO.C,C93*%
X90398700Y-69245200D03*
X89438700Y-69245200D03*
%TD*%
D13*
%TO.C,C4*%
X89347400Y-82425600D03*
X89347400Y-83385600D03*
%TD*%
%TO.C,C6*%
X85994600Y-82425600D03*
X85994600Y-83385600D03*
%TD*%
D33*
%TO.C,R67*%
X131250000Y-149975000D03*
X130230000Y-149975000D03*
%TD*%
D36*
%TO.C,U36*%
X95434815Y-104599600D03*
X95434815Y-104999600D03*
X95434815Y-105399600D03*
X95434815Y-105799600D03*
X95434815Y-106199600D03*
D54*
X96134815Y-106249600D03*
D55*
X96834815Y-106199600D03*
D36*
X96834815Y-105799600D03*
X96834815Y-105399600D03*
X96834815Y-104999600D03*
X96834815Y-104599600D03*
D54*
X96134815Y-104549600D03*
%TD*%
D62*
%TO.C,C88*%
X55800000Y-73600000D03*
X57700000Y-73600000D03*
%TD*%
D16*
%TO.C,Q1*%
X132700000Y-66262500D03*
X130800000Y-66262500D03*
X131750000Y-68137500D03*
%TD*%
D70*
%TO.C,U37*%
X55072700Y-106566000D03*
X55072700Y-107066000D03*
X55072700Y-107566000D03*
X55072700Y-108066000D03*
X55072700Y-108566000D03*
X55072700Y-109066000D03*
X55072700Y-109566000D03*
X55072700Y-110066000D03*
X55072700Y-110566000D03*
X55072700Y-111066000D03*
X55072700Y-111566000D03*
X55072700Y-112066000D03*
X55072700Y-112566000D03*
X55072700Y-113066000D03*
X55072700Y-113566000D03*
X55072700Y-114066000D03*
X55072700Y-114566000D03*
X55072700Y-115066000D03*
X55072700Y-115566000D03*
X55072700Y-116066000D03*
X55072700Y-116566000D03*
X55072700Y-117066000D03*
X55072700Y-117566000D03*
X55072700Y-118066000D03*
X55072700Y-118566000D03*
X55072700Y-119066000D03*
X55072700Y-119566000D03*
X55072700Y-120066000D03*
X55072700Y-120566000D03*
X55072700Y-121066000D03*
X55072700Y-121566000D03*
X55072700Y-122066000D03*
X55072700Y-122566000D03*
X55072700Y-123066000D03*
X55072700Y-123566000D03*
X55072700Y-124066000D03*
D71*
X56985200Y-125978500D03*
X57485200Y-125978500D03*
X57985200Y-125978500D03*
X58485200Y-125978500D03*
X58985200Y-125978500D03*
X59485200Y-125978500D03*
X59985200Y-125978500D03*
X60485200Y-125978500D03*
X60985200Y-125978500D03*
X61485200Y-125978500D03*
X61985200Y-125978500D03*
X62485200Y-125978500D03*
X62985200Y-125978500D03*
X63485200Y-125978500D03*
X63985200Y-125978500D03*
X64485200Y-125978500D03*
X64985200Y-125978500D03*
X65485200Y-125978500D03*
X65985200Y-125978500D03*
X66485200Y-125978500D03*
X66985200Y-125978500D03*
X67485200Y-125978500D03*
X67985200Y-125978500D03*
X68485200Y-125978500D03*
X68985200Y-125978500D03*
X69485200Y-125978500D03*
X69985200Y-125978500D03*
X70485200Y-125978500D03*
X70985200Y-125978500D03*
X71485200Y-125978500D03*
X71985200Y-125978500D03*
X72485200Y-125978500D03*
X72985200Y-125978500D03*
X73485200Y-125978500D03*
X73985200Y-125978500D03*
X74485200Y-125978500D03*
D70*
X76397700Y-124066000D03*
X76397700Y-123566000D03*
X76397700Y-123066000D03*
X76397700Y-122566000D03*
X76397700Y-122066000D03*
X76397700Y-121566000D03*
X76397700Y-121066000D03*
X76397700Y-120566000D03*
X76397700Y-120066000D03*
X76397700Y-119566000D03*
X76397700Y-119066000D03*
X76397700Y-118566000D03*
X76397700Y-118066000D03*
X76397700Y-117566000D03*
X76397700Y-117066000D03*
X76397700Y-116566000D03*
X76397700Y-116066000D03*
X76397700Y-115566000D03*
X76397700Y-115066000D03*
X76397700Y-114566000D03*
X76397700Y-114066000D03*
X76397700Y-113566000D03*
X76397700Y-113066000D03*
X76397700Y-112566000D03*
X76397700Y-112066000D03*
X76397700Y-111566000D03*
X76397700Y-111066000D03*
X76397700Y-110566000D03*
X76397700Y-110066000D03*
X76397700Y-109566000D03*
X76397700Y-109066000D03*
X76397700Y-108566000D03*
X76397700Y-108066000D03*
X76397700Y-107566000D03*
X76397700Y-107066000D03*
X76397700Y-106566000D03*
D71*
X74485200Y-104653500D03*
X73985200Y-104653500D03*
X73485200Y-104653500D03*
X72985200Y-104653500D03*
X72485200Y-104653500D03*
X71985200Y-104653500D03*
X71485200Y-104653500D03*
X70985200Y-104653500D03*
X70485200Y-104653500D03*
X69985200Y-104653500D03*
X69485200Y-104653500D03*
X68985200Y-104653500D03*
X68485200Y-104653500D03*
X67985200Y-104653500D03*
X67485200Y-104653500D03*
X66985200Y-104653500D03*
X66485200Y-104653500D03*
X65985200Y-104653500D03*
X65485200Y-104653500D03*
X64985200Y-104653500D03*
X64485200Y-104653500D03*
X63985200Y-104653500D03*
X63485200Y-104653500D03*
X62985200Y-104653500D03*
X62485200Y-104653500D03*
X61985200Y-104653500D03*
X61485200Y-104653500D03*
X60985200Y-104653500D03*
X60485200Y-104653500D03*
X59985200Y-104653500D03*
X59485200Y-104653500D03*
X58985200Y-104653500D03*
X58485200Y-104653500D03*
X57985200Y-104653500D03*
X57485200Y-104653500D03*
X56985200Y-104653500D03*
%TD*%
M02*
