%TF.GenerationSoftware,KiCad,Pcbnew,7.0.8*%
%TF.CreationDate,2024-02-09T15:59:15+02:00*%
%TF.ProjectId,ESLGSU,45534c47-5355-42e6-9b69-6361645f7063,rev?*%
%TF.SameCoordinates,Original*%
%TF.FileFunction,Soldermask,Top*%
%TF.FilePolarity,Negative*%
%FSLAX46Y46*%
G04 Gerber Fmt 4.6, Leading zero omitted, Abs format (unit mm)*
G04 Created by KiCad (PCBNEW 7.0.8) date 2024-02-09 15:59:15*
%MOMM*%
%LPD*%
G01*
G04 APERTURE LIST*
G04 Aperture macros list*
%AMRoundRect*
0 Rectangle with rounded corners*
0 $1 Rounding radius*
0 $2 $3 $4 $5 $6 $7 $8 $9 X,Y pos of 4 corners*
0 Add a 4 corners polygon primitive as box body*
4,1,4,$2,$3,$4,$5,$6,$7,$8,$9,$2,$3,0*
0 Add four circle primitives for the rounded corners*
1,1,$1+$1,$2,$3*
1,1,$1+$1,$4,$5*
1,1,$1+$1,$6,$7*
1,1,$1+$1,$8,$9*
0 Add four rect primitives between the rounded corners*
20,1,$1+$1,$2,$3,$4,$5,0*
20,1,$1+$1,$4,$5,$6,$7,0*
20,1,$1+$1,$6,$7,$8,$9,0*
20,1,$1+$1,$8,$9,$2,$3,0*%
%AMOutline5P*
0 Free polygon, 5 corners , with rotation*
0 The origin of the aperture is its center*
0 number of corners: always 5*
0 $1 to $10 corner X, Y*
0 $11 Rotation angle, in degrees counterclockwise*
0 create outline with 5 corners*
4,1,5,$1,$2,$3,$4,$5,$6,$7,$8,$9,$10,$1,$2,$11*%
%AMOutline6P*
0 Free polygon, 6 corners , with rotation*
0 The origin of the aperture is its center*
0 number of corners: always 6*
0 $1 to $12 corner X, Y*
0 $13 Rotation angle, in degrees counterclockwise*
0 create outline with 6 corners*
4,1,6,$1,$2,$3,$4,$5,$6,$7,$8,$9,$10,$11,$12,$1,$2,$13*%
%AMOutline7P*
0 Free polygon, 7 corners , with rotation*
0 The origin of the aperture is its center*
0 number of corners: always 7*
0 $1 to $14 corner X, Y*
0 $15 Rotation angle, in degrees counterclockwise*
0 create outline with 7 corners*
4,1,7,$1,$2,$3,$4,$5,$6,$7,$8,$9,$10,$11,$12,$13,$14,$1,$2,$15*%
%AMOutline8P*
0 Free polygon, 8 corners , with rotation*
0 The origin of the aperture is its center*
0 number of corners: always 8*
0 $1 to $16 corner X, Y*
0 $17 Rotation angle, in degrees counterclockwise*
0 create outline with 8 corners*
4,1,8,$1,$2,$3,$4,$5,$6,$7,$8,$9,$10,$11,$12,$13,$14,$15,$16,$1,$2,$17*%
G04 Aperture macros list end*
%ADD10C,0.010000*%
%ADD11RoundRect,0.250000X0.625000X-0.312500X0.625000X0.312500X-0.625000X0.312500X-0.625000X-0.312500X0*%
%ADD12RoundRect,0.135000X-0.135000X-0.185000X0.135000X-0.185000X0.135000X0.185000X-0.135000X0.185000X0*%
%ADD13RoundRect,0.250000X-0.475000X0.250000X-0.475000X-0.250000X0.475000X-0.250000X0.475000X0.250000X0*%
%ADD14RoundRect,0.250000X0.475000X-0.250000X0.475000X0.250000X-0.475000X0.250000X-0.475000X-0.250000X0*%
%ADD15RoundRect,0.140000X0.140000X0.170000X-0.140000X0.170000X-0.140000X-0.170000X0.140000X-0.170000X0*%
%ADD16RoundRect,0.140000X-0.140000X-0.170000X0.140000X-0.170000X0.140000X0.170000X-0.140000X0.170000X0*%
%ADD17RoundRect,0.140000X0.170000X-0.140000X0.170000X0.140000X-0.170000X0.140000X-0.170000X-0.140000X0*%
%ADD18RoundRect,0.050000X0.050000X-0.300000X0.050000X0.300000X-0.050000X0.300000X-0.050000X-0.300000X0*%
%ADD19RoundRect,0.050000X0.050000X-0.250000X0.050000X0.250000X-0.050000X0.250000X-0.050000X-0.250000X0*%
%ADD20RoundRect,0.050000X0.250000X0.050000X-0.250000X0.050000X-0.250000X-0.050000X0.250000X-0.050000X0*%
%ADD21RoundRect,0.050000X-0.250000X-0.050000X0.250000X-0.050000X0.250000X0.050000X-0.250000X0.050000X0*%
%ADD22RoundRect,0.050000X-0.050000X0.250000X-0.050000X-0.250000X0.050000X-0.250000X0.050000X0.250000X0*%
%ADD23RoundRect,0.140000X-0.170000X0.140000X-0.170000X-0.140000X0.170000X-0.140000X0.170000X0.140000X0*%
%ADD24R,0.400000X0.250000*%
%ADD25R,0.250000X0.450000*%
%ADD26R,0.650000X0.350000*%
%ADD27R,1.550000X2.400000*%
%ADD28R,3.000000X0.650000*%
%ADD29RoundRect,0.050000X-0.300000X-0.050000X0.300000X-0.050000X0.300000X0.050000X-0.300000X0.050000X0*%
%ADD30RoundRect,0.075000X-0.662500X-0.075000X0.662500X-0.075000X0.662500X0.075000X-0.662500X0.075000X0*%
%ADD31RoundRect,0.075000X-0.075000X-0.662500X0.075000X-0.662500X0.075000X0.662500X-0.075000X0.662500X0*%
%ADD32RoundRect,0.135000X-0.185000X0.135000X-0.185000X-0.135000X0.185000X-0.135000X0.185000X0.135000X0*%
%ADD33RoundRect,0.135000X0.185000X-0.135000X0.185000X0.135000X-0.185000X0.135000X-0.185000X-0.135000X0*%
%ADD34R,0.600000X0.500000*%
%ADD35C,1.500000*%
%ADD36RoundRect,0.050000X-0.125000X-0.050000X0.125000X-0.050000X0.125000X0.050000X-0.125000X0.050000X0*%
%ADD37RoundRect,0.050000X-0.100000X-0.050000X0.100000X-0.050000X0.100000X0.050000X-0.100000X0.050000X0*%
%ADD38RoundRect,0.135000X0.135000X0.185000X-0.135000X0.185000X-0.135000X-0.185000X0.135000X-0.185000X0*%
%ADD39R,0.500000X0.400000*%
%ADD40R,1.900000X0.400000*%
%ADD41C,5.000000*%
%ADD42RoundRect,0.100000X-0.637500X-0.100000X0.637500X-0.100000X0.637500X0.100000X-0.637500X0.100000X0*%
%ADD43R,0.500000X0.320000*%
%ADD44R,3.175000X4.950000*%
%ADD45Outline5P,-0.400000X0.125000X0.275000X0.125000X0.400000X0.000000X0.400000X-0.125000X-0.400000X-0.125000X0.000000*%
%ADD46R,0.700000X0.250000*%
%ADD47R,0.250000X0.700000*%
%ADD48R,0.250000X1.200000*%
%ADD49R,0.400000X0.500000*%
%ADD50RoundRect,0.112500X-0.187500X-0.112500X0.187500X-0.112500X0.187500X0.112500X-0.187500X0.112500X0*%
%ADD51RoundRect,0.125000X0.537500X0.125000X-0.537500X0.125000X-0.537500X-0.125000X0.537500X-0.125000X0*%
%ADD52RoundRect,0.062500X0.062500X-0.375000X0.062500X0.375000X-0.062500X0.375000X-0.062500X-0.375000X0*%
%ADD53RoundRect,0.062500X0.375000X-0.062500X0.375000X0.062500X-0.375000X0.062500X-0.375000X-0.062500X0*%
%ADD54R,3.100000X3.100000*%
%ADD55R,1.750000X0.450000*%
%ADD56RoundRect,0.150000X-0.587500X-0.150000X0.587500X-0.150000X0.587500X0.150000X-0.587500X0.150000X0*%
%ADD57RoundRect,0.250000X-0.250000X-0.475000X0.250000X-0.475000X0.250000X0.475000X-0.250000X0.475000X0*%
%ADD58RoundRect,0.087500X-0.087500X0.337500X-0.087500X-0.337500X0.087500X-0.337500X0.087500X0.337500X0*%
%ADD59R,2.400000X1.650000*%
%ADD60RoundRect,0.250000X-0.450000X0.262500X-0.450000X-0.262500X0.450000X-0.262500X0.450000X0.262500X0*%
%ADD61RoundRect,0.250000X-0.550000X1.500000X-0.550000X-1.500000X0.550000X-1.500000X0.550000X1.500000X0*%
%ADD62RoundRect,0.218750X-0.256250X0.218750X-0.256250X-0.218750X0.256250X-0.218750X0.256250X0.218750X0*%
%ADD63RoundRect,0.050000X0.300000X0.050000X-0.300000X0.050000X-0.300000X-0.050000X0.300000X-0.050000X0*%
%ADD64RoundRect,0.097500X-0.227500X-0.097500X0.227500X-0.097500X0.227500X0.097500X-0.227500X0.097500X0*%
%ADD65R,2.340000X2.340000*%
%ADD66RoundRect,0.218750X-0.218750X-0.256250X0.218750X-0.256250X0.218750X0.256250X-0.218750X0.256250X0*%
%ADD67RoundRect,0.050000X0.350000X0.050000X-0.350000X0.050000X-0.350000X-0.050000X0.350000X-0.050000X0*%
%ADD68R,1.700000X2.500000*%
%ADD69RoundRect,0.250000X-0.312500X-0.625000X0.312500X-0.625000X0.312500X0.625000X-0.312500X0.625000X0*%
%ADD70RoundRect,0.150000X-0.512500X-0.150000X0.512500X-0.150000X0.512500X0.150000X-0.512500X0.150000X0*%
%ADD71RoundRect,0.125000X-0.537500X-0.125000X0.537500X-0.125000X0.537500X0.125000X-0.537500X0.125000X0*%
%ADD72C,1.020000*%
%ADD73C,1.800000*%
%ADD74R,1.780000X1.020000*%
%ADD75RoundRect,0.009843X0.290157X0.140157X-0.290157X0.140157X-0.290157X-0.140157X0.290157X-0.140157X0*%
%ADD76RoundRect,0.008202X0.116798X0.316798X-0.116798X0.316798X-0.116798X-0.316798X0.116798X-0.316798X0*%
%ADD77RoundRect,0.008202X0.291798X0.116798X-0.291798X0.116798X-0.291798X-0.116798X0.291798X-0.116798X0*%
%ADD78RoundRect,0.009843X0.140157X1.190157X-0.140157X1.190157X-0.140157X-1.190157X0.140157X-1.190157X0*%
%ADD79R,1.903000X2.790000*%
%ADD80R,0.500000X0.250000*%
%ADD81R,0.500000X0.450000*%
%ADD82RoundRect,0.102000X-0.675000X0.200000X-0.675000X-0.200000X0.675000X-0.200000X0.675000X0.200000X0*%
%ADD83O,1.004000X1.804000*%
%ADD84O,1.704000X0.954000*%
%ADD85RoundRect,0.102000X-0.775000X0.750000X-0.775000X-0.750000X0.775000X-0.750000X0.775000X0.750000X0*%
%ADD86RoundRect,0.075000X-0.700000X-0.075000X0.700000X-0.075000X0.700000X0.075000X-0.700000X0.075000X0*%
%ADD87RoundRect,0.075000X-0.075000X-0.700000X0.075000X-0.700000X0.075000X0.700000X-0.075000X0.700000X0*%
%ADD88RoundRect,0.250000X-0.625000X0.312500X-0.625000X-0.312500X0.625000X-0.312500X0.625000X0.312500X0*%
%ADD89R,0.900000X0.250000*%
%ADD90R,0.250000X0.900000*%
%ADD91R,2.300000X0.250000*%
%ADD92RoundRect,0.102000X0.600000X-0.150000X0.600000X0.150000X-0.600000X0.150000X-0.600000X-0.150000X0*%
%ADD93RoundRect,0.250000X0.250000X0.475000X-0.250000X0.475000X-0.250000X-0.475000X0.250000X-0.475000X0*%
%ADD94RoundRect,0.009843X-0.290157X-0.140157X0.290157X-0.140157X0.290157X0.140157X-0.290157X0.140157X0*%
%ADD95RoundRect,0.008202X-0.116798X-0.316798X0.116798X-0.316798X0.116798X0.316798X-0.116798X0.316798X0*%
%ADD96RoundRect,0.008202X-0.291798X-0.116798X0.291798X-0.116798X0.291798X0.116798X-0.291798X0.116798X0*%
%ADD97RoundRect,0.009843X-0.140157X-1.190157X0.140157X-1.190157X0.140157X1.190157X-0.140157X1.190157X0*%
%ADD98RoundRect,0.150000X0.150000X-0.512500X0.150000X0.512500X-0.150000X0.512500X-0.150000X-0.512500X0*%
%ADD99R,4.950000X3.175000*%
%ADD100C,5.600000*%
%ADD101C,2.500000*%
%ADD102O,1.400000X2.800000*%
%ADD103O,2.600000X1.400000*%
%ADD104RoundRect,0.100000X-0.425000X-0.100000X0.425000X-0.100000X0.425000X0.100000X-0.425000X0.100000X0*%
%ADD105RoundRect,0.050000X-0.050000X-0.250000X0.050000X-0.250000X0.050000X0.250000X-0.050000X0.250000X0*%
G04 APERTURE END LIST*
%TO.C,J10*%
D10*
X216976200Y-70101200D02*
X208623800Y-70101200D01*
X208623800Y-68848800D01*
X216976200Y-68848800D01*
X216976200Y-70101200D01*
G36*
X216976200Y-70101200D02*
G01*
X208623800Y-70101200D01*
X208623800Y-68848800D01*
X216976200Y-68848800D01*
X216976200Y-70101200D01*
G37*
X209196200Y-67601200D02*
X206543800Y-67601200D01*
X206543800Y-66208800D01*
X209196200Y-66208800D01*
X209196200Y-67601200D01*
G36*
X209196200Y-67601200D02*
G01*
X206543800Y-67601200D01*
X206543800Y-66208800D01*
X209196200Y-66208800D01*
X209196200Y-67601200D01*
G37*
X209196200Y-65101200D02*
X206543800Y-65101200D01*
X206543800Y-63708800D01*
X209196200Y-63708800D01*
X209196200Y-65101200D01*
G36*
X209196200Y-65101200D02*
G01*
X206543800Y-65101200D01*
X206543800Y-63708800D01*
X209196200Y-63708800D01*
X209196200Y-65101200D01*
G37*
X209196200Y-62601200D02*
X206543800Y-62601200D01*
X206543800Y-61208800D01*
X209196200Y-61208800D01*
X209196200Y-62601200D01*
G36*
X209196200Y-62601200D02*
G01*
X206543800Y-62601200D01*
X206543800Y-61208800D01*
X209196200Y-61208800D01*
X209196200Y-62601200D01*
G37*
X209196200Y-60101200D02*
X206543800Y-60101200D01*
X206543800Y-58708800D01*
X209196200Y-58708800D01*
X209196200Y-60101200D01*
G36*
X209196200Y-60101200D02*
G01*
X206543800Y-60101200D01*
X206543800Y-58708800D01*
X209196200Y-58708800D01*
X209196200Y-60101200D01*
G37*
X209196200Y-57601200D02*
X206543800Y-57601200D01*
X206543800Y-56208800D01*
X209196200Y-56208800D01*
X209196200Y-57601200D01*
G36*
X209196200Y-57601200D02*
G01*
X206543800Y-57601200D01*
X206543800Y-56208800D01*
X209196200Y-56208800D01*
X209196200Y-57601200D01*
G37*
X209196200Y-55101200D02*
X206543800Y-55101200D01*
X206543800Y-53708800D01*
X209196200Y-53708800D01*
X209196200Y-55101200D01*
G36*
X209196200Y-55101200D02*
G01*
X206543800Y-55101200D01*
X206543800Y-53708800D01*
X209196200Y-53708800D01*
X209196200Y-55101200D01*
G37*
X209196200Y-52601200D02*
X206543800Y-52601200D01*
X206543800Y-51208800D01*
X209196200Y-51208800D01*
X209196200Y-52601200D01*
G36*
X209196200Y-52601200D02*
G01*
X206543800Y-52601200D01*
X206543800Y-51208800D01*
X209196200Y-51208800D01*
X209196200Y-52601200D01*
G37*
X209196200Y-50101200D02*
X206543800Y-50101200D01*
X206543800Y-48708800D01*
X209196200Y-48708800D01*
X209196200Y-50101200D01*
G36*
X209196200Y-50101200D02*
G01*
X206543800Y-50101200D01*
X206543800Y-48708800D01*
X209196200Y-48708800D01*
X209196200Y-50101200D01*
G37*
X216976200Y-48061200D02*
X208623800Y-48061200D01*
X208623800Y-46808800D01*
X216976200Y-46808800D01*
X216976200Y-48061200D01*
G36*
X216976200Y-48061200D02*
G01*
X208623800Y-48061200D01*
X208623800Y-46808800D01*
X216976200Y-46808800D01*
X216976200Y-48061200D01*
G37*
%TO.C,J5*%
X79871000Y-127886000D02*
X79897000Y-127888000D01*
X79923000Y-127891000D01*
X79949000Y-127896000D01*
X79974000Y-127902000D01*
X80000000Y-127909000D01*
X80024000Y-127918000D01*
X80048000Y-127928000D01*
X80072000Y-127939000D01*
X80095000Y-127952000D01*
X80117000Y-127966000D01*
X80139000Y-127980000D01*
X80160000Y-127996000D01*
X80180000Y-128013000D01*
X80199000Y-128031000D01*
X80217000Y-128050000D01*
X80234000Y-128070000D01*
X80250000Y-128091000D01*
X80264000Y-128113000D01*
X80278000Y-128135000D01*
X80291000Y-128158000D01*
X80302000Y-128182000D01*
X80312000Y-128206000D01*
X80321000Y-128230000D01*
X80328000Y-128256000D01*
X80334000Y-128281000D01*
X80339000Y-128307000D01*
X80342000Y-128333000D01*
X80344000Y-128359000D01*
X80345000Y-128385000D01*
X80345000Y-129730000D01*
X78595000Y-129730000D01*
X78595000Y-128385000D01*
X78596000Y-128359000D01*
X78598000Y-128333000D01*
X78601000Y-128307000D01*
X78606000Y-128281000D01*
X78612000Y-128256000D01*
X78619000Y-128230000D01*
X78628000Y-128206000D01*
X78638000Y-128182000D01*
X78649000Y-128158000D01*
X78662000Y-128135000D01*
X78676000Y-128113000D01*
X78690000Y-128091000D01*
X78706000Y-128070000D01*
X78723000Y-128050000D01*
X78741000Y-128031000D01*
X78760000Y-128013000D01*
X78780000Y-127996000D01*
X78801000Y-127980000D01*
X78823000Y-127966000D01*
X78845000Y-127952000D01*
X78868000Y-127939000D01*
X78892000Y-127928000D01*
X78916000Y-127918000D01*
X78940000Y-127909000D01*
X78966000Y-127902000D01*
X78991000Y-127896000D01*
X79017000Y-127891000D01*
X79043000Y-127888000D01*
X79069000Y-127886000D01*
X79095000Y-127885000D01*
X79845000Y-127885000D01*
X79871000Y-127886000D01*
G36*
X79871000Y-127886000D02*
G01*
X79897000Y-127888000D01*
X79923000Y-127891000D01*
X79949000Y-127896000D01*
X79974000Y-127902000D01*
X80000000Y-127909000D01*
X80024000Y-127918000D01*
X80048000Y-127928000D01*
X80072000Y-127939000D01*
X80095000Y-127952000D01*
X80117000Y-127966000D01*
X80139000Y-127980000D01*
X80160000Y-127996000D01*
X80180000Y-128013000D01*
X80199000Y-128031000D01*
X80217000Y-128050000D01*
X80234000Y-128070000D01*
X80250000Y-128091000D01*
X80264000Y-128113000D01*
X80278000Y-128135000D01*
X80291000Y-128158000D01*
X80302000Y-128182000D01*
X80312000Y-128206000D01*
X80321000Y-128230000D01*
X80328000Y-128256000D01*
X80334000Y-128281000D01*
X80339000Y-128307000D01*
X80342000Y-128333000D01*
X80344000Y-128359000D01*
X80345000Y-128385000D01*
X80345000Y-129730000D01*
X78595000Y-129730000D01*
X78595000Y-128385000D01*
X78596000Y-128359000D01*
X78598000Y-128333000D01*
X78601000Y-128307000D01*
X78606000Y-128281000D01*
X78612000Y-128256000D01*
X78619000Y-128230000D01*
X78628000Y-128206000D01*
X78638000Y-128182000D01*
X78649000Y-128158000D01*
X78662000Y-128135000D01*
X78676000Y-128113000D01*
X78690000Y-128091000D01*
X78706000Y-128070000D01*
X78723000Y-128050000D01*
X78741000Y-128031000D01*
X78760000Y-128013000D01*
X78780000Y-127996000D01*
X78801000Y-127980000D01*
X78823000Y-127966000D01*
X78845000Y-127952000D01*
X78868000Y-127939000D01*
X78892000Y-127928000D01*
X78916000Y-127918000D01*
X78940000Y-127909000D01*
X78966000Y-127902000D01*
X78991000Y-127896000D01*
X79017000Y-127891000D01*
X79043000Y-127888000D01*
X79069000Y-127886000D01*
X79095000Y-127885000D01*
X79845000Y-127885000D01*
X79871000Y-127886000D01*
G37*
X80345000Y-135475000D02*
X80344000Y-135501000D01*
X80342000Y-135527000D01*
X80339000Y-135553000D01*
X80334000Y-135579000D01*
X80328000Y-135604000D01*
X80321000Y-135630000D01*
X80312000Y-135654000D01*
X80302000Y-135678000D01*
X80291000Y-135702000D01*
X80278000Y-135725000D01*
X80264000Y-135747000D01*
X80250000Y-135769000D01*
X80234000Y-135790000D01*
X80217000Y-135810000D01*
X80199000Y-135829000D01*
X80180000Y-135847000D01*
X80160000Y-135864000D01*
X80139000Y-135880000D01*
X80117000Y-135894000D01*
X80095000Y-135908000D01*
X80072000Y-135921000D01*
X80048000Y-135932000D01*
X80024000Y-135942000D01*
X80000000Y-135951000D01*
X79974000Y-135958000D01*
X79949000Y-135964000D01*
X79923000Y-135969000D01*
X79897000Y-135972000D01*
X79871000Y-135974000D01*
X79845000Y-135975000D01*
X79095000Y-135975000D01*
X79069000Y-135974000D01*
X79043000Y-135972000D01*
X79017000Y-135969000D01*
X78991000Y-135964000D01*
X78966000Y-135958000D01*
X78940000Y-135951000D01*
X78916000Y-135942000D01*
X78892000Y-135932000D01*
X78868000Y-135921000D01*
X78845000Y-135908000D01*
X78823000Y-135894000D01*
X78801000Y-135880000D01*
X78780000Y-135864000D01*
X78760000Y-135847000D01*
X78741000Y-135829000D01*
X78723000Y-135810000D01*
X78706000Y-135790000D01*
X78690000Y-135769000D01*
X78676000Y-135747000D01*
X78662000Y-135725000D01*
X78649000Y-135702000D01*
X78638000Y-135678000D01*
X78628000Y-135654000D01*
X78619000Y-135630000D01*
X78612000Y-135604000D01*
X78606000Y-135579000D01*
X78601000Y-135553000D01*
X78598000Y-135527000D01*
X78596000Y-135501000D01*
X78595000Y-135475000D01*
X78595000Y-134130000D01*
X80345000Y-134130000D01*
X80345000Y-135475000D01*
G36*
X80345000Y-135475000D02*
G01*
X80344000Y-135501000D01*
X80342000Y-135527000D01*
X80339000Y-135553000D01*
X80334000Y-135579000D01*
X80328000Y-135604000D01*
X80321000Y-135630000D01*
X80312000Y-135654000D01*
X80302000Y-135678000D01*
X80291000Y-135702000D01*
X80278000Y-135725000D01*
X80264000Y-135747000D01*
X80250000Y-135769000D01*
X80234000Y-135790000D01*
X80217000Y-135810000D01*
X80199000Y-135829000D01*
X80180000Y-135847000D01*
X80160000Y-135864000D01*
X80139000Y-135880000D01*
X80117000Y-135894000D01*
X80095000Y-135908000D01*
X80072000Y-135921000D01*
X80048000Y-135932000D01*
X80024000Y-135942000D01*
X80000000Y-135951000D01*
X79974000Y-135958000D01*
X79949000Y-135964000D01*
X79923000Y-135969000D01*
X79897000Y-135972000D01*
X79871000Y-135974000D01*
X79845000Y-135975000D01*
X79095000Y-135975000D01*
X79069000Y-135974000D01*
X79043000Y-135972000D01*
X79017000Y-135969000D01*
X78991000Y-135964000D01*
X78966000Y-135958000D01*
X78940000Y-135951000D01*
X78916000Y-135942000D01*
X78892000Y-135932000D01*
X78868000Y-135921000D01*
X78845000Y-135908000D01*
X78823000Y-135894000D01*
X78801000Y-135880000D01*
X78780000Y-135864000D01*
X78760000Y-135847000D01*
X78741000Y-135829000D01*
X78723000Y-135810000D01*
X78706000Y-135790000D01*
X78690000Y-135769000D01*
X78676000Y-135747000D01*
X78662000Y-135725000D01*
X78649000Y-135702000D01*
X78638000Y-135678000D01*
X78628000Y-135654000D01*
X78619000Y-135630000D01*
X78612000Y-135604000D01*
X78606000Y-135579000D01*
X78601000Y-135553000D01*
X78598000Y-135527000D01*
X78596000Y-135501000D01*
X78595000Y-135475000D01*
X78595000Y-134130000D01*
X80345000Y-134130000D01*
X80345000Y-135475000D01*
G37*
%TO.C,G\u002A\u002A\u002A*%
G36*
X98108879Y-85579749D02*
G01*
X98115783Y-88467851D01*
X98184159Y-88652047D01*
X98326845Y-88973144D01*
X98501826Y-89255222D01*
X98708630Y-89497833D01*
X98946783Y-89700527D01*
X99215814Y-89862856D01*
X99515248Y-89984372D01*
X99620402Y-90015371D01*
X99665291Y-90026981D01*
X99709919Y-90036881D01*
X99758702Y-90045243D01*
X99816056Y-90052238D01*
X99886398Y-90058039D01*
X99974145Y-90062816D01*
X100083712Y-90066741D01*
X100219516Y-90069987D01*
X100385973Y-90072724D01*
X100587501Y-90075124D01*
X100828515Y-90077360D01*
X101113431Y-90079602D01*
X101309910Y-90081040D01*
X102795402Y-90091760D01*
X102795402Y-90854555D01*
X102795402Y-91617349D01*
X101271657Y-91614826D01*
X100904274Y-91613810D01*
X100585496Y-91612028D01*
X100312925Y-91609435D01*
X100084169Y-91605980D01*
X99896831Y-91601618D01*
X99748517Y-91596300D01*
X99636831Y-91589979D01*
X99559377Y-91582606D01*
X99543896Y-91580409D01*
X99244244Y-91517558D01*
X98935019Y-91423644D01*
X98633508Y-91305039D01*
X98356995Y-91168115D01*
X98243472Y-91101058D01*
X97901404Y-90857417D01*
X97590365Y-90576823D01*
X97313815Y-90263821D01*
X97075209Y-89922957D01*
X96878005Y-89558776D01*
X96725662Y-89175822D01*
X96689193Y-89057851D01*
X96668005Y-88983374D01*
X96649039Y-88912509D01*
X96632172Y-88842143D01*
X96617281Y-88769164D01*
X96604243Y-88690459D01*
X96592936Y-88602917D01*
X96583235Y-88503425D01*
X96575018Y-88388871D01*
X96568163Y-88256143D01*
X96562546Y-88102129D01*
X96558044Y-87923716D01*
X96554534Y-87717792D01*
X96551893Y-87481245D01*
X96549999Y-87210964D01*
X96548727Y-86903834D01*
X96547956Y-86556745D01*
X96547563Y-86166584D01*
X96547423Y-85730240D01*
X96547410Y-85470059D01*
X96547410Y-82691647D01*
X97324692Y-82691647D01*
X98101975Y-82691647D01*
X98108879Y-85579749D01*
G37*
G36*
X86550623Y-83468294D02*
G01*
X86550623Y-84246216D01*
X84247725Y-84253118D01*
X81944828Y-84260020D01*
X81752595Y-84355036D01*
X81551928Y-84480032D01*
X81388658Y-84639116D01*
X81260069Y-84835055D01*
X81238171Y-84879124D01*
X81201063Y-84961414D01*
X81177354Y-85029852D01*
X81164078Y-85100489D01*
X81158266Y-85189375D01*
X81156949Y-85312561D01*
X81156948Y-85318353D01*
X81158162Y-85443345D01*
X81163738Y-85533209D01*
X81176576Y-85603800D01*
X81199579Y-85670974D01*
X81235645Y-85750585D01*
X81236268Y-85751888D01*
X81350639Y-85946373D01*
X81491513Y-86101706D01*
X81666828Y-86226238D01*
X81709012Y-86249390D01*
X81793932Y-86292241D01*
X81864890Y-86321369D01*
X81937013Y-86340462D01*
X82025429Y-86353209D01*
X82145265Y-86363300D01*
X82188316Y-86366274D01*
X82260694Y-86369447D01*
X82379479Y-86372506D01*
X82540072Y-86375407D01*
X82737877Y-86378108D01*
X82968295Y-86380567D01*
X83226730Y-86382741D01*
X83508583Y-86384588D01*
X83809257Y-86386065D01*
X84124155Y-86387129D01*
X84448679Y-86387739D01*
X84516838Y-86387805D01*
X86550623Y-86389438D01*
X86550623Y-87166851D01*
X86550623Y-87944264D01*
X84249067Y-87951038D01*
X81947510Y-87957811D01*
X81776052Y-88039035D01*
X81566612Y-88163383D01*
X81397783Y-88317504D01*
X81271130Y-88498773D01*
X81188220Y-88704567D01*
X81150618Y-88932261D01*
X81150945Y-89086534D01*
X81189459Y-89313868D01*
X81273683Y-89521288D01*
X81400784Y-89704540D01*
X81567929Y-89859366D01*
X81733925Y-89962662D01*
X81791701Y-89991680D01*
X81841740Y-90013341D01*
X81893086Y-90029068D01*
X81954784Y-90040283D01*
X82035879Y-90048412D01*
X82145416Y-90054876D01*
X82292439Y-90061099D01*
X82381044Y-90064498D01*
X82489047Y-90067634D01*
X82642501Y-90070664D01*
X82835854Y-90073538D01*
X83063553Y-90076208D01*
X83320046Y-90078625D01*
X83599779Y-90080739D01*
X83897201Y-90082501D01*
X84206759Y-90083862D01*
X84522900Y-90084773D01*
X84708103Y-90085078D01*
X86550623Y-90087229D01*
X86550623Y-90852007D01*
X86550623Y-91616785D01*
X84376577Y-91623442D01*
X84041959Y-91624264D01*
X83717671Y-91624667D01*
X83407948Y-91624670D01*
X83117026Y-91624290D01*
X82849143Y-91623545D01*
X82608533Y-91622452D01*
X82399434Y-91621030D01*
X82226082Y-91619295D01*
X82092713Y-91617265D01*
X82003563Y-91614959D01*
X81973012Y-91613446D01*
X81717330Y-91575313D01*
X81449478Y-91499757D01*
X81185471Y-91391863D01*
X81043406Y-91318160D01*
X80808241Y-91161142D01*
X80580722Y-90963034D01*
X80369586Y-90733739D01*
X80183571Y-90483160D01*
X80031413Y-90221199D01*
X79981706Y-90114800D01*
X79863010Y-89778502D01*
X79788456Y-89423739D01*
X79758664Y-89058639D01*
X79774252Y-88691325D01*
X79835840Y-88329925D01*
X79843437Y-88298858D01*
X79899663Y-88120157D01*
X79981459Y-87919963D01*
X80080630Y-87715013D01*
X80188982Y-87522043D01*
X80298321Y-87357789D01*
X80314906Y-87335878D01*
X80459750Y-87148412D01*
X80384707Y-87068574D01*
X80223081Y-86865941D01*
X80079007Y-86624565D01*
X79956821Y-86354964D01*
X79860859Y-86067656D01*
X79795458Y-85773159D01*
X79771180Y-85580418D01*
X79762340Y-85205589D01*
X79799205Y-84843442D01*
X79879559Y-84497363D01*
X80001187Y-84170735D01*
X80161872Y-83866941D01*
X80359398Y-83589365D01*
X80591549Y-83341391D01*
X80856109Y-83126403D01*
X81150863Y-82947784D01*
X81473594Y-82808918D01*
X81615984Y-82763540D01*
X81820000Y-82704920D01*
X84185312Y-82697646D01*
X86550623Y-82690373D01*
X86550623Y-83468294D01*
G37*
G36*
X94609257Y-83468368D02*
G01*
X94609257Y-84245090D01*
X92473464Y-84252555D01*
X90337671Y-84260020D01*
X90168762Y-84340051D01*
X89969399Y-84459991D01*
X89806277Y-84609964D01*
X89680513Y-84783804D01*
X89593224Y-84975345D01*
X89545528Y-85178420D01*
X89538542Y-85386865D01*
X89573385Y-85594512D01*
X89651173Y-85795196D01*
X89773025Y-85982751D01*
X89854583Y-86073455D01*
X89959490Y-86160298D01*
X90091369Y-86244015D01*
X90229030Y-86312462D01*
X90337671Y-86350307D01*
X90377917Y-86354522D01*
X90463881Y-86359214D01*
X90590279Y-86364229D01*
X90751828Y-86369413D01*
X90943245Y-86374610D01*
X91159248Y-86379667D01*
X91394553Y-86384430D01*
X91643878Y-86388743D01*
X91663775Y-86389057D01*
X91950433Y-86393639D01*
X92190977Y-86397823D01*
X92390296Y-86401862D01*
X92553277Y-86406013D01*
X92684806Y-86410530D01*
X92789771Y-86415668D01*
X92873059Y-86421681D01*
X92939557Y-86428826D01*
X92994152Y-86437357D01*
X93041732Y-86447530D01*
X93087183Y-86459598D01*
X93102923Y-86464150D01*
X93441206Y-86589058D01*
X93753512Y-86756553D01*
X94036672Y-86963747D01*
X94287518Y-87207750D01*
X94502881Y-87485675D01*
X94679590Y-87794633D01*
X94757236Y-87971865D01*
X94867398Y-88312338D01*
X94932250Y-88654812D01*
X94953847Y-88995617D01*
X94934245Y-89331085D01*
X94875502Y-89657546D01*
X94779673Y-89971330D01*
X94648813Y-90268768D01*
X94484980Y-90546191D01*
X94290229Y-90799929D01*
X94066617Y-91026313D01*
X93816199Y-91221672D01*
X93541032Y-91382339D01*
X93243171Y-91504643D01*
X92924673Y-91584915D01*
X92717554Y-91611982D01*
X92658421Y-91614775D01*
X92552694Y-91617270D01*
X92404780Y-91619445D01*
X92219088Y-91621277D01*
X92000025Y-91622741D01*
X91751999Y-91623816D01*
X91479420Y-91624479D01*
X91186695Y-91624706D01*
X90878233Y-91624474D01*
X90558441Y-91623761D01*
X90497059Y-91623570D01*
X88488775Y-91617040D01*
X88488775Y-90852135D01*
X88488775Y-90087229D01*
X90395050Y-90086117D01*
X90795747Y-90085749D01*
X91148840Y-90085039D01*
X91457731Y-90083831D01*
X91725819Y-90081970D01*
X91956506Y-90079303D01*
X92153191Y-90075675D01*
X92319275Y-90070930D01*
X92458159Y-90064914D01*
X92573243Y-90057472D01*
X92667927Y-90048450D01*
X92745612Y-90037693D01*
X92809699Y-90025046D01*
X92863588Y-90010354D01*
X92910679Y-89993463D01*
X92954373Y-89974219D01*
X92964803Y-89969197D01*
X93145142Y-89855204D01*
X93305203Y-89703379D01*
X93432617Y-89526279D01*
X93468606Y-89457713D01*
X93505272Y-89376887D01*
X93529053Y-89310147D01*
X93542703Y-89242248D01*
X93548971Y-89157950D01*
X93550610Y-89042009D01*
X93550616Y-89003394D01*
X93549483Y-88876436D01*
X93544588Y-88785482D01*
X93533194Y-88715539D01*
X93512560Y-88651618D01*
X93479949Y-88578727D01*
X93468839Y-88555778D01*
X93376753Y-88405518D01*
X93253666Y-88258386D01*
X93116840Y-88134011D01*
X93065829Y-88097453D01*
X92999454Y-88061952D01*
X92907475Y-88022637D01*
X92836868Y-87997175D01*
X92798003Y-87985398D01*
X92756193Y-87975524D01*
X92706567Y-87967333D01*
X92644254Y-87960608D01*
X92564381Y-87955130D01*
X92462077Y-87950682D01*
X92332471Y-87947043D01*
X92170690Y-87943997D01*
X91971865Y-87941325D01*
X91731122Y-87938808D01*
X91485261Y-87936588D01*
X91189745Y-87933895D01*
X90939855Y-87931016D01*
X90730218Y-87927423D01*
X90555457Y-87922593D01*
X90410197Y-87915999D01*
X90289063Y-87907118D01*
X90186679Y-87895423D01*
X90097669Y-87880389D01*
X90016658Y-87861492D01*
X89938271Y-87838205D01*
X89857132Y-87810005D01*
X89767865Y-87776365D01*
X89741528Y-87766226D01*
X89490457Y-87646840D01*
X89241181Y-87486127D01*
X89004586Y-87292949D01*
X88791559Y-87076165D01*
X88617599Y-86851504D01*
X88476073Y-86611472D01*
X88351536Y-86340481D01*
X88252729Y-86057904D01*
X88240845Y-86016354D01*
X88215436Y-85921172D01*
X88197097Y-85839265D01*
X88184732Y-85759195D01*
X88177247Y-85669526D01*
X88173545Y-85558823D01*
X88172531Y-85415647D01*
X88172772Y-85305602D01*
X88174437Y-85126637D01*
X88178464Y-84987987D01*
X88185743Y-84878982D01*
X88197167Y-84788956D01*
X88213627Y-84707240D01*
X88227177Y-84654516D01*
X88351492Y-84285032D01*
X88512119Y-83950360D01*
X88708495Y-83651223D01*
X88940055Y-83388346D01*
X89206234Y-83162450D01*
X89506469Y-82974260D01*
X89559745Y-82946629D01*
X89644198Y-82904458D01*
X89722498Y-82867219D01*
X89798247Y-82834606D01*
X89875047Y-82806311D01*
X89956499Y-82782027D01*
X90046206Y-82761449D01*
X90147770Y-82744268D01*
X90264793Y-82730177D01*
X90400877Y-82718870D01*
X90559623Y-82710040D01*
X90744635Y-82703380D01*
X90959513Y-82698583D01*
X91207860Y-82695341D01*
X91493277Y-82693348D01*
X91819368Y-82692297D01*
X92189733Y-82691881D01*
X92549970Y-82691797D01*
X94609257Y-82691647D01*
X94609257Y-83468368D01*
G37*
%TO.C,J9*%
X216682500Y-152080000D02*
X214882500Y-152080000D01*
X214882500Y-151280000D01*
X214082500Y-151280000D01*
X214082500Y-149480000D01*
X216682500Y-149480000D01*
X216682500Y-152080000D01*
G36*
X216682500Y-152080000D02*
G01*
X214882500Y-152080000D01*
X214882500Y-151280000D01*
X214082500Y-151280000D01*
X214082500Y-149480000D01*
X216682500Y-149480000D01*
X216682500Y-152080000D01*
G37*
X216682500Y-128380000D02*
X214082500Y-128380000D01*
X214082500Y-126580000D01*
X214882500Y-126580000D01*
X214882500Y-125780000D01*
X216682500Y-125780000D01*
X216682500Y-128380000D01*
G36*
X216682500Y-128380000D02*
G01*
X214082500Y-128380000D01*
X214082500Y-126580000D01*
X214882500Y-126580000D01*
X214882500Y-125780000D01*
X216682500Y-125780000D01*
X216682500Y-128380000D01*
G37*
%TO.C,J7*%
X79871000Y-139036000D02*
X79897000Y-139038000D01*
X79923000Y-139041000D01*
X79949000Y-139046000D01*
X79974000Y-139052000D01*
X80000000Y-139059000D01*
X80024000Y-139068000D01*
X80048000Y-139078000D01*
X80072000Y-139089000D01*
X80095000Y-139102000D01*
X80117000Y-139116000D01*
X80139000Y-139130000D01*
X80160000Y-139146000D01*
X80180000Y-139163000D01*
X80199000Y-139181000D01*
X80217000Y-139200000D01*
X80234000Y-139220000D01*
X80250000Y-139241000D01*
X80264000Y-139263000D01*
X80278000Y-139285000D01*
X80291000Y-139308000D01*
X80302000Y-139332000D01*
X80312000Y-139356000D01*
X80321000Y-139380000D01*
X80328000Y-139406000D01*
X80334000Y-139431000D01*
X80339000Y-139457000D01*
X80342000Y-139483000D01*
X80344000Y-139509000D01*
X80345000Y-139535000D01*
X80345000Y-140880000D01*
X78595000Y-140880000D01*
X78595000Y-139535000D01*
X78596000Y-139509000D01*
X78598000Y-139483000D01*
X78601000Y-139457000D01*
X78606000Y-139431000D01*
X78612000Y-139406000D01*
X78619000Y-139380000D01*
X78628000Y-139356000D01*
X78638000Y-139332000D01*
X78649000Y-139308000D01*
X78662000Y-139285000D01*
X78676000Y-139263000D01*
X78690000Y-139241000D01*
X78706000Y-139220000D01*
X78723000Y-139200000D01*
X78741000Y-139181000D01*
X78760000Y-139163000D01*
X78780000Y-139146000D01*
X78801000Y-139130000D01*
X78823000Y-139116000D01*
X78845000Y-139102000D01*
X78868000Y-139089000D01*
X78892000Y-139078000D01*
X78916000Y-139068000D01*
X78940000Y-139059000D01*
X78966000Y-139052000D01*
X78991000Y-139046000D01*
X79017000Y-139041000D01*
X79043000Y-139038000D01*
X79069000Y-139036000D01*
X79095000Y-139035000D01*
X79845000Y-139035000D01*
X79871000Y-139036000D01*
G36*
X79871000Y-139036000D02*
G01*
X79897000Y-139038000D01*
X79923000Y-139041000D01*
X79949000Y-139046000D01*
X79974000Y-139052000D01*
X80000000Y-139059000D01*
X80024000Y-139068000D01*
X80048000Y-139078000D01*
X80072000Y-139089000D01*
X80095000Y-139102000D01*
X80117000Y-139116000D01*
X80139000Y-139130000D01*
X80160000Y-139146000D01*
X80180000Y-139163000D01*
X80199000Y-139181000D01*
X80217000Y-139200000D01*
X80234000Y-139220000D01*
X80250000Y-139241000D01*
X80264000Y-139263000D01*
X80278000Y-139285000D01*
X80291000Y-139308000D01*
X80302000Y-139332000D01*
X80312000Y-139356000D01*
X80321000Y-139380000D01*
X80328000Y-139406000D01*
X80334000Y-139431000D01*
X80339000Y-139457000D01*
X80342000Y-139483000D01*
X80344000Y-139509000D01*
X80345000Y-139535000D01*
X80345000Y-140880000D01*
X78595000Y-140880000D01*
X78595000Y-139535000D01*
X78596000Y-139509000D01*
X78598000Y-139483000D01*
X78601000Y-139457000D01*
X78606000Y-139431000D01*
X78612000Y-139406000D01*
X78619000Y-139380000D01*
X78628000Y-139356000D01*
X78638000Y-139332000D01*
X78649000Y-139308000D01*
X78662000Y-139285000D01*
X78676000Y-139263000D01*
X78690000Y-139241000D01*
X78706000Y-139220000D01*
X78723000Y-139200000D01*
X78741000Y-139181000D01*
X78760000Y-139163000D01*
X78780000Y-139146000D01*
X78801000Y-139130000D01*
X78823000Y-139116000D01*
X78845000Y-139102000D01*
X78868000Y-139089000D01*
X78892000Y-139078000D01*
X78916000Y-139068000D01*
X78940000Y-139059000D01*
X78966000Y-139052000D01*
X78991000Y-139046000D01*
X79017000Y-139041000D01*
X79043000Y-139038000D01*
X79069000Y-139036000D01*
X79095000Y-139035000D01*
X79845000Y-139035000D01*
X79871000Y-139036000D01*
G37*
X80345000Y-146625000D02*
X80344000Y-146651000D01*
X80342000Y-146677000D01*
X80339000Y-146703000D01*
X80334000Y-146729000D01*
X80328000Y-146754000D01*
X80321000Y-146780000D01*
X80312000Y-146804000D01*
X80302000Y-146828000D01*
X80291000Y-146852000D01*
X80278000Y-146875000D01*
X80264000Y-146897000D01*
X80250000Y-146919000D01*
X80234000Y-146940000D01*
X80217000Y-146960000D01*
X80199000Y-146979000D01*
X80180000Y-146997000D01*
X80160000Y-147014000D01*
X80139000Y-147030000D01*
X80117000Y-147044000D01*
X80095000Y-147058000D01*
X80072000Y-147071000D01*
X80048000Y-147082000D01*
X80024000Y-147092000D01*
X80000000Y-147101000D01*
X79974000Y-147108000D01*
X79949000Y-147114000D01*
X79923000Y-147119000D01*
X79897000Y-147122000D01*
X79871000Y-147124000D01*
X79845000Y-147125000D01*
X79095000Y-147125000D01*
X79069000Y-147124000D01*
X79043000Y-147122000D01*
X79017000Y-147119000D01*
X78991000Y-147114000D01*
X78966000Y-147108000D01*
X78940000Y-147101000D01*
X78916000Y-147092000D01*
X78892000Y-147082000D01*
X78868000Y-147071000D01*
X78845000Y-147058000D01*
X78823000Y-147044000D01*
X78801000Y-147030000D01*
X78780000Y-147014000D01*
X78760000Y-146997000D01*
X78741000Y-146979000D01*
X78723000Y-146960000D01*
X78706000Y-146940000D01*
X78690000Y-146919000D01*
X78676000Y-146897000D01*
X78662000Y-146875000D01*
X78649000Y-146852000D01*
X78638000Y-146828000D01*
X78628000Y-146804000D01*
X78619000Y-146780000D01*
X78612000Y-146754000D01*
X78606000Y-146729000D01*
X78601000Y-146703000D01*
X78598000Y-146677000D01*
X78596000Y-146651000D01*
X78595000Y-146625000D01*
X78595000Y-145280000D01*
X80345000Y-145280000D01*
X80345000Y-146625000D01*
G36*
X80345000Y-146625000D02*
G01*
X80344000Y-146651000D01*
X80342000Y-146677000D01*
X80339000Y-146703000D01*
X80334000Y-146729000D01*
X80328000Y-146754000D01*
X80321000Y-146780000D01*
X80312000Y-146804000D01*
X80302000Y-146828000D01*
X80291000Y-146852000D01*
X80278000Y-146875000D01*
X80264000Y-146897000D01*
X80250000Y-146919000D01*
X80234000Y-146940000D01*
X80217000Y-146960000D01*
X80199000Y-146979000D01*
X80180000Y-146997000D01*
X80160000Y-147014000D01*
X80139000Y-147030000D01*
X80117000Y-147044000D01*
X80095000Y-147058000D01*
X80072000Y-147071000D01*
X80048000Y-147082000D01*
X80024000Y-147092000D01*
X80000000Y-147101000D01*
X79974000Y-147108000D01*
X79949000Y-147114000D01*
X79923000Y-147119000D01*
X79897000Y-147122000D01*
X79871000Y-147124000D01*
X79845000Y-147125000D01*
X79095000Y-147125000D01*
X79069000Y-147124000D01*
X79043000Y-147122000D01*
X79017000Y-147119000D01*
X78991000Y-147114000D01*
X78966000Y-147108000D01*
X78940000Y-147101000D01*
X78916000Y-147092000D01*
X78892000Y-147082000D01*
X78868000Y-147071000D01*
X78845000Y-147058000D01*
X78823000Y-147044000D01*
X78801000Y-147030000D01*
X78780000Y-147014000D01*
X78760000Y-146997000D01*
X78741000Y-146979000D01*
X78723000Y-146960000D01*
X78706000Y-146940000D01*
X78690000Y-146919000D01*
X78676000Y-146897000D01*
X78662000Y-146875000D01*
X78649000Y-146852000D01*
X78638000Y-146828000D01*
X78628000Y-146804000D01*
X78619000Y-146780000D01*
X78612000Y-146754000D01*
X78606000Y-146729000D01*
X78601000Y-146703000D01*
X78598000Y-146677000D01*
X78596000Y-146651000D01*
X78595000Y-146625000D01*
X78595000Y-145280000D01*
X80345000Y-145280000D01*
X80345000Y-146625000D01*
G37*
%TO.C,G\u002A\u002A\u002A*%
G36*
X96472586Y-73321222D02*
G01*
X96468424Y-73448334D01*
X96450667Y-73512525D01*
X96411405Y-73534093D01*
X96389171Y-73535336D01*
X96366907Y-73537540D01*
X96349003Y-73549616D01*
X96334986Y-73579756D01*
X96324378Y-73636157D01*
X96316707Y-73727011D01*
X96311496Y-73860514D01*
X96308270Y-74044860D01*
X96306555Y-74288244D01*
X96305875Y-74598859D01*
X96305755Y-74974253D01*
X96304729Y-75317551D01*
X96301804Y-75630026D01*
X96297215Y-75902559D01*
X96291193Y-76126031D01*
X96283973Y-76291322D01*
X96275786Y-76389314D01*
X96268998Y-76413169D01*
X96224186Y-76382576D01*
X96152613Y-76305042D01*
X96114452Y-76256765D01*
X96037133Y-76162146D01*
X95919138Y-76027254D01*
X95777885Y-75871679D01*
X95660176Y-75745845D01*
X95397579Y-75460489D01*
X95193436Y-75216168D01*
X95041382Y-75001419D01*
X94935050Y-74804778D01*
X94868073Y-74614779D01*
X94834085Y-74419958D01*
X94826371Y-74244368D01*
X94826744Y-74239528D01*
X95226116Y-74239528D01*
X95256056Y-74417558D01*
X95289100Y-74524437D01*
X95345270Y-74655629D01*
X95429299Y-74811538D01*
X95529707Y-74975161D01*
X95635015Y-75129493D01*
X95733746Y-75257533D01*
X95814420Y-75342275D01*
X95858211Y-75367465D01*
X95867089Y-75328668D01*
X95874005Y-75218390D01*
X95878683Y-75048546D01*
X95880849Y-74831053D01*
X95880227Y-74577827D01*
X95879064Y-74463333D01*
X95867824Y-73556190D01*
X95743994Y-73565293D01*
X95569390Y-73619008D01*
X95417678Y-73751502D01*
X95315197Y-73911558D01*
X95245369Y-74081669D01*
X95226116Y-74239528D01*
X94826744Y-74239528D01*
X94846487Y-73983624D01*
X94913314Y-73771025D01*
X95038530Y-73579012D01*
X95165686Y-73443530D01*
X95319975Y-73315400D01*
X95485660Y-73226269D01*
X95683318Y-73168913D01*
X95933528Y-73136111D01*
X96065936Y-73127578D01*
X96472586Y-73107107D01*
X96472586Y-73321222D01*
G37*
G36*
X93164362Y-73118892D02*
G01*
X93507156Y-73120699D01*
X93814818Y-73123543D01*
X94078424Y-73127285D01*
X94289054Y-73131788D01*
X94437786Y-73136915D01*
X94515697Y-73142528D01*
X94525109Y-73144948D01*
X94517029Y-73189781D01*
X94466961Y-73274841D01*
X94423321Y-73333852D01*
X94257780Y-73606210D01*
X94150267Y-73921388D01*
X94104224Y-74259128D01*
X94123091Y-74599174D01*
X94172053Y-74812688D01*
X94238057Y-74995839D01*
X94325288Y-75174673D01*
X94442095Y-75361388D01*
X94596828Y-75568180D01*
X94797833Y-75807247D01*
X95027854Y-76062969D01*
X95304708Y-76372558D01*
X95524985Y-76639977D01*
X95695709Y-76877027D01*
X95823903Y-77095511D01*
X95916592Y-77307230D01*
X95980799Y-77523986D01*
X96019437Y-77729061D01*
X96038409Y-78127553D01*
X95977779Y-78512969D01*
X95841056Y-78879322D01*
X95631752Y-79220626D01*
X95353377Y-79530894D01*
X95009442Y-79804141D01*
X94693506Y-79989986D01*
X94441320Y-80111496D01*
X94204238Y-80211510D01*
X93997780Y-80284348D01*
X93837462Y-80324332D01*
X93764441Y-80329965D01*
X93687326Y-80317141D01*
X93565527Y-80288795D01*
X93497380Y-80270824D01*
X93376194Y-80234167D01*
X93291580Y-80202364D01*
X93270769Y-80190443D01*
X93271219Y-80145524D01*
X93349635Y-80093232D01*
X93480336Y-80043452D01*
X93635444Y-79965283D01*
X93808746Y-79832824D01*
X93979774Y-79665703D01*
X94128063Y-79483548D01*
X94219354Y-79334720D01*
X94345330Y-79028615D01*
X94406195Y-78731119D01*
X94400183Y-78434813D01*
X94325529Y-78132276D01*
X94180467Y-77816092D01*
X93963230Y-77478840D01*
X93697659Y-77143054D01*
X93412046Y-76802771D01*
X93177908Y-76512903D01*
X92988837Y-76263797D01*
X92838431Y-76045801D01*
X92720284Y-75849262D01*
X92627990Y-75664525D01*
X92555146Y-75481939D01*
X92515789Y-75361801D01*
X92430724Y-74977357D01*
X92402999Y-74587030D01*
X92413426Y-74450508D01*
X92878797Y-74450508D01*
X92894308Y-74819016D01*
X92972688Y-75181350D01*
X93025740Y-75330121D01*
X93114689Y-75531386D01*
X93218123Y-75724179D01*
X93345698Y-75922765D01*
X93507073Y-76141410D01*
X93711906Y-76394377D01*
X93880830Y-76593148D01*
X94166268Y-76933310D01*
X94395716Y-77227320D01*
X94575608Y-77484356D01*
X94712377Y-77713596D01*
X94810506Y-77919486D01*
X94858114Y-78054862D01*
X94887243Y-78197492D01*
X94901909Y-78374374D01*
X94905942Y-78561116D01*
X94896147Y-78841366D01*
X94857435Y-79064572D01*
X94781746Y-79254454D01*
X94661019Y-79434734D01*
X94574731Y-79535926D01*
X94484741Y-79643067D01*
X94458085Y-79696106D01*
X94495306Y-79695846D01*
X94596943Y-79643094D01*
X94632396Y-79621850D01*
X94905698Y-79413187D01*
X95139311Y-79151789D01*
X95325788Y-78852935D01*
X95457684Y-78531902D01*
X95527555Y-78203965D01*
X95527955Y-77884404D01*
X95516396Y-77807982D01*
X95469610Y-77605111D01*
X95403066Y-77413822D01*
X95309677Y-77222838D01*
X95182356Y-77020883D01*
X95014018Y-76796681D01*
X94797576Y-76538956D01*
X94535031Y-76246338D01*
X94242810Y-75909995D01*
X94015479Y-75607766D01*
X93846733Y-75330298D01*
X93730264Y-75068242D01*
X93719307Y-75036814D01*
X93677121Y-74898742D01*
X93651831Y-74771626D01*
X93640814Y-74629275D01*
X93641449Y-74445499D01*
X93646231Y-74306929D01*
X93664119Y-74041498D01*
X93693072Y-73832583D01*
X93731254Y-73693363D01*
X93731945Y-73691740D01*
X93799036Y-73535336D01*
X93475171Y-73535336D01*
X93151306Y-73535336D01*
X93035844Y-73776911D01*
X92926020Y-74096312D01*
X92878797Y-74450508D01*
X92413426Y-74450508D01*
X92431776Y-74210233D01*
X92516213Y-73866382D01*
X92587832Y-73694780D01*
X92666718Y-73535336D01*
X92344753Y-73535336D01*
X92158409Y-73540355D01*
X92032436Y-73565300D01*
X91943946Y-73625002D01*
X91870051Y-73734290D01*
X91795285Y-73891376D01*
X91750317Y-74010343D01*
X91719616Y-74143808D01*
X91699673Y-74313750D01*
X91686979Y-74542146D01*
X91685652Y-74578029D01*
X91687496Y-74956741D01*
X91724640Y-75304447D01*
X91802167Y-75633230D01*
X91925161Y-75955175D01*
X92098705Y-76282365D01*
X92327882Y-76626885D01*
X92617777Y-77000817D01*
X92792381Y-77208771D01*
X93042029Y-77505981D01*
X93237918Y-77755295D01*
X93385860Y-77967207D01*
X93491670Y-78152207D01*
X93561162Y-78320789D01*
X93600148Y-78483444D01*
X93614443Y-78650666D01*
X93614845Y-78693101D01*
X93607325Y-78856515D01*
X93578518Y-78975990D01*
X93517298Y-79090382D01*
X93489164Y-79132090D01*
X93312757Y-79316296D01*
X93089046Y-79439215D01*
X92830704Y-79497534D01*
X92550404Y-79487938D01*
X92333553Y-79434235D01*
X92124198Y-79322813D01*
X91921074Y-79138787D01*
X91731886Y-78892958D01*
X91564337Y-78596125D01*
X91426132Y-78259089D01*
X91372832Y-78087464D01*
X91352734Y-78012186D01*
X91335813Y-77937021D01*
X91321733Y-77854127D01*
X91310159Y-77755660D01*
X91300759Y-77633780D01*
X91293196Y-77480644D01*
X91287136Y-77288410D01*
X91282246Y-77049236D01*
X91278191Y-76755280D01*
X91278107Y-76746831D01*
X91677722Y-76746831D01*
X91694620Y-77215607D01*
X91747087Y-77647490D01*
X91832493Y-78035882D01*
X91948211Y-78374182D01*
X92091611Y-78655791D01*
X92260062Y-78874108D01*
X92450938Y-79022535D01*
X92608978Y-79084439D01*
X92702345Y-79107116D01*
X92750738Y-79119642D01*
X92751512Y-79119901D01*
X92793639Y-79108332D01*
X92882308Y-79074343D01*
X92902272Y-79066095D01*
X93035049Y-78970799D01*
X93103053Y-78823826D01*
X93105706Y-78626761D01*
X93091167Y-78546593D01*
X93061682Y-78436844D01*
X93019426Y-78327461D01*
X92957617Y-78207486D01*
X92869470Y-78065964D01*
X92748202Y-77891936D01*
X92587030Y-77674445D01*
X92398072Y-77427062D01*
X92239549Y-77218323D01*
X92088734Y-77014420D01*
X91957496Y-76831792D01*
X91857705Y-76686873D01*
X91813155Y-76617067D01*
X91679011Y-76392315D01*
X91677722Y-76746831D01*
X91278107Y-76746831D01*
X91274636Y-76398699D01*
X91271246Y-75971652D01*
X91268970Y-75652003D01*
X91265587Y-75177782D01*
X91262392Y-74780222D01*
X91259081Y-74452571D01*
X91255348Y-74188074D01*
X91250888Y-73979980D01*
X91245395Y-73821535D01*
X91238565Y-73705986D01*
X91230091Y-73626581D01*
X91219669Y-73576567D01*
X91206994Y-73549190D01*
X91191759Y-73537697D01*
X91173660Y-73535337D01*
X91173271Y-73535336D01*
X91124577Y-73523599D01*
X91100301Y-73474864D01*
X91092565Y-73368848D01*
X91092290Y-73326798D01*
X91092290Y-73118259D01*
X92795356Y-73118259D01*
X93164362Y-73118892D01*
G37*
%TD*%
D11*
%TO.C,R11*%
X102895000Y-64842500D03*
X102895000Y-61917500D03*
%TD*%
D12*
%TO.C,R9*%
X102985000Y-49580000D03*
X104005000Y-49580000D03*
%TD*%
D13*
%TO.C,C26*%
X98745000Y-53330000D03*
X98745000Y-55230000D03*
%TD*%
D14*
%TO.C,C25*%
X132845000Y-69717500D03*
X132845000Y-67817500D03*
%TD*%
D15*
%TO.C,C23*%
X99825000Y-62730000D03*
X98865000Y-62730000D03*
%TD*%
D13*
%TO.C,C21*%
X132845000Y-65717500D03*
X132845000Y-67617500D03*
%TD*%
D16*
%TO.C,C19*%
X107015000Y-54580000D03*
X107975000Y-54580000D03*
%TD*%
%TO.C,C18*%
X107015000Y-52530000D03*
X107975000Y-52530000D03*
%TD*%
D14*
%TO.C,C16*%
X121645000Y-65117500D03*
X121645000Y-63217500D03*
%TD*%
D16*
%TO.C,C14*%
X107015000Y-60580000D03*
X107975000Y-60580000D03*
%TD*%
D17*
%TO.C,C208*%
X158127249Y-82810000D03*
X158127249Y-81850000D03*
%TD*%
D15*
%TO.C,C228*%
X116310000Y-106590000D03*
X115350000Y-106590000D03*
%TD*%
D18*
%TO.C,U40*%
X149649749Y-151685600D03*
D19*
X150049749Y-151735600D03*
X150449749Y-151735600D03*
X150849749Y-151735600D03*
D20*
X151449749Y-151535600D03*
X151449749Y-151135600D03*
D21*
X151449749Y-150735600D03*
D20*
X151449749Y-150335600D03*
D19*
X150849749Y-150135600D03*
X150449749Y-150135600D03*
X150049749Y-150135600D03*
D22*
X149649749Y-150135600D03*
D20*
X149049749Y-150335600D03*
X149049749Y-150735600D03*
X149049749Y-151135600D03*
D21*
X149049749Y-151535600D03*
%TD*%
D23*
%TO.C,C162*%
X210745000Y-112525000D03*
X210745000Y-113485000D03*
%TD*%
D24*
%TO.C,U42*%
X146190349Y-152924800D03*
X146190349Y-153424800D03*
X146190349Y-153924800D03*
D25*
X146795349Y-153999800D03*
D24*
X147400349Y-153924800D03*
X147400349Y-153424800D03*
X147400349Y-152924800D03*
D25*
X146795349Y-152849800D03*
%TD*%
D26*
%TO.C,U51*%
X172800000Y-118955000D03*
X172800000Y-119605000D03*
X172800000Y-120255000D03*
X172800000Y-120905000D03*
X175900000Y-120905000D03*
X175900000Y-120255000D03*
X175900000Y-119605000D03*
X175900000Y-118955000D03*
D27*
X174350000Y-119930000D03*
%TD*%
D28*
%TO.C,J3*%
X158231564Y-133595600D03*
X155231564Y-134865600D03*
X158231564Y-136135600D03*
X155231564Y-137405600D03*
X158231564Y-138675600D03*
X155231564Y-139945600D03*
%TD*%
D29*
%TO.C,U88*%
X146980000Y-118380000D03*
D21*
X146930000Y-118780000D03*
X146930000Y-119180000D03*
X146930000Y-119580000D03*
D19*
X147130000Y-120180000D03*
X147530000Y-120180000D03*
D22*
X147930000Y-120180000D03*
D19*
X148330000Y-120180000D03*
D21*
X148530000Y-119580000D03*
X148530000Y-119180000D03*
X148530000Y-118780000D03*
D20*
X148530000Y-118380000D03*
D19*
X148330000Y-117780000D03*
X147930000Y-117780000D03*
X147530000Y-117780000D03*
D22*
X147130000Y-117780000D03*
%TD*%
D30*
%TO.C,U85*%
X118257500Y-90530000D03*
X118257500Y-91030000D03*
X118257500Y-91530000D03*
X118257500Y-92030000D03*
X118257500Y-92530000D03*
X118257500Y-93030000D03*
X118257500Y-93530000D03*
X118257500Y-94030000D03*
X118257500Y-94530000D03*
X118257500Y-95030000D03*
X118257500Y-95530000D03*
X118257500Y-96030000D03*
X118257500Y-96530000D03*
X118257500Y-97030000D03*
X118257500Y-97530000D03*
X118257500Y-98030000D03*
X118257500Y-98530000D03*
X118257500Y-99030000D03*
X118257500Y-99530000D03*
X118257500Y-100030000D03*
X118257500Y-100530000D03*
X118257500Y-101030000D03*
X118257500Y-101530000D03*
X118257500Y-102030000D03*
X118257500Y-102530000D03*
X118257500Y-103030000D03*
X118257500Y-103530000D03*
X118257500Y-104030000D03*
X118257500Y-104530000D03*
X118257500Y-105030000D03*
X118257500Y-105530000D03*
X118257500Y-106030000D03*
X118257500Y-106530000D03*
X118257500Y-107030000D03*
X118257500Y-107530000D03*
X118257500Y-108030000D03*
D31*
X120170000Y-109942500D03*
X120670000Y-109942500D03*
X121170000Y-109942500D03*
X121670000Y-109942500D03*
X122170000Y-109942500D03*
X122670000Y-109942500D03*
X123170000Y-109942500D03*
X123670000Y-109942500D03*
X124170000Y-109942500D03*
X124670000Y-109942500D03*
X125170000Y-109942500D03*
X125670000Y-109942500D03*
X126170000Y-109942500D03*
X126670000Y-109942500D03*
X127170000Y-109942500D03*
X127670000Y-109942500D03*
X128170000Y-109942500D03*
X128670000Y-109942500D03*
X129170000Y-109942500D03*
X129670000Y-109942500D03*
X130170000Y-109942500D03*
X130670000Y-109942500D03*
X131170000Y-109942500D03*
X131670000Y-109942500D03*
X132170000Y-109942500D03*
X132670000Y-109942500D03*
X133170000Y-109942500D03*
X133670000Y-109942500D03*
X134170000Y-109942500D03*
X134670000Y-109942500D03*
X135170000Y-109942500D03*
X135670000Y-109942500D03*
X136170000Y-109942500D03*
X136670000Y-109942500D03*
X137170000Y-109942500D03*
X137670000Y-109942500D03*
D30*
X139582500Y-108030000D03*
X139582500Y-107530000D03*
X139582500Y-107030000D03*
X139582500Y-106530000D03*
X139582500Y-106030000D03*
X139582500Y-105530000D03*
X139582500Y-105030000D03*
X139582500Y-104530000D03*
X139582500Y-104030000D03*
X139582500Y-103530000D03*
X139582500Y-103030000D03*
X139582500Y-102530000D03*
X139582500Y-102030000D03*
X139582500Y-101530000D03*
X139582500Y-101030000D03*
X139582500Y-100530000D03*
X139582500Y-100030000D03*
X139582500Y-99530000D03*
X139582500Y-99030000D03*
X139582500Y-98530000D03*
X139582500Y-98030000D03*
X139582500Y-97530000D03*
X139582500Y-97030000D03*
X139582500Y-96530000D03*
X139582500Y-96030000D03*
X139582500Y-95530000D03*
X139582500Y-95030000D03*
X139582500Y-94530000D03*
X139582500Y-94030000D03*
X139582500Y-93530000D03*
X139582500Y-93030000D03*
X139582500Y-92530000D03*
X139582500Y-92030000D03*
X139582500Y-91530000D03*
X139582500Y-91030000D03*
X139582500Y-90530000D03*
D31*
X137670000Y-88617500D03*
X137170000Y-88617500D03*
X136670000Y-88617500D03*
X136170000Y-88617500D03*
X135670000Y-88617500D03*
X135170000Y-88617500D03*
X134670000Y-88617500D03*
X134170000Y-88617500D03*
X133670000Y-88617500D03*
X133170000Y-88617500D03*
X132670000Y-88617500D03*
X132170000Y-88617500D03*
X131670000Y-88617500D03*
X131170000Y-88617500D03*
X130670000Y-88617500D03*
X130170000Y-88617500D03*
X129670000Y-88617500D03*
X129170000Y-88617500D03*
X128670000Y-88617500D03*
X128170000Y-88617500D03*
X127670000Y-88617500D03*
X127170000Y-88617500D03*
X126670000Y-88617500D03*
X126170000Y-88617500D03*
X125670000Y-88617500D03*
X125170000Y-88617500D03*
X124670000Y-88617500D03*
X124170000Y-88617500D03*
X123670000Y-88617500D03*
X123170000Y-88617500D03*
X122670000Y-88617500D03*
X122170000Y-88617500D03*
X121670000Y-88617500D03*
X121170000Y-88617500D03*
X120670000Y-88617500D03*
X120170000Y-88617500D03*
%TD*%
D32*
%TO.C,R193*%
X208987000Y-106260400D03*
X208987000Y-107280400D03*
%TD*%
D14*
%TO.C,C101*%
X199145000Y-64980000D03*
X199145000Y-63080000D03*
%TD*%
D32*
%TO.C,R209*%
X201020000Y-112545000D03*
X201020000Y-113565000D03*
%TD*%
D23*
%TO.C,C207*%
X144730000Y-115500000D03*
X144730000Y-116460000D03*
%TD*%
D33*
%TO.C,R3*%
X121620000Y-41580000D03*
X121620000Y-40560000D03*
%TD*%
D16*
%TO.C,C155*%
X161775000Y-112130000D03*
X162735000Y-112130000D03*
%TD*%
D12*
%TO.C,R37*%
X149085000Y-43830000D03*
X150105000Y-43830000D03*
%TD*%
%TO.C,R237*%
X159347500Y-94330000D03*
X160367500Y-94330000D03*
%TD*%
D34*
%TO.C,Q5*%
X210545000Y-40630000D03*
X210545000Y-39630000D03*
X209245000Y-40130000D03*
%TD*%
D23*
%TO.C,C185*%
X191030000Y-111910000D03*
X191030000Y-112870000D03*
%TD*%
D12*
%TO.C,R177*%
X183410000Y-120355000D03*
X184430000Y-120355000D03*
%TD*%
D35*
%TO.C,TP24*%
X188881564Y-135685600D03*
%TD*%
D23*
%TO.C,C128*%
X135419749Y-145250600D03*
X135419749Y-146210600D03*
%TD*%
D36*
%TO.C,U49*%
X168175000Y-118930000D03*
D37*
X168150000Y-119430000D03*
X168150000Y-119930000D03*
X168150000Y-120430000D03*
X168750000Y-120430000D03*
X168750000Y-119930000D03*
X168750000Y-119430000D03*
X168750000Y-118930000D03*
%TD*%
D38*
%TO.C,R236*%
X153300000Y-91100000D03*
X152280000Y-91100000D03*
%TD*%
D13*
%TO.C,C44*%
X168395000Y-48380000D03*
X168395000Y-50280000D03*
%TD*%
D16*
%TO.C,C199*%
X154050000Y-112080000D03*
X155010000Y-112080000D03*
%TD*%
D15*
%TO.C,C1*%
X104772500Y-72505000D03*
X103812500Y-72505000D03*
%TD*%
D32*
%TO.C,R129*%
X173006564Y-125775600D03*
X173006564Y-126795600D03*
%TD*%
D39*
%TO.C,RN1*%
X112120000Y-105570000D03*
X112120000Y-104870000D03*
X111120000Y-104870000D03*
X111120000Y-105570000D03*
%TD*%
D30*
%TO.C,U64*%
X172257500Y-90530000D03*
X172257500Y-91030000D03*
X172257500Y-91530000D03*
X172257500Y-92030000D03*
X172257500Y-92530000D03*
X172257500Y-93030000D03*
X172257500Y-93530000D03*
X172257500Y-94030000D03*
X172257500Y-94530000D03*
X172257500Y-95030000D03*
X172257500Y-95530000D03*
X172257500Y-96030000D03*
X172257500Y-96530000D03*
X172257500Y-97030000D03*
X172257500Y-97530000D03*
X172257500Y-98030000D03*
X172257500Y-98530000D03*
X172257500Y-99030000D03*
X172257500Y-99530000D03*
X172257500Y-100030000D03*
X172257500Y-100530000D03*
X172257500Y-101030000D03*
X172257500Y-101530000D03*
X172257500Y-102030000D03*
X172257500Y-102530000D03*
X172257500Y-103030000D03*
X172257500Y-103530000D03*
X172257500Y-104030000D03*
X172257500Y-104530000D03*
X172257500Y-105030000D03*
X172257500Y-105530000D03*
X172257500Y-106030000D03*
X172257500Y-106530000D03*
X172257500Y-107030000D03*
X172257500Y-107530000D03*
X172257500Y-108030000D03*
D31*
X174170000Y-109942500D03*
X174670000Y-109942500D03*
X175170000Y-109942500D03*
X175670000Y-109942500D03*
X176170000Y-109942500D03*
X176670000Y-109942500D03*
X177170000Y-109942500D03*
X177670000Y-109942500D03*
X178170000Y-109942500D03*
X178670000Y-109942500D03*
X179170000Y-109942500D03*
X179670000Y-109942500D03*
X180170000Y-109942500D03*
X180670000Y-109942500D03*
X181170000Y-109942500D03*
X181670000Y-109942500D03*
X182170000Y-109942500D03*
X182670000Y-109942500D03*
X183170000Y-109942500D03*
X183670000Y-109942500D03*
X184170000Y-109942500D03*
X184670000Y-109942500D03*
X185170000Y-109942500D03*
X185670000Y-109942500D03*
X186170000Y-109942500D03*
X186670000Y-109942500D03*
X187170000Y-109942500D03*
X187670000Y-109942500D03*
X188170000Y-109942500D03*
X188670000Y-109942500D03*
X189170000Y-109942500D03*
X189670000Y-109942500D03*
X190170000Y-109942500D03*
X190670000Y-109942500D03*
X191170000Y-109942500D03*
X191670000Y-109942500D03*
D30*
X193582500Y-108030000D03*
X193582500Y-107530000D03*
X193582500Y-107030000D03*
X193582500Y-106530000D03*
X193582500Y-106030000D03*
X193582500Y-105530000D03*
X193582500Y-105030000D03*
X193582500Y-104530000D03*
X193582500Y-104030000D03*
X193582500Y-103530000D03*
X193582500Y-103030000D03*
X193582500Y-102530000D03*
X193582500Y-102030000D03*
X193582500Y-101530000D03*
X193582500Y-101030000D03*
X193582500Y-100530000D03*
X193582500Y-100030000D03*
X193582500Y-99530000D03*
X193582500Y-99030000D03*
X193582500Y-98530000D03*
X193582500Y-98030000D03*
X193582500Y-97530000D03*
X193582500Y-97030000D03*
X193582500Y-96530000D03*
X193582500Y-96030000D03*
X193582500Y-95530000D03*
X193582500Y-95030000D03*
X193582500Y-94530000D03*
X193582500Y-94030000D03*
X193582500Y-93530000D03*
X193582500Y-93030000D03*
X193582500Y-92530000D03*
X193582500Y-92030000D03*
X193582500Y-91530000D03*
X193582500Y-91030000D03*
X193582500Y-90530000D03*
D31*
X191670000Y-88617500D03*
X191170000Y-88617500D03*
X190670000Y-88617500D03*
X190170000Y-88617500D03*
X189670000Y-88617500D03*
X189170000Y-88617500D03*
X188670000Y-88617500D03*
X188170000Y-88617500D03*
X187670000Y-88617500D03*
X187170000Y-88617500D03*
X186670000Y-88617500D03*
X186170000Y-88617500D03*
X185670000Y-88617500D03*
X185170000Y-88617500D03*
X184670000Y-88617500D03*
X184170000Y-88617500D03*
X183670000Y-88617500D03*
X183170000Y-88617500D03*
X182670000Y-88617500D03*
X182170000Y-88617500D03*
X181670000Y-88617500D03*
X181170000Y-88617500D03*
X180670000Y-88617500D03*
X180170000Y-88617500D03*
X179670000Y-88617500D03*
X179170000Y-88617500D03*
X178670000Y-88617500D03*
X178170000Y-88617500D03*
X177670000Y-88617500D03*
X177170000Y-88617500D03*
X176670000Y-88617500D03*
X176170000Y-88617500D03*
X175670000Y-88617500D03*
X175170000Y-88617500D03*
X174670000Y-88617500D03*
X174170000Y-88617500D03*
%TD*%
D23*
%TO.C,C195*%
X145690000Y-93120000D03*
X145690000Y-94080000D03*
%TD*%
D35*
%TO.C,TP27*%
X146199749Y-136635600D03*
%TD*%
D15*
%TO.C,C201*%
X149840300Y-102850400D03*
X148880300Y-102850400D03*
%TD*%
%TO.C,C17*%
X103975000Y-61880000D03*
X103015000Y-61880000D03*
%TD*%
D33*
%TO.C,R26*%
X205595000Y-42790000D03*
X205595000Y-41770000D03*
%TD*%
%TO.C,R261*%
X139127249Y-82840000D03*
X139127249Y-81820000D03*
%TD*%
D23*
%TO.C,C120*%
X165131564Y-153555600D03*
X165131564Y-154515600D03*
%TD*%
D38*
%TO.C,R240*%
X153066700Y-102190000D03*
X152046700Y-102190000D03*
%TD*%
D32*
%TO.C,R248*%
X152357500Y-106304800D03*
X152357500Y-107324800D03*
%TD*%
D33*
%TO.C,R7*%
X104095000Y-63890000D03*
X104095000Y-62870000D03*
%TD*%
%TO.C,R224*%
X211220000Y-82715000D03*
X211220000Y-81695000D03*
%TD*%
D40*
%TO.C,Y3*%
X165730000Y-100590000D03*
X165730000Y-101790000D03*
X165730000Y-102990000D03*
%TD*%
D26*
%TO.C,U77*%
X162107500Y-92855000D03*
X162107500Y-93505000D03*
X162107500Y-94155000D03*
X162107500Y-94805000D03*
X165207500Y-94805000D03*
X165207500Y-94155000D03*
X165207500Y-93505000D03*
X165207500Y-92855000D03*
D27*
X163657500Y-93830000D03*
%TD*%
D38*
%TO.C,R80*%
X174355000Y-42780000D03*
X173335000Y-42780000D03*
%TD*%
%TO.C,R141*%
X143029749Y-143230600D03*
X142009749Y-143230600D03*
%TD*%
D41*
%TO.C,H2*%
X216200000Y-37000000D03*
%TD*%
D32*
%TO.C,R206*%
X203020000Y-112545000D03*
X203020000Y-113565000D03*
%TD*%
D16*
%TO.C,C196*%
X154037964Y-120608407D03*
X154997964Y-120608407D03*
%TD*%
D32*
%TO.C,R17*%
X98745000Y-59760000D03*
X98745000Y-60780000D03*
%TD*%
D23*
%TO.C,C176*%
X175180000Y-111910000D03*
X175180000Y-112870000D03*
%TD*%
D42*
%TO.C,U1*%
X99067500Y-73955000D03*
X99067500Y-74605000D03*
X99067500Y-75255000D03*
X99067500Y-75905000D03*
X99067500Y-76555000D03*
X99067500Y-77205000D03*
X99067500Y-77855000D03*
X99067500Y-78505000D03*
X99067500Y-79155000D03*
X99067500Y-79805000D03*
X104792500Y-79805000D03*
X104792500Y-79155000D03*
X104792500Y-78505000D03*
X104792500Y-77855000D03*
X104792500Y-77205000D03*
X104792500Y-76555000D03*
X104792500Y-75905000D03*
X104792500Y-75255000D03*
X104792500Y-74605000D03*
X104792500Y-73955000D03*
%TD*%
D16*
%TO.C,C72*%
X182765000Y-48080000D03*
X183725000Y-48080000D03*
%TD*%
D38*
%TO.C,R239*%
X160367500Y-93330000D03*
X159347500Y-93330000D03*
%TD*%
D17*
%TO.C,C113*%
X178906564Y-133965600D03*
X178906564Y-133005600D03*
%TD*%
D38*
%TO.C,R204*%
X196640000Y-107290000D03*
X195620000Y-107290000D03*
%TD*%
D23*
%TO.C,C57*%
X154945000Y-67350000D03*
X154945000Y-68310000D03*
%TD*%
D43*
%TO.C,RN7*%
X136204549Y-157180800D03*
X136204549Y-156680800D03*
X136204549Y-156180800D03*
X136204549Y-155680800D03*
X135204549Y-155680800D03*
X135204549Y-156180800D03*
X135204549Y-156680800D03*
X135204549Y-157180800D03*
%TD*%
D16*
%TO.C,C229*%
X141630000Y-90590000D03*
X142590000Y-90590000D03*
%TD*%
D15*
%TO.C,C189*%
X170310000Y-93090000D03*
X169350000Y-93090000D03*
%TD*%
D33*
%TO.C,R173*%
X160255000Y-116440000D03*
X160255000Y-115420000D03*
%TD*%
D32*
%TO.C,R101*%
X112345000Y-70170000D03*
X112345000Y-71190000D03*
%TD*%
D12*
%TO.C,R138*%
X142009749Y-142230600D03*
X143029749Y-142230600D03*
%TD*%
D33*
%TO.C,R39*%
X162795000Y-52640000D03*
X162795000Y-51620000D03*
%TD*%
D16*
%TO.C,C20*%
X128665000Y-61717500D03*
X129625000Y-61717500D03*
%TD*%
D38*
%TO.C,R28*%
X150105000Y-40830000D03*
X149085000Y-40830000D03*
%TD*%
D13*
%TO.C,C28*%
X139182500Y-55880000D03*
X139182500Y-57780000D03*
%TD*%
D32*
%TO.C,R156*%
X149792549Y-152967600D03*
X149792549Y-153987600D03*
%TD*%
D17*
%TO.C,C107*%
X192545000Y-70810000D03*
X192545000Y-69850000D03*
%TD*%
D33*
%TO.C,R235*%
X152530000Y-116390000D03*
X152530000Y-115370000D03*
%TD*%
D32*
%TO.C,R192*%
X210003000Y-106262400D03*
X210003000Y-107282400D03*
%TD*%
D17*
%TO.C,C118*%
X174606564Y-133965600D03*
X174606564Y-133005600D03*
%TD*%
D33*
%TO.C,R227*%
X201320000Y-82715000D03*
X201320000Y-81695000D03*
%TD*%
D39*
%TO.C,RN16*%
X210545000Y-119355000D03*
X210545000Y-118655000D03*
X209545000Y-118655000D03*
X209545000Y-119355000D03*
%TD*%
D15*
%TO.C,C70*%
X167325000Y-61730000D03*
X166365000Y-61730000D03*
%TD*%
D13*
%TO.C,C29*%
X137082500Y-55880000D03*
X137082500Y-57780000D03*
%TD*%
D35*
%TO.C,TP28*%
X138024749Y-136635600D03*
%TD*%
D38*
%TO.C,R104*%
X159041564Y-144735600D03*
X158021564Y-144735600D03*
%TD*%
D33*
%TO.C,R2*%
X122620000Y-43590000D03*
X122620000Y-42570000D03*
%TD*%
D15*
%TO.C,C125*%
X159011564Y-148135600D03*
X158051564Y-148135600D03*
%TD*%
D38*
%TO.C,R59*%
X143555000Y-61030000D03*
X142535000Y-61030000D03*
%TD*%
D15*
%TO.C,C114*%
X189957164Y-148563200D03*
X188997164Y-148563200D03*
%TD*%
D44*
%TO.C,L7*%
X184637500Y-60330000D03*
X193652500Y-60330000D03*
%TD*%
D32*
%TO.C,R140*%
X146499749Y-126725600D03*
X146499749Y-127745600D03*
%TD*%
D33*
%TO.C,R127*%
X175986364Y-151690800D03*
X175986364Y-150670800D03*
%TD*%
D15*
%TO.C,C160*%
X212515000Y-104840000D03*
X211555000Y-104840000D03*
%TD*%
D35*
%TO.C,TP16*%
X171245000Y-64530000D03*
%TD*%
D38*
%TO.C,R19*%
X122665000Y-48420000D03*
X121645000Y-48420000D03*
%TD*%
D32*
%TO.C,R84*%
X213095000Y-43670000D03*
X213095000Y-44690000D03*
%TD*%
D45*
%TO.C,U16*%
X156995000Y-49580000D03*
D46*
X156945000Y-50080000D03*
X156945000Y-50580000D03*
X156945000Y-51080000D03*
D47*
X157645000Y-51780000D03*
D48*
X158145000Y-51530000D03*
X158645000Y-51530000D03*
D47*
X159145000Y-51780000D03*
D46*
X159845000Y-51080000D03*
X159845000Y-50580000D03*
X159845000Y-50080000D03*
X159845000Y-49580000D03*
D47*
X159145000Y-48880000D03*
D48*
X158645000Y-49130000D03*
X158145000Y-49130000D03*
D47*
X157645000Y-48880000D03*
%TD*%
D23*
%TO.C,C126*%
X164131564Y-153555600D03*
X164131564Y-154515600D03*
%TD*%
D26*
%TO.C,U37*%
X137149749Y-144785600D03*
X137149749Y-145435600D03*
X137149749Y-146085600D03*
X137149749Y-146735600D03*
X140249749Y-146735600D03*
X140249749Y-146085600D03*
X140249749Y-145435600D03*
X140249749Y-144785600D03*
D27*
X138699749Y-145760600D03*
%TD*%
D43*
%TO.C,RN4*%
X178886364Y-156230800D03*
X178886364Y-155730800D03*
X178886364Y-155230800D03*
X178886364Y-154730800D03*
X177886364Y-154730800D03*
X177886364Y-155230800D03*
X177886364Y-155730800D03*
X177886364Y-156230800D03*
%TD*%
%TO.C,RN19*%
X197595000Y-128555000D03*
X197595000Y-128055000D03*
X197595000Y-127555000D03*
X197595000Y-127055000D03*
X196595000Y-127055000D03*
X196595000Y-127555000D03*
X196595000Y-128055000D03*
X196595000Y-128555000D03*
%TD*%
D32*
%TO.C,R98*%
X104245000Y-70170000D03*
X104245000Y-71190000D03*
%TD*%
D15*
%TO.C,C211*%
X116310000Y-107590000D03*
X115350000Y-107590000D03*
%TD*%
%TO.C,C226*%
X116310000Y-98490000D03*
X115350000Y-98490000D03*
%TD*%
%TO.C,C115*%
X189957164Y-150595200D03*
X188997164Y-150595200D03*
%TD*%
D33*
%TO.C,R146*%
X147099749Y-134945600D03*
X147099749Y-133925600D03*
%TD*%
D24*
%TO.C,U34*%
X188872164Y-151974800D03*
X188872164Y-152474800D03*
X188872164Y-152974800D03*
D25*
X189477164Y-153049800D03*
D24*
X190082164Y-152974800D03*
X190082164Y-152474800D03*
X190082164Y-151974800D03*
D25*
X189477164Y-151899800D03*
%TD*%
D17*
%TO.C,C232*%
X106245000Y-59060000D03*
X106245000Y-58100000D03*
%TD*%
D33*
%TO.C,R133*%
X173606564Y-133995600D03*
X173606564Y-132975600D03*
%TD*%
D38*
%TO.C,R108*%
X185711564Y-142280600D03*
X184691564Y-142280600D03*
%TD*%
D35*
%TO.C,TP32*%
X202120000Y-84405000D03*
%TD*%
%TO.C,TP14*%
X174045000Y-36580000D03*
%TD*%
D38*
%TO.C,R175*%
X217310000Y-91020000D03*
X216290000Y-91020000D03*
%TD*%
D32*
%TO.C,R155*%
X148776549Y-152967600D03*
X148776549Y-153987600D03*
%TD*%
D13*
%TO.C,C98*%
X199145000Y-66580000D03*
X199145000Y-68480000D03*
%TD*%
D33*
%TO.C,R154*%
X137224749Y-134945600D03*
X137224749Y-133925600D03*
%TD*%
D24*
%TO.C,U82*%
X148755300Y-106262000D03*
X148755300Y-106762000D03*
X148755300Y-107262000D03*
D25*
X149360300Y-107337000D03*
D24*
X149965300Y-107262000D03*
X149965300Y-106762000D03*
X149965300Y-106262000D03*
D25*
X149360300Y-106187000D03*
%TD*%
D17*
%TO.C,C131*%
X139924749Y-134915600D03*
X139924749Y-133955600D03*
%TD*%
D49*
%TO.C,RN13*%
X206933600Y-106221200D03*
X206233600Y-106221200D03*
X206233600Y-107221200D03*
X206933600Y-107221200D03*
%TD*%
D15*
%TO.C,C192*%
X170310000Y-106590000D03*
X169350000Y-106590000D03*
%TD*%
D23*
%TO.C,C39*%
X154995000Y-49150000D03*
X154995000Y-50110000D03*
%TD*%
D32*
%TO.C,R150*%
X138324749Y-126725600D03*
X138324749Y-127745600D03*
%TD*%
D50*
%TO.C,D11*%
X168670000Y-77680000D03*
X170770000Y-77680000D03*
%TD*%
D15*
%TO.C,C233*%
X103975000Y-53280000D03*
X103015000Y-53280000D03*
%TD*%
D38*
%TO.C,R48*%
X167355000Y-60730000D03*
X166335000Y-60730000D03*
%TD*%
D35*
%TO.C,TP21*%
X181345000Y-63930000D03*
%TD*%
D29*
%TO.C,U63*%
X201370000Y-115555000D03*
D21*
X201320000Y-115955000D03*
X201320000Y-116355000D03*
X201320000Y-116755000D03*
D19*
X201520000Y-117355000D03*
X201920000Y-117355000D03*
D22*
X202320000Y-117355000D03*
D19*
X202720000Y-117355000D03*
D21*
X202920000Y-116755000D03*
X202920000Y-116355000D03*
X202920000Y-115955000D03*
D20*
X202920000Y-115555000D03*
D19*
X202720000Y-114955000D03*
X202320000Y-114955000D03*
X201920000Y-114955000D03*
D22*
X201520000Y-114955000D03*
%TD*%
D51*
%TO.C,U17*%
X169082500Y-57505000D03*
X169082500Y-56855000D03*
X169082500Y-56205000D03*
X169082500Y-55555000D03*
X166807500Y-55555000D03*
X166807500Y-56205000D03*
X166807500Y-56855000D03*
X166807500Y-57505000D03*
%TD*%
D23*
%TO.C,C135*%
X126849749Y-154505600D03*
X126849749Y-155465600D03*
%TD*%
D38*
%TO.C,R73*%
X180855000Y-41780000D03*
X179835000Y-41780000D03*
%TD*%
D52*
%TO.C,U79*%
X131377500Y-79567500D03*
X131877500Y-79567500D03*
X132377500Y-79567500D03*
X132877500Y-79567500D03*
X133377500Y-79567500D03*
X133877500Y-79567500D03*
X134377500Y-79567500D03*
X134877500Y-79567500D03*
D53*
X135565000Y-78880000D03*
X135565000Y-78380000D03*
X135565000Y-77880000D03*
X135565000Y-77380000D03*
X135565000Y-76880000D03*
X135565000Y-76380000D03*
X135565000Y-75880000D03*
X135565000Y-75380000D03*
D52*
X134877500Y-74692500D03*
X134377500Y-74692500D03*
X133877500Y-74692500D03*
X133377500Y-74692500D03*
X132877500Y-74692500D03*
X132377500Y-74692500D03*
X131877500Y-74692500D03*
X131377500Y-74692500D03*
D53*
X130690000Y-75380000D03*
X130690000Y-75880000D03*
X130690000Y-76380000D03*
X130690000Y-76880000D03*
X130690000Y-77380000D03*
X130690000Y-77880000D03*
X130690000Y-78380000D03*
X130690000Y-78880000D03*
D54*
X133127500Y-77130000D03*
%TD*%
D38*
%TO.C,R88*%
X180855000Y-60030000D03*
X179835000Y-60030000D03*
%TD*%
D23*
%TO.C,C177*%
X181730000Y-111910000D03*
X181730000Y-112870000D03*
%TD*%
D40*
%TO.C,Y4*%
X111730000Y-100590000D03*
X111730000Y-101790000D03*
X111730000Y-102990000D03*
%TD*%
D33*
%TO.C,R68*%
X210595000Y-42790000D03*
X210595000Y-41770000D03*
%TD*%
D23*
%TO.C,C147*%
X199430000Y-93045000D03*
X199430000Y-94005000D03*
%TD*%
D17*
%TO.C,C96*%
X185745000Y-70810000D03*
X185745000Y-69850000D03*
%TD*%
D18*
%TO.C,U32*%
X192331564Y-150735600D03*
D19*
X192731564Y-150785600D03*
X193131564Y-150785600D03*
X193531564Y-150785600D03*
D20*
X194131564Y-150585600D03*
X194131564Y-150185600D03*
D21*
X194131564Y-149785600D03*
D20*
X194131564Y-149385600D03*
D19*
X193531564Y-149185600D03*
X193131564Y-149185600D03*
X192731564Y-149185600D03*
D22*
X192331564Y-149185600D03*
D20*
X191731564Y-149385600D03*
X191731564Y-149785600D03*
X191731564Y-150185600D03*
D21*
X191731564Y-150585600D03*
%TD*%
D33*
%TO.C,R113*%
X189781564Y-133995600D03*
X189781564Y-132975600D03*
%TD*%
D55*
%TO.C,U48*%
X173629053Y-73380200D03*
X173629053Y-74030200D03*
X173629053Y-74680200D03*
X173629053Y-75330200D03*
X173629053Y-75980200D03*
X173629053Y-76630200D03*
X173629053Y-77280200D03*
X173629053Y-77930200D03*
X173629053Y-78580200D03*
X173629053Y-79230200D03*
X173629053Y-79880200D03*
X173629053Y-80530200D03*
X173629053Y-81180200D03*
X173629053Y-81830200D03*
X180829053Y-81830200D03*
X180829053Y-81180200D03*
X180829053Y-80530200D03*
X180829053Y-79880200D03*
X180829053Y-79230200D03*
X180829053Y-78580200D03*
X180829053Y-77930200D03*
X180829053Y-77280200D03*
X180829053Y-76630200D03*
X180829053Y-75980200D03*
X180829053Y-75330200D03*
X180829053Y-74680200D03*
X180829053Y-74030200D03*
X180829053Y-73380200D03*
%TD*%
D38*
%TO.C,R46*%
X150055000Y-59030000D03*
X149035000Y-59030000D03*
%TD*%
D29*
%TO.C,U62*%
X212095000Y-115505000D03*
D21*
X212045000Y-115905000D03*
X212045000Y-116305000D03*
X212045000Y-116705000D03*
D19*
X212245000Y-117305000D03*
X212645000Y-117305000D03*
D22*
X213045000Y-117305000D03*
D19*
X213445000Y-117305000D03*
D21*
X213645000Y-116705000D03*
X213645000Y-116305000D03*
X213645000Y-115905000D03*
D20*
X213645000Y-115505000D03*
D19*
X213445000Y-114905000D03*
X213045000Y-114905000D03*
X212645000Y-114905000D03*
D22*
X212245000Y-114905000D03*
%TD*%
D56*
%TO.C,Q2*%
X120107500Y-66217500D03*
X120107500Y-68117500D03*
X121982500Y-67167500D03*
%TD*%
D35*
%TO.C,TP19*%
X202045000Y-46280000D03*
%TD*%
D29*
%TO.C,U47*%
X161892964Y-122558407D03*
D21*
X161842964Y-122958407D03*
X161842964Y-123358407D03*
X161842964Y-123758407D03*
D19*
X162042964Y-124358407D03*
X162442964Y-124358407D03*
D22*
X162842964Y-124358407D03*
D19*
X163242964Y-124358407D03*
D21*
X163442964Y-123758407D03*
X163442964Y-123358407D03*
X163442964Y-122958407D03*
D20*
X163442964Y-122558407D03*
D19*
X163242964Y-121958407D03*
X162842964Y-121958407D03*
X162442964Y-121958407D03*
D22*
X162042964Y-121958407D03*
%TD*%
D57*
%TO.C,C15*%
X106545000Y-62630000D03*
X108445000Y-62630000D03*
%TD*%
D15*
%TO.C,C12*%
X113125000Y-50280000D03*
X112165000Y-50280000D03*
%TD*%
D16*
%TO.C,C182*%
X195630000Y-97090000D03*
X196590000Y-97090000D03*
%TD*%
D17*
%TO.C,C111*%
X187081564Y-133965600D03*
X187081564Y-133005600D03*
%TD*%
%TO.C,C220*%
X131730000Y-86690000D03*
X131730000Y-85730000D03*
%TD*%
D33*
%TO.C,R79*%
X184745000Y-52590000D03*
X184745000Y-51570000D03*
%TD*%
D15*
%TO.C,C104*%
X174325000Y-60030000D03*
X173365000Y-60030000D03*
%TD*%
D23*
%TO.C,C168*%
X197295000Y-120925000D03*
X197295000Y-121885000D03*
%TD*%
D51*
%TO.C,U21*%
X199882500Y-39255000D03*
X199882500Y-38605000D03*
X199882500Y-37955000D03*
X199882500Y-37305000D03*
X197607500Y-37305000D03*
X197607500Y-37955000D03*
X197607500Y-38605000D03*
X197607500Y-39255000D03*
%TD*%
D32*
%TO.C,R27*%
X205595000Y-43670000D03*
X205595000Y-44690000D03*
%TD*%
D23*
%TO.C,C150*%
X209700000Y-93040000D03*
X209700000Y-94000000D03*
%TD*%
D38*
%TO.C,R249*%
X116340000Y-102190000D03*
X115320000Y-102190000D03*
%TD*%
D15*
%TO.C,C49*%
X143575000Y-40830000D03*
X142615000Y-40830000D03*
%TD*%
D38*
%TO.C,R268*%
X142640000Y-103490000D03*
X141620000Y-103490000D03*
%TD*%
D40*
%TO.C,Y1*%
X154431564Y-143135600D03*
X154431564Y-144335600D03*
X154431564Y-145535600D03*
%TD*%
D38*
%TO.C,R54*%
X150055000Y-61030000D03*
X149035000Y-61030000D03*
%TD*%
D58*
%TO.C,U44*%
X130699749Y-129385600D03*
X130049749Y-129385600D03*
X129399749Y-129385600D03*
X128749749Y-129385600D03*
X128749749Y-132285600D03*
X129399749Y-132285600D03*
X130049749Y-132285600D03*
X130699749Y-132285600D03*
D59*
X129724749Y-130835600D03*
%TD*%
D38*
%TO.C,R267*%
X142640000Y-104480000D03*
X141620000Y-104480000D03*
%TD*%
%TO.C,R85*%
X180855000Y-59030000D03*
X179835000Y-59030000D03*
%TD*%
D17*
%TO.C,C89*%
X192545000Y-52560000D03*
X192545000Y-51600000D03*
%TD*%
D15*
%TO.C,C191*%
X170310000Y-104590000D03*
X169350000Y-104590000D03*
%TD*%
D60*
%TO.C,R168*%
X206530000Y-92612500D03*
X206530000Y-94437500D03*
%TD*%
D17*
%TO.C,C2*%
X121620000Y-43560000D03*
X121620000Y-42600000D03*
%TD*%
D33*
%TO.C,R213*%
X195020000Y-82740000D03*
X195020000Y-81720000D03*
%TD*%
%TO.C,R222*%
X209520000Y-82715000D03*
X209520000Y-81695000D03*
%TD*%
D13*
%TO.C,C45*%
X166295000Y-48380000D03*
X166295000Y-50280000D03*
%TD*%
D43*
%TO.C,RN22*%
X155430000Y-118930000D03*
X155430000Y-118430000D03*
X155430000Y-117930000D03*
X155430000Y-117430000D03*
X154430000Y-117430000D03*
X154430000Y-117930000D03*
X154430000Y-118430000D03*
X154430000Y-118930000D03*
%TD*%
D12*
%TO.C,R231*%
X96225000Y-108355000D03*
X97245000Y-108355000D03*
%TD*%
D15*
%TO.C,C194*%
X153270000Y-96100000D03*
X152310000Y-96100000D03*
%TD*%
D60*
%TO.C,R103*%
X185201564Y-143868100D03*
X185201564Y-145693100D03*
%TD*%
D32*
%TO.C,R191*%
X198912800Y-106211200D03*
X198912800Y-107231200D03*
%TD*%
D15*
%TO.C,C50*%
X143575000Y-41830000D03*
X142615000Y-41830000D03*
%TD*%
D23*
%TO.C,C171*%
X206420000Y-120900000D03*
X206420000Y-121860000D03*
%TD*%
D17*
%TO.C,C60*%
X154945000Y-70810000D03*
X154945000Y-69850000D03*
%TD*%
D23*
%TO.C,C66*%
X161745000Y-67350000D03*
X161745000Y-68310000D03*
%TD*%
D58*
%TO.C,U70*%
X210995000Y-77155000D03*
X210345000Y-77155000D03*
X209695000Y-77155000D03*
X209045000Y-77155000D03*
X209045000Y-80055000D03*
X209695000Y-80055000D03*
X210345000Y-80055000D03*
X210995000Y-80055000D03*
D59*
X210020000Y-78605000D03*
%TD*%
D23*
%TO.C,C164*%
X200020000Y-112575000D03*
X200020000Y-113535000D03*
%TD*%
%TO.C,C213*%
X127730000Y-111910000D03*
X127730000Y-112870000D03*
%TD*%
D17*
%TO.C,C130*%
X144399749Y-134915600D03*
X144399749Y-133955600D03*
%TD*%
D23*
%TO.C,C181*%
X192030000Y-111910000D03*
X192030000Y-112870000D03*
%TD*%
D58*
%TO.C,U86*%
X140602249Y-77280000D03*
X139952249Y-77280000D03*
X139302249Y-77280000D03*
X138652249Y-77280000D03*
X138652249Y-80180000D03*
X139302249Y-80180000D03*
X139952249Y-80180000D03*
X140602249Y-80180000D03*
D59*
X139627249Y-78730000D03*
%TD*%
D60*
%TO.C,R238*%
X167542500Y-92917500D03*
X167542500Y-94742500D03*
%TD*%
D38*
%TO.C,R50*%
X150055000Y-60030000D03*
X149035000Y-60030000D03*
%TD*%
D61*
%TO.C,C76*%
X176545000Y-45980000D03*
X176545000Y-51380000D03*
%TD*%
D62*
%TO.C,D6*%
X211845000Y-42442500D03*
X211845000Y-44017500D03*
%TD*%
D33*
%TO.C,R272*%
X111277364Y-127349800D03*
X111277364Y-126329800D03*
%TD*%
D38*
%TO.C,R118*%
X189987164Y-149579200D03*
X188967164Y-149579200D03*
%TD*%
D32*
%TO.C,R197*%
X215032200Y-106262400D03*
X215032200Y-107282400D03*
%TD*%
D16*
%TO.C,C148*%
X161762964Y-120658407D03*
X162722964Y-120658407D03*
%TD*%
D38*
%TO.C,R76*%
X180855000Y-42780000D03*
X179835000Y-42780000D03*
%TD*%
D12*
%TO.C,R56*%
X166335000Y-58730000D03*
X167355000Y-58730000D03*
%TD*%
D28*
%TO.C,J8*%
X115557500Y-79850000D03*
X112557500Y-81120000D03*
X115557500Y-82390000D03*
X112557500Y-83660000D03*
X115557500Y-84930000D03*
X112557500Y-86200000D03*
%TD*%
D62*
%TO.C,D8*%
X163331564Y-131006850D03*
X163331564Y-132581850D03*
%TD*%
D38*
%TO.C,R6*%
X111155000Y-64880000D03*
X110135000Y-64880000D03*
%TD*%
D13*
%TO.C,C8*%
X99345000Y-44280000D03*
X99345000Y-46180000D03*
%TD*%
D17*
%TO.C,C11*%
X132820000Y-48160000D03*
X132820000Y-47200000D03*
%TD*%
D16*
%TO.C,C142*%
X131869749Y-143085600D03*
X132829749Y-143085600D03*
%TD*%
D14*
%TO.C,C65*%
X168345000Y-64980000D03*
X168345000Y-63080000D03*
%TD*%
D15*
%TO.C,C52*%
X167375000Y-43530000D03*
X166415000Y-43530000D03*
%TD*%
D16*
%TO.C,C36*%
X152015000Y-48130000D03*
X152975000Y-48130000D03*
%TD*%
D32*
%TO.C,R246*%
X146312300Y-106302800D03*
X146312300Y-107322800D03*
%TD*%
D29*
%TO.C,U67*%
X196395000Y-123605000D03*
X196395000Y-124005000D03*
X196395000Y-124405000D03*
X196395000Y-124805000D03*
X196395000Y-125205000D03*
D18*
X197095000Y-125255000D03*
D63*
X197795000Y-125205000D03*
D29*
X197795000Y-124805000D03*
X197795000Y-124405000D03*
X197795000Y-124005000D03*
X197795000Y-123605000D03*
D18*
X197095000Y-123555000D03*
%TD*%
D23*
%TO.C,C180*%
X186730000Y-111910000D03*
X186730000Y-112870000D03*
%TD*%
%TO.C,C203*%
X158757500Y-100350000D03*
X158757500Y-101310000D03*
%TD*%
D58*
%TO.C,U90*%
X148652249Y-77255000D03*
X148002249Y-77255000D03*
X147352249Y-77255000D03*
X146702249Y-77255000D03*
X146702249Y-80155000D03*
X147352249Y-80155000D03*
X148002249Y-80155000D03*
X148652249Y-80155000D03*
D59*
X147677249Y-78705000D03*
%TD*%
D58*
%TO.C,U33*%
X181381564Y-128435600D03*
X180731564Y-128435600D03*
X180081564Y-128435600D03*
X179431564Y-128435600D03*
X179431564Y-131335600D03*
X180081564Y-131335600D03*
X180731564Y-131335600D03*
X181381564Y-131335600D03*
D59*
X180406564Y-129885600D03*
%TD*%
D23*
%TO.C,C172*%
X196295000Y-120925000D03*
X196295000Y-121885000D03*
%TD*%
D12*
%TO.C,R38*%
X166385000Y-40530000D03*
X167405000Y-40530000D03*
%TD*%
D64*
%TO.C,U6*%
X128845000Y-65167500D03*
X128845000Y-63217500D03*
X128845000Y-63867500D03*
X128845000Y-64517500D03*
D65*
X130500000Y-64192500D03*
D64*
X131495000Y-63217500D03*
X131495000Y-63867500D03*
X131495000Y-64517500D03*
X131495000Y-65167500D03*
%TD*%
D32*
%TO.C,R219*%
X210720000Y-120890000D03*
X210720000Y-121910000D03*
%TD*%
D15*
%TO.C,C178*%
X170310000Y-92090000D03*
X169350000Y-92090000D03*
%TD*%
D17*
%TO.C,C187*%
X180630000Y-86690000D03*
X180630000Y-85730000D03*
%TD*%
D23*
%TO.C,C75*%
X185745000Y-49100000D03*
X185745000Y-50060000D03*
%TD*%
D33*
%TO.C,R121*%
X179906564Y-133995600D03*
X179906564Y-132975600D03*
%TD*%
D38*
%TO.C,R185*%
X215743400Y-101131600D03*
X214723400Y-101131600D03*
%TD*%
D11*
%TO.C,R31*%
X171295000Y-39330000D03*
X171295000Y-36405000D03*
%TD*%
D45*
%TO.C,U28*%
X187745000Y-67780000D03*
D46*
X187695000Y-68280000D03*
X187695000Y-68780000D03*
X187695000Y-69280000D03*
D47*
X188395000Y-69980000D03*
D48*
X188895000Y-69730000D03*
X189395000Y-69730000D03*
D47*
X189895000Y-69980000D03*
D46*
X190595000Y-69280000D03*
X190595000Y-68780000D03*
X190595000Y-68280000D03*
X190595000Y-67780000D03*
D47*
X189895000Y-67080000D03*
D48*
X189395000Y-67330000D03*
X188895000Y-67330000D03*
D47*
X188395000Y-67080000D03*
%TD*%
D32*
%TO.C,R126*%
X187445164Y-149932800D03*
X187445164Y-150952800D03*
%TD*%
%TO.C,R225*%
X201420000Y-74495000D03*
X201420000Y-75515000D03*
%TD*%
D62*
%TO.C,D3*%
X204345000Y-42442500D03*
X204345000Y-44017500D03*
%TD*%
D23*
%TO.C,C139*%
X122449749Y-154505600D03*
X122449749Y-155465600D03*
%TD*%
D17*
%TO.C,C42*%
X154995000Y-52610000D03*
X154995000Y-51650000D03*
%TD*%
D33*
%TO.C,R223*%
X208620000Y-75515000D03*
X208620000Y-74495000D03*
%TD*%
D13*
%TO.C,C81*%
X197045000Y-48330000D03*
X197045000Y-50230000D03*
%TD*%
D15*
%TO.C,C88*%
X198125000Y-43480000D03*
X197165000Y-43480000D03*
%TD*%
D66*
%TO.C,D1*%
X124132500Y-46580000D03*
X125707500Y-46580000D03*
%TD*%
D67*
%TO.C,U4*%
X127220000Y-43530000D03*
X127220000Y-43080000D03*
X127220000Y-42630000D03*
X127220000Y-42180000D03*
X127220000Y-41730000D03*
X127220000Y-41280000D03*
X124320000Y-41280000D03*
X124320000Y-41730000D03*
X124320000Y-42180000D03*
X124320000Y-42630000D03*
X124320000Y-43080000D03*
X124320000Y-43530000D03*
D68*
X125770000Y-42405000D03*
%TD*%
D43*
%TO.C,RN27*%
X145030000Y-123130000D03*
X145030000Y-122630000D03*
X145030000Y-122130000D03*
X145030000Y-121630000D03*
X144030000Y-121630000D03*
X144030000Y-122130000D03*
X144030000Y-122630000D03*
X144030000Y-123130000D03*
%TD*%
D33*
%TO.C,R112*%
X187181564Y-126795600D03*
X187181564Y-125775600D03*
%TD*%
D38*
%TO.C,R41*%
X143605000Y-42830000D03*
X142585000Y-42830000D03*
%TD*%
D39*
%TO.C,RN17*%
X199820000Y-119405000D03*
X199820000Y-118705000D03*
X198820000Y-118705000D03*
X198820000Y-119405000D03*
%TD*%
D12*
%TO.C,R42*%
X153935000Y-66330000D03*
X154955000Y-66330000D03*
%TD*%
D23*
%TO.C,C109*%
X178101564Y-144300600D03*
X178101564Y-145260600D03*
%TD*%
D39*
%TO.C,RN14*%
X212543000Y-109558800D03*
X212543000Y-108858800D03*
X211543000Y-108858800D03*
X211543000Y-109558800D03*
%TD*%
D33*
%TO.C,R89*%
X194545000Y-70840000D03*
X194545000Y-69820000D03*
%TD*%
D32*
%TO.C,R256*%
X160757500Y-100320000D03*
X160757500Y-101340000D03*
%TD*%
D26*
%TO.C,U73*%
X147420000Y-92655000D03*
X147420000Y-93305000D03*
X147420000Y-93955000D03*
X147420000Y-94605000D03*
X150520000Y-94605000D03*
X150520000Y-93955000D03*
X150520000Y-93305000D03*
X150520000Y-92655000D03*
D27*
X148970000Y-93630000D03*
%TD*%
D32*
%TO.C,R149*%
X137324749Y-126725600D03*
X137324749Y-127745600D03*
%TD*%
%TO.C,R47*%
X165745000Y-69810000D03*
X165745000Y-70830000D03*
%TD*%
D35*
%TO.C,TP18*%
X181345000Y-45680000D03*
%TD*%
D16*
%TO.C,C123*%
X174551564Y-142135600D03*
X175511564Y-142135600D03*
%TD*%
D17*
%TO.C,C169*%
X212220000Y-82685000D03*
X212220000Y-81725000D03*
%TD*%
D32*
%TO.C,R254*%
X162757500Y-100320000D03*
X162757500Y-101340000D03*
%TD*%
D69*
%TO.C,R4*%
X136882500Y-41480000D03*
X139807500Y-41480000D03*
%TD*%
D26*
%TO.C,U45*%
X201160000Y-92580000D03*
X201160000Y-93230000D03*
X201160000Y-93880000D03*
X201160000Y-94530000D03*
X204260000Y-94530000D03*
X204260000Y-93880000D03*
X204260000Y-93230000D03*
X204260000Y-92580000D03*
D27*
X202710000Y-93555000D03*
%TD*%
D45*
%TO.C,U24*%
X187745000Y-49530000D03*
D46*
X187695000Y-50030000D03*
X187695000Y-50530000D03*
X187695000Y-51030000D03*
D47*
X188395000Y-51730000D03*
D48*
X188895000Y-51480000D03*
X189395000Y-51480000D03*
D47*
X189895000Y-51730000D03*
D46*
X190595000Y-51030000D03*
X190595000Y-50530000D03*
X190595000Y-50030000D03*
X190595000Y-49530000D03*
D47*
X189895000Y-48830000D03*
D48*
X189395000Y-49080000D03*
X188895000Y-49080000D03*
D47*
X188395000Y-48830000D03*
%TD*%
D33*
%TO.C,R130*%
X163376564Y-135154350D03*
X163376564Y-134134350D03*
%TD*%
D35*
%TO.C,U93*%
X198875000Y-147360000D03*
X198875000Y-144820000D03*
X201415000Y-147360000D03*
X201415000Y-144820000D03*
X203955000Y-147360000D03*
X203955000Y-144820000D03*
X206495000Y-147360000D03*
X206495000Y-144820000D03*
X198875000Y-142280000D03*
X201415000Y-142280000D03*
X203955000Y-142280000D03*
X206495000Y-142280000D03*
X198863087Y-139740000D03*
X201403087Y-139740000D03*
X203943087Y-139740000D03*
X206483087Y-139740000D03*
X198875000Y-137223827D03*
X201415000Y-137223827D03*
X203955000Y-137223827D03*
X206495000Y-137223827D03*
X198875000Y-134683827D03*
X201415000Y-134683827D03*
X203955000Y-134683827D03*
X206495000Y-134683827D03*
%TD*%
D32*
%TO.C,R159*%
X144763349Y-150882800D03*
X144763349Y-151902800D03*
%TD*%
D33*
%TO.C,R58*%
X153945000Y-70840000D03*
X153945000Y-69820000D03*
%TD*%
D70*
%TO.C,U12*%
X129270000Y-56380000D03*
X129270000Y-57330000D03*
X129270000Y-58280000D03*
X131545000Y-58280000D03*
X131545000Y-57330000D03*
X131545000Y-56380000D03*
%TD*%
D15*
%TO.C,C127*%
X142999749Y-148230600D03*
X142039749Y-148230600D03*
%TD*%
D34*
%TO.C,Q6*%
X213045000Y-40630000D03*
X213045000Y-39630000D03*
X211745000Y-40130000D03*
%TD*%
D32*
%TO.C,R161*%
X129324749Y-126725600D03*
X129324749Y-127745600D03*
%TD*%
%TO.C,R258*%
X140227249Y-74620000D03*
X140227249Y-75640000D03*
%TD*%
D33*
%TO.C,R94*%
X184745000Y-70840000D03*
X184745000Y-69820000D03*
%TD*%
D32*
%TO.C,R135*%
X122449749Y-138075600D03*
X122449749Y-139095600D03*
%TD*%
%TO.C,R122*%
X191458364Y-152017600D03*
X191458364Y-153037600D03*
%TD*%
%TO.C,R128*%
X172006564Y-125775600D03*
X172006564Y-126795600D03*
%TD*%
D12*
%TO.C,R20*%
X121645000Y-49480000D03*
X122665000Y-49480000D03*
%TD*%
D15*
%TO.C,C157*%
X202440800Y-102758800D03*
X201480800Y-102758800D03*
%TD*%
D38*
%TO.C,R184*%
X215741400Y-102147600D03*
X214721400Y-102147600D03*
%TD*%
%TO.C,R174*%
X207040000Y-91025000D03*
X206020000Y-91025000D03*
%TD*%
D52*
%TO.C,U92*%
X124977364Y-124839800D03*
X125477364Y-124839800D03*
X125977364Y-124839800D03*
X126477364Y-124839800D03*
X126977364Y-124839800D03*
X127477364Y-124839800D03*
X127977364Y-124839800D03*
X128477364Y-124839800D03*
D53*
X129164864Y-124152300D03*
X129164864Y-123652300D03*
X129164864Y-123152300D03*
X129164864Y-122652300D03*
X129164864Y-122152300D03*
X129164864Y-121652300D03*
X129164864Y-121152300D03*
X129164864Y-120652300D03*
D52*
X128477364Y-119964800D03*
X127977364Y-119964800D03*
X127477364Y-119964800D03*
X126977364Y-119964800D03*
X126477364Y-119964800D03*
X125977364Y-119964800D03*
X125477364Y-119964800D03*
X124977364Y-119964800D03*
D53*
X124289864Y-120652300D03*
X124289864Y-121152300D03*
X124289864Y-121652300D03*
X124289864Y-122152300D03*
X124289864Y-122652300D03*
X124289864Y-123152300D03*
X124289864Y-123652300D03*
X124289864Y-124152300D03*
D54*
X126727364Y-122402300D03*
%TD*%
D71*
%TO.C,U3*%
X137207500Y-43505000D03*
X137207500Y-44155000D03*
X137207500Y-44805000D03*
X137207500Y-45455000D03*
X139482500Y-45455000D03*
X139482500Y-44805000D03*
X139482500Y-44155000D03*
X139482500Y-43505000D03*
%TD*%
D23*
%TO.C,C93*%
X185745000Y-67350000D03*
X185745000Y-68310000D03*
%TD*%
%TO.C,C212*%
X121180000Y-111910000D03*
X121180000Y-112870000D03*
%TD*%
D16*
%TO.C,C218*%
X141630000Y-97090000D03*
X142590000Y-97090000D03*
%TD*%
D35*
%TO.C,TP34*%
X156227249Y-84530000D03*
%TD*%
D17*
%TO.C,C53*%
X161795000Y-52610000D03*
X161795000Y-51650000D03*
%TD*%
D32*
%TO.C,R61*%
X113345000Y-67380000D03*
X113345000Y-68400000D03*
%TD*%
D38*
%TO.C,R183*%
X205669200Y-101082400D03*
X204649200Y-101082400D03*
%TD*%
D23*
%TO.C,C231*%
X106245000Y-56100000D03*
X106245000Y-57060000D03*
%TD*%
D44*
%TO.C,L5*%
X153837500Y-60330000D03*
X162852500Y-60330000D03*
%TD*%
D33*
%TO.C,R144*%
X145399749Y-134945600D03*
X145399749Y-133925600D03*
%TD*%
D15*
%TO.C,C202*%
X149840300Y-104882400D03*
X148880300Y-104882400D03*
%TD*%
D16*
%TO.C,C230*%
X119597364Y-116564800D03*
X120557364Y-116564800D03*
%TD*%
D55*
%TO.C,U91*%
X113477364Y-118639800D03*
X113477364Y-119289800D03*
X113477364Y-119939800D03*
X113477364Y-120589800D03*
X113477364Y-121239800D03*
X113477364Y-121889800D03*
X113477364Y-122539800D03*
X113477364Y-123189800D03*
X113477364Y-123839800D03*
X113477364Y-124489800D03*
X113477364Y-125139800D03*
X113477364Y-125789800D03*
X113477364Y-126439800D03*
X113477364Y-127089800D03*
X120677364Y-127089800D03*
X120677364Y-126439800D03*
X120677364Y-125789800D03*
X120677364Y-125139800D03*
X120677364Y-124489800D03*
X120677364Y-123839800D03*
X120677364Y-123189800D03*
X120677364Y-122539800D03*
X120677364Y-121889800D03*
X120677364Y-121239800D03*
X120677364Y-120589800D03*
X120677364Y-119939800D03*
X120677364Y-119289800D03*
X120677364Y-118639800D03*
%TD*%
D38*
%TO.C,R151*%
X147305349Y-150529200D03*
X146285349Y-150529200D03*
%TD*%
D15*
%TO.C,C175*%
X170310000Y-107590000D03*
X169350000Y-107590000D03*
%TD*%
D61*
%TO.C,C58*%
X145745000Y-64230000D03*
X145745000Y-69630000D03*
%TD*%
D38*
%TO.C,R182*%
X205667200Y-102098400D03*
X204647200Y-102098400D03*
%TD*%
D40*
%TO.C,Y2*%
X111749749Y-144085600D03*
X111749749Y-145285600D03*
X111749749Y-146485600D03*
%TD*%
D32*
%TO.C,R215*%
X209620000Y-74495000D03*
X209620000Y-75515000D03*
%TD*%
D43*
%TO.C,RN9*%
X163155000Y-118980000D03*
X163155000Y-118480000D03*
X163155000Y-117980000D03*
X163155000Y-117480000D03*
X162155000Y-117480000D03*
X162155000Y-117980000D03*
X162155000Y-118480000D03*
X162155000Y-118980000D03*
%TD*%
D15*
%TO.C,C146*%
X207010000Y-96025000D03*
X206050000Y-96025000D03*
%TD*%
D35*
%TO.C,TP33*%
X139927249Y-84530000D03*
%TD*%
D38*
%TO.C,R82*%
X193555000Y-66330000D03*
X192535000Y-66330000D03*
%TD*%
D13*
%TO.C,C80*%
X199145000Y-48330000D03*
X199145000Y-50230000D03*
%TD*%
D61*
%TO.C,C94*%
X176545000Y-64230000D03*
X176545000Y-69630000D03*
%TD*%
D33*
%TO.C,R90*%
X195545000Y-70830000D03*
X195545000Y-69810000D03*
%TD*%
D15*
%TO.C,C179*%
X170310000Y-105590000D03*
X169350000Y-105590000D03*
%TD*%
D72*
%TO.C,U72*%
X101730000Y-102870000D03*
X101730000Y-105410000D03*
X101730000Y-107950000D03*
X101730000Y-110490000D03*
X101730000Y-113030000D03*
X101730000Y-115570000D03*
X101730000Y-118110000D03*
X101730000Y-120650000D03*
X101730000Y-123190000D03*
X101730000Y-125730000D03*
X101730000Y-128270000D03*
X101730000Y-130810000D03*
X101730000Y-133350000D03*
X101730000Y-135890000D03*
X101730000Y-138430000D03*
X101730000Y-140970000D03*
X101730000Y-143510000D03*
X101730000Y-146050000D03*
X101730000Y-148590000D03*
X101730000Y-151130000D03*
D73*
X103000000Y-104140000D03*
X103000000Y-149860000D03*
D72*
X104270000Y-102870000D03*
X104270000Y-105410000D03*
X104270000Y-107950000D03*
X104270000Y-110490000D03*
X104270000Y-113030000D03*
X104270000Y-115570000D03*
X104270000Y-118110000D03*
X104270000Y-120650000D03*
X104270000Y-123190000D03*
X104270000Y-125730000D03*
X104270000Y-128270000D03*
X104270000Y-130810000D03*
X104270000Y-133350000D03*
X104270000Y-135890000D03*
X104270000Y-138430000D03*
X104270000Y-140970000D03*
X104270000Y-143510000D03*
X104270000Y-146050000D03*
X104270000Y-148590000D03*
X104270000Y-151130000D03*
D74*
X100090000Y-102870000D03*
X105910000Y-102870000D03*
X100090000Y-105410000D03*
X105910000Y-105410000D03*
X100090000Y-107950000D03*
D41*
X80000000Y-98000000D03*
X80000000Y-156000000D03*
X103000000Y-98000000D03*
X103000000Y-156000000D03*
D74*
X105910000Y-107950000D03*
X100090000Y-110490000D03*
X105910000Y-110490000D03*
X100090000Y-113030000D03*
X105910000Y-113030000D03*
X100090000Y-115570000D03*
X105910000Y-115570000D03*
X100090000Y-118110000D03*
X105910000Y-118110000D03*
X100090000Y-120650000D03*
X105910000Y-120650000D03*
X100090000Y-123190000D03*
X105910000Y-123190000D03*
X100090000Y-125730000D03*
X105910000Y-125730000D03*
X100090000Y-128270000D03*
X105910000Y-128270000D03*
X100090000Y-130810000D03*
X105910000Y-130810000D03*
X100090000Y-133350000D03*
X105910000Y-133350000D03*
X100090000Y-135890000D03*
X105910000Y-135890000D03*
X100090000Y-138430000D03*
X105910000Y-138430000D03*
X100090000Y-140970000D03*
X105910000Y-140970000D03*
X100090000Y-143510000D03*
X105910000Y-143510000D03*
X100090000Y-146050000D03*
X105910000Y-146050000D03*
X100090000Y-148590000D03*
X105910000Y-148590000D03*
X100090000Y-151130000D03*
X105910000Y-151130000D03*
%TD*%
D13*
%TO.C,C100*%
X201245000Y-66580000D03*
X201245000Y-68480000D03*
%TD*%
D17*
%TO.C,C78*%
X185745000Y-52560000D03*
X185745000Y-51600000D03*
%TD*%
D15*
%TO.C,C38*%
X169575000Y-36130000D03*
X168615000Y-36130000D03*
%TD*%
D33*
%TO.C,R93*%
X193545000Y-70840000D03*
X193545000Y-69820000D03*
%TD*%
D60*
%TO.C,R232*%
X152790000Y-92687500D03*
X152790000Y-94512500D03*
%TD*%
D17*
%TO.C,C10*%
X122620000Y-41560000D03*
X122620000Y-40600000D03*
%TD*%
D28*
%TO.C,J4*%
X115549749Y-134545600D03*
X112549749Y-135815600D03*
X115549749Y-137085600D03*
X112549749Y-138355600D03*
X115549749Y-139625600D03*
X112549749Y-140895600D03*
%TD*%
D55*
%TO.C,U75*%
X119877500Y-73367500D03*
X119877500Y-74017500D03*
X119877500Y-74667500D03*
X119877500Y-75317500D03*
X119877500Y-75967500D03*
X119877500Y-76617500D03*
X119877500Y-77267500D03*
X119877500Y-77917500D03*
X119877500Y-78567500D03*
X119877500Y-79217500D03*
X119877500Y-79867500D03*
X119877500Y-80517500D03*
X119877500Y-81167500D03*
X119877500Y-81817500D03*
X127077500Y-81817500D03*
X127077500Y-81167500D03*
X127077500Y-80517500D03*
X127077500Y-79867500D03*
X127077500Y-79217500D03*
X127077500Y-78567500D03*
X127077500Y-77917500D03*
X127077500Y-77267500D03*
X127077500Y-76617500D03*
X127077500Y-75967500D03*
X127077500Y-75317500D03*
X127077500Y-74667500D03*
X127077500Y-74017500D03*
X127077500Y-73367500D03*
%TD*%
D32*
%TO.C,R153*%
X143747349Y-152965600D03*
X143747349Y-153985600D03*
%TD*%
D35*
%TO.C,TP17*%
X173945000Y-53680000D03*
%TD*%
D32*
%TO.C,R99*%
X111345000Y-70170000D03*
X111345000Y-71190000D03*
%TD*%
D15*
%TO.C,C55*%
X164725000Y-66330000D03*
X163765000Y-66330000D03*
%TD*%
%TO.C,C37*%
X164775000Y-48130000D03*
X163815000Y-48130000D03*
%TD*%
D38*
%TO.C,R109*%
X175541564Y-145335600D03*
X174521564Y-145335600D03*
%TD*%
D16*
%TO.C,C136*%
X134824549Y-150330800D03*
X135784549Y-150330800D03*
%TD*%
D33*
%TO.C,R160*%
X133304549Y-152640800D03*
X133304549Y-151620800D03*
%TD*%
%TO.C,R1*%
X127420000Y-48290000D03*
X127420000Y-47270000D03*
%TD*%
D75*
%TO.C,U27*%
X178020000Y-60805000D03*
D76*
X177845000Y-60980000D03*
D77*
X178020000Y-60330000D03*
X178020000Y-59880000D03*
D75*
X178020000Y-59405000D03*
D76*
X177845000Y-59230000D03*
D78*
X177370000Y-60105000D03*
X176870000Y-60105000D03*
D76*
X176395000Y-59230000D03*
D75*
X176220000Y-59405000D03*
D77*
X176220000Y-59880000D03*
X176220000Y-60330000D03*
D76*
X176395000Y-60980000D03*
D75*
X176220000Y-60805000D03*
%TD*%
D15*
%TO.C,C144*%
X116329749Y-149085600D03*
X115369749Y-149085600D03*
%TD*%
D23*
%TO.C,C163*%
X199020000Y-112575000D03*
X199020000Y-113535000D03*
%TD*%
D32*
%TO.C,R139*%
X145499749Y-126725600D03*
X145499749Y-127745600D03*
%TD*%
D79*
%TO.C,L2*%
X134095000Y-52230000D03*
X138948000Y-52230000D03*
%TD*%
D23*
%TO.C,C197*%
X156157500Y-93400000D03*
X156157500Y-94360000D03*
%TD*%
D18*
%TO.C,U57*%
X214889400Y-104980400D03*
D19*
X215289400Y-105030400D03*
X215689400Y-105030400D03*
X216089400Y-105030400D03*
D20*
X216689400Y-104830400D03*
X216689400Y-104430400D03*
D21*
X216689400Y-104030400D03*
D20*
X216689400Y-103630400D03*
D19*
X216089400Y-103430400D03*
X215689400Y-103430400D03*
X215289400Y-103430400D03*
D22*
X214889400Y-103430400D03*
D20*
X214289400Y-103630400D03*
X214289400Y-104030400D03*
X214289400Y-104430400D03*
D21*
X214289400Y-104830400D03*
%TD*%
D17*
%TO.C,C112*%
X182606564Y-133965600D03*
X182606564Y-133005600D03*
%TD*%
%TO.C,C174*%
X200320000Y-82685000D03*
X200320000Y-81725000D03*
%TD*%
D14*
%TO.C,C47*%
X168395000Y-46780000D03*
X168395000Y-44880000D03*
%TD*%
D32*
%TO.C,R269*%
X148277249Y-74595000D03*
X148277249Y-75615000D03*
%TD*%
D17*
%TO.C,C132*%
X136224749Y-134915600D03*
X136224749Y-133955600D03*
%TD*%
D58*
%TO.C,U65*%
X194795000Y-77180000D03*
X194145000Y-77180000D03*
X193495000Y-77180000D03*
X192845000Y-77180000D03*
X192845000Y-80080000D03*
X193495000Y-80080000D03*
X194145000Y-80080000D03*
X194795000Y-80080000D03*
D59*
X193820000Y-78630000D03*
%TD*%
D12*
%TO.C,R171*%
X206020000Y-90025000D03*
X207040000Y-90025000D03*
%TD*%
D15*
%TO.C,C103*%
X174325000Y-59030000D03*
X173365000Y-59030000D03*
%TD*%
D38*
%TO.C,R30*%
X167405000Y-42530000D03*
X166385000Y-42530000D03*
%TD*%
D43*
%TO.C,RN18*%
X207720000Y-128530000D03*
X207720000Y-128030000D03*
X207720000Y-127530000D03*
X207720000Y-127030000D03*
X206720000Y-127030000D03*
X206720000Y-127530000D03*
X206720000Y-128030000D03*
X206720000Y-128530000D03*
%TD*%
D29*
%TO.C,U43*%
X134954549Y-152230800D03*
D21*
X134904549Y-152630800D03*
X134904549Y-153030800D03*
X134904549Y-153430800D03*
D19*
X135104549Y-154030800D03*
X135504549Y-154030800D03*
D22*
X135904549Y-154030800D03*
D19*
X136304549Y-154030800D03*
D21*
X136504549Y-153430800D03*
X136504549Y-153030800D03*
X136504549Y-152630800D03*
D20*
X136504549Y-152230800D03*
D19*
X136304549Y-151630800D03*
X135904549Y-151630800D03*
X135504549Y-151630800D03*
D22*
X135104549Y-151630800D03*
%TD*%
D12*
%TO.C,R244*%
X128157500Y-71292500D03*
X129177500Y-71292500D03*
%TD*%
D38*
%TO.C,R137*%
X116359749Y-145685600D03*
X115339749Y-145685600D03*
%TD*%
D23*
%TO.C,C204*%
X159757500Y-100350000D03*
X159757500Y-101310000D03*
%TD*%
D12*
%TO.C,R176*%
X170040000Y-120430000D03*
X171060000Y-120430000D03*
%TD*%
D57*
%TO.C,C35*%
X129757500Y-60130000D03*
X131657500Y-60130000D03*
%TD*%
D33*
%TO.C,R217*%
X209720000Y-121910000D03*
X209720000Y-120890000D03*
%TD*%
%TO.C,R260*%
X140827249Y-82840000D03*
X140827249Y-81820000D03*
%TD*%
D17*
%TO.C,C122*%
X163131564Y-138115600D03*
X163131564Y-137155600D03*
%TD*%
D62*
%TO.C,D4*%
X206845000Y-42442500D03*
X206845000Y-44017500D03*
%TD*%
D23*
%TO.C,C151*%
X166850000Y-119500000D03*
X166850000Y-120460000D03*
%TD*%
D32*
%TO.C,R123*%
X192474364Y-152017600D03*
X192474364Y-153037600D03*
%TD*%
D35*
%TO.C,TP3*%
X109992500Y-75505000D03*
%TD*%
D33*
%TO.C,R15*%
X122645000Y-64677500D03*
X122645000Y-63657500D03*
%TD*%
D15*
%TO.C,C215*%
X116310000Y-105590000D03*
X115350000Y-105590000D03*
%TD*%
D33*
%TO.C,R57*%
X162745000Y-70840000D03*
X162745000Y-69820000D03*
%TD*%
%TO.C,R271*%
X146277249Y-75615000D03*
X146277249Y-74595000D03*
%TD*%
D80*
%TO.C,U80*%
X84045000Y-142030000D03*
X84045000Y-142530000D03*
D81*
X84045000Y-143030000D03*
D80*
X84045000Y-143530000D03*
X84045000Y-144030000D03*
X84845000Y-144030000D03*
X84845000Y-143530000D03*
D81*
X84845000Y-143030000D03*
D80*
X84845000Y-142530000D03*
X84845000Y-142030000D03*
%TD*%
D35*
%TO.C,TP8*%
X119995000Y-70330000D03*
%TD*%
%TO.C,TP22*%
X202045000Y-64530000D03*
%TD*%
D39*
%TO.C,RN24*%
X149868300Y-109601200D03*
X149868300Y-108901200D03*
X148868300Y-108901200D03*
X148868300Y-109601200D03*
%TD*%
D32*
%TO.C,R96*%
X103245000Y-70170000D03*
X103245000Y-71190000D03*
%TD*%
D33*
%TO.C,R124*%
X179006564Y-126795600D03*
X179006564Y-125775600D03*
%TD*%
D45*
%TO.C,U20*%
X156945000Y-67780000D03*
D46*
X156895000Y-68280000D03*
X156895000Y-68780000D03*
X156895000Y-69280000D03*
D47*
X157595000Y-69980000D03*
D48*
X158095000Y-69730000D03*
X158595000Y-69730000D03*
D47*
X159095000Y-69980000D03*
D46*
X159795000Y-69280000D03*
X159795000Y-68780000D03*
X159795000Y-68280000D03*
X159795000Y-67780000D03*
D47*
X159095000Y-67080000D03*
D48*
X158595000Y-67330000D03*
X158095000Y-67330000D03*
D47*
X157595000Y-67080000D03*
%TD*%
D15*
%TO.C,C158*%
X212515000Y-102808000D03*
X211555000Y-102808000D03*
%TD*%
D17*
%TO.C,C129*%
X148099749Y-134915600D03*
X148099749Y-133955600D03*
%TD*%
D38*
%TO.C,R143*%
X132859749Y-145285600D03*
X131839749Y-145285600D03*
%TD*%
D35*
%TO.C,TP9*%
X125545000Y-57580000D03*
%TD*%
D29*
%TO.C,U66*%
X206520000Y-123580000D03*
X206520000Y-123980000D03*
X206520000Y-124380000D03*
X206520000Y-124780000D03*
X206520000Y-125180000D03*
D18*
X207220000Y-125230000D03*
D63*
X207920000Y-125180000D03*
D29*
X207920000Y-124780000D03*
X207920000Y-124380000D03*
X207920000Y-123980000D03*
X207920000Y-123580000D03*
D18*
X207220000Y-123530000D03*
%TD*%
D23*
%TO.C,C48*%
X161795000Y-49150000D03*
X161795000Y-50110000D03*
%TD*%
D12*
%TO.C,R77*%
X179835000Y-43780000D03*
X180855000Y-43780000D03*
%TD*%
D23*
%TO.C,C5*%
X132820000Y-45100000D03*
X132820000Y-46060000D03*
%TD*%
D66*
%TO.C,D14*%
X117842500Y-114480000D03*
X119417500Y-114480000D03*
%TD*%
D60*
%TO.C,R136*%
X142519749Y-144818100D03*
X142519749Y-146643100D03*
%TD*%
D15*
%TO.C,C106*%
X198125000Y-61730000D03*
X197165000Y-61730000D03*
%TD*%
%TO.C,C198*%
X168037500Y-91430000D03*
X167077500Y-91430000D03*
%TD*%
D33*
%TO.C,R229*%
X203020000Y-82715000D03*
X203020000Y-81695000D03*
%TD*%
%TO.C,R165*%
X128324749Y-127745600D03*
X128324749Y-126725600D03*
%TD*%
D15*
%TO.C,C152*%
X178730000Y-117530000D03*
X177770000Y-117530000D03*
%TD*%
D33*
%TO.C,R163*%
X120694749Y-136104350D03*
X120694749Y-135084350D03*
%TD*%
D15*
%TO.C,C121*%
X159011564Y-147135600D03*
X158051564Y-147135600D03*
%TD*%
D13*
%TO.C,C63*%
X166245000Y-66580000D03*
X166245000Y-68480000D03*
%TD*%
D50*
%TO.C,D13*%
X114907500Y-77530000D03*
X117007500Y-77530000D03*
%TD*%
D44*
%TO.C,L4*%
X153887500Y-42130000D03*
X162902500Y-42130000D03*
%TD*%
D14*
%TO.C,C83*%
X199145000Y-46730000D03*
X199145000Y-44830000D03*
%TD*%
D58*
%TO.C,U30*%
X189556564Y-128435600D03*
X188906564Y-128435600D03*
X188256564Y-128435600D03*
X187606564Y-128435600D03*
X187606564Y-131335600D03*
X188256564Y-131335600D03*
X188906564Y-131335600D03*
X189556564Y-131335600D03*
D59*
X188581564Y-129885600D03*
%TD*%
D35*
%TO.C,TP20*%
X204095000Y-51480000D03*
%TD*%
D23*
%TO.C,C221*%
X137030000Y-111910000D03*
X137030000Y-112870000D03*
%TD*%
D35*
%TO.C,TP30*%
X194120000Y-84430000D03*
%TD*%
D32*
%TO.C,R45*%
X208095000Y-43670000D03*
X208095000Y-44690000D03*
%TD*%
D17*
%TO.C,C141*%
X120449749Y-139065600D03*
X120449749Y-138105600D03*
%TD*%
D69*
%TO.C,R10*%
X102032500Y-65580000D03*
X104957500Y-65580000D03*
%TD*%
D12*
%TO.C,R234*%
X152280000Y-90100000D03*
X153300000Y-90100000D03*
%TD*%
D32*
%TO.C,R29*%
X165795000Y-51610000D03*
X165795000Y-52630000D03*
%TD*%
D13*
%TO.C,C99*%
X197045000Y-66580000D03*
X197045000Y-68480000D03*
%TD*%
D32*
%TO.C,R205*%
X213745000Y-112495000D03*
X213745000Y-113515000D03*
%TD*%
D36*
%TO.C,U76*%
X157482500Y-92830000D03*
D37*
X157457500Y-93330000D03*
X157457500Y-93830000D03*
X157457500Y-94330000D03*
X158057500Y-94330000D03*
X158057500Y-93830000D03*
X158057500Y-93330000D03*
X158057500Y-92830000D03*
%TD*%
D58*
%TO.C,U36*%
X173381564Y-128435600D03*
X172731564Y-128435600D03*
X172081564Y-128435600D03*
X171431564Y-128435600D03*
X171431564Y-131335600D03*
X172081564Y-131335600D03*
X172731564Y-131335600D03*
X173381564Y-131335600D03*
D59*
X172406564Y-129885600D03*
%TD*%
D82*
%TO.C,J5*%
X82145000Y-130630000D03*
X82145000Y-131280000D03*
X82145000Y-131930000D03*
X82145000Y-132580000D03*
X82145000Y-133230000D03*
D83*
X82170000Y-129430000D03*
X82170000Y-134430000D03*
D84*
X79470000Y-128405000D03*
D85*
X79470000Y-130930000D03*
X79470000Y-132930000D03*
D84*
X79470000Y-135455000D03*
%TD*%
D33*
%TO.C,R44*%
X208095000Y-42790000D03*
X208095000Y-41770000D03*
%TD*%
%TO.C,R13*%
X127445000Y-69377500D03*
X127445000Y-68357500D03*
%TD*%
D24*
%TO.C,U59*%
X211430000Y-106219600D03*
X211430000Y-106719600D03*
X211430000Y-107219600D03*
D25*
X212035000Y-107294600D03*
D24*
X212640000Y-107219600D03*
X212640000Y-106719600D03*
X212640000Y-106219600D03*
D25*
X212035000Y-106144600D03*
%TD*%
D33*
%TO.C,R83*%
X213095000Y-42790000D03*
X213095000Y-41770000D03*
%TD*%
D38*
%TO.C,R180*%
X171060000Y-119430000D03*
X170040000Y-119430000D03*
%TD*%
D23*
%TO.C,C161*%
X209745000Y-112525000D03*
X209745000Y-113485000D03*
%TD*%
D51*
%TO.C,U13*%
X169132500Y-39305000D03*
X169132500Y-38655000D03*
X169132500Y-38005000D03*
X169132500Y-37355000D03*
X166857500Y-37355000D03*
X166857500Y-38005000D03*
X166857500Y-38655000D03*
X166857500Y-39305000D03*
%TD*%
D39*
%TO.C,RN20*%
X116857500Y-74080000D03*
X116857500Y-73380000D03*
X115857500Y-73380000D03*
X115857500Y-74080000D03*
%TD*%
D16*
%TO.C,C222*%
X141630000Y-91590000D03*
X142590000Y-91590000D03*
%TD*%
D39*
%TO.C,RN23*%
X156657500Y-95730000D03*
X156657500Y-96430000D03*
X157657500Y-96430000D03*
X157657500Y-95730000D03*
%TD*%
D32*
%TO.C,R116*%
X180006564Y-125775600D03*
X180006564Y-126795600D03*
%TD*%
D15*
%TO.C,C159*%
X202440800Y-104790800D03*
X201480800Y-104790800D03*
%TD*%
D32*
%TO.C,R274*%
X142730000Y-115465176D03*
X142730000Y-116485176D03*
%TD*%
D35*
%TO.C,TP13*%
X171295000Y-46330000D03*
%TD*%
D33*
%TO.C,R203*%
X202020000Y-113565000D03*
X202020000Y-112545000D03*
%TD*%
D86*
%TO.C,U39*%
X118474749Y-143035600D03*
X118474749Y-143535600D03*
X118474749Y-144035600D03*
X118474749Y-144535600D03*
X118474749Y-145035600D03*
X118474749Y-145535600D03*
X118474749Y-146035600D03*
X118474749Y-146535600D03*
X118474749Y-147035600D03*
X118474749Y-147535600D03*
X118474749Y-148035600D03*
X118474749Y-148535600D03*
X118474749Y-149035600D03*
X118474749Y-149535600D03*
X118474749Y-150035600D03*
X118474749Y-150535600D03*
D87*
X120399749Y-152460600D03*
X120899749Y-152460600D03*
X121399749Y-152460600D03*
X121899749Y-152460600D03*
X122399749Y-152460600D03*
X122899749Y-152460600D03*
X123399749Y-152460600D03*
X123899749Y-152460600D03*
X124399749Y-152460600D03*
X124899749Y-152460600D03*
X125399749Y-152460600D03*
X125899749Y-152460600D03*
X126399749Y-152460600D03*
X126899749Y-152460600D03*
X127399749Y-152460600D03*
X127899749Y-152460600D03*
D86*
X129824749Y-150535600D03*
X129824749Y-150035600D03*
X129824749Y-149535600D03*
X129824749Y-149035600D03*
X129824749Y-148535600D03*
X129824749Y-148035600D03*
X129824749Y-147535600D03*
X129824749Y-147035600D03*
X129824749Y-146535600D03*
X129824749Y-146035600D03*
X129824749Y-145535600D03*
X129824749Y-145035600D03*
X129824749Y-144535600D03*
X129824749Y-144035600D03*
X129824749Y-143535600D03*
X129824749Y-143035600D03*
D87*
X127899749Y-141110600D03*
X127399749Y-141110600D03*
X126899749Y-141110600D03*
X126399749Y-141110600D03*
X125899749Y-141110600D03*
X125399749Y-141110600D03*
X124899749Y-141110600D03*
X124399749Y-141110600D03*
X123899749Y-141110600D03*
X123399749Y-141110600D03*
X122899749Y-141110600D03*
X122399749Y-141110600D03*
X121899749Y-141110600D03*
X121399749Y-141110600D03*
X120899749Y-141110600D03*
X120399749Y-141110600D03*
%TD*%
D33*
%TO.C,R78*%
X193545000Y-52590000D03*
X193545000Y-51570000D03*
%TD*%
D16*
%TO.C,C31*%
X125365000Y-49580000D03*
X126325000Y-49580000D03*
%TD*%
D12*
%TO.C,R92*%
X179835000Y-62030000D03*
X180855000Y-62030000D03*
%TD*%
D17*
%TO.C,C170*%
X208520000Y-82685000D03*
X208520000Y-81725000D03*
%TD*%
D33*
%TO.C,R167*%
X129224749Y-134945600D03*
X129224749Y-133925600D03*
%TD*%
D23*
%TO.C,C145*%
X121449749Y-154505600D03*
X121449749Y-155465600D03*
%TD*%
D32*
%TO.C,R106*%
X188181564Y-125775600D03*
X188181564Y-126795600D03*
%TD*%
D15*
%TO.C,C227*%
X116310000Y-104590000D03*
X115350000Y-104590000D03*
%TD*%
D88*
%TO.C,R87*%
X202045000Y-54605000D03*
X202045000Y-57530000D03*
%TD*%
D58*
%TO.C,U89*%
X156902249Y-77280000D03*
X156252249Y-77280000D03*
X155602249Y-77280000D03*
X154952249Y-77280000D03*
X154952249Y-80180000D03*
X155602249Y-80180000D03*
X156252249Y-80180000D03*
X156902249Y-80180000D03*
D59*
X155927249Y-78730000D03*
%TD*%
D35*
%TO.C,TP11*%
X136145000Y-70480000D03*
%TD*%
%TO.C,TP35*%
X147977249Y-84505000D03*
%TD*%
D32*
%TO.C,R264*%
X148030000Y-115490000D03*
X148030000Y-116510000D03*
%TD*%
%TO.C,R245*%
X147328300Y-106304800D03*
X147328300Y-107324800D03*
%TD*%
D15*
%TO.C,C214*%
X116310000Y-92090000D03*
X115350000Y-92090000D03*
%TD*%
D32*
%TO.C,R100*%
X113345000Y-70170000D03*
X113345000Y-71190000D03*
%TD*%
D35*
%TO.C,TP36*%
X107495000Y-80230000D03*
%TD*%
%TO.C,TP26*%
X172706564Y-135685600D03*
%TD*%
D18*
%TO.C,U56*%
X204815200Y-104931200D03*
D19*
X205215200Y-104981200D03*
X205615200Y-104981200D03*
X206015200Y-104981200D03*
D20*
X206615200Y-104781200D03*
X206615200Y-104381200D03*
D21*
X206615200Y-103981200D03*
D20*
X206615200Y-103581200D03*
D19*
X206015200Y-103381200D03*
X205615200Y-103381200D03*
X205215200Y-103381200D03*
D22*
X204815200Y-103381200D03*
D20*
X204215200Y-103581200D03*
X204215200Y-103981200D03*
X204215200Y-104381200D03*
D21*
X204215200Y-104781200D03*
%TD*%
D34*
%TO.C,Q4*%
X208045000Y-40630000D03*
X208045000Y-39630000D03*
X206745000Y-40130000D03*
%TD*%
D17*
%TO.C,C24*%
X122645000Y-62647500D03*
X122645000Y-61687500D03*
%TD*%
D36*
%TO.C,U61*%
X199045000Y-115505000D03*
D37*
X199020000Y-116005000D03*
X199020000Y-116505000D03*
X199020000Y-117005000D03*
X199620000Y-117005000D03*
X199620000Y-116505000D03*
X199620000Y-116005000D03*
X199620000Y-115505000D03*
%TD*%
D12*
%TO.C,R105*%
X184691564Y-141280600D03*
X185711564Y-141280600D03*
%TD*%
D17*
%TO.C,C166*%
X192320000Y-82710000D03*
X192320000Y-81750000D03*
%TD*%
D32*
%TO.C,R62*%
X112345000Y-67370000D03*
X112345000Y-68390000D03*
%TD*%
%TO.C,R86*%
X196545000Y-69810000D03*
X196545000Y-70830000D03*
%TD*%
D12*
%TO.C,R24*%
X153985000Y-48130000D03*
X155005000Y-48130000D03*
%TD*%
D32*
%TO.C,R64*%
X105245000Y-67410000D03*
X105245000Y-68430000D03*
%TD*%
D12*
%TO.C,R172*%
X216290000Y-90020000D03*
X217310000Y-90020000D03*
%TD*%
D33*
%TO.C,R111*%
X188081564Y-133995600D03*
X188081564Y-132975600D03*
%TD*%
D89*
%TO.C,U7*%
X100645000Y-55580000D03*
X100645000Y-56080000D03*
X100645000Y-56580000D03*
X100645000Y-57080000D03*
X100645000Y-57580000D03*
X100645000Y-58080000D03*
X100645000Y-58580000D03*
X100645000Y-59080000D03*
X100645000Y-59580000D03*
D90*
X101245000Y-59930000D03*
X101745000Y-59930000D03*
X102245000Y-59930000D03*
X102745000Y-59930000D03*
X103245000Y-59930000D03*
X103745000Y-59930000D03*
D89*
X104345000Y-59580000D03*
X104345000Y-59080000D03*
D91*
X103645000Y-58580000D03*
X103645000Y-58080000D03*
X103645000Y-57580000D03*
X103645000Y-57080000D03*
X103645000Y-56580000D03*
D89*
X104345000Y-56080000D03*
X104345000Y-55580000D03*
D90*
X103745000Y-55230000D03*
X103245000Y-55230000D03*
X102745000Y-55230000D03*
X102245000Y-55230000D03*
X101745000Y-55230000D03*
X101245000Y-55230000D03*
%TD*%
D38*
%TO.C,R32*%
X150105000Y-41830000D03*
X149085000Y-41830000D03*
%TD*%
D33*
%TO.C,R270*%
X148877249Y-82815000D03*
X148877249Y-81795000D03*
%TD*%
D43*
%TO.C,RN21*%
X155417964Y-127458407D03*
X155417964Y-126958407D03*
X155417964Y-126458407D03*
X155417964Y-125958407D03*
X154417964Y-125958407D03*
X154417964Y-126458407D03*
X154417964Y-126958407D03*
X154417964Y-127458407D03*
%TD*%
D15*
%TO.C,C108*%
X185681564Y-147280600D03*
X184721564Y-147280600D03*
%TD*%
D32*
%TO.C,R200*%
X210003000Y-104177600D03*
X210003000Y-105197600D03*
%TD*%
D33*
%TO.C,R252*%
X161757500Y-101340000D03*
X161757500Y-100320000D03*
%TD*%
D32*
%TO.C,R187*%
X177130000Y-85680000D03*
X177130000Y-86700000D03*
%TD*%
D13*
%TO.C,C46*%
X170495000Y-48380000D03*
X170495000Y-50280000D03*
%TD*%
D60*
%TO.C,R169*%
X216800000Y-92607500D03*
X216800000Y-94432500D03*
%TD*%
D12*
%TO.C,R55*%
X149035000Y-62030000D03*
X150055000Y-62030000D03*
%TD*%
D35*
%TO.C,TP7*%
X97645000Y-67680000D03*
%TD*%
D92*
%TO.C,J9*%
X212682500Y-148680000D03*
X212682500Y-148180000D03*
X212682500Y-147680000D03*
X212682500Y-147180000D03*
X212682500Y-146680000D03*
X212682500Y-146180000D03*
X212682500Y-145680000D03*
X212682500Y-145180000D03*
X212682500Y-144680000D03*
X212682500Y-144180000D03*
X212682500Y-143680000D03*
X212682500Y-143180000D03*
X212682500Y-142680000D03*
X212682500Y-142180000D03*
X212682500Y-141680000D03*
X212682500Y-141180000D03*
X212682500Y-140680000D03*
X212682500Y-140180000D03*
X212682500Y-139680000D03*
X212682500Y-139180000D03*
X212682500Y-138680000D03*
X212682500Y-138180000D03*
X212682500Y-137680000D03*
X212682500Y-137180000D03*
X212682500Y-136680000D03*
X212682500Y-136180000D03*
X212682500Y-135680000D03*
X212682500Y-135180000D03*
X212682500Y-134680000D03*
X212682500Y-134180000D03*
X212682500Y-133680000D03*
X212682500Y-133180000D03*
X212682500Y-132680000D03*
X212682500Y-132180000D03*
X212682500Y-131680000D03*
X212682500Y-131180000D03*
X212682500Y-130680000D03*
X212682500Y-130180000D03*
X212682500Y-129680000D03*
X212682500Y-129180000D03*
%TD*%
D80*
%TO.C,U54*%
X84045000Y-130880000D03*
X84045000Y-131380000D03*
D81*
X84045000Y-131880000D03*
D80*
X84045000Y-132380000D03*
X84045000Y-132880000D03*
X84845000Y-132880000D03*
X84845000Y-132380000D03*
D81*
X84845000Y-131880000D03*
D80*
X84845000Y-131380000D03*
X84845000Y-130880000D03*
%TD*%
D23*
%TO.C,C143*%
X127849749Y-154505600D03*
X127849749Y-155465600D03*
%TD*%
D15*
%TO.C,C134*%
X147275349Y-151545200D03*
X146315349Y-151545200D03*
%TD*%
D32*
%TO.C,R194*%
X203942000Y-106213200D03*
X203942000Y-107233200D03*
%TD*%
D38*
%TO.C,R70*%
X180855000Y-40780000D03*
X179835000Y-40780000D03*
%TD*%
D33*
%TO.C,R214*%
X193320000Y-82740000D03*
X193320000Y-81720000D03*
%TD*%
D29*
%TO.C,U87*%
X143830000Y-118180000D03*
X143830000Y-118580000D03*
X143830000Y-118980000D03*
X143830000Y-119380000D03*
X143830000Y-119780000D03*
D18*
X144530000Y-119830000D03*
D63*
X145230000Y-119780000D03*
D29*
X145230000Y-119380000D03*
X145230000Y-118980000D03*
X145230000Y-118580000D03*
X145230000Y-118180000D03*
D18*
X144530000Y-118130000D03*
%TD*%
D38*
%TO.C,R23*%
X126355000Y-50680000D03*
X125335000Y-50680000D03*
%TD*%
D35*
%TO.C,TP12*%
X150595000Y-45730000D03*
%TD*%
D32*
%TO.C,R211*%
X194420000Y-74520000D03*
X194420000Y-75540000D03*
%TD*%
D18*
%TO.C,U81*%
X152214700Y-105022800D03*
D19*
X152614700Y-105072800D03*
X153014700Y-105072800D03*
X153414700Y-105072800D03*
D20*
X154014700Y-104872800D03*
X154014700Y-104472800D03*
D21*
X154014700Y-104072800D03*
D20*
X154014700Y-103672800D03*
D19*
X153414700Y-103472800D03*
X153014700Y-103472800D03*
X152614700Y-103472800D03*
D22*
X152214700Y-103472800D03*
D20*
X151614700Y-103672800D03*
X151614700Y-104072800D03*
X151614700Y-104472800D03*
D21*
X151614700Y-104872800D03*
%TD*%
D13*
%TO.C,C64*%
X170445000Y-66580000D03*
X170445000Y-68480000D03*
%TD*%
D35*
%TO.C,TP15*%
X150545000Y-63930000D03*
%TD*%
D12*
%TO.C,R273*%
X121757364Y-116564800D03*
X122777364Y-116564800D03*
%TD*%
D38*
%TO.C,R147*%
X150501749Y-148852800D03*
X149481749Y-148852800D03*
%TD*%
D29*
%TO.C,U74*%
X154167964Y-122508407D03*
D21*
X154117964Y-122908407D03*
X154117964Y-123308407D03*
X154117964Y-123708407D03*
D19*
X154317964Y-124308407D03*
X154717964Y-124308407D03*
D22*
X155117964Y-124308407D03*
D19*
X155517964Y-124308407D03*
D21*
X155717964Y-123708407D03*
X155717964Y-123308407D03*
X155717964Y-122908407D03*
D20*
X155717964Y-122508407D03*
D19*
X155517964Y-121908407D03*
X155117964Y-121908407D03*
X154717964Y-121908407D03*
D22*
X154317964Y-121908407D03*
%TD*%
D29*
%TO.C,U69*%
X199545000Y-123805000D03*
D21*
X199495000Y-124205000D03*
X199495000Y-124605000D03*
X199495000Y-125005000D03*
D19*
X199695000Y-125605000D03*
X200095000Y-125605000D03*
D22*
X200495000Y-125605000D03*
D19*
X200895000Y-125605000D03*
D21*
X201095000Y-125005000D03*
X201095000Y-124605000D03*
X201095000Y-124205000D03*
D20*
X201095000Y-123805000D03*
D19*
X200895000Y-123205000D03*
X200495000Y-123205000D03*
X200095000Y-123205000D03*
D22*
X199695000Y-123205000D03*
%TD*%
D17*
%TO.C,C205*%
X141827249Y-82810000D03*
X141827249Y-81850000D03*
%TD*%
D32*
%TO.C,R63*%
X103245000Y-67410000D03*
X103245000Y-68430000D03*
%TD*%
D15*
%TO.C,C86*%
X174325000Y-41780000D03*
X173365000Y-41780000D03*
%TD*%
D56*
%TO.C,Q1*%
X120082500Y-45130000D03*
X120082500Y-47030000D03*
X121957500Y-46080000D03*
%TD*%
D38*
%TO.C,R95*%
X174355000Y-61030000D03*
X173335000Y-61030000D03*
%TD*%
D15*
%TO.C,C67*%
X143525000Y-59030000D03*
X142565000Y-59030000D03*
%TD*%
D38*
%TO.C,R25*%
X162805000Y-48130000D03*
X161785000Y-48130000D03*
%TD*%
D62*
%TO.C,D5*%
X209345000Y-42442500D03*
X209345000Y-44017500D03*
%TD*%
D33*
%TO.C,R40*%
X153995000Y-52640000D03*
X153995000Y-51620000D03*
%TD*%
D16*
%TO.C,C186*%
X195630000Y-91590000D03*
X196590000Y-91590000D03*
%TD*%
D35*
%TO.C,TP5*%
X117545000Y-46080000D03*
%TD*%
D33*
%TO.C,R145*%
X144499749Y-127745600D03*
X144499749Y-126725600D03*
%TD*%
D17*
%TO.C,C184*%
X185730000Y-86690000D03*
X185730000Y-85730000D03*
%TD*%
D23*
%TO.C,C209*%
X143730000Y-115500000D03*
X143730000Y-116460000D03*
%TD*%
D32*
%TO.C,R221*%
X205420000Y-120870000D03*
X205420000Y-121890000D03*
%TD*%
%TO.C,R16*%
X98745000Y-57770000D03*
X98745000Y-58790000D03*
%TD*%
D57*
%TO.C,C30*%
X129757500Y-54030000D03*
X131657500Y-54030000D03*
%TD*%
D29*
%TO.C,U53*%
X161905000Y-114030000D03*
D21*
X161855000Y-114430000D03*
X161855000Y-114830000D03*
X161855000Y-115230000D03*
D19*
X162055000Y-115830000D03*
X162455000Y-115830000D03*
D22*
X162855000Y-115830000D03*
D19*
X163255000Y-115830000D03*
D21*
X163455000Y-115230000D03*
X163455000Y-114830000D03*
X163455000Y-114430000D03*
D20*
X163455000Y-114030000D03*
D19*
X163255000Y-113430000D03*
X162855000Y-113430000D03*
X162455000Y-113430000D03*
D22*
X162055000Y-113430000D03*
%TD*%
D44*
%TO.C,L6*%
X184637500Y-42080000D03*
X193652500Y-42080000D03*
%TD*%
D15*
%TO.C,C91*%
X195525000Y-66330000D03*
X194565000Y-66330000D03*
%TD*%
D16*
%TO.C,C54*%
X151965000Y-66330000D03*
X152925000Y-66330000D03*
%TD*%
D29*
%TO.C,U78*%
X154180000Y-113980000D03*
D21*
X154130000Y-114380000D03*
X154130000Y-114780000D03*
X154130000Y-115180000D03*
D19*
X154330000Y-115780000D03*
X154730000Y-115780000D03*
D22*
X155130000Y-115780000D03*
D19*
X155530000Y-115780000D03*
D21*
X155730000Y-115180000D03*
X155730000Y-114780000D03*
X155730000Y-114380000D03*
D20*
X155730000Y-113980000D03*
D19*
X155530000Y-113380000D03*
X155130000Y-113380000D03*
X154730000Y-113380000D03*
D22*
X154330000Y-113380000D03*
%TD*%
D38*
%TO.C,R186*%
X202470800Y-103774800D03*
X201450800Y-103774800D03*
%TD*%
D15*
%TO.C,C149*%
X217280000Y-96020000D03*
X216320000Y-96020000D03*
%TD*%
D88*
%TO.C,R49*%
X171245000Y-54605000D03*
X171245000Y-57530000D03*
%TD*%
D15*
%TO.C,C32*%
X135025000Y-58080000D03*
X134065000Y-58080000D03*
%TD*%
D39*
%TO.C,RN26*%
X159557500Y-107180000D03*
X159557500Y-106480000D03*
X158557500Y-106480000D03*
X158557500Y-107180000D03*
%TD*%
D13*
%TO.C,C95*%
X181245000Y-66580000D03*
X181245000Y-68480000D03*
%TD*%
D33*
%TO.C,R33*%
X163795000Y-52640000D03*
X163795000Y-51620000D03*
%TD*%
D24*
%TO.C,U58*%
X201355800Y-106170400D03*
X201355800Y-106670400D03*
X201355800Y-107170400D03*
D25*
X201960800Y-107245400D03*
D24*
X202565800Y-107170400D03*
X202565800Y-106670400D03*
X202565800Y-106170400D03*
D25*
X201960800Y-106095400D03*
%TD*%
D16*
%TO.C,C200*%
X125997500Y-71292500D03*
X126957500Y-71292500D03*
%TD*%
D38*
%TO.C,R5*%
X111205000Y-50280000D03*
X110185000Y-50280000D03*
%TD*%
D33*
%TO.C,R157*%
X136324749Y-127745600D03*
X136324749Y-126725600D03*
%TD*%
D26*
%TO.C,U46*%
X211430000Y-92575000D03*
X211430000Y-93225000D03*
X211430000Y-93875000D03*
X211430000Y-94525000D03*
X214530000Y-94525000D03*
X214530000Y-93875000D03*
X214530000Y-93225000D03*
X214530000Y-92575000D03*
D27*
X212980000Y-93550000D03*
%TD*%
D32*
%TO.C,R243*%
X123130000Y-85720000D03*
X123130000Y-86740000D03*
%TD*%
%TO.C,R162*%
X130324749Y-126725600D03*
X130324749Y-127745600D03*
%TD*%
D17*
%TO.C,C188*%
X174130000Y-86690000D03*
X174130000Y-85730000D03*
%TD*%
D23*
%TO.C,C84*%
X192545000Y-49100000D03*
X192545000Y-50060000D03*
%TD*%
D49*
%TO.C,RN3*%
X194449964Y-152025600D03*
X193749964Y-152025600D03*
X193749964Y-153025600D03*
X194449964Y-153025600D03*
%TD*%
D86*
%TO.C,U31*%
X161156564Y-142085600D03*
X161156564Y-142585600D03*
X161156564Y-143085600D03*
X161156564Y-143585600D03*
X161156564Y-144085600D03*
X161156564Y-144585600D03*
X161156564Y-145085600D03*
X161156564Y-145585600D03*
X161156564Y-146085600D03*
X161156564Y-146585600D03*
X161156564Y-147085600D03*
X161156564Y-147585600D03*
X161156564Y-148085600D03*
X161156564Y-148585600D03*
X161156564Y-149085600D03*
X161156564Y-149585600D03*
D87*
X163081564Y-151510600D03*
X163581564Y-151510600D03*
X164081564Y-151510600D03*
X164581564Y-151510600D03*
X165081564Y-151510600D03*
X165581564Y-151510600D03*
X166081564Y-151510600D03*
X166581564Y-151510600D03*
X167081564Y-151510600D03*
X167581564Y-151510600D03*
X168081564Y-151510600D03*
X168581564Y-151510600D03*
X169081564Y-151510600D03*
X169581564Y-151510600D03*
X170081564Y-151510600D03*
X170581564Y-151510600D03*
D86*
X172506564Y-149585600D03*
X172506564Y-149085600D03*
X172506564Y-148585600D03*
X172506564Y-148085600D03*
X172506564Y-147585600D03*
X172506564Y-147085600D03*
X172506564Y-146585600D03*
X172506564Y-146085600D03*
X172506564Y-145585600D03*
X172506564Y-145085600D03*
X172506564Y-144585600D03*
X172506564Y-144085600D03*
X172506564Y-143585600D03*
X172506564Y-143085600D03*
X172506564Y-142585600D03*
X172506564Y-142085600D03*
D87*
X170581564Y-140160600D03*
X170081564Y-140160600D03*
X169581564Y-140160600D03*
X169081564Y-140160600D03*
X168581564Y-140160600D03*
X168081564Y-140160600D03*
X167581564Y-140160600D03*
X167081564Y-140160600D03*
X166581564Y-140160600D03*
X166081564Y-140160600D03*
X165581564Y-140160600D03*
X165081564Y-140160600D03*
X164581564Y-140160600D03*
X164081564Y-140160600D03*
X163581564Y-140160600D03*
X163081564Y-140160600D03*
%TD*%
D93*
%TO.C,C22*%
X100295000Y-64780000D03*
X98395000Y-64780000D03*
%TD*%
D61*
%TO.C,C40*%
X145795000Y-46030000D03*
X145795000Y-51430000D03*
%TD*%
D32*
%TO.C,R199*%
X199928800Y-104128400D03*
X199928800Y-105148400D03*
%TD*%
D39*
%TO.C,RN2*%
X189985164Y-155314000D03*
X189985164Y-154614000D03*
X188985164Y-154614000D03*
X188985164Y-155314000D03*
%TD*%
D58*
%TO.C,U71*%
X202795000Y-77155000D03*
X202145000Y-77155000D03*
X201495000Y-77155000D03*
X200845000Y-77155000D03*
X200845000Y-80055000D03*
X201495000Y-80055000D03*
X202145000Y-80055000D03*
X202795000Y-80055000D03*
D59*
X201820000Y-78605000D03*
%TD*%
D26*
%TO.C,U52*%
X186170000Y-118880000D03*
X186170000Y-119530000D03*
X186170000Y-120180000D03*
X186170000Y-120830000D03*
X189270000Y-120830000D03*
X189270000Y-120180000D03*
X189270000Y-119530000D03*
X189270000Y-118880000D03*
D27*
X187720000Y-119855000D03*
%TD*%
D64*
%TO.C,U2*%
X128820000Y-44080000D03*
X128820000Y-42130000D03*
X128820000Y-42780000D03*
X128820000Y-43430000D03*
D65*
X130475000Y-43105000D03*
D64*
X131470000Y-42130000D03*
X131470000Y-42780000D03*
X131470000Y-43430000D03*
X131470000Y-44080000D03*
%TD*%
D32*
%TO.C,R71*%
X196545000Y-51560000D03*
X196545000Y-52580000D03*
%TD*%
D38*
%TO.C,R188*%
X212545000Y-103824000D03*
X211525000Y-103824000D03*
%TD*%
D75*
%TO.C,U23*%
X178020000Y-42555000D03*
D76*
X177845000Y-42730000D03*
D77*
X178020000Y-42080000D03*
X178020000Y-41630000D03*
D75*
X178020000Y-41155000D03*
D76*
X177845000Y-40980000D03*
D78*
X177370000Y-41855000D03*
X176870000Y-41855000D03*
D76*
X176395000Y-40980000D03*
D75*
X176220000Y-41155000D03*
D77*
X176220000Y-41630000D03*
X176220000Y-42080000D03*
D76*
X176395000Y-42730000D03*
D75*
X176220000Y-42555000D03*
%TD*%
D94*
%TO.C,U26*%
X200145000Y-59630000D03*
D95*
X200320000Y-59455000D03*
D96*
X200145000Y-60105000D03*
X200145000Y-60555000D03*
D94*
X200145000Y-61030000D03*
D95*
X200320000Y-61205000D03*
D97*
X200795000Y-60330000D03*
X201295000Y-60330000D03*
D95*
X201770000Y-61205000D03*
D94*
X201945000Y-61030000D03*
D96*
X201945000Y-60555000D03*
X201945000Y-60105000D03*
D95*
X201770000Y-59455000D03*
D94*
X201945000Y-59630000D03*
%TD*%
D75*
%TO.C,U19*%
X147220000Y-60805000D03*
D76*
X147045000Y-60980000D03*
D77*
X147220000Y-60330000D03*
X147220000Y-59880000D03*
D75*
X147220000Y-59405000D03*
D76*
X147045000Y-59230000D03*
D78*
X146570000Y-60105000D03*
X146070000Y-60105000D03*
D76*
X145595000Y-59230000D03*
D75*
X145420000Y-59405000D03*
D77*
X145420000Y-59880000D03*
X145420000Y-60330000D03*
D76*
X145595000Y-60980000D03*
D75*
X145420000Y-60805000D03*
%TD*%
D38*
%TO.C,R142*%
X132859749Y-146285600D03*
X131839749Y-146285600D03*
%TD*%
D15*
%TO.C,C87*%
X174325000Y-43780000D03*
X173365000Y-43780000D03*
%TD*%
D33*
%TO.C,R166*%
X130924749Y-134945600D03*
X130924749Y-133925600D03*
%TD*%
D23*
%TO.C,C167*%
X207420000Y-120900000D03*
X207420000Y-121860000D03*
%TD*%
D32*
%TO.C,R190*%
X199928800Y-106213200D03*
X199928800Y-107233200D03*
%TD*%
D51*
%TO.C,U25*%
X199882500Y-57505000D03*
X199882500Y-56855000D03*
X199882500Y-56205000D03*
X199882500Y-55555000D03*
X197607500Y-55555000D03*
X197607500Y-56205000D03*
X197607500Y-56855000D03*
X197607500Y-57505000D03*
%TD*%
D39*
%TO.C,RN11*%
X180720000Y-121755000D03*
X180720000Y-122455000D03*
X181720000Y-122455000D03*
X181720000Y-121755000D03*
%TD*%
D33*
%TO.C,R134*%
X171906564Y-133995600D03*
X171906564Y-132975600D03*
%TD*%
D15*
%TO.C,C56*%
X169525000Y-54330000D03*
X168565000Y-54330000D03*
%TD*%
D36*
%TO.C,U50*%
X181545000Y-118855000D03*
D37*
X181520000Y-119355000D03*
X181520000Y-119855000D03*
X181520000Y-120355000D03*
X182120000Y-120355000D03*
X182120000Y-119855000D03*
X182120000Y-119355000D03*
X182120000Y-118855000D03*
%TD*%
D32*
%TO.C,R14*%
X98745000Y-55770000D03*
X98745000Y-56790000D03*
%TD*%
D33*
%TO.C,R125*%
X181606564Y-133995600D03*
X181606564Y-132975600D03*
%TD*%
D17*
%TO.C,C165*%
X196020000Y-82710000D03*
X196020000Y-81750000D03*
%TD*%
D32*
%TO.C,R208*%
X211745000Y-112495000D03*
X211745000Y-113515000D03*
%TD*%
D23*
%TO.C,C102*%
X192545000Y-67350000D03*
X192545000Y-68310000D03*
%TD*%
D16*
%TO.C,C156*%
X179749053Y-71305200D03*
X180709053Y-71305200D03*
%TD*%
D50*
%TO.C,D7*%
X157581564Y-131335600D03*
X159681564Y-131335600D03*
%TD*%
D13*
%TO.C,C77*%
X181245000Y-48330000D03*
X181245000Y-50230000D03*
%TD*%
D32*
%TO.C,R69*%
X210595000Y-43670000D03*
X210595000Y-44690000D03*
%TD*%
D13*
%TO.C,C82*%
X201245000Y-48330000D03*
X201245000Y-50230000D03*
%TD*%
D79*
%TO.C,L3*%
X134068500Y-61530000D03*
X138921500Y-61530000D03*
%TD*%
D32*
%TO.C,R262*%
X156527249Y-74620000D03*
X156527249Y-75640000D03*
%TD*%
D38*
%TO.C,R43*%
X162755000Y-66330000D03*
X161735000Y-66330000D03*
%TD*%
D13*
%TO.C,C6*%
X103545000Y-44280000D03*
X103545000Y-46180000D03*
%TD*%
D15*
%TO.C,C73*%
X195525000Y-48080000D03*
X194565000Y-48080000D03*
%TD*%
D33*
%TO.C,R52*%
X164745000Y-70830000D03*
X164745000Y-69810000D03*
%TD*%
D38*
%TO.C,R110*%
X175541564Y-144335600D03*
X174521564Y-144335600D03*
%TD*%
D14*
%TO.C,C79*%
X197045000Y-46730000D03*
X197045000Y-44830000D03*
%TD*%
D32*
%TO.C,R97*%
X105245000Y-70170000D03*
X105245000Y-71190000D03*
%TD*%
D12*
%TO.C,R66*%
X184735000Y-48080000D03*
X185755000Y-48080000D03*
%TD*%
D35*
%TO.C,TP6*%
X139345000Y-38980000D03*
%TD*%
D33*
%TO.C,R170*%
X160255000Y-114440000D03*
X160255000Y-113420000D03*
%TD*%
D16*
%TO.C,C219*%
X141630000Y-102490000D03*
X142590000Y-102490000D03*
%TD*%
D32*
%TO.C,R210*%
X193420000Y-74520000D03*
X193420000Y-75540000D03*
%TD*%
D35*
%TO.C,TP25*%
X180706564Y-135685600D03*
%TD*%
D16*
%TO.C,C117*%
X177506364Y-149380800D03*
X178466364Y-149380800D03*
%TD*%
D33*
%TO.C,R266*%
X154527249Y-75640000D03*
X154527249Y-74620000D03*
%TD*%
D49*
%TO.C,RN6*%
X151768149Y-152975600D03*
X151068149Y-152975600D03*
X151068149Y-153975600D03*
X151768149Y-153975600D03*
%TD*%
D15*
%TO.C,C154*%
X192100000Y-117455000D03*
X191140000Y-117455000D03*
%TD*%
D33*
%TO.C,R164*%
X133304549Y-154640800D03*
X133304549Y-153620800D03*
%TD*%
D26*
%TO.C,U29*%
X179831564Y-143835600D03*
X179831564Y-144485600D03*
X179831564Y-145135600D03*
X179831564Y-145785600D03*
X182931564Y-145785600D03*
X182931564Y-145135600D03*
X182931564Y-144485600D03*
X182931564Y-143835600D03*
D27*
X181381564Y-144810600D03*
%TD*%
D32*
%TO.C,R65*%
X104245000Y-67410000D03*
X104245000Y-68430000D03*
%TD*%
%TO.C,R119*%
X187445164Y-152017600D03*
X187445164Y-153037600D03*
%TD*%
D16*
%TO.C,C4*%
X128840000Y-40630000D03*
X129800000Y-40630000D03*
%TD*%
D15*
%TO.C,C51*%
X143575000Y-43830000D03*
X142615000Y-43830000D03*
%TD*%
D60*
%TO.C,R178*%
X178235000Y-119017500D03*
X178235000Y-120842500D03*
%TD*%
D94*
%TO.C,U14*%
X169395000Y-41430000D03*
D95*
X169570000Y-41255000D03*
D96*
X169395000Y-41905000D03*
X169395000Y-42355000D03*
D94*
X169395000Y-42830000D03*
D95*
X169570000Y-43005000D03*
D97*
X170045000Y-42130000D03*
X170545000Y-42130000D03*
D95*
X171020000Y-43005000D03*
D94*
X171195000Y-42830000D03*
D96*
X171195000Y-42355000D03*
X171195000Y-41905000D03*
D95*
X171020000Y-41255000D03*
D94*
X171195000Y-41430000D03*
%TD*%
D17*
%TO.C,C71*%
X161745000Y-70810000D03*
X161745000Y-69850000D03*
%TD*%
D32*
%TO.C,R216*%
X210620000Y-74495000D03*
X210620000Y-75515000D03*
%TD*%
D17*
%TO.C,C119*%
X170906564Y-133965600D03*
X170906564Y-133005600D03*
%TD*%
D94*
%TO.C,U22*%
X200145000Y-41380000D03*
D95*
X200320000Y-41205000D03*
D96*
X200145000Y-41855000D03*
X200145000Y-42305000D03*
D94*
X200145000Y-42780000D03*
D95*
X200320000Y-42955000D03*
D97*
X200795000Y-42080000D03*
X201295000Y-42080000D03*
D95*
X201770000Y-42955000D03*
D94*
X201945000Y-42780000D03*
D96*
X201945000Y-42305000D03*
X201945000Y-41855000D03*
D95*
X201770000Y-41205000D03*
D94*
X201945000Y-41380000D03*
%TD*%
D70*
%TO.C,U10*%
X129270000Y-50280000D03*
X129270000Y-51230000D03*
X129270000Y-52180000D03*
X131545000Y-52180000D03*
X131545000Y-51230000D03*
X131545000Y-50280000D03*
%TD*%
D32*
%TO.C,R152*%
X144763349Y-152967600D03*
X144763349Y-153987600D03*
%TD*%
D33*
%TO.C,R34*%
X164795000Y-52630000D03*
X164795000Y-51610000D03*
%TD*%
D38*
%TO.C,R241*%
X153068700Y-101174000D03*
X152048700Y-101174000D03*
%TD*%
D15*
%TO.C,C225*%
X116310000Y-93090000D03*
X115350000Y-93090000D03*
%TD*%
D16*
%TO.C,C27*%
X133965000Y-48730000D03*
X134925000Y-48730000D03*
%TD*%
D17*
%TO.C,C138*%
X128224749Y-134915600D03*
X128224749Y-133955600D03*
%TD*%
%TO.C,C137*%
X131924749Y-134915600D03*
X131924749Y-133955600D03*
%TD*%
D35*
%TO.C,TP23*%
X203995000Y-59580000D03*
%TD*%
D15*
%TO.C,C140*%
X116329749Y-148085600D03*
X115369749Y-148085600D03*
%TD*%
D38*
%TO.C,R36*%
X150105000Y-42830000D03*
X149085000Y-42830000D03*
%TD*%
D23*
%TO.C,C153*%
X180220000Y-119425000D03*
X180220000Y-120385000D03*
%TD*%
D32*
%TO.C,R107*%
X189181564Y-125775600D03*
X189181564Y-126795600D03*
%TD*%
D16*
%TO.C,C90*%
X182765000Y-66330000D03*
X183725000Y-66330000D03*
%TD*%
D15*
%TO.C,C68*%
X143525000Y-60030000D03*
X142565000Y-60030000D03*
%TD*%
D32*
%TO.C,R226*%
X202420000Y-74495000D03*
X202420000Y-75515000D03*
%TD*%
D15*
%TO.C,C85*%
X174325000Y-40780000D03*
X173365000Y-40780000D03*
%TD*%
%TO.C,C105*%
X174325000Y-62030000D03*
X173365000Y-62030000D03*
%TD*%
D17*
%TO.C,C210*%
X149877249Y-82785000D03*
X149877249Y-81825000D03*
%TD*%
D38*
%TO.C,R115*%
X193185564Y-146886800D03*
X192165564Y-146886800D03*
%TD*%
D32*
%TO.C,R247*%
X151341500Y-106304800D03*
X151341500Y-107324800D03*
%TD*%
D38*
%TO.C,R21*%
X122645000Y-53380000D03*
X121625000Y-53380000D03*
%TD*%
D15*
%TO.C,C133*%
X147275349Y-149513200D03*
X146315349Y-149513200D03*
%TD*%
D38*
%TO.C,R91*%
X180855000Y-61030000D03*
X179835000Y-61030000D03*
%TD*%
D12*
%TO.C,R81*%
X184735000Y-66330000D03*
X185755000Y-66330000D03*
%TD*%
D98*
%TO.C,U5*%
X129170000Y-48417500D03*
X130120000Y-48417500D03*
X131070000Y-48417500D03*
X131070000Y-46142500D03*
X130120000Y-46142500D03*
X129170000Y-46142500D03*
%TD*%
D23*
%TO.C,C124*%
X170531564Y-153555600D03*
X170531564Y-154515600D03*
%TD*%
D33*
%TO.C,R75*%
X195545000Y-52580000D03*
X195545000Y-51560000D03*
%TD*%
D38*
%TO.C,R242*%
X149870300Y-103866400D03*
X148850300Y-103866400D03*
%TD*%
D13*
%TO.C,C33*%
X139206000Y-65180000D03*
X139206000Y-67080000D03*
%TD*%
D39*
%TO.C,RN10*%
X167350000Y-121830000D03*
X167350000Y-122530000D03*
X168350000Y-122530000D03*
X168350000Y-121830000D03*
%TD*%
D34*
%TO.C,Q3*%
X205545000Y-40630000D03*
X205545000Y-39630000D03*
X204245000Y-40130000D03*
%TD*%
D32*
%TO.C,R102*%
X165131564Y-137125600D03*
X165131564Y-138145600D03*
%TD*%
D38*
%TO.C,R67*%
X193555000Y-48080000D03*
X192535000Y-48080000D03*
%TD*%
D23*
%TO.C,C216*%
X132730000Y-111910000D03*
X132730000Y-112870000D03*
%TD*%
D33*
%TO.C,R218*%
X199595000Y-121935000D03*
X199595000Y-120915000D03*
%TD*%
%TO.C,R132*%
X171006564Y-126795600D03*
X171006564Y-125775600D03*
%TD*%
D15*
%TO.C,C92*%
X200325000Y-54330000D03*
X199365000Y-54330000D03*
%TD*%
D33*
%TO.C,R18*%
X121645000Y-62667500D03*
X121645000Y-61647500D03*
%TD*%
D66*
%TO.C,D2*%
X124157500Y-67667500D03*
X125732500Y-67667500D03*
%TD*%
D17*
%TO.C,C3*%
X135545000Y-45760000D03*
X135545000Y-44800000D03*
%TD*%
D35*
%TO.C,TP4*%
X95645000Y-42330000D03*
%TD*%
D15*
%TO.C,C13*%
X113035000Y-64880000D03*
X112075000Y-64880000D03*
%TD*%
D13*
%TO.C,C7*%
X101445000Y-44280000D03*
X101445000Y-46180000D03*
%TD*%
D32*
%TO.C,R201*%
X173430000Y-111870000D03*
X173430000Y-112890000D03*
%TD*%
D36*
%TO.C,U60*%
X209770000Y-115455000D03*
D37*
X209745000Y-115955000D03*
X209745000Y-116455000D03*
X209745000Y-116955000D03*
X210345000Y-116955000D03*
X210345000Y-116455000D03*
X210345000Y-115955000D03*
X210345000Y-115455000D03*
%TD*%
D13*
%TO.C,C41*%
X150495000Y-48380000D03*
X150495000Y-50280000D03*
%TD*%
D88*
%TO.C,R72*%
X202045000Y-36355000D03*
X202045000Y-39280000D03*
%TD*%
D35*
%TO.C,TP29*%
X130024749Y-136635600D03*
%TD*%
D33*
%TO.C,R233*%
X152530000Y-114390000D03*
X152530000Y-113370000D03*
%TD*%
D35*
%TO.C,TP31*%
X210320000Y-84405000D03*
%TD*%
D94*
%TO.C,U18*%
X169345000Y-59630000D03*
D95*
X169520000Y-59455000D03*
D96*
X169345000Y-60105000D03*
X169345000Y-60555000D03*
D94*
X169345000Y-61030000D03*
D95*
X169520000Y-61205000D03*
D97*
X169995000Y-60330000D03*
X170495000Y-60330000D03*
D95*
X170970000Y-61205000D03*
D94*
X171145000Y-61030000D03*
D96*
X171145000Y-60555000D03*
X171145000Y-60105000D03*
D95*
X170970000Y-59455000D03*
D94*
X171145000Y-59630000D03*
%TD*%
D29*
%TO.C,U35*%
X177636364Y-151280800D03*
D21*
X177586364Y-151680800D03*
X177586364Y-152080800D03*
X177586364Y-152480800D03*
D19*
X177786364Y-153080800D03*
X178186364Y-153080800D03*
D22*
X178586364Y-153080800D03*
D19*
X178986364Y-153080800D03*
D21*
X179186364Y-152480800D03*
X179186364Y-152080800D03*
X179186364Y-151680800D03*
D20*
X179186364Y-151280800D03*
D19*
X178986364Y-150680800D03*
X178586364Y-150680800D03*
X178186364Y-150680800D03*
D22*
X177786364Y-150680800D03*
%TD*%
D33*
%TO.C,R212*%
X192420000Y-75540000D03*
X192420000Y-74520000D03*
%TD*%
D15*
%TO.C,C190*%
X170310000Y-98490000D03*
X169350000Y-98490000D03*
%TD*%
D14*
%TO.C,C43*%
X166295000Y-46780000D03*
X166295000Y-44880000D03*
%TD*%
D32*
%TO.C,R60*%
X111345000Y-67370000D03*
X111345000Y-68390000D03*
%TD*%
D12*
%TO.C,R189*%
X181909053Y-71305200D03*
X182929053Y-71305200D03*
%TD*%
D33*
%TO.C,R202*%
X212745000Y-113515000D03*
X212745000Y-112495000D03*
%TD*%
D13*
%TO.C,C34*%
X137106000Y-65180000D03*
X137106000Y-67080000D03*
%TD*%
D29*
%TO.C,U68*%
X209670000Y-123780000D03*
D21*
X209620000Y-124180000D03*
X209620000Y-124580000D03*
X209620000Y-124980000D03*
D19*
X209820000Y-125580000D03*
X210220000Y-125580000D03*
D22*
X210620000Y-125580000D03*
D19*
X211020000Y-125580000D03*
D21*
X211220000Y-124980000D03*
X211220000Y-124580000D03*
X211220000Y-124180000D03*
D20*
X211220000Y-123780000D03*
D19*
X211020000Y-123180000D03*
X210620000Y-123180000D03*
X210220000Y-123180000D03*
D22*
X209820000Y-123180000D03*
%TD*%
D36*
%TO.C,U83*%
X158782500Y-103280000D03*
D37*
X158757500Y-103780000D03*
X158757500Y-104280000D03*
X158757500Y-104780000D03*
X159357500Y-104780000D03*
X159357500Y-104280000D03*
X159357500Y-103780000D03*
X159357500Y-103280000D03*
%TD*%
D49*
%TO.C,RN25*%
X154333100Y-106312800D03*
X153633100Y-106312800D03*
X153633100Y-107312800D03*
X154333100Y-107312800D03*
%TD*%
D50*
%TO.C,D9*%
X114899749Y-132285600D03*
X116999749Y-132285600D03*
%TD*%
D61*
%TO.C,C9*%
X108745000Y-41580000D03*
X108745000Y-46980000D03*
%TD*%
D33*
%TO.C,R158*%
X138924749Y-134945600D03*
X138924749Y-133925600D03*
%TD*%
D32*
%TO.C,R196*%
X214016200Y-106262400D03*
X214016200Y-107282400D03*
%TD*%
D52*
%TO.C,U55*%
X185129053Y-79580200D03*
X185629053Y-79580200D03*
X186129053Y-79580200D03*
X186629053Y-79580200D03*
X187129053Y-79580200D03*
X187629053Y-79580200D03*
X188129053Y-79580200D03*
X188629053Y-79580200D03*
D53*
X189316553Y-78892700D03*
X189316553Y-78392700D03*
X189316553Y-77892700D03*
X189316553Y-77392700D03*
X189316553Y-76892700D03*
X189316553Y-76392700D03*
X189316553Y-75892700D03*
X189316553Y-75392700D03*
D52*
X188629053Y-74705200D03*
X188129053Y-74705200D03*
X187629053Y-74705200D03*
X187129053Y-74705200D03*
X186629053Y-74705200D03*
X186129053Y-74705200D03*
X185629053Y-74705200D03*
X185129053Y-74705200D03*
D53*
X184441553Y-75392700D03*
X184441553Y-75892700D03*
X184441553Y-76392700D03*
X184441553Y-76892700D03*
X184441553Y-77392700D03*
X184441553Y-77892700D03*
X184441553Y-78392700D03*
X184441553Y-78892700D03*
D54*
X186879053Y-77142700D03*
%TD*%
D99*
%TO.C,L1*%
X115095000Y-53072500D03*
X115095000Y-62087500D03*
%TD*%
D14*
%TO.C,C97*%
X197045000Y-64980000D03*
X197045000Y-63080000D03*
%TD*%
D29*
%TO.C,U84*%
X161107500Y-103330000D03*
D21*
X161057500Y-103730000D03*
X161057500Y-104130000D03*
X161057500Y-104530000D03*
D19*
X161257500Y-105130000D03*
X161657500Y-105130000D03*
D22*
X162057500Y-105130000D03*
D19*
X162457500Y-105130000D03*
D21*
X162657500Y-104530000D03*
X162657500Y-104130000D03*
X162657500Y-103730000D03*
D20*
X162657500Y-103330000D03*
D19*
X162457500Y-102730000D03*
X162057500Y-102730000D03*
X161657500Y-102730000D03*
D22*
X161257500Y-102730000D03*
%TD*%
D17*
%TO.C,C224*%
X120130000Y-86690000D03*
X120130000Y-85730000D03*
%TD*%
D38*
%TO.C,R148*%
X150503749Y-147836800D03*
X149483749Y-147836800D03*
%TD*%
D32*
%TO.C,R120*%
X186429164Y-152015600D03*
X186429164Y-153035600D03*
%TD*%
D12*
%TO.C,R230*%
X96225000Y-105855000D03*
X97245000Y-105855000D03*
%TD*%
D41*
%TO.C,H1*%
X80000000Y-37000000D03*
%TD*%
D33*
%TO.C,R259*%
X138227249Y-75640000D03*
X138227249Y-74620000D03*
%TD*%
D15*
%TO.C,C69*%
X143525000Y-62030000D03*
X142565000Y-62030000D03*
%TD*%
D14*
%TO.C,C61*%
X166245000Y-64980000D03*
X166245000Y-63080000D03*
%TD*%
D100*
%TO.C,J2*%
X90545000Y-66580000D03*
X83345000Y-66580000D03*
%TD*%
D38*
%TO.C,R198*%
X170340000Y-102190000D03*
X169320000Y-102190000D03*
%TD*%
D16*
%TO.C,C183*%
X195630000Y-102490000D03*
X196590000Y-102490000D03*
%TD*%
D60*
%TO.C,R179*%
X191605000Y-118942500D03*
X191605000Y-120767500D03*
%TD*%
D23*
%TO.C,C217*%
X138030000Y-111910000D03*
X138030000Y-112870000D03*
%TD*%
D38*
%TO.C,R53*%
X167355000Y-59730000D03*
X166335000Y-59730000D03*
%TD*%
D33*
%TO.C,R228*%
X200420000Y-75515000D03*
X200420000Y-74495000D03*
%TD*%
D38*
%TO.C,R35*%
X167405000Y-41530000D03*
X166385000Y-41530000D03*
%TD*%
D58*
%TO.C,U38*%
X146874749Y-129385600D03*
X146224749Y-129385600D03*
X145574749Y-129385600D03*
X144924749Y-129385600D03*
X144924749Y-132285600D03*
X145574749Y-132285600D03*
X146224749Y-132285600D03*
X146874749Y-132285600D03*
D59*
X145899749Y-130835600D03*
%TD*%
D13*
%TO.C,C62*%
X168345000Y-66580000D03*
X168345000Y-68480000D03*
%TD*%
D33*
%TO.C,R131*%
X175986364Y-153690800D03*
X175986364Y-152670800D03*
%TD*%
D101*
%TO.C,J1*%
X94595000Y-52930000D03*
D102*
X87945000Y-52930000D03*
D103*
X83895000Y-58930000D03*
X89095000Y-58930000D03*
X83895000Y-46930000D03*
X89095000Y-46930000D03*
%TD*%
D15*
%TO.C,C74*%
X200325000Y-36080000D03*
X199365000Y-36080000D03*
%TD*%
D49*
%TO.C,RN15*%
X217007800Y-106270400D03*
X216307800Y-106270400D03*
X216307800Y-107270400D03*
X217007800Y-107270400D03*
%TD*%
D17*
%TO.C,C206*%
X138127249Y-82810000D03*
X138127249Y-81850000D03*
%TD*%
D58*
%TO.C,U41*%
X138699749Y-129385600D03*
X138049749Y-129385600D03*
X137399749Y-129385600D03*
X136749749Y-129385600D03*
X136749749Y-132285600D03*
X137399749Y-132285600D03*
X138049749Y-132285600D03*
X138699749Y-132285600D03*
D59*
X137724749Y-130835600D03*
%TD*%
D33*
%TO.C,R263*%
X147030000Y-116510000D03*
X147030000Y-115490000D03*
%TD*%
D104*
%TO.C,U11*%
X124720000Y-54180000D03*
X124720000Y-54880000D03*
D105*
X124645000Y-55680000D03*
X125145000Y-55680000D03*
X125645000Y-55680000D03*
X126145000Y-55680000D03*
D104*
X126070000Y-54880000D03*
X126070000Y-54180000D03*
D105*
X126145000Y-53380000D03*
X125645000Y-53380000D03*
X125145000Y-53380000D03*
X124645000Y-53380000D03*
%TD*%
D98*
%TO.C,U9*%
X129195000Y-69505000D03*
X130145000Y-69505000D03*
X131095000Y-69505000D03*
X131095000Y-67230000D03*
X130145000Y-67230000D03*
X129195000Y-67230000D03*
%TD*%
D38*
%TO.C,R207*%
X196640000Y-106290000D03*
X195620000Y-106290000D03*
%TD*%
D35*
%TO.C,TP2*%
X109992500Y-72705000D03*
%TD*%
D67*
%TO.C,U8*%
X127245000Y-64617500D03*
X127245000Y-64167500D03*
X127245000Y-63717500D03*
X127245000Y-63267500D03*
X127245000Y-62817500D03*
X127245000Y-62367500D03*
X124345000Y-62367500D03*
X124345000Y-62817500D03*
X124345000Y-63267500D03*
X124345000Y-63717500D03*
X124345000Y-64167500D03*
X124345000Y-64617500D03*
D68*
X125795000Y-63492500D03*
%TD*%
D33*
%TO.C,R74*%
X194545000Y-52590000D03*
X194545000Y-51570000D03*
%TD*%
D17*
%TO.C,C223*%
X126630000Y-86690000D03*
X126630000Y-85730000D03*
%TD*%
D38*
%TO.C,R114*%
X193183564Y-147902800D03*
X192163564Y-147902800D03*
%TD*%
D35*
%TO.C,TP1*%
X107592500Y-74105000D03*
%TD*%
%TO.C,TP10*%
X139607500Y-47880000D03*
%TD*%
D82*
%TO.C,J7*%
X82145000Y-141780000D03*
X82145000Y-142430000D03*
X82145000Y-143080000D03*
X82145000Y-143730000D03*
X82145000Y-144380000D03*
D83*
X82170000Y-140580000D03*
X82170000Y-145580000D03*
D84*
X79470000Y-139555000D03*
D85*
X79470000Y-142080000D03*
X79470000Y-144080000D03*
D84*
X79470000Y-146605000D03*
%TD*%
D28*
%TO.C,J6*%
X169320000Y-80000000D03*
X166320000Y-81270000D03*
X169320000Y-82540000D03*
X166320000Y-83810000D03*
X169320000Y-85080000D03*
X166320000Y-86350000D03*
%TD*%
D32*
%TO.C,R257*%
X139227249Y-74620000D03*
X139227249Y-75640000D03*
%TD*%
D43*
%TO.C,RN8*%
X163142964Y-127508407D03*
X163142964Y-127008407D03*
X163142964Y-126508407D03*
X163142964Y-126008407D03*
X162142964Y-126008407D03*
X162142964Y-126508407D03*
X162142964Y-127008407D03*
X162142964Y-127508407D03*
%TD*%
D32*
%TO.C,R250*%
X147328300Y-104220000D03*
X147328300Y-105240000D03*
%TD*%
%TO.C,R195*%
X204958000Y-106213200D03*
X204958000Y-107233200D03*
%TD*%
D12*
%TO.C,R22*%
X121625000Y-54420000D03*
X122645000Y-54420000D03*
%TD*%
D62*
%TO.C,D10*%
X120649749Y-131956850D03*
X120649749Y-133531850D03*
%TD*%
D38*
%TO.C,R181*%
X184430000Y-119355000D03*
X183410000Y-119355000D03*
%TD*%
D16*
%TO.C,C193*%
X195630000Y-90590000D03*
X196590000Y-90590000D03*
%TD*%
D33*
%TO.C,R51*%
X163745000Y-70840000D03*
X163745000Y-69820000D03*
%TD*%
D17*
%TO.C,C173*%
X204020000Y-82685000D03*
X204020000Y-81725000D03*
%TD*%
D33*
%TO.C,R265*%
X157127249Y-82840000D03*
X157127249Y-81820000D03*
%TD*%
D32*
%TO.C,R117*%
X181006564Y-125775600D03*
X181006564Y-126795600D03*
%TD*%
D38*
%TO.C,R255*%
X142640000Y-106290000D03*
X141620000Y-106290000D03*
%TD*%
D66*
%TO.C,D12*%
X171815000Y-114430000D03*
X173390000Y-114430000D03*
%TD*%
D35*
%TO.C,TP37*%
X107495000Y-77530000D03*
%TD*%
D32*
%TO.C,R220*%
X200595000Y-120915000D03*
X200595000Y-121935000D03*
%TD*%
%TO.C,R251*%
X119457500Y-111920000D03*
X119457500Y-112940000D03*
%TD*%
D75*
%TO.C,U15*%
X147270000Y-42605000D03*
D76*
X147095000Y-42780000D03*
D77*
X147270000Y-42130000D03*
X147270000Y-41680000D03*
D75*
X147270000Y-41205000D03*
D76*
X147095000Y-41030000D03*
D78*
X146620000Y-41905000D03*
X146120000Y-41905000D03*
D76*
X145645000Y-41030000D03*
D75*
X145470000Y-41205000D03*
D77*
X145470000Y-41680000D03*
X145470000Y-42130000D03*
D76*
X145645000Y-42780000D03*
D75*
X145470000Y-42605000D03*
%TD*%
D41*
%TO.C,H3*%
X216200000Y-156000000D03*
%TD*%
D38*
%TO.C,R253*%
X142640000Y-107290000D03*
X141620000Y-107290000D03*
%TD*%
D17*
%TO.C,C110*%
X190781564Y-133965600D03*
X190781564Y-133005600D03*
%TD*%
D39*
%TO.C,RN5*%
X147303349Y-156264000D03*
X147303349Y-155564000D03*
X146303349Y-155564000D03*
X146303349Y-156264000D03*
%TD*%
D13*
%TO.C,C59*%
X150445000Y-66580000D03*
X150445000Y-68480000D03*
%TD*%
D39*
%TO.C,RN12*%
X202468800Y-109509600D03*
X202468800Y-108809600D03*
X201468800Y-108809600D03*
X201468800Y-109509600D03*
%TD*%
D23*
%TO.C,C116*%
X169531564Y-153555600D03*
X169531564Y-154515600D03*
%TD*%
M02*
