M48
; DRILL file {KiCad 7.0.9} date Mon Jan 29 23:54:07 2024
; FORMAT={-:-/ absolute / inch / decimal}
; #@! TF.CreationDate,2024-01-29T23:54:07+02:00
; #@! TF.GenerationSoftware,Kicad,Pcbnew,7.0.9
; #@! TF.FileFunction,Plated,1,6,PTH
FMAT,2
INCH
; #@! TA.AperFunction,Plated,PTH,ComponentDrill
T1C0.0079
; #@! TA.AperFunction,Plated,PTH,ViaDrill
T2C0.0118
; #@! TA.AperFunction,Plated,PTH,ComponentDrill
T3C0.0315
; #@! TA.AperFunction,Plated,PTH,ComponentDrill
T4C0.0748
%
G90
G05
T1
X3.5644Y-2.8051
X3.5644Y-2.8327
X3.5959Y-2.8051
X3.5959Y-2.8327
T2
X2.2421Y-2.7461
X2.9173Y-2.7224
X3.3856Y-3.1
X3.3856Y-3.284
X3.4002Y-3.4305
X3.4296Y-3.244
X3.4376Y-3.2
X3.5176Y-3.284
X3.545Y-2.8642
X3.547Y-2.7742
X3.5611Y-2.9102
X3.5782Y-3.5166
X3.599Y-2.9102
X3.6116Y-3.354
X3.615Y-2.7742
X3.619Y-2.8642
X3.6496Y-3.354
X3.6536Y-5.241
X3.6536Y-5.2796
X3.6567Y-5.6348
X3.6587Y-5.6068
X3.6667Y-5.6628
X3.67Y-3.124
X3.67Y-3.15
X3.67Y-3.176
X3.6732Y-5.9823
X3.6772Y-6.0689
X3.6967Y-5.5788
X3.7027Y-5.5268
X3.7036Y-3.284
X3.7106Y-4.8642
X3.7126Y-5.9823
X3.7153Y-4.512
X3.7168Y-4.1561
X3.7173Y-4.484
X3.7188Y-4.1281
X3.7205Y-4.8406
X3.7224Y-3.6894
X3.7247Y-5.5788
X3.7247Y-5.6728
X3.7253Y-4.54
X3.7268Y-4.1841
X3.7347Y-5.7626
X3.7382Y-6.0492
X3.7387Y-5.5268
X3.7461Y-5.2244
X3.7461Y-5.2972
X3.748Y-5.9764
X3.7507Y-5.7828
X3.7524Y-5.7424
X3.7553Y-4.456
X3.7567Y-5.5788
X3.7568Y-4.1001
X3.7613Y-4.404
X3.7628Y-4.0481
X3.7787Y-5.6768
X3.7807Y-5.6508
X3.7827Y-5.5268
X3.7833Y-4.456
X3.7833Y-4.55
X3.7848Y-4.1001
X3.7848Y-4.1941
X3.7854Y-5.2244
X3.7854Y-5.2972
X3.7854Y-6.0295
X3.7933Y-4.6398
X3.7948Y-4.284
X3.7973Y-4.404
X3.798Y-3.106
X3.798Y-3.29
X3.7987Y-5.6168
X3.7988Y-4.0481
X3.8007Y-5.7148
X3.8012Y-6.1181
X3.8047Y-5.7948
X3.8087Y-5.5668
X3.8093Y-4.66
X3.8108Y-4.3041
X3.811Y-4.6197
X3.8125Y-4.2638
X3.8126Y-3.4365
X3.8153Y-4.456
X3.8167Y-5.6668
X3.8168Y-4.1001
X3.8207Y-5.5268
X3.8209Y-3.7406
X3.8209Y-3.8134
X3.8327Y-5.7628
X3.8347Y-4.9508
X3.8373Y-4.554
X3.8388Y-4.1981
X3.8393Y-4.528
X3.8408Y-4.1721
X3.8413Y-4.404
X3.842Y-3.25
X3.8428Y-4.0481
X3.843Y-5.7402
X3.85Y-3.206
X3.8573Y-4.494
X3.8583Y-3.7406
X3.8583Y-3.8134
X3.8588Y-4.1381
X3.8593Y-4.592
X3.8602Y-6.0551
X3.8602Y-6.0945
X3.8607Y-5.6408
X3.8608Y-4.2361
X3.8627Y-5.6048
X3.8633Y-4.672
X3.8647Y-5.5268
X3.8648Y-4.3161
X3.8673Y-4.444
X3.8688Y-4.0881
X3.8753Y-4.544
X3.8768Y-4.1881
X3.8793Y-4.404
X3.88Y-5.1603
X3.88Y-5.3197
X3.88Y-5.3591
X3.8808Y-4.0481
X3.8913Y-4.64
X3.8928Y-4.2841
X3.8947Y-5.6768
X3.9015Y-4.6175
X3.9016Y-3.8154
X3.9027Y-5.5508
X3.9031Y-4.2616
X3.9035Y-4.7894
X3.9035Y-4.935
X3.9047Y-5.5868
X3.9067Y-5.6528
X3.9167Y-5.6288
X3.9193Y-4.518
X3.9208Y-4.1621
X3.9213Y-4.482
X3.9228Y-4.1261
X3.9233Y-4.404
X3.9248Y-4.0481
X3.93Y-3.29
X3.9508Y-3.6795
X3.9508Y-3.839
X3.9533Y-4.554
X3.9548Y-4.1981
X3.9613Y-4.428
X3.9628Y-4.0721
X3.9633Y-4.464
X3.9648Y-4.1081
X3.9653Y-4.53
X3.9668Y-4.1741
X3.9753Y-4.506
X3.9768Y-4.1501
X3.9862Y-4.8031
X3.9862Y-4.8425
X3.9862Y-4.9232
X3.9906Y-3.5226
X4.024Y-3.36
X4.062Y-3.36
X4.0824Y-3.13
X4.0824Y-3.156
X4.0824Y-3.182
X4.116Y-3.29
X4.2224Y-2.8661
X4.2224Y-2.9094
X4.2224Y-2.9528
X4.2283Y-3.8307
X4.2283Y-3.874
X4.2283Y-3.9173
X4.2283Y-4.7835
X4.2283Y-4.8268
X4.2283Y-4.8701
X4.2303Y-5.7343
X4.2303Y-5.7776
X4.2303Y-5.8209
X4.2382Y-2.7756
X4.2441Y-3.7402
X4.2441Y-4.6929
X4.2461Y-5.6437
X4.2994Y-2.9528
X4.3053Y-3.9173
X4.3053Y-4.8701
X4.3073Y-5.8209
X4.34Y-2.9094
X4.3459Y-3.874
X4.3459Y-4.8268
X4.3478Y-5.7776
X4.3524Y-3.0472
X4.3563Y-2.7913
X4.3583Y-4.0118
X4.3583Y-4.9646
X4.3602Y-5.9154
X4.3622Y-3.7559
X4.3622Y-4.7087
X4.3642Y-3.1457
X4.3642Y-5.6594
X4.3671Y-2.9488
X4.3701Y-4.1102
X4.3701Y-5.063
X4.372Y-6.0138
X4.373Y-3.9134
X4.373Y-4.8661
X4.375Y-5.8169
X4.4026Y-2.9685
X4.4085Y-3.9331
X4.4085Y-4.8858
X4.4104Y-5.8366
X4.4469Y-2.7874
X4.4528Y-3.752
X4.4528Y-4.7047
X4.4547Y-5.6555
X4.4783Y-2.815
X4.4843Y-3.7795
X4.4843Y-4.7323
X4.4862Y-5.6831
X4.5138Y-2.7795
X4.5177Y-3.1339
X4.5197Y-3.7441
X4.5197Y-4.6969
X4.5217Y-3.063
X4.5217Y-5.6476
X4.5236Y-4.0984
X4.5236Y-5.0512
X4.5256Y-3.0079
X4.5256Y-6.002
X4.5276Y-4.0276
X4.5276Y-4.9803
X4.5295Y-5.9311
X4.5315Y-3.9724
X4.5315Y-4.9252
X4.5335Y-5.876
X4.561Y-2.8661
X4.561Y-2.9094
X4.561Y-2.9528
X4.5669Y-3.8307
X4.5669Y-3.874
X4.5669Y-3.9173
X4.5669Y-4.7835
X4.5669Y-4.8268
X4.5669Y-4.8701
X4.5689Y-5.7343
X4.5689Y-5.7776
X4.5689Y-5.8209
X4.6476Y-3.1575
X4.6535Y-4.122
X4.6535Y-5.0748
X4.6555Y-6.0256
X4.687Y-3.2953
X4.687Y-3.3425
X4.687Y-3.3898
X4.6929Y-4.2598
X4.6929Y-4.3071
X4.6929Y-4.3543
X4.6929Y-5.2126
X4.6929Y-5.2598
X4.6929Y-5.3071
X4.6949Y-6.1634
X4.6949Y-6.2106
X4.6949Y-6.2579
X4.7264Y-3.2598
X4.7264Y-3.2953
X4.7264Y-3.3425
X4.7264Y-3.3898
X4.7323Y-4.2244
X4.7323Y-4.2598
X4.7323Y-4.3071
X4.7323Y-4.3543
X4.7323Y-5.1772
X4.7323Y-5.2126
X4.7323Y-5.2598
X4.7323Y-5.3071
X4.7343Y-6.128
X4.7343Y-6.1634
X4.7343Y-6.2106
X4.7343Y-6.2579
X4.7933Y-3.2165
X4.7992Y-4.1811
X4.7992Y-5.1339
X4.8012Y-6.0846
X4.8169Y-3.2165
X4.8228Y-4.1811
X4.8228Y-5.1339
X4.8248Y-6.0846
X4.8407Y-3.2165
X4.8466Y-4.1811
X4.8466Y-5.1339
X4.8486Y-6.0846
X4.8642Y-3.2165
X4.8701Y-4.1811
X4.8701Y-5.1339
X4.872Y-6.0846
X4.8878Y-3.2165
X4.8937Y-4.1811
X4.8937Y-5.1339
X4.8957Y-6.0846
X4.998Y-3.3898
X5.0039Y-4.3543
X5.0039Y-5.3071
X5.0059Y-6.2579
X5.0335Y-3.1634
X5.0394Y-4.128
X5.0394Y-5.0807
X5.0413Y-6.0315
X5.1083Y-2.9409
X5.1142Y-3.9055
X5.1142Y-4.8583
X5.1161Y-5.8091
X5.1201Y-3.1634
X5.126Y-4.128
X5.126Y-5.0807
X5.128Y-6.0315
X5.1476Y-2.6063
X5.1535Y-3.5709
X5.1535Y-4.5236
X5.1555Y-5.4744
X5.1594Y-2.7795
X5.1654Y-3.7441
X5.1654Y-4.6969
X5.1673Y-2.7402
X5.1673Y-5.6476
X5.1732Y-3.7047
X5.1732Y-4.6575
X5.1752Y-5.6083
X5.187Y-2.9945
X5.1929Y-3.9591
X5.1929Y-4.9118
X5.1949Y-5.8626
X5.2067Y-3.1634
X5.2126Y-4.128
X5.2126Y-5.0807
X5.2146Y-6.0315
X5.2431Y-2.8415
X5.249Y-3.8061
X5.249Y-4.7589
X5.251Y-5.7096
X5.2815Y-2.665
X5.2874Y-3.6295
X5.2874Y-4.5823
X5.2894Y-5.5331
X5.2933Y-3.1634
X5.2992Y-4.128
X5.2992Y-5.0807
X5.3012Y-6.0315
X5.3248Y-2.7047
X5.3307Y-3.6693
X5.3307Y-4.622
X5.3327Y-2.7638
X5.3327Y-5.5728
X5.3386Y-3.7283
X5.3386Y-4.6811
X5.3406Y-5.6319
X5.3445Y-2.9567
X5.3504Y-3.9213
X5.3504Y-4.874
X5.3524Y-5.8248
X5.3681Y-2.6654
X5.374Y-3.6299
X5.374Y-4.5827
X5.376Y-5.5335
X5.3799Y-3.1634
X5.3858Y-4.128
X5.3858Y-5.0807
X5.3878Y-6.0315
T4
X2.8749Y-3.472
T3
G00X2.43Y-3.2358
M15
G01X2.4772Y-3.2358
M16
G05
G00X2.43Y-3.7082
M15
G01X2.4772Y-3.7082
M16
G05
G00X2.6131Y-3.4996
M15
G01X2.6131Y-3.4444
M16
G05
G00X2.6347Y-3.2358
M15
G01X2.682Y-3.2358
M16
G05
G00X2.6347Y-3.7082
M15
G01X2.682Y-3.7082
M16
G05
T0
M30
