%TF.GenerationSoftware,KiCad,Pcbnew,7.0.8*%
%TF.CreationDate,2024-02-27T11:47:24+02:00*%
%TF.ProjectId,ESLGSU,45534c47-5355-42e6-9b69-6361645f7063,rev?*%
%TF.SameCoordinates,Original*%
%TF.FileFunction,Legend,Bot*%
%TF.FilePolarity,Positive*%
%FSLAX46Y46*%
G04 Gerber Fmt 4.6, Leading zero omitted, Abs format (unit mm)*
G04 Created by KiCad (PCBNEW 7.0.8) date 2024-02-27 11:47:24*
%MOMM*%
%LPD*%
G01*
G04 APERTURE LIST*
%ADD10C,5.000000*%
%ADD11C,1.500000*%
%ADD12C,1.020000*%
%ADD13C,1.800000*%
%ADD14O,1.004000X1.804000*%
%ADD15O,1.704000X0.954000*%
%ADD16C,5.600000*%
%ADD17C,2.500000*%
%ADD18O,1.400000X2.800000*%
%ADD19O,2.600000X1.400000*%
G04 APERTURE END LIST*
%LPC*%
D10*
%TO.C,H2*%
X216200000Y-37000000D03*
%TD*%
D11*
%TO.C,U93*%
X198875000Y-147360000D03*
X198875000Y-144820000D03*
X201415000Y-147360000D03*
X201415000Y-144820000D03*
X203955000Y-147360000D03*
X203955000Y-144820000D03*
X206495000Y-147360000D03*
X206495000Y-144820000D03*
X198875000Y-142280000D03*
X201415000Y-142280000D03*
X203955000Y-142280000D03*
X206495000Y-142280000D03*
X198863087Y-139740000D03*
X201403087Y-139740000D03*
X203943087Y-139740000D03*
X206483087Y-139740000D03*
X198875000Y-137223827D03*
X201415000Y-137223827D03*
X203955000Y-137223827D03*
X206495000Y-137223827D03*
X198875000Y-134683827D03*
X201415000Y-134683827D03*
X203955000Y-134683827D03*
X206495000Y-134683827D03*
%TD*%
D12*
%TO.C,U72*%
X101730000Y-102870000D03*
X101730000Y-105410000D03*
X101730000Y-107950000D03*
X101730000Y-110490000D03*
X101730000Y-113030000D03*
X101730000Y-115570000D03*
X101730000Y-118110000D03*
X101730000Y-120650000D03*
X101730000Y-123190000D03*
X101730000Y-125730000D03*
X101730000Y-128270000D03*
X101730000Y-130810000D03*
X101730000Y-133350000D03*
X101730000Y-135890000D03*
X101730000Y-138430000D03*
X101730000Y-140970000D03*
X101730000Y-143510000D03*
X101730000Y-146050000D03*
X101730000Y-148590000D03*
X101730000Y-151130000D03*
D13*
X103000000Y-104140000D03*
X103000000Y-149860000D03*
D12*
X104270000Y-102870000D03*
X104270000Y-105410000D03*
X104270000Y-107950000D03*
X104270000Y-110490000D03*
X104270000Y-113030000D03*
X104270000Y-115570000D03*
X104270000Y-118110000D03*
X104270000Y-120650000D03*
X104270000Y-123190000D03*
X104270000Y-125730000D03*
X104270000Y-128270000D03*
X104270000Y-130810000D03*
X104270000Y-133350000D03*
X104270000Y-135890000D03*
X104270000Y-138430000D03*
X104270000Y-140970000D03*
X104270000Y-143510000D03*
X104270000Y-146050000D03*
X104270000Y-148590000D03*
X104270000Y-151130000D03*
D10*
X80000000Y-98000000D03*
X80000000Y-156000000D03*
X103000000Y-98000000D03*
X103000000Y-156000000D03*
%TD*%
D14*
%TO.C,J5*%
X82170000Y-129430000D03*
X82170000Y-134430000D03*
D15*
X79470000Y-128405000D03*
X79470000Y-135455000D03*
%TD*%
D10*
%TO.C,H1*%
X80000000Y-37000000D03*
%TD*%
D16*
%TO.C,J2*%
X90545000Y-66580000D03*
X83345000Y-66580000D03*
%TD*%
D17*
%TO.C,J1*%
X94595000Y-52930000D03*
D18*
X87945000Y-52930000D03*
D19*
X83895000Y-58930000D03*
X89095000Y-58930000D03*
X83895000Y-46930000D03*
X89095000Y-46930000D03*
%TD*%
D14*
%TO.C,J7*%
X82170000Y-140580000D03*
X82170000Y-145580000D03*
D15*
X79470000Y-139555000D03*
X79470000Y-146605000D03*
%TD*%
D10*
%TO.C,H3*%
X216200000Y-156000000D03*
%TD*%
%LPD*%
M02*
