M48
; DRILL file {KiCad 7.0.8} date Wed Feb 14 16:33:40 2024
; FORMAT={-:-/ absolute / inch / decimal}
; #@! TF.CreationDate,2024-02-14T16:33:40+02:00
; #@! TF.GenerationSoftware,Kicad,Pcbnew,7.0.8
; #@! TF.FileFunction,Plated,1,6,PTH
FMAT,2
INCH
; #@! TA.AperFunction,Plated,PTH,ViaDrill
T1C0.0118
; #@! TA.AperFunction,Plated,PTH,ComponentDrill
T2C0.0217
; #@! TA.AperFunction,Plated,PTH,ComponentDrill
T3C0.0236
; #@! TA.AperFunction,Plated,PTH,ComponentDrill
T4C0.0315
; #@! TA.AperFunction,Plated,PTH,ComponentDrill
T5C0.0420
; #@! TA.AperFunction,Plated,PTH,ComponentDrill
T6C0.0748
; #@! TA.AperFunction,Plated,PTH,ComponentDrill
T7C0.0984
; #@! TA.AperFunction,Plated,PTH,ComponentDrill
T8C0.1693
%
G90
G05
T1
X3.1287Y-5.5996
X3.1287Y-5.6685
X3.1307Y-5.1547
X3.1307Y-5.2335
X3.2862Y-5.6331
X3.3858Y-5.2118
X3.4053Y-5.6232
X3.4053Y-5.6488
X3.4132Y-5.1791
X3.4447Y-5.6705
X3.4467Y-5.2354
X3.4506Y-5.1311
X3.4781Y-5.5819
X3.4783Y-5.1929
X3.7888Y-4.1675
X3.8295Y-5.4451
X3.8522Y-2.452
X3.8522Y-2.4913
X3.8522Y-2.5346
X3.8522Y-2.574
X3.86Y-4.1657
X3.862Y-4.2654
X3.8669Y-5.5681
X3.874Y-3.0157
X3.874Y-3.1181
X3.8762Y-3.0652
X3.8876Y-2.1567
X3.8876Y-2.1961
X3.8876Y-2.3929
X3.8915Y-2.452
X3.8915Y-2.4913
X3.8915Y-2.5346
X3.8915Y-2.574
X3.9013Y-2.9372
X3.9013Y-3.1419
X3.9073Y-1.8181
X3.9108Y-4.4667
X3.9108Y-5.2659
X3.9108Y-5.9667
X3.9134Y-2.2126
X3.9173Y-2.185
X3.9213Y-2.9884
X3.9291Y-3.0396
X3.9291Y-3.0907
X3.9406Y-5.75
X3.9447Y-5.0484
X3.9447Y-5.1508
X3.9467Y-1.8181
X3.9467Y-4.95
X3.9502Y-4.4667
X3.9502Y-5.2659
X3.9502Y-5.9667
X3.9506Y-2.4717
X3.9624Y-2.6547
X3.9624Y-2.6941
X3.9624Y-2.7315
X3.9624Y-2.7709
X3.99Y-1.8181
X3.9939Y-2.2098
X3.9961Y-2.2835
X3.997Y-2.324
X3.998Y-2.25
X4.0018Y-2.6547
X4.0018Y-2.6941
X4.0018Y-2.7315
X4.0039Y-2.8228
X4.0118Y-2.3031
X4.0129Y-2.2287
X4.0142Y-2.2671
X4.0254Y-2.2098
X4.0257Y-2.3257
X4.0293Y-1.8181
X4.0293Y-2.2472
X4.0293Y-2.2866
X4.051Y-5.4077
X4.053Y-5.4461
X4.0549Y-3.0209
X4.0549Y-3.0462
X4.0549Y-3.0709
X4.0549Y-3.0957
X4.0608Y-3.1213
X4.0648Y-2.8024
X4.0687Y-1.8181
X4.0687Y-3.1449
X4.0871Y-2.8545
X4.1022Y-2.8024
X4.1081Y-1.8181
X4.1258Y-2.8565
X4.1356Y-2.2453
X4.1356Y-2.2886
X4.1366Y-2.389
X4.1376Y-2.1449
X4.1435Y-2.8024
X4.1549Y-4.0652
X4.1549Y-4.1675
X4.1549Y-4.2659
X4.1549Y-4.6675
X4.1549Y-4.9667
X4.1549Y-5.4667
X4.1549Y-5.6675
X4.1691Y-5.8516
X4.1697Y-4.55
X4.1711Y-5.7551
X4.1711Y-5.9579
X4.1809Y-5.5031
X4.1943Y-4.0652
X4.1943Y-4.1675
X4.1943Y-4.2659
X4.1943Y-4.6675
X4.1943Y-4.9667
X4.1943Y-5.4667
X4.1943Y-5.6675
X4.2272Y-5.5002
X4.2321Y-3.0524
X4.2321Y-3.1587
X4.236Y-5.4146
X4.2498Y-2.0465
X4.2498Y-2.0858
X4.2498Y-2.1291
X4.2498Y-2.1685
X4.2498Y-2.3654
X4.2498Y-2.4047
X4.2498Y-2.448
X4.2498Y-2.4874
X4.2498Y-4.0898
X4.2518Y-4.8939
X4.2518Y-5.6577
X4.2528Y-4.9392
X4.2547Y-5.5238
X4.2557Y-3.9913
X4.2577Y-4.1272
X4.2616Y-1.8299
X4.2616Y-1.8693
X4.2656Y-5.3181
X4.2656Y-5.6852
X4.2813Y-4.0681
X4.2874Y-2.6024
X4.2892Y-2.0465
X4.2892Y-2.0858
X4.2892Y-2.1291
X4.2892Y-2.1685
X4.2892Y-2.3654
X4.2892Y-2.4047
X4.2892Y-2.448
X4.2892Y-2.4874
X4.2931Y-3.4323
X4.2968Y-4.1114
X4.297Y-4.137
X4.301Y-1.8299
X4.301Y-1.8693
X4.3128Y-3.4579
X4.3364Y-1.9795
X4.3364Y-2.5543
X4.3404Y-2.0346
X4.3404Y-2.074
X4.3404Y-2.1134
X4.3404Y-2.1528
X4.3404Y-2.1921
X4.3404Y-2.2315
X4.3404Y-2.3024
X4.3404Y-2.3417
X4.3404Y-2.3811
X4.3404Y-2.4205
X4.3404Y-2.4598
X4.3404Y-2.4992
X4.3581Y-3.5563
X4.3738Y-4.1291
X4.3738Y-4.1587
X4.3791Y-4.0075
X4.3797Y-2.0346
X4.3797Y-2.074
X4.3797Y-2.1134
X4.3797Y-2.1528
X4.3797Y-2.1921
X4.3797Y-2.2315
X4.3797Y-2.3024
X4.3797Y-2.3417
X4.3797Y-2.3811
X4.3797Y-2.4205
X4.3797Y-2.4598
X4.3797Y-2.4992
X4.3799Y-5.7199
X4.3823Y-5.3516
X4.3837Y-2.8024
X4.3976Y-2.8937
X4.4038Y-3.3949
X4.4125Y-4.9277
X4.4134Y-5.5486
X4.4142Y-4.1287
X4.4165Y-4.0075
X4.4171Y-4.2138
X4.4173Y-5.7199
X4.4191Y-2.0346
X4.4191Y-2.074
X4.4191Y-2.1134
X4.4191Y-2.1528
X4.4191Y-2.1921
X4.4191Y-2.2315
X4.4191Y-2.3024
X4.4191Y-2.3417
X4.4191Y-2.3811
X4.4191Y-2.4205
X4.4191Y-2.4598
X4.4191Y-2.4992
X4.425Y-2.8024
X4.4282Y-4.8766
X4.4314Y-3.2937
X4.4319Y-3.1941
X4.437Y-2.8937
X4.4508Y-5.5486
X4.455Y-3.3949
X4.4624Y-2.8024
X4.4676Y-4.6709
X4.4676Y-4.6964
X4.4676Y-4.7476
X4.4676Y-4.7732
X4.4676Y-4.7988
X4.4676Y-4.8244
X4.4678Y-4.722
X4.4834Y-5.0144
X4.5227Y-4.9081
X4.5239Y-3.0524
X4.5256Y-5.2081
X4.5406Y-3.6256
X4.5406Y-3.665
X4.5406Y-3.8776
X4.5406Y-4.1177
X4.5406Y-4.1571
X4.5406Y-4.1965
X4.5406Y-4.2358
X4.5413Y-5.8695
X4.5495Y-3.2437
X4.5785Y-2.9681
X4.5799Y-3.6256
X4.5799Y-3.665
X4.5799Y-3.8776
X4.5799Y-4.1177
X4.5799Y-4.1571
X4.5799Y-4.1965
X4.5799Y-4.2358
X4.5807Y-5.6431
X4.5807Y-5.8695
X4.6007Y-2.9165
X4.633Y-4.9396
X4.633Y-4.9868
X4.6395Y-4.5071
X4.6607Y-4.8016
X4.6607Y-4.8764
X4.6632Y-2.6114
X4.6645Y-3.1454
X4.6763Y-3.1926
X4.6802Y-3.0942
X4.6912Y-4.1547
X4.6927Y-4.0366
X4.7027Y-5.8479
X4.7078Y-4.5892
X4.7104Y-2.9657
X4.7104Y-3.0169
X4.7104Y-3.0681
X4.7124Y-2.9146
X4.7149Y-2.6075
X4.7183Y-4.2394
X4.7252Y-1.8496
X4.7277Y-1.7768
X4.7281Y-3.0425
X4.7281Y-4.324
X4.7295Y-3.3776
X4.7295Y-3.413
X4.7301Y-1.8929
X4.7301Y-2.9913
X4.7321Y-2.889
X4.7321Y-2.9402
X4.7353Y-3.232
X4.7421Y-5.4364
X4.7421Y-5.4758
X4.7471Y-4.5892
X4.75Y-5.1947
X4.7511Y-4.722
X4.7511Y-4.7476
X4.7511Y-4.7732
X4.7511Y-4.7988
X4.7511Y-4.8244
X4.7511Y-4.85
X4.7512Y-4.8756
X4.7524Y-5.6272
X4.7552Y-4.6964
X4.7557Y-3.8909
X4.7636Y-3.9224
X4.7656Y-3.9559
X4.7689Y-4.4445
X4.7715Y-4.1213
X4.7728Y-4.4051
X4.7747Y-3.1257
X4.7815Y-6.0821
X4.7815Y-6.1215
X4.7826Y-3.1808
X4.7882Y-1.5976
X4.7882Y-1.6772
X4.7882Y-1.7157
X4.7892Y-1.948
X4.7892Y-2.4279
X4.7892Y-2.5074
X4.7892Y-2.546
X4.8053Y-3.9791
X4.809Y-5.6195
X4.8209Y-5.4364
X4.8236Y-1.6724
X4.8246Y-2.5027
X4.8246Y-4.0976
X4.8276Y-1.5976
X4.8285Y-2.1252
X4.8285Y-2.4279
X4.8338Y-4.5892
X4.8445Y-5.6471
X4.8469Y-5.4697
X4.8476Y-3.3736
X4.8551Y-1.7315
X4.8561Y-2.5617
X4.86Y-2.1331
X4.8675Y-4.9081
X4.8679Y-2.1606
X4.8721Y-4.8091
X4.8837Y-4.1114
X4.8849Y-3.1572
X4.8849Y-3.2044
X4.8876Y-2.1331
X4.8935Y-3.1016
X4.8955Y-2.1606
X4.8955Y-2.2197
X4.8967Y-4.7348
X4.8994Y-2.1016
X4.8994Y-2.1921
X4.9125Y-3.1769
X4.9132Y-3.1311
X4.9191Y-3.5868
X4.9202Y-2.1606
X4.9329Y-2.4618
X4.9329Y-2.5051
X4.9329Y-4.1114
X4.9348Y-1.5543
X4.937Y-2.1331
X4.9374Y-5.5051
X4.9467Y-2.2157
X4.9467Y-2.5268
X4.9475Y-2.4818
X4.9534Y-2.1606
X4.9565Y-1.5307
X4.9594Y-2.5035
X4.9597Y-2.8068
X4.9604Y-1.5681
X4.9611Y-5.4973
X4.9624Y-2.4618
X4.9634Y-3.5465
X4.9673Y-3.575
X4.9685Y-2.9653
X4.9742Y-1.9953
X4.9742Y-2.1016
X4.9742Y-2.1921
X4.9742Y-2.4815
X4.9781Y-2.1606
X4.9843Y-3.0157
X4.9854Y-3.3736
X4.9854Y-3.413
X4.9886Y-5.5051
X4.99Y-2.1331
X4.9941Y-6.1215
X4.9991Y-2.8068
X5.0037Y-5.076
X5.0037Y-5.1154
X5.0057Y-2.1606
X5.0118Y-2.9908
X5.0126Y-1.6213
X5.0136Y-2.4515
X5.0157Y-5.962
X5.0157Y-3.042
X5.0162Y-5.5012
X5.0175Y-2.1331
X5.0215Y-1.948
X5.0287Y-4.4051
X5.0287Y-4.4445
X5.0335Y-6.0821
X5.0335Y-6.1215
X5.0431Y-2.7571
X5.0482Y-5.3124
X5.0522Y-4.9896
X5.0768Y-5.1339
X5.0768Y-5.1693
X5.0857Y-2.8068
X5.0884Y-1.9795
X5.0915Y-4.9896
X5.0915Y-5.0294
X5.0923Y-2.2197
X5.1015Y-3.0273
X5.1048Y-2.5301
X5.1061Y-2.4874
X5.111Y-1.5976
X5.1127Y-1.7112
X5.114Y-1.6685
X5.1177Y-2.509
X5.1199Y-2.5524
X5.1201Y-5.3144
X5.1201Y-5.3577
X5.1207Y-3.0071
X5.1228Y-1.9087
X5.1238Y-2.7389
X5.1256Y-1.6901
X5.1278Y-1.7335
X5.1297Y-2.4874
X5.1309Y-4.9896
X5.1309Y-5.0294
X5.1317Y-2.5307
X5.1319Y-5.1339
X5.1319Y-5.1693
X5.1376Y-1.6685
X5.1396Y-1.7118
X5.1423Y-2.5095
X5.1446Y-2.5537
X5.1457Y-3.185
X5.1487Y-2.9525
X5.1502Y-1.6906
X5.1525Y-1.7348
X5.1533Y-2.4874
X5.1573Y-2.5287
X5.1612Y-1.6685
X5.1622Y-1.9087
X5.1632Y-2.2945
X5.1632Y-2.7389
X5.1652Y-1.7098
X5.1671Y-2.5071
X5.1711Y-2.0583
X5.1711Y-2.3654
X5.1711Y-2.5543
X5.175Y-1.6882
X5.1789Y-1.7354
X5.1789Y-2.1213
X5.1789Y-2.1764
X5.1862Y-3.3736
X5.1862Y-3.413
X5.1883Y-4.8213
X5.1909Y-5.6333
X5.1922Y-4.8685
X5.1939Y-5.3124
X5.2104Y-2.0819
X5.2104Y-2.3181
X5.2104Y-2.4047
X5.2183Y-2.1528
X5.2197Y-4.8449
X5.2197Y-4.8921
X5.2256Y-4.4051
X5.2256Y-4.4445
X5.2291Y-1.8142
X5.2291Y-1.8575
X5.2293Y-3.5591
X5.2301Y-2.6444
X5.2301Y-2.6877
X5.2303Y-5.6333
X5.2327Y-5.7217
X5.2327Y-5.761
X5.2341Y-2.5071
X5.2482Y-5.9701
X5.2482Y-6.0481
X5.2498Y-2.1843
X5.2498Y-3.5366
X5.25Y-6.09
X5.2722Y-3.5547
X5.2836Y-6.0091
X5.2892Y-2.5386
X5.297Y-2.1843
X5.297Y-2.5858
X5.2992Y-2.811
X5.2994Y-6.1705
X5.3073Y-5.9185
X5.3112Y-5.9697
X5.3112Y-3.5535
X5.3167Y-2.9406
X5.3191Y-6.1193
X5.3207Y-2.2394
X5.3207Y-2.6409
X5.3309Y-6.1941
X5.3315Y-5.7177
X5.3315Y-5.7571
X5.3364Y-1.763
X5.3364Y-1.8024
X5.3384Y-3.5622
X5.3386Y-2.8346
X5.3418Y-3.3294
X5.3427Y-6.017
X5.3443Y-2.5622
X5.3466Y-5.9185
X5.3589Y-3.5772
X5.36Y-2.7748
X5.3624Y-6.0957
X5.3632Y-5.2731
X5.3632Y-5.3124
X5.3671Y-4.9896
X5.3738Y-3.6783
X5.3742Y-6.1233
X5.3758Y-2.2472
X5.3758Y-2.2866
X5.3758Y-2.6094
X5.3758Y-2.6567
X5.3778Y-3.6449
X5.378Y-2.8425
X5.378Y-3.0787
X5.3851Y-6.0461
X5.386Y-6.1666
X5.386Y-6.1913
X5.3899Y-5.9855
X5.3949Y-4.4445
X5.3957Y-5.1319
X5.3957Y-5.1673
X5.3994Y-3.6921
X5.4014Y-3.5362
X5.4014Y-3.6232
X5.4057Y-6.0091
X5.4065Y-4.9896
X5.4094Y-5.0524
X5.4152Y-3.7236
X5.4171Y-3.0091
X5.4331Y-2.0079
X5.4331Y-2.0472
X5.4343Y-4.4051
X5.4343Y-4.4445
X5.435Y-5.3105
X5.435Y-5.3614
X5.4381Y-3.2217
X5.4381Y-3.261
X5.4388Y-2.2472
X5.4388Y-2.2866
X5.4388Y-2.6094
X5.4388Y-2.6567
X5.4409Y-3.9528
X5.4417Y-5.702
X5.4417Y-5.7729
X5.442Y-2.9382
X5.4449Y-5.029
X5.4459Y-4.9896
X5.4508Y-5.1319
X5.4508Y-5.1673
X5.4567Y-2.8425
X5.459Y-3.5839
X5.459Y-4.0563
X5.4705Y-3.0827
X5.4705Y-3.1181
X5.4724Y-2.0472
X5.4772Y-5.702
X5.4772Y-5.7729
X5.4781Y-2.515
X5.4801Y-2.1488
X5.4803Y-2.4331
X5.4803Y-2.4724
X5.4814Y-2.9382
X5.49Y-1.7236
X5.5018Y-2.2472
X5.5018Y-2.2866
X5.5018Y-2.6094
X5.5018Y-2.6567
X5.5087Y-3.26
X5.5088Y-5.2731
X5.5088Y-5.3124
X5.5096Y-3.327
X5.5111Y-6.0811
X5.519Y-6.1402
X5.5208Y-2.9382
X5.5256Y-3.0827
X5.5256Y-3.1181
X5.5512Y-1.7087
X5.5669Y-1.7402
X5.5726Y-3.0386
X5.5726Y-4.7909
X5.576Y-3.5665
X5.576Y-3.8224
X5.576Y-4.035
X5.5837Y-3.261
X5.5909Y-5.639
X5.5925Y-5.8341
X5.5978Y-4.7287
X5.5984Y-4.0
X5.5998Y-4.7031
X5.6107Y-5.702
X5.6107Y-5.7729
X5.612Y-2.324
X5.612Y-2.3634
X5.612Y-2.4028
X5.612Y-2.4421
X5.614Y-1.6075
X5.614Y-1.6469
X5.614Y-1.6862
X5.614Y-1.7256
X5.614Y-2.9343
X5.6154Y-3.5665
X5.6154Y-3.6059
X5.6154Y-3.8224
X5.6154Y-4.035
X5.6154Y-4.0744
X5.6154Y-4.1138
X5.6157Y-4.224
X5.6193Y-4.586
X5.6272Y-4.6606
X5.6307Y-5.5996
X5.6307Y-5.639
X5.6307Y-5.8359
X5.6469Y-4.8102
X5.6587Y-4.5465
X5.6587Y-4.5858
X5.6593Y-6.0624
X5.6614Y-2.9843
X5.6626Y-4.7236
X5.6671Y-4.1803
X5.6705Y-4.8535
X5.6789Y-2.3713
X5.6809Y-1.6547
X5.685Y-5.3124
X5.689Y-4.9896
X5.6902Y-4.6331
X5.6902Y-4.7276
X5.6929Y-2.9843
X5.698Y-4.5465
X5.6993Y-5.9403
X5.6993Y-6.0625
X5.7177Y-4.7236
X5.7185Y-5.1339
X5.7185Y-5.1693
X5.7222Y-1.9736
X5.7222Y-2.0091
X5.7222Y-2.0445
X5.7222Y-2.0799
X5.7283Y-4.9896
X5.7301Y-1.4598
X5.7301Y-1.4992
X5.7301Y-1.5386
X5.7313Y-5.0563
X5.7321Y-4.5879
X5.7335Y-4.7816
X5.7335Y-4.8063
X5.7335Y-4.831
X5.7335Y-4.8558
X5.7336Y-4.5524
X5.7358Y-3.6654
X5.7358Y-3.7047
X5.738Y-2.2
X5.738Y-2.2394
X5.738Y-2.2787
X5.738Y-2.6902
X5.738Y-2.7256
X5.738Y-2.761
X5.738Y-2.7965
X5.7472Y-4.6075
X5.7493Y-6.0163
X5.7518Y-3.8614
X5.7537Y-3.9913
X5.7562Y-4.6521
X5.7579Y-5.3144
X5.7579Y-5.3656
X5.7589Y-2.9372
X5.7593Y-6.1523
X5.7603Y-4.2253
X5.761Y-4.6764
X5.7613Y-5.8863
X5.7656Y-3.95
X5.7677Y-5.029
X5.7695Y-1.4598
X5.7695Y-1.4992
X5.7695Y-1.5386
X5.7736Y-5.1339
X5.7736Y-5.1693
X5.7774Y-2.2
X5.7774Y-2.2394
X5.7774Y-2.2787
X5.7793Y-6.0503
X5.7793Y-6.0883
X5.7874Y-3.0807
X5.7874Y-3.1161
X5.7925Y-4.7551
X5.7983Y-2.9372
X5.7993Y-6.1521
X5.7997Y-5.9259
X5.8Y-4.2266
X5.8003Y-4.1031
X5.8036Y-6.1272
X5.8089Y-1.4598
X5.8089Y-1.4992
X5.8089Y-1.5386
X5.8161Y-4.7039
X5.8167Y-2.2
X5.8167Y-2.2394
X5.8167Y-2.2787
X5.8201Y-4.6724
X5.824Y-4.7551
X5.8276Y-3.2591
X5.8276Y-3.324
X5.8285Y-4.5878
X5.8307Y-5.2731
X5.8307Y-5.3124
X5.8325Y-4.2886
X5.8377Y-2.9372
X5.8413Y-5.9543
X5.8425Y-3.0807
X5.8425Y-3.1161
X5.8461Y-3.6496
X5.8461Y-3.7205
X5.8503Y-4.1792
X5.8603Y-4.3152
X5.8613Y-5.9123
X5.8623Y-4.0492
X5.8713Y-4.6606
X5.8713Y-4.6921
X5.8803Y-4.2132
X5.8803Y-4.2512
X5.8815Y-3.6496
X5.8815Y-3.7205
X5.8817Y-4.3673
X5.8853Y-5.8183
X5.8853Y-5.8603
X5.8973Y-6.0623
X5.9007Y-3.2207
X5.9007Y-3.26
X5.9007Y-4.0888
X5.9033Y-2.6941
X5.9053Y-1.9776
X5.9099Y-5.4185
X5.9112Y-2.4421
X5.9132Y-1.7256
X5.9132Y-3.1134
X5.9166Y-5.0496
X5.9211Y-2.0209
X5.9213Y-1.685
X5.9213Y-2.4016
X5.926Y-3.6409
X5.927Y-4.315
X5.9323Y-5.026
X5.9388Y-2.6941
X5.9407Y-1.9776
X5.9407Y-4.2906
X5.9423Y-4.1172
X5.9447Y-4.4776
X5.9613Y-6.0223
X5.9623Y-4.0752
X5.9821Y-2.698
X5.9841Y-1.9815
X5.9853Y-5.9503
X5.9863Y-3.9812
X5.9863Y-4.0232
X5.9959Y-3.7846
X5.9983Y-4.2252
X6.0047Y-4.5819
X6.0051Y-4.4642
X6.0051Y-4.5425
X6.0133Y-5.4078
X6.0146Y-3.6498
X6.0146Y-3.7207
X6.0215Y-2.698
X6.0234Y-1.9815
X6.0315Y-3.3937
X6.035Y-3.5472
X6.035Y-3.5866
X6.035Y-3.7835
X6.0401Y-4.8389
X6.0406Y-4.5031
X6.0558Y-5.0003
X6.0563Y-4.6646
X6.0603Y-5.6825
X6.0623Y-4.1852
X6.063Y-3.4016
X6.0637Y-4.7484
X6.0642Y-4.4126
X6.0676Y-4.7995
X6.0681Y-4.4638
X6.0687Y-2.698
X6.0707Y-1.9815
X6.0755Y-4.9491
X6.076Y-4.6134
X6.0799Y-4.7157
X6.0837Y-2.9382
X6.0863Y-4.1132
X6.0873Y-5.024
X6.0878Y-4.6882
X6.0938Y-5.5112
X6.0977Y-5.6825
X6.0991Y-4.8468
X6.0996Y-4.511
X6.1031Y-4.7484
X6.1035Y-4.4126
X6.112Y-2.698
X6.1122Y-3.0827
X6.1122Y-3.1181
X6.114Y-1.9815
X6.1188Y-4.9255
X6.1193Y-4.5898
X6.1231Y-2.9382
X6.1306Y-4.9531
X6.1307Y-2.0645
X6.1311Y-4.6173
X6.1312Y-5.5112
X6.1415Y-4.8759
X6.1417Y-2.0866
X6.1417Y-2.7323
X6.142Y-4.5401
X6.1424Y-4.9964
X6.1424Y-5.0211
X6.1429Y-4.6606
X6.1429Y-4.6854
X6.1464Y-4.8153
X6.1469Y-4.4795
X6.1479Y-3.6772
X6.1479Y-3.7157
X6.1496Y-2.7638
X6.1504Y-3.261
X6.1504Y-3.3201
X6.1621Y-4.8389
X6.1625Y-2.9382
X6.1626Y-4.5031
X6.1673Y-3.0827
X6.1673Y-3.1181
X6.1794Y-3.8319
X6.1811Y-2.0866
X6.1811Y-2.7874
X6.1868Y-4.2315
X6.1888Y-4.2748
X6.2026Y-4.948
X6.206Y-5.1707
X6.2217Y-5.8321
X6.2222Y-3.7937
X6.2255Y-3.261
X6.2289Y-3.4563
X6.2341Y-2.6902
X6.2345Y-3.6744
X6.236Y-1.9736
X6.2385Y-4.1311
X6.2407Y-4.3772
X6.2424Y-4.2217
X6.2503Y-3.95
X6.2503Y-3.9894
X6.2503Y-4.0445
X6.2577Y-2.7059
X6.2596Y-1.9894
X6.2596Y-2.9431
X6.2611Y-5.6057
X6.2611Y-5.8321
X6.2628Y-4.3583
X6.2739Y-3.6744
X6.2739Y-3.7138
X6.2774Y-2.6902
X6.2793Y-1.9736
X6.2813Y-4.265
X6.2818Y-4.1921
X6.2829Y-4.3747
X6.2872Y-4.7197
X6.2872Y-4.7453
X6.2897Y-3.95
X6.2897Y-3.9894
X6.2911Y-4.7827
X6.2959Y-4.0862
X6.2986Y-4.8862
X6.3018Y-4.3587
X6.3049Y-2.7059
X6.3069Y-1.9894
X6.3089Y-4.8083
X6.3093Y-4.4661
X6.3093Y-4.5445
X6.3098Y-4.5839
X6.3133Y-3.7138
X6.3246Y-2.6902
X6.3246Y-4.7236
X6.3266Y-1.9736
X6.329Y-3.95
X6.3386Y-3.2008
X6.3408Y-4.0445
X6.3408Y-4.1469
X6.3435Y-4.8713
X6.3442Y-4.8409
X6.3447Y-4.5051
X6.3482Y-2.698
X6.3502Y-1.9815
X6.3549Y-4.5602
X6.36Y-5.0023
X6.3604Y-4.6665
X6.3645Y-4.1626
X6.3661Y-3.185
X6.3678Y-4.7503
X6.3683Y-4.4146
X6.3718Y-4.8015
X6.3722Y-4.4657
X6.3723Y-4.1075
X6.3796Y-4.9511
X6.3801Y-4.6154
X6.3802Y-4.0209
X6.3831Y-5.8105
X6.3876Y-2.698
X6.3896Y-1.9815
X6.3915Y-5.0259
X6.3919Y-4.6902
X6.4016Y-3.2283
X6.4033Y-4.8488
X6.4035Y-3.2697
X6.4037Y-4.513
X6.4072Y-4.7503
X6.4077Y-4.4146
X6.4225Y-5.399
X6.4225Y-5.4384
X6.423Y-4.9275
X6.4234Y-4.5917
X6.4252Y-3.2953
X6.4275Y-3.6626
X6.4275Y-3.7295
X6.4304Y-5.1573
X6.4309Y-2.698
X6.4329Y-1.9815
X6.4348Y-4.9551
X6.4352Y-4.6193
X6.4368Y-3.4303
X6.4374Y-5.6154
X6.4457Y-4.8778
X6.4461Y-4.5421
X6.4466Y-4.9984
X6.4466Y-5.0231
X6.447Y-4.6626
X6.447Y-4.6873
X6.4505Y-4.8173
X6.451Y-4.4815
X6.4526Y-4.578
X6.459Y-3.6626
X6.459Y-3.7295
X6.4619Y-6.0447
X6.4619Y-6.0841
X6.4663Y-4.8409
X6.4667Y-4.5051
X6.4742Y-2.698
X6.4742Y-5.1567
X6.4762Y-1.9815
X6.4768Y-5.6154
X6.4978Y-5.1665
X6.5012Y-5.399
X6.5051Y-4.0075
X6.5077Y-4.9874
X6.5118Y-1.4646
X6.5118Y-1.5039
X6.5118Y-2.189
X6.5118Y-2.2205
X6.5185Y-3.3988
X6.5193Y-5.1543
X6.5215Y-2.4697
X6.5215Y-2.5012
X6.5234Y-1.7531
X6.5234Y-1.7846
X6.5249Y-5.6097
X6.5254Y-2.698
X6.5254Y-2.7492
X6.5274Y-1.9815
X6.5274Y-2.0327
X6.5411Y-5.1665
X6.5425Y-4.0075
X6.5512Y-2.9528
X6.5608Y-2.698
X6.5628Y-1.9815
X6.5628Y-5.139
X6.5648Y-2.4697
X6.5648Y-2.5012
X6.5667Y-1.7531
X6.5667Y-1.7846
X6.5687Y-2.2492
X6.5689Y-4.7047
X6.5689Y-4.7433
X6.5697Y-3.3988
X6.5707Y-1.5327
X6.5707Y-5.1685
X6.5771Y-3.5996
X6.5844Y-4.6051
X6.5866Y-2.9252
X6.5888Y-2.3516
X6.5907Y-1.635
X6.5943Y-3.6557
X6.5953Y-3.7285
X6.6028Y-5.2886
X6.6061Y-5.1409
X6.6081Y-2.4697
X6.6081Y-2.5012
X6.6081Y-2.698
X6.61Y-1.7531
X6.61Y-1.7846
X6.61Y-1.9815
X6.6164Y-3.5996
X6.6185Y-5.468
X6.6238Y-2.3988
X6.6238Y-2.4264
X6.6258Y-1.6823
X6.6258Y-1.7098
X6.6264Y-5.3122
X6.6278Y-2.7374
X6.6297Y-2.0209
X6.6356Y-2.139
X6.6376Y-1.4224
X6.6406Y-3.0593
X6.6415Y-5.1685
X6.6422Y-5.4601
X6.6435Y-2.698
X6.6455Y-1.9815
X6.6474Y-2.4697
X6.6474Y-2.5012
X6.6494Y-1.7531
X6.6494Y-1.7846
X6.6555Y-4.702
X6.6614Y-2.7795
X6.6665Y-3.6256
X6.6665Y-3.665
X6.6665Y-3.8776
X6.6665Y-4.1177
X6.6665Y-4.1571
X6.6665Y-4.1965
X6.6665Y-4.2358
X6.6671Y-4.328
X6.6697Y-5.468
X6.673Y-2.139
X6.6745Y-6.0841
X6.677Y-1.4224
X6.685Y-2.7323
X6.6868Y-2.698
X6.6888Y-1.9815
X6.6949Y-4.702
X6.6949Y-4.7413
X6.6961Y-5.9246
X6.6973Y-5.4618
X6.7008Y-2.9449
X6.7047Y-2.9724
X6.7059Y-3.6256
X6.7059Y-3.665
X6.7059Y-3.8776
X6.7059Y-4.1177
X6.7059Y-4.1571
X6.7059Y-4.1965
X6.7059Y-4.2358
X6.7085Y-2.0209
X6.7138Y-6.0447
X6.7138Y-6.0841
X6.7222Y-2.698
X6.7222Y-4.5465
X6.7242Y-1.9815
X6.7283Y-2.9961
X6.7286Y-5.275
X6.7325Y-4.9522
X6.7343Y-4.7413
X6.738Y-2.3752
X6.74Y-1.6587
X6.7559Y-2.7559
X6.7572Y-2.668
X6.7579Y-5.0945
X6.7579Y-5.1299
X6.7616Y-1.9638
X6.7644Y-4.5051
X6.7719Y-4.9522
X6.7749Y-4.9949
X6.7795Y-2.7402
X6.7807Y-3.1459
X6.7813Y-4.6016
X6.7833Y-4.4264
X6.7925Y-3.1931
X6.7951Y-2.9402
X6.7964Y-3.0947
X6.8005Y-5.0063
X6.8005Y-5.277
X6.8005Y-5.3203
X6.8031Y-2.7244
X6.8113Y-4.9522
X6.8114Y-6.1644
X6.813Y-5.0945
X6.813Y-5.1299
X6.8167Y-1.515
X6.8167Y-1.5465
X6.8167Y-3.7807
X6.8167Y-3.9382
X6.8187Y-3.8201
X6.8187Y-3.8988
X6.8197Y-4.1547
X6.8207Y-3.0425
X6.8246Y-1.6055
X6.8246Y-1.6449
X6.8246Y-1.6843
X6.8246Y-1.7236
X6.8246Y-2.324
X6.8246Y-2.3634
X6.8246Y-2.4028
X6.8246Y-2.4421
X6.8246Y-2.9913
X6.8266Y-6.1449
X6.8268Y-2.7087
X6.8285Y-4.4057
X6.8344Y-2.889
X6.8354Y-4.2089
X6.8364Y-3.9579
X6.8384Y-3.9185
X6.8443Y-3.0681
X6.8443Y-3.8004
X6.8463Y-3.8378
X6.8482Y-2.9146
X6.8482Y-2.9657
X6.8484Y-4.6902
X6.8484Y-4.7571
X6.8502Y-3.0169
X6.8515Y-3.2325
X6.8522Y-1.515
X6.8522Y-1.5465
X6.8522Y-3.7256
X6.8534Y-6.1414
X6.8555Y-3.3776
X6.8555Y-3.413
X6.8561Y-3.7709
X6.8713Y-5.5959
X6.8743Y-5.2357
X6.8743Y-5.275
X6.8778Y-6.137
X6.8799Y-4.6902
X6.8799Y-4.7571
X6.8876Y-1.515
X6.8876Y-1.5465
X6.8909Y-3.1262
X6.8915Y-1.6528
X6.8915Y-2.3713
X6.8949Y-4.4445
X6.8988Y-3.1813
X6.8988Y-4.4051
X6.9099Y-5.6823
X6.9099Y-5.7217
X6.9107Y-5.5959
X6.9112Y-4.2709
X6.925Y-3.5504
X6.9286Y-5.9327
X6.9289Y-3.578
X6.9304Y-6.0526
X6.9338Y-5.0405
X6.9348Y-5.0114
X6.9506Y-1.9717
X6.9506Y-2.0071
X6.9506Y-2.0425
X6.9506Y-2.078
X6.9506Y-2.6902
X6.9506Y-2.7256
X6.964Y-5.9717
X6.9663Y-1.4913
X6.9663Y-1.5307
X6.9663Y-1.5701
X6.9663Y-3.5465
X6.9685Y-2.2126
X6.9685Y-2.252
X6.9685Y-2.2913
X6.9736Y-3.3736
X6.9798Y-6.1331
X6.9835Y-4.9512
X6.9877Y-5.8811
X6.9916Y-5.9323
X6.9919Y-3.8201
X6.998Y-4.6272
X6.9995Y-6.0819
X6.9998Y-3.0307
X7.0011Y-3.1577
X7.0011Y-3.2049
X7.0057Y-1.4913
X7.0057Y-1.5307
X7.0057Y-1.5701
X7.0079Y-2.2126
X7.0079Y-2.252
X7.0079Y-2.2913
X7.0087Y-4.6931
X7.0098Y-2.6909
X7.0098Y-2.7264
X7.0113Y-6.1567
X7.0116Y-4.7581
X7.0119Y-5.6803
X7.0119Y-5.7197
X7.0156Y-4.1862
X7.0215Y-3.0543
X7.0231Y-5.9796
X7.0234Y-3.7925
X7.027Y-5.8811
X7.0274Y-2.9421
X7.0287Y-3.1774
X7.0313Y-2.9067
X7.0374Y-4.6272
X7.0428Y-6.0583
X7.0436Y-5.275
X7.0451Y-1.4913
X7.0451Y-1.5307
X7.0451Y-1.5701
X7.0472Y-2.2126
X7.0472Y-2.252
X7.0472Y-2.2913
X7.0475Y-4.9522
X7.049Y-3.076
X7.0546Y-6.0859
X7.0589Y-2.9283
X7.0648Y-3.1232
X7.0655Y-6.0087
X7.0664Y-6.1292
X7.0664Y-6.1539
X7.0703Y-5.9481
X7.0728Y-5.0945
X7.0728Y-5.1299
X7.0746Y-2.9618
X7.0759Y-2.8073
X7.0805Y-4.2256
X7.0825Y-4.1862
X7.0861Y-5.9717
X7.0869Y-4.9522
X7.0953Y-4.7018
X7.0953Y-4.7404
X7.1114Y-3.3736
X7.1114Y-3.413
X7.1153Y-2.8073
X7.1154Y-5.2731
X7.1154Y-5.324
X7.1159Y-1.9756
X7.1159Y-2.6941
X7.1219Y-4.8594
X7.1221Y-5.6646
X7.1221Y-5.7355
X7.1238Y-1.7236
X7.1238Y-2.4421
X7.1238Y-3.2217
X7.1253Y-4.9916
X7.1258Y-3.1705
X7.1262Y-4.9522
X7.128Y-5.0945
X7.128Y-5.1299
X7.1317Y-2.0189
X7.1317Y-2.7374
X7.1339Y-1.6457
X7.1396Y-6.139
X7.1417Y-2.378
X7.1514Y-1.9756
X7.1514Y-2.6941
X7.1547Y-4.4051
X7.1547Y-4.4445
X7.1575Y-5.6646
X7.1575Y-5.7355
X7.1711Y-4.8181
X7.1732Y-2.1181
X7.1732Y-2.1496
X7.1819Y-4.699
X7.1892Y-5.2357
X7.1892Y-5.275
X7.1947Y-1.9795
X7.1947Y-2.698
X7.1947Y-6.015
X7.2019Y-2.8073
X7.2087Y-2.1181
X7.2087Y-2.1496
X7.2213Y-4.699
X7.2213Y-4.7384
X7.2341Y-1.9795
X7.2341Y-2.698
X7.2357Y-3.1262
X7.2403Y-3.0273
X7.2441Y-2.1181
X7.2441Y-2.1496
X7.2606Y-4.7384
X7.2649Y-2.953
X7.2713Y-5.6016
X7.2729Y-5.7967
X7.2813Y-1.9795
X7.2813Y-2.698
X7.2918Y-5.6666
X7.2918Y-5.7374
X7.3111Y-5.5622
X7.3111Y-5.6016
X7.3111Y-5.7984
X7.3122Y-3.3736
X7.3122Y-3.413
X7.3226Y-3.5701
X7.3246Y-1.9795
X7.3246Y-2.698
X7.3397Y-6.025
X7.3465Y-2.0079
X7.3465Y-2.7244
X7.3465Y-5.4882
X7.3489Y-5.2412
X7.3516Y-4.4051
X7.3516Y-4.4445
X7.3543Y-2.0315
X7.3543Y-2.748
X7.3592Y-5.467
X7.3622Y-2.7874
X7.3654Y-5.275
X7.3694Y-4.9522
X7.3748Y-4.6872
X7.3748Y-4.7541
X7.378Y-2.0787
X7.3797Y-5.9029
X7.3797Y-6.0251
X7.3937Y-2.7874
X7.3947Y-3.2165
X7.3976Y-5.0984
X7.3976Y-5.1339
X7.4035Y-5.4469
X7.4063Y-4.6872
X7.4063Y-4.7541
X7.4087Y-4.9522
X7.4094Y-2.0787
X7.4173Y-4.5866
X7.4297Y-5.9789
X7.4341Y-2.9457
X7.437Y-4.5472
X7.4383Y-5.277
X7.4383Y-5.3282
X7.439Y-5.4469
X7.4397Y-6.1149
X7.4417Y-5.8489
X7.4467Y-1.9717
X7.4467Y-2.6902
X7.4481Y-4.9522
X7.4481Y-4.9916
X7.4528Y-5.0984
X7.4528Y-5.1339
X7.4565Y-3.8516
X7.4597Y-6.0129
X7.4597Y-6.0509
X7.4683Y-3.5681
X7.4703Y-1.9874
X7.4703Y-2.7059
X7.4762Y-3.8713
X7.4797Y-6.1147
X7.4801Y-5.8885
X7.49Y-1.9717
X7.49Y-2.6902
X7.4902Y-6.0827
X7.4939Y-3.5563
X7.4959Y-3.698
X7.5037Y-3.5839
X7.5096Y-3.6626
X7.5111Y-5.2357
X7.5111Y-5.275
X7.5175Y-1.9874
X7.5175Y-2.7059
X7.5209Y-4.4445
X7.5217Y-5.9169
X7.5244Y-4.6242
X7.5333Y-3.5642
X7.5352Y-3.6429
X7.5352Y-3.6823
X7.5372Y-1.9717
X7.5372Y-2.6902
X7.5417Y-5.8749
X7.55Y-4.6833
X7.551Y-4.7581
X7.5602Y-4.4051
X7.5602Y-4.4445
X7.5608Y-1.9795
X7.5608Y-2.698
X7.5638Y-4.6242
X7.5657Y-5.7809
X7.5657Y-5.8229
X7.5709Y-4.5827
X7.5717Y-3.2177
X7.5717Y-3.2571
X7.5756Y-2.9343
X7.5777Y-6.0249
X7.5854Y-3.5839
X7.5984Y-4.5709
X7.6002Y-1.9795
X7.6002Y-2.698
X7.6024Y-3.0768
X7.6024Y-3.1122
X7.6081Y-6.1606
X7.615Y-2.9343
X7.615Y-2.974
X7.6299Y-2.6929
X7.6337Y-3.4264
X7.6417Y-5.9849
X7.6425Y-3.2581
X7.6435Y-1.9795
X7.6435Y-3.322
X7.6543Y-2.9343
X7.6545Y-2.9744
X7.6573Y-5.5406
X7.6575Y-3.0768
X7.6575Y-3.1122
X7.6657Y-5.9129
X7.6671Y-4.8142
X7.6693Y-1.9764
X7.677Y-3.4402
X7.6863Y-4.9938
X7.6868Y-2.7087
X7.6967Y-4.8742
X7.702Y-3.5665
X7.702Y-3.8224
X7.702Y-4.035
X7.7055Y-6.1596
X7.7087Y-1.6457
X7.7163Y-3.4264
X7.7165Y-1.7008
X7.7173Y-3.2571
X7.7281Y-4.76
X7.7281Y-4.7994
X7.7311Y-6.1606
X7.7321Y-4.9372
X7.7323Y-2.315
X7.7341Y-1.7512
X7.7341Y-1.7827
X7.7341Y-2.4697
X7.7341Y-2.5012
X7.7341Y-4.7079
X7.738Y-1.9843
X7.738Y-2.0307
X7.738Y-2.698
X7.738Y-2.7492
X7.7396Y-3.6539
X7.74Y-5.0671
X7.7402Y-1.6772
X7.7413Y-3.5665
X7.7413Y-3.6059
X7.7413Y-3.8224
X7.7413Y-4.035
X7.7417Y-4.1846
X7.7417Y-4.224
X7.7478Y-3.4461
X7.7518Y-4.637
X7.752Y-4.7313
X7.7567Y-6.1606
X7.7596Y-4.8467
X7.7596Y-4.9411
X7.7638Y-2.3307
X7.7656Y-2.9274
X7.7675Y-4.76
X7.7734Y-1.9795
X7.7734Y-2.698
X7.7774Y-1.7512
X7.7774Y-1.7827
X7.7774Y-2.4697
X7.7774Y-2.5012
X7.7813Y-1.5307
X7.7813Y-2.2492
X7.7823Y-6.1606
X7.7872Y-4.9372
X7.7874Y-1.6614
X7.7893Y-2.3691
X7.801Y-4.015
X7.8015Y-4.8015
X7.803Y-4.9951
X7.803Y-5.0199
X7.803Y-5.0446
X7.803Y-5.0694
X7.8039Y-4.7659
X7.8069Y-3.5642
X7.8167Y-4.8211
X7.8207Y-1.7512
X7.8207Y-1.7827
X7.8207Y-1.9795
X7.8207Y-2.4697
X7.8207Y-2.5012
X7.8207Y-2.698
X7.8236Y-4.6124
X7.8257Y-4.8657
X7.8276Y-4.703
X7.8305Y-4.89
X7.8312Y-4.2217
X7.8344Y-4.0307
X7.8352Y-3.5665
X7.8354Y-4.4313
X7.8354Y-4.4707
X7.8354Y-4.5258
X7.8356Y-3.3646
X7.8364Y-1.6803
X7.8364Y-2.3988
X7.8404Y-2.0189
X7.8404Y-2.7374
X7.8415Y-2.9315
X7.8425Y-2.3543
X7.8463Y-3.6055
X7.8482Y-1.4205
X7.8482Y-2.139
X7.8516Y-3.6624
X7.8516Y-3.7018
X7.8537Y-4.7941
X7.8561Y-1.9795
X7.8561Y-2.698
X7.86Y-1.7512
X7.86Y-1.7827
X7.86Y-2.4697
X7.86Y-2.5012
X7.862Y-4.9687
X7.8669Y-4.6734
X7.8669Y-4.703
X7.8712Y-4.0995
X7.8748Y-4.4313
X7.8748Y-4.4707
X7.881Y-4.5675
X7.8856Y-1.4205
X7.8856Y-4.9175
X7.8856Y-5.1134
X7.8866Y-3.2167
X7.8866Y-3.2561
X7.8876Y-2.139
X7.8896Y-4.886
X7.8906Y-2.9333
X7.8935Y-4.9687
X7.8994Y-1.9795
X7.8994Y-2.698
X7.8994Y-4.3299
X7.9132Y-4.2748
X7.9142Y-4.4313
X7.9152Y-4.4906
X7.9171Y-5.1173
X7.9173Y-3.0768
X7.9173Y-3.1122
X7.9191Y-2.0189
X7.9191Y-2.7374
X7.9212Y-4.1756
X7.926Y-4.5258
X7.926Y-4.6281
X7.9299Y-2.9333
X7.9309Y-3.637
X7.9312Y-4.3116
X7.9332Y-4.0456
X7.9348Y-1.9795
X7.9348Y-2.698
X7.9407Y-4.8742
X7.9407Y-4.9057
X7.9496Y-4.6439
X7.9506Y-1.6567
X7.9506Y-2.3752
X7.9512Y-4.2096
X7.9512Y-4.2476
X7.9526Y-4.4717
X7.9528Y-1.435
X7.9545Y-4.6803
X7.9575Y-4.5888
X7.9585Y-3.2561
X7.9585Y-3.322
X7.9618Y-3.6467
X7.9618Y-3.7175
X7.9654Y-4.5022
X7.9663Y-1.9559
X7.9693Y-2.9333
X7.9716Y-4.0851
X7.9722Y-4.3122
X7.9724Y-3.0768
X7.9724Y-3.1122
X7.9742Y-2.6803
X7.9959Y-2.998
X7.9972Y-3.6467
X7.9972Y-3.7175
X8.0132Y-4.1136
X8.0157Y-1.4567
X8.0157Y-1.4882
X8.0236Y-5.189
X8.0292Y-4.2218
X8.0323Y-3.2561
X8.0332Y-4.0716
X8.0447Y-3.1195
X8.0512Y-1.4567
X8.0512Y-1.4882
X8.0572Y-3.9776
X8.0572Y-4.0196
X8.0591Y-5.1929
X8.0638Y-5.0465
X8.0692Y-4.2216
X8.0866Y-1.4567
X8.0866Y-1.4882
X8.0874Y-4.7984
X8.0943Y-1.6449
X8.0953Y-4.8732
X8.111Y-3.5443
X8.111Y-3.7807
X8.112Y-4.6764
X8.115Y-5.0228
X8.1268Y-3.7108
X8.1268Y-4.7591
X8.1268Y-4.7984
X8.1297Y-3.6488
X8.1307Y-4.9362
X8.1386Y-5.0661
X8.1455Y-1.9283
X8.1455Y-1.9598
X8.1474Y-2.2256
X8.1474Y-2.2571
X8.1474Y-2.4205
X8.1474Y-2.452
X8.1474Y-2.5189
X8.1474Y-2.5504
X8.1494Y-2.0287
X8.1494Y-2.0602
X8.1494Y-2.1272
X8.1494Y-2.1587
X8.1494Y-2.322
X8.1494Y-2.3535
X8.1508Y-3.5443
X8.1508Y-3.5837
X8.1508Y-3.7805
X8.1572Y-4.1096
X8.1583Y-4.8457
X8.1583Y-4.9402
X8.1661Y-4.7591
X8.1701Y-2.9303
X8.175Y-3.9343
X8.1809Y-1.9283
X8.1809Y-1.9598
X8.1809Y-4.014
X8.1829Y-2.2256
X8.1829Y-2.2571
X8.1829Y-2.4205
X8.1829Y-2.452
X8.1829Y-2.5189
X8.1829Y-2.5504
X8.1848Y-2.0287
X8.1848Y-2.0602
X8.1848Y-2.1272
X8.1848Y-2.1587
X8.1848Y-2.322
X8.1848Y-2.3535
X8.1858Y-4.9362
X8.1907Y-3.9618
X8.1927Y-1.6449
X8.2002Y-4.8005
X8.2016Y-4.9942
X8.2016Y-5.0189
X8.2016Y-5.0436
X8.2016Y-5.0684
X8.2026Y-4.765
X8.2055Y-3.2561
X8.2094Y-2.9333
X8.2154Y-4.8201
X8.2163Y-1.9283
X8.2163Y-1.9598
X8.2183Y-2.2256
X8.2183Y-2.2571
X8.2183Y-2.4205
X8.2183Y-2.452
X8.2183Y-2.5189
X8.2183Y-2.5504
X8.2203Y-2.0287
X8.2203Y-2.0602
X8.2203Y-2.1272
X8.2203Y-2.1587
X8.2203Y-2.322
X8.2203Y-2.3535
X8.2243Y-4.8647
X8.2278Y-4.2236
X8.2281Y-4.2531
X8.2291Y-4.889
X8.2421Y-3.0768
X8.2421Y-3.1122
X8.2459Y-4.6104
X8.2498Y-4.701
X8.2528Y-2.9333
X8.2528Y-2.973
X8.2559Y-3.6622
X8.2559Y-3.7016
X8.2577Y-4.4293
X8.2577Y-4.4687
X8.2577Y-4.5238
X8.2606Y-4.9677
X8.2678Y-4.1015
X8.2774Y-5.4756
X8.2813Y-3.2551
X8.2813Y-3.322
X8.2843Y-4.9165
X8.2882Y-4.885
X8.2892Y-1.5602
X8.2892Y-4.701
X8.2911Y-1.6449
X8.2911Y-1.6862
X8.2921Y-2.9333
X8.2921Y-4.9677
X8.297Y-4.4293
X8.297Y-4.4687
X8.297Y-4.7965
X8.2972Y-3.0768
X8.2972Y-3.1122
X8.303Y-4.5661
X8.3089Y-5.5701
X8.3177Y-5.7404
X8.3178Y-4.1776
X8.3207Y-5.697
X8.3226Y-3.7256
X8.3246Y-5.6311
X8.3278Y-4.3136
X8.3285Y-5.4953
X8.3298Y-4.0476
X8.3325Y-3.6409
X8.3325Y-5.1065
X8.3344Y-5.2236
X8.3364Y-4.4293
X8.3364Y-4.4618
X8.3384Y-5.2827
X8.3384Y-5.322
X8.3394Y-4.8732
X8.3394Y-4.9047
X8.3404Y-2.7197
X8.3404Y-2.7512
X8.3404Y-5.1449
X8.3413Y-5.1843
X8.3413Y-5.8339
X8.3463Y-1.8516
X8.3463Y-1.8831
X8.3478Y-4.2116
X8.3478Y-4.2496
X8.3482Y-4.5238
X8.3482Y-4.6262
X8.3541Y-5.078
X8.3551Y-3.2167
X8.3551Y-3.2561
X8.3661Y-3.6465
X8.3661Y-3.7173
X8.3678Y-4.3133
X8.3682Y-4.0871
X8.3719Y-4.6419
X8.3758Y-2.7197
X8.3758Y-2.7512
X8.3758Y-4.4657
X8.3797Y-4.5868
X8.3817Y-1.8516
X8.3817Y-1.8831
X8.3837Y-4.2748
X8.3876Y-4.5002
X8.3896Y-1.6449
X8.3896Y-3.5878
X8.3925Y-3.4707
X8.3999Y-5.8555
X8.4016Y-2.8661
X8.4016Y-3.6465
X8.4016Y-3.7173
X8.4058Y-5.3614
X8.4058Y-5.5583
X8.4058Y-5.6567
X8.4073Y-5.1636
X8.4073Y-5.203
X8.4093Y-5.3024
X8.4097Y-5.263
X8.4097Y-5.4598
X8.4098Y-4.1156
X8.4112Y-2.7197
X8.4112Y-2.7512
X8.4112Y-5.6193
X8.4152Y-5.3358
X8.4152Y-5.7433
X8.4171Y-1.8516
X8.4171Y-1.8831
X8.4171Y-5.1055
X8.4171Y-5.4894
X8.423Y-5.7157
X8.425Y-5.6813
X8.427Y-5.8102
X8.428Y-5.2423
X8.4298Y-4.0736
X8.4331Y-2.8425
X8.4447Y-4.7689
X8.4447Y-5.137
X8.4538Y-3.9796
X8.4538Y-4.0216
X8.4567Y-2.8189
X8.4658Y-4.2236
X8.4663Y-4.7453
X8.4742Y-4.887
X8.486Y-4.7197
X8.4944Y-5.0209
X8.4983Y-5.9185
X8.5037Y-4.6882
X8.5039Y-2.9606
X8.5039Y-2.9921
X8.5039Y-3.0236
X8.5154Y-3.5441
X8.5298Y-4.1836
X8.5333Y-3.7197
X8.5352Y-3.6449
X8.5538Y-4.1116
X8.5551Y-3.5441
X8.5551Y-3.5835
X8.5551Y-3.7803
T5
X7.8293Y-5.5016
X7.8297Y-5.3025
X7.8297Y-5.4025
X7.8297Y-5.6016
X7.8297Y-5.7016
X7.8297Y-5.8016
X7.9293Y-5.5016
X7.9297Y-5.3025
X7.9297Y-5.4025
X7.9297Y-5.6016
X7.9297Y-5.7016
X7.9297Y-5.8016
X8.0293Y-5.5016
X8.0297Y-5.3025
X8.0297Y-5.4025
X8.0297Y-5.6016
X8.0297Y-5.7016
X8.0297Y-5.8016
X8.1293Y-5.5016
X8.1297Y-5.3025
X8.1297Y-5.4025
X8.1297Y-5.6016
X8.1297Y-5.7016
X8.1297Y-5.8016
T6
X3.7242Y-2.0839
T7
X3.1496Y-1.4567
X3.1496Y-3.8583
X3.1496Y-6.1417
X4.0551Y-3.8583
X4.0551Y-6.1417
X8.5118Y-1.4567
X8.5118Y-6.1417
T8
X3.2813Y-2.6213
X3.5648Y-2.6213
T2
G00X3.1415Y-5.0553
M15
G01X3.1159Y-5.0553
M16
G05
G00X3.1415Y-5.3329
M15
G01X3.1159Y-5.3329
M16
G05
G00X3.1415Y-5.4943
M15
G01X3.1159Y-5.4943
M16
G05
G00X3.1415Y-5.7719
M15
G01X3.1159Y-5.7719
M16
G05
T3
G00X3.235Y-5.0898
M15
G01X3.235Y-5.1016
M16
G05
G00X3.235Y-5.2866
M15
G01X3.235Y-5.2984
M16
G05
G00X3.235Y-5.5287
M15
G01X3.235Y-5.5406
M16
G05
G00X3.235Y-5.7256
M15
G01X3.235Y-5.7374
M16
G05
T4
G00X3.2793Y-1.8476
M15
G01X3.3266Y-1.8476
M16
G05
G00X3.2793Y-2.3201
M15
G01X3.3266Y-2.3201
M16
G05
G00X3.4624Y-2.1114
M15
G01X3.4624Y-2.0563
M16
G05
G00X3.4841Y-1.8476
M15
G01X3.5313Y-1.8476
M16
G05
G00X3.4841Y-2.3201
M15
G01X3.5313Y-2.3201
M16
G05
T0
M30
